<?xml version="1.0" encoding="utf-8"?>
<!-- Generator: Adobe Illustrator 20.1.0, SVG Export Plug-In . SVG Version: 6.00 Build 0)  -->
<svg version="1.1" id="Слой_1" xmlns="http://www.w3.org/2000/svg" xmlns:xlink="http://www.w3.org/1999/xlink" x="0px" y="0px"
	 viewBox="0 0 690.4 155.5" style="enable-background:new 0 0 690.4 155.5;" xml:space="preserve">
<style type="text/css">
	.st0{clip-path:url(#SVGID_2_);fill:#FFFFFF;}
</style>
<g>
	<defs>
		<rect id="SVGID_1_" width="690.4" height="155.5"/>
	</defs>
	<clipPath id="SVGID_2_">
		<use xlink:href="#SVGID_1_"  style="overflow:visible;"/>
	</clipPath>
	<path class="st0" d="M20.3,99.5c1.8,0,16.1,0,22.6,0c1,0,1.4-0.2,1.9-1.1c0.3-0.5,1.4-2.8,1.6-3.3c0.7-1.6,0.7-1.7,0.4-3
		C41.1,60.5,50.7,44.6,61.3,36c9.3-7.6,20.4-7.8,30.6-7.8c5.2,0,58.2,0,58.2,0c1.8,0,3.1-0.2,3.9-1.8c0,0,6.4-12.7,8.6-17
		c1-2,1.3-2.3,1.3-5.1c0-2.6,0.3-3.6-1.4-3.6c-19.4,0-66.1-0.1-77.9-0.1c-28.9,0-48,11.7-58.7,28.6c-7.6,11.9-11.8,25.1-12,43
		c-0.1,5.7,0.8,17.6,3,25C17.5,98.7,18,99.5,20.3,99.5"/>
	<path class="st0" d="M73.6,86.9c2.6,6.2,1.7,12.5-2,14.1c-3.7,1.5-8.8-2.3-11.4-8.5c-2.6-6.2-1.7-12.5,2-14.1
		C65.9,76.9,71,80.7,73.6,86.9"/>
	<path class="st0" d="M78.1,66.7c2.2,5.3,1.4,10.6-1.7,11.9c-3.1,1.3-7.4-1.9-9.6-7.2c-2.2-5.3-1.4-10.6,1.7-11.9
		C71.6,58.2,75.9,61.5,78.1,66.7"/>
	<path class="st0" d="M83.8,49.9c1.9,4.5,1.2,9.1-1.5,10.2c-2.7,1.1-6.4-1.6-8.2-6.2c-1.9-4.5-1.2-9.1,1.5-10.2S81.9,45.4,83.8,49.9
		"/>
	<path class="st0" d="M84.3,79.5c-5.4,4.1-7.8,10-5.4,13.2c2.4,3.2,8.8,2.5,14.1-1.6c5.4-4.1,7.8-10,5.4-13.2
		C96,74.7,89.7,75.4,84.3,79.5"/>
	<path class="st0" d="M88.5,59.9c-4.5,3.5-6.5,8.5-4.4,11.2c2.1,2.7,7.4,2,11.9-1.5c4.5-3.5,6.5-8.5,4.4-11.2
		C98.3,55.7,93,56.4,88.5,59.9"/>
	<path class="st0" d="M92.6,42.2c-3.7,3.2-5.1,7.6-3.2,9.8c1.9,2.2,6.4,1.3,10.1-1.9c3.7-3.2,5.1-7.6,3.2-9.8
		C100.8,38.1,96.3,39,92.6,42.2"/>
	<path class="st0" d="M143.6,41.4c-1.8,0-16.1,0-22.6,0c-1,0-1.4,0.2-1.9,1.1c-0.3,0.5-1.4,2.8-1.6,3.3c-0.7,1.6-0.7,1.7-0.4,3
		c5.8,31.7-3.8,47.5-14.4,56.2c-9.3,7.6-20.4,7.8-30.6,7.8c-5.2,0-58.2,0-58.2,0c-1.8,0-3.1,0.2-3.9,1.8c0,0-6.4,12.7-8.6,17
		c-1,2-1.3,2.3-1.3,5.1c0,2.6-0.3,3.6,1.4,3.6c19.4,0,66.1,0.1,77.9,0.1c28.9,0,48-11.7,58.7-28.6c7.6-11.9,11.8-25.1,12-43
		c0.1-5.7-0.8-17.6-3-25C146.4,42.2,145.9,41.4,143.6,41.4"/>
	<path class="st0" d="M199.4,56.3l-4.1,5h-7.8v-2.4l5.9-7.3c-4.7-5-7.5-12-7.5-21.1c0-19.1,13.1-29.9,29.4-29.9
		c6,0,11.6,1.5,16.3,4.3l3.9-4.9h7.9v2.4l-6,7.3c4.5,5.1,7.3,12,7.3,20.7c0,19.1-12.7,29.5-29.5,29.5
		C209.3,60,203.9,58.7,199.4,56.3 M205.6,36.6l16.2-19.8c-1.7-2-4-2.9-6.6-2.9c-6,0-10,4.8-10,16.6
		C205.2,32.8,205.3,34.8,205.6,36.6 M225.3,30.6c0-2.1-0.2-4-0.4-5.6l-16.1,19.7c1.6,1.7,3.8,2.6,6.3,2.6
		C221.2,47.2,225.3,42.3,225.3,30.6"/>
	<polygon class="st0" points="254,1.5 273.6,1.5 273.6,23.2 290.2,1.5 307.5,1.5 307.5,5 291.5,24.8 309.1,55.6 309.1,59.1 
		289.5,59.1 277.3,37.6 273.6,41.7 273.6,59.1 254,59.1 	"/>
	<path class="st0" d="M312.4,30.4c0-19.1,13.1-29.9,29.3-29.9c16.4,0,29.5,10.8,29.5,29.9c0,19.1-12.7,29.5-29.5,29.5
		C325,60,312.4,49.5,312.4,30.4 M351.4,30.6c0-11.6-3.9-16.2-9.7-16.2c-5.7,0-9.6,4.7-9.6,16.2c0,11.5,3.9,16.2,9.6,16.2
		C347.5,46.7,351.4,42.1,351.4,30.6"/>
	<polygon class="st0" points="380.2,59.1 380.2,1.5 399.8,1.5 399.8,46 417,46 419,49.4 419,59.1 	"/>
	<path class="st0" d="M422.5,30.6c0-19.1,13.1-29.9,29.4-29.9c16.4,0,29.4,10.8,29.4,29.9c0,19.1-12.6,29.5-29.4,29.5
		C435.1,60.1,422.5,49.7,422.5,30.6 M461.5,30.7c0-11.5-3.9-16.2-9.6-16.2c-5.8,0-9.6,4.7-9.6,16.2s3.9,16.2,9.6,16.2
		C457.7,46.9,461.5,42.2,461.5,30.7"/>
	<path class="st0" d="M488.8,31c0-19.6,11.9-30.3,31.9-30.3c7.8,0,13.3,1.4,18.1,3.9v13.1h-7.8c-2.1-1.6-5.4-3.1-10-3.1
		c-8.1,0-12.3,4.3-12.3,16.4c0,12.5,3,16.5,9.7,16.5c2.2,0,3.7-0.2,4.8-0.6v-8.1h-5.4V27.7h23.5v28c-6.3,2.9-14.2,4.4-22.7,4.4
		C497.7,60.1,488.8,49.5,488.8,31"/>
	<rect x="552.3" y="1.6" class="st0" width="19.6" height="57.6"/>
	<path class="st0" d="M581.9,55.6V43.1h7.7c2.1,2.1,6,3.7,10.9,3.7c4.6,0,7.2-1.2,7.2-3.9c0-3.4-3.1-3.8-9.2-5.1
		c-10.5-2.3-17-6.3-17-18.5c0-12.5,9.6-18.6,23.4-18.6c7.8,0,13.8,1.6,18.5,4v12.1h-7.8c-2-1.5-5.9-2.9-10.1-2.9
		c-4.7,0-6.7,1.2-6.7,3.6c0,2.8,2.5,3.5,8.1,4.6c14.7,3,19.2,7.9,19.2,18.9c0,11.9-8.6,19.1-24.8,19.1
		C592.8,60.1,586.3,58.3,581.9,55.6"/>
	<polygon class="st0" points="635.3,1.6 654.9,1.6 654.9,23.3 671.6,1.6 688.9,1.6 688.9,5.2 672.8,24.9 690.4,55.7 690.4,59.3 
		670.8,59.3 658.7,37.8 654.9,41.9 654.9,59.3 635.3,59.3 	"/>
	<path class="st0" d="M187,139.9V74.4h1.7c2.7,0,3,0.6,3,4.5v61H187z"/>
	<path class="st0" d="M231.7,133.3c-4.2,4.4-8.7,7.1-16.7,7.1c-9.1,0-15.7-5-15.7-14.2c0-9.8,8.2-14.4,19.6-14.4
		c4.7,0,8.8,0.5,12.8,1.5v-8.8c0-7.6-4.9-10.3-12-10.3c-7.2,0-12.1,1.8-15.2,4.3h-2v-3.9c4-2.2,9.4-4.2,17.3-4.2
		c9.9,0,16.5,3.7,16.5,13.8v35.6H235c-2.7,0-3.4-0.8-3.4-4.8V133.3z M231.7,128.8v-12c-3.7-0.8-7.9-1.5-12.5-1.5
		c-8.6,0-15.1,3.1-15.1,10.6c0,7.7,5,10.9,11.6,10.9C223.5,136.7,227.8,133.3,231.7,128.8"/>
	<path class="st0" d="M252.4,98.9c5.5-4.4,12.8-8.3,21.4-8.3c6.8,0,12.7,2.8,12.7,13v36.4h-4.7v-35.7c0-7.8-4.2-9.7-9.7-9.7
		c-7.2,0-14.1,4-19.7,8.3v37.1h-4.7V91.2h2.2c2,0,2.5,0.5,2.5,4.9V98.9z"/>
	<path class="st0" d="M332.1,131.5c-3.9,5-10.2,8.8-17.9,8.8c-9.8,0-19.3-6.2-19.3-24.4c0-18.9,10.9-25.4,20.9-25.4
		c7.7,0,12.6,2.4,16.3,6.1V74.4h1.5c2.8,0,3.2,0.6,3.2,4.5v61h-2.5c-2,0-2.2-0.9-2.3-5.4V131.5z M332.1,126.7v-25.9
		c-3.8-4.1-8.4-6.6-15.5-6.6c-8.2,0-16.9,4.5-16.9,21.5c0,16.2,7.7,20.9,15,20.9C322.7,136.6,327.9,132.4,332.1,126.7"/>
	<path class="st0" d="M345.2,135.7v-3.8h1.9c2.3,2.1,6.6,4.8,13.7,4.8c9,0,13.2-3.8,13.2-10.5c0-5.7-3.1-8.1-13.1-9.6
		c-9.3-1.5-15.2-4.8-15.2-13c0-8.4,6.7-13,16.4-13c7.1,0,11.4,1.9,14.1,3.7V98h-1.9c-2.6-2.1-5.9-3.8-12.2-3.8
		c-7.9,0-12.1,3-12.1,8.9c0,5.7,3.3,7.8,12.8,9.4c10.2,1.6,15.8,4.7,15.8,13.3c0,9-5.5,14.5-17.7,14.5
		C352.5,140.3,347.9,137.8,345.2,135.7"/>
	<path class="st0" d="M382.5,91.2h6.4v-4.9c0-8.6,4.9-12.2,11.4-12.2c2.7,0,4.8,0.2,6,0.5V78h-4.8c-5.1,0-7.9,1.8-7.9,8.6v4.6h11.8
		v3.6h-11.8v45.2h-4.7V94.7h-6.4V91.2z"/>
	<path class="st0" d="M406.4,115.5c0-15.3,9.2-24.9,22.6-24.9c13.7,0,22.8,9.6,22.8,24.9c0,15.5-9.1,24.9-22.8,24.9
		C415.6,140.3,406.4,130.9,406.4,115.5 M447,115.5c0-13.3-6.8-21.2-18-21.2c-11,0-17.9,8-17.9,21.2c0,13.4,6.8,21.2,17.9,21.2
		C440.2,136.6,447,128.9,447,115.5"/>
	<path class="st0" d="M465,99.6c3.7-4.5,9.1-8.8,16-8.8c1.2,0,2.1,0.2,2.2,0.3v3.8c0,0-1.2-0.1-2-0.1c-7.1,0-12.3,4.6-16.2,9.2v36
		h-4.7V91.2h2.1c2.1,0,2.5,0.5,2.5,5.3V99.6z"/>
	<path class="st0" d="M508.2,136.5c7.8,0,12.6-2.5,15.2-5.1h2.1v3.5c-3.5,2.7-8.8,5.4-17.7,5.4c-14.7,0-22.8-9.5-22.8-24.6
		c0-15.4,9.2-25.2,21.6-25.2c12,0,20,7,20,22.9c0,0.9-0.1,2-0.1,2.3h-36.8C489.6,129.3,496.1,136.5,508.2,136.5 M489.8,112.1h32.1
		c-0.3-13-6.2-18-15.3-18C497.5,94.1,490.9,100.1,489.8,112.1"/>
	<path class="st0" d="M539.5,98.9c5.5-4.4,12.8-8.3,21.5-8.3c6.8,0,12.6,2.8,12.6,13v36.4h-4.7v-35.7c0-7.8-4.2-9.7-9.7-9.7
		c-7.2,0-14.1,4-19.7,8.3v37.1h-4.7V91.2h2.2c2.1,0,2.5,0.5,2.5,4.9V98.9z"/>
	<path class="st0" d="M584.2,80.5c0-1.7,1.4-3.2,3.2-3.2c1.8,0,3.2,1.5,3.2,3.2c0,1.8-1.4,3.1-3.2,3.1
		C585.6,83.6,584.2,82.2,584.2,80.5 M584.9,139.9V91.2h1.5c2.8,0,3.2,0.5,3.2,5v43.7H584.9z"/>
	<path class="st0" d="M605.8,98.9c5.5-4.4,12.8-8.3,21.4-8.3c6.8,0,12.7,2.8,12.7,13v36.4h-4.7v-35.7c0-7.8-4.3-9.7-9.8-9.7
		c-7.2,0-14.2,4-19.7,8.3v37.1h-4.7V91.2h2.1c2.1,0,2.5,0.5,2.5,4.9V98.9z"/>
	<path class="st0" d="M690.4,139.4c0,10.7-9.4,16.1-20.7,16.1c-8.3,0-14.9-2-18.6-4.3v-3.7h1.9c3.1,2.4,9,4.3,16.2,4.3
		c9.1,0,16.5-3.5,16.5-12.7v-8.2c-4.1,4.9-10.2,8.6-18.1,8.6c-9.5,0-19.1-6.2-19.1-23.9c0-18.5,10.8-25.1,20.9-25.1
		c7.5,0,12.7,2.5,16.2,6.1c0.3-2.9,0.7-5.5,3.2-5.5h1.5V139.4z M685.6,126V101c-4-4.2-8.4-6.7-15.4-6.7c-8.1,0-17,4.2-17,21.1
		c0,16,7.7,20.5,15,20.5C676.1,135.9,681.5,131.6,685.6,126"/>
</g>
</svg>
