<svg id="Layer_1" data-name="Layer 1" xmlns="http://www.w3.org/2000/svg" viewBox="0 0 54.26 33.36"><title>Ikoner + vandmærker NY</title><path d="M43.29,11.43a10.88,10.88,0,0,0-4.54,1l-4.42-7.8,5-2.82a1,1,0,0,0-1-1.69l-5.82,3.3a1,1,0,0,0-.37,1.32l2,3.47-6.28,11a3.31,3.31,0,0,0-.72-.09,3.28,3.28,0,0,0-.7.08L18.51,5.24h3.23a1,1,0,0,0,0-1.94H12a1,1,0,0,0,0,1.94h4.24l1.65,2.91L15.5,12.43a11,11,0,1,0,6.38,10.92H24a3.28,3.28,0,1,0,5.52-3.2l5.71-10,1.82,3.21a11,11,0,1,0,6.23-2ZM16.23,15.08a9,9,0,0,1,3.71,6.33h-7.3ZM11,31.42a9,9,0,1,1,3.58-17.31L10.12,21.9A1,1,0,0,0,11,23.35h9A9,9,0,0,1,11,31.42Zm13-10H21.88a11,11,0,0,0-4.69-8L19,10.11l5.69,10A3.27,3.27,0,0,0,24,21.41Zm3.13,2.31a1.35,1.35,0,1,1,1.35-1.35A1.35,1.35,0,0,1,27.13,23.72Zm16.16,7.7A9,9,0,0,1,38,15.08l4.42,7.78a1,1,0,1,0,1.69-1l-4.42-7.79a9,9,0,1,1,3.58,17.3Z"/></svg>