<svg id="Lag_2" data-name="Lag 2" xmlns="http://www.w3.org/2000/svg" viewBox="0 0 1060.35 1135.94"><title>gummistøvler</title><path d="M11.11,800.53C36.2,820.77,65.67,831.75,96.3,840,141.6,852.1,188,856.44,234.7,857.32c76,1.44,151.31-6.82,226.42-17.91C493,834.72,525,831.19,557,828.12a186.44,186.44,0,0,0,27.62-31.75c26.28-38.32,36.95-84.27,33.56-144.61-1.16-20.56-3.52-41.62-5.81-62-.66-5.83-1.33-11.85-2-17.79-3.77-34.89-7.79-69.26-10.87-95.3-3.84-32.43-8-66.87-13.56-111.67-3.09-25-6.31-50.48-9.42-75.09q-2.13-16.86-4.25-33.73l-4.43-35.24-1.82-14.45-2.3-18.32H863.93q1.56-59.58,2.7-119.17c.47-22.89.08-45.79.08-69h-477c2.1,16.75,4.17,33.22,6.24,49.69,4.56,36.28,9.19,72.56,13.68,108.85q6.9,55.86,13.57,111.75,5.65,47.71,10.89,95.47c2.9,26.85,6.34,53.69,7.86,80.62,3.09,55-4.25,107.89-36.39,154.74-25,36.4-59.52,61-98.86,79.49-44,20.67-90.73,32.35-138.49,40.27-34.83,5.78-70.32,7.83-104.27,18.58C47.22,744.76,30.82,750.64,17,761.85a56.07,56.07,0,0,0-9.44,9.75C-1.69,783.94-.83,790.9,11.11,800.53Z"/><path d="M225.24,930.93a117.51,117.51,0,0,1,20.38-.61q3-1,5.93-1.92c2.45-.78,4.91-1.5,7.37-2.19,7.76-2.19,15.55-4,23.34-5.53,15.07-3,30.13-5,44.89-7,5.78-.77,11.67-1.56,17.54-2.4,4.49-.64,9-1.31,13.38-2l4.69-.79c51.89-8.91,93.16-21.07,129.54-38.15q10.84-5.09,20.66-10.63c-42.57,5.28-85.09,11-127.7,15.93-63.31,7.31-126.86,10.56-190.54,5.94-50.72-3.68-100.63-11.64-147.47-33-16.62-7.57-32-17-45-30.1l-2.08.42c0,15.69-.41,31.4.17,47.07.31,8.2,6.19,13.81,12.53,18.36,17.09,12.29,36.95,17.28,58,21.8l.84-16.38c14.07-2.93,16.91-2.69,23.22,9.55,7.83,15.19,18.41,23.35,36.1,23.31,11.07,0,22.15,2.94,34.06,4.69v-23c9.65-1.54,18.08-2.44,23.1,7.79C195.77,927.58,207.89,933.41,225.24,930.93Z"/><path d="M989.08,1043.49c-32.74,1-65.5,2.08-98.19,4.13-42.47,2.65-85,5.18-127.29,9.74-62,6.69-123.79,15.57-185.76,22.73-63.31,7.31-126.86,10.56-190.54,5.94-50.72-3.68-100.63-11.64-147.47-33-16.62-7.57-32-17-45-30.1l-2.08.42c0,15.69-.41,31.4.17,47.07.31,8.2,6.19,13.81,12.53,18.36,17.09,12.29,36.95,17.28,58,21.8l.84-16.38c14.07-2.93,16.91-2.69,23.22,9.55,7.83,15.19,18.41,23.35,36.1,23.31,11.07,0,22.15,2.94,34.06,4.69v-23c9.65-1.54,18.08-2.44,23.1,7.79,7.59,15.47,19.71,21.3,37.06,18.82,10.75-1.53,21.89-.28,33.68-.28v-25.21c8.17-2,14.42-1.27,18,6.61,6.54,14.48,17.53,19.32,33.25,17.28,11-1.43,22.38-.28,34.56-.28v-32.88c4.19,0,7.56-.57,10.6.2,2.1.53,4.78,2.6,5.38,4.54,2.24,7.26,3.73,14.75,5.68,22.93,11.39-1.77,22.42-3.46,33.44-5.21,7.55-1.2,15-2.82,22.63-3.63,5.06-.54,8.63-2.2,10.19-7.28,3.53-11.49,10.59-15.91,23.33-16.75,47.95-3.18,95.78-8,143.66-12.21,1.38-.12,2.79,0,4.91,0v36.07c10.43,0,20.17.22,29.88-.19,1.9-.08,3.92-2.39,5.52-4,7.34-7.54,15.36-14.61,21.6-23,7.59-10.19,17.17-10.31,28.67-8.64v35.84c11.69,0,22.6.13,33.49-.14,1.54,0,3.21-1.84,4.51-3.13,7.78-7.79,16.12-15.14,23-23.65,7.28-9,15.86-11.42,27.49-8.78v35.34h78.66v-75.49C1029.6,1043.38,1009.33,1042.9,989.08,1043.49Z"/><path d="M1060.2,202.49h-477c2.1,16.75,4.17,33.22,6.24,49.69Q596.26,306.6,603.09,361q6.9,55.86,13.57,111.75,5.65,47.71,10.89,95.47c2.9,26.85,6.34,53.69,7.86,80.62,3.09,55-4.25,107.89-36.39,154.74-1.25,1.82-2.53,3.61-3.83,5.37l-.56.77q-1.86,2.51-3.79,4.93l-.72.91q-1.94,2.41-3.93,4.76l-.62.71q-2.1,2.44-4.27,4.81h0q-1.71,1.86-3.47,3.67l-.93,1q-1.49,1.53-3,3l-.6.59q-1.84,1.79-3.72,3.54l-.58.53q-1.68,1.55-3.4,3.07l-.6.53q-4,3.51-8.16,6.82l-.38.3q-4.28,3.4-8.72,6.6-5.5,4-11.22,7.64l-.09.06q-2.78,1.79-5.61,3.51l-.37.22q-2.83,1.72-5.7,3.38h0q-2.9,1.67-5.85,3.28l-.22.12q-2.77,1.51-5.58,3l-.86.45q-2.72,1.41-5.47,2.77l-.88.43q-2.85,1.4-5.72,2.75c-2.18,1-4.37,2-6.57,3q-2.86,1.27-5.74,2.5h0q-13.1,5.61-26.47,10.27l-1.21.43c-1.71.59-3.43,1.17-5.14,1.75l-2.91,1-4.38,1.41-4.06,1.26-3.55,1.08q-3.78,1.12-7.57,2.2c-1.5.42-3,.82-4.52,1.23-1.3.35-2.59.71-3.89,1.06-1.68.44-3.37.87-5.06,1.29l-3.33.84c-1.87.46-3.75.91-5.63,1.35l-2.73.65q-3.1.72-6.21,1.4l-2.11.47q-3.37.73-6.75,1.43l-1.54.32q-3.63.74-7.28,1.45l-1,.19q-3.89.75-7.79,1.46l-.43.08q-4.11.74-8.22,1.45l-4.41.75q-4,.66-8,1.26l-1.44.21q-3.74.56-7.49,1.08h0q-6.82,1-13.65,1.85l-9.86,1.32-4.47.61-2.23.31-3.93.56-2,.29-5.33.81-1.51.24-4.52.74-1.48.25q-2.76.48-5.51,1l-1.4.27q-2.43.46-4.86,1l-1.07.22q-2.8.58-5.59,1.22l-1.36.32q-2.6.61-5.2,1.26l-.62.15q-2.82.72-5.62,1.52l-1.35.39c-1.9.55-3.8,1.11-5.69,1.71-16.69,5.29-33.08,11.17-46.89,22.38a56.07,56.07,0,0,0-9.44,9.75c-9.26,12.34-8.4,19.31,3.54,28.94,25.09,20.24,54.56,31.22,85.18,39.42,45.31,12.14,91.68,16.48,138.4,17.37,76,1.44,151.31-6.82,226.42-17.91,40.41-6,81.13-10,121.83-13.69,45.72-4.09,91.53-7.57,137.37-9.77,44.18-2.12,88.46-2.27,132.7-3.29,1.38,0,2.75-.19,5.44-.39-.87-18-1.21-35.66-2.65-53.2-5.3-64.63-17.06-128.3-28.91-192-5.22-28.06-3.15-56.33,1.51-84.26,9.28-55.58,19.84-111,28.55-166.63,3.57-22.83,4.52-46.17,5.26-69.33,1.91-59.28,3.19-118.58,4.4-177.88C1060.59,248.61,1060.2,225.7,1060.2,202.49Z"/></svg>