<svg id="Layer_1" data-name="Layer 1" xmlns="http://www.w3.org/2000/svg" viewBox="0 0 51.84 54.84"><defs><style>.cls-1{fill-rule:evenodd;}</style></defs><title>Ikoner + vandmærker NY</title><path class="cls-1" d="M7.62,21.35h9.65V28H7.62V21.35Zm0,9.71h9.65V37.7H7.62V31.06Zm0,9.71h9.65v6.64H7.62V40.77Zm13.47,0h9.65v6.64H21.1V40.77Zm13.47,0h9.65v6.64H34.57V40.77ZM21.1,31.06h9.65V37.7H21.1V31.06Zm13.47,0h9.65V37.7H34.57V31.06ZM21.1,21.35h9.65V28H21.1V21.35Zm13.47,0h9.65V28H34.57V21.35Z"/><path class="cls-1" d="M39.56,2.46V6.63c0,3.27-3.33,3.28-3.33,0V2.46c0-3.28,3.33-3.27,3.33,0Z"/><path class="cls-1" d="M3.55,6H9.6V8.33c0,5.72,8.69,5.71,8.69,0h0V6H33.56V8.33c0,5.72,8.69,5.71,8.69,0h0V6h6.05a3.56,3.56,0,0,1,3.55,3.55v41.7a3.56,3.56,0,0,1-3.55,3.55H3.55A3.56,3.56,0,0,1,0,51.29V9.59A3.56,3.56,0,0,1,3.55,6ZM5,17.4H46.89a1.74,1.74,0,0,1,1.74,1.74V49.82a1.74,1.74,0,0,1-1.74,1.74H5a1.74,1.74,0,0,1-1.74-1.74V19.14A1.74,1.74,0,0,1,5,17.4Z"/><path class="cls-1" d="M15.61,2.46V6.63c0,3.27-3.33,3.28-3.33,0V2.46c0-3.28,3.33-3.27,3.33,0Z"/></svg>