<?xml version="1.0" encoding="utf-8"?>
<!-- Generator: Adobe Illustrator 21.0.2, SVG Export Plug-In . SVG Version: 6.00 Build 0)  -->
<svg version="1.1" id="Layer_1" xmlns="http://www.w3.org/2000/svg" xmlns:xlink="http://www.w3.org/1999/xlink" x="0px" y="0px"
	 viewBox="0 0 26 26.6" style="enable-background:new 0 0 26 26.6;" xml:space="preserve">
<style type="text/css">
	.st0{fill:#15464B;}
</style>
<title>2101_X_menu-svg-</title>
<path class="st0" d="M16.6,13.3l8.6-8.7c1-1.1,1-2.7,0-3.8c-1-1-2.7-1-3.7,0l-8.6,8.7L4.5,1h0c-1-1-2.7-1-3.7,0c-1,1.1-1,2.7,0,3.8
	l8.3,8.4l-8.3,8.4c-1,1.1-1,2.7,0,3.8c1,1,2.7,1,3.7,0l0,0l8.3-8.4l8.6,8.7c1,1,2.7,1,3.7,0c1-1.1,1-2.7,0-3.8L16.6,13.3z"/>
</svg>
