<svg id="Layer_1" data-name="Layer 1" xmlns="http://www.w3.org/2000/svg" viewBox="0 0 53.34 35.88"><title>Ikoner + vandmærker NY</title><path d="M9.4,0c.23-.15.3.25.19.55a4,4,0,0,1-.82,1.26c.14.11.27.23.42.34a4.47,4.47,0,0,1,1.69-1c.55-.15,1.48-.27,1.87.16a.88.88,0,0,1,.18.62,2,2,0,0,1-.49,1.41,2.09,2.09,0,0,1-1.25.56,6.88,6.88,0,0,0,3,1.67c8.3-1,9.4.72,13.67,1a58.42,58.42,0,0,0,6.27.1A20.63,20.63,0,0,0,36.69,6c1.14-.22,7.08-.92,8.21-.62,1.94.4,2.51,3.44,2.56,3.52,3.53,5.8,3.91,7.37,4.46,9.76.19.85.93,5.25.94,5.33a3,3,0,0,1-.31-.63A5.3,5.3,0,0,0,53,24.8c1.13,2.09-.88-.35-1-.44a5.06,5.06,0,0,1-1-1.91,6.81,6.81,0,0,0,0,1c-.9-.95.29-3.92.31-4,.14-.58-1.17-4.42-3.59-7.51,0,5.85,0,6.77,1,9.34a1.09,1.09,0,0,1,.07.77c-1.47,3.48-.38,8.41-.48,9.87,0,.39-.27.45-.39.52-.4.15-.42,1-.38,1.44a.65.65,0,0,1,0,.35,4.11,4.11,0,0,1-3.06.41c-.11,0-.28-.09-.27-.24a5,5,0,0,1,.57-1.14,7.15,7.15,0,0,0,.94-2.23,11.46,11.46,0,0,0-1.09-7c0,1.16,0,.61-.37,1.62a15.88,15.88,0,0,0-.93,6.63c0,.48.09,1.13-.35,1.26s-.59.87-.48,1.47a.52.52,0,0,1-.18.5A4.28,4.28,0,0,1,39,35.6c-.13-.08,0-.25,0-.36C40.5,32.6,42.39,29,40.42,24.76c-.1,0-.25,0-.32.1-.34,1.57-.74.45-.93.1h-1c-.27,1-.5.13-.86-.12a18.65,18.65,0,0,1-2.79-.7,1.81,1.81,0,0,0-1-.22,25.28,25.28,0,0,1-11.71-.23,12.49,12.49,0,0,1-.19,2.52,7.55,7.55,0,0,0-.3,1A13.71,13.71,0,0,0,22,31c.36,1.22-.24.83-.31,1.34a11.78,11.78,0,0,0,0,1.8,1.27,1.27,0,0,1-.55.43,3,3,0,0,1-2.48,0,.54.54,0,0,1,0-.56c.57-1.13,1.1-1.49,1.12-2a17.15,17.15,0,0,0-.44-3.67,14.9,14.9,0,0,1-1.1-2.64c-.19.55.05,1.12,0,1.69a5.76,5.76,0,0,1-.36.95,7.38,7.38,0,0,0,0,3.75c.25,1.09.11.77-.21,1.11a12.7,12.7,0,0,0-.07,1.51.64.64,0,0,1-.23.59c-.78.4-3.08.5-3-.4a.88.88,0,0,1,.21-.5c1.74-2.92,1.47-4,1.42-5.18-.15-1.9-1.09-2.42-1.48-5.08a6,6,0,0,1-2-2.42c0-.08-2.89-8-5.66-10.92-.8.35-1,0-1.68-.11a3.78,3.78,0,0,0-2,.37,2.7,2.7,0,0,1-1.52.21A3.93,3.93,0,0,1,0,9.43,3,3,0,0,1,.18,8,.68.68,0,0,1,.5,7.62C1.82,6.95,3,6.13,3,4.41a2.08,2.08,0,0,1-1.17-.57,1.88,1.88,0,0,1-.74-1.23C1,2,2.43,1.78,3,2.09a5.18,5.18,0,0,1,.61.37A5.32,5.32,0,0,1,4.11,2C4,1.95,3.14,1.14,3,.73s.84.24,1.12.37a4,4,0,0,0,.73.3c.08,0,.24-.07.36-.13a2.86,2.86,0,0,1,2.69,0A4.71,4.71,0,0,0,9.4,0Z"/></svg>