<svg id="Layer_1" data-name="Layer 1" xmlns="http://www.w3.org/2000/svg" viewBox="0 0 56.69 56.69"><defs><style>.cls-1{fill:#ffffff;}</style></defs><title>Ikoner + vandmærker NY</title><path class="cls-1" d="M52.17,29c-.82.9-1.53,3.69-2.28,3.47s-1-1.75-1.65-2.39-.27-2.07-4,1.87a6.16,6.16,0,0,0-.3-4.86c-1.27-2.69-2.69-3.59-3.29-3.29a3,3,0,0,0-.6.46,4.06,4.06,0,0,0-1.46-4.09c-1.65-1.2-4.49-4-3.81-6.06s1.49-2.46,2.77-2.47c2.59,0,2.59-5.91,1.41-5.91-.46,0-.83,2.79-3.29,4.55a5.2,5.2,0,0,0-1.34,7.57c2.32,3.29,3.51,2.84,4.19,4.71a3.92,3.92,0,0,1-.35,2.89c-.54-.42-1.24-1.57-1.77-1-.67.75-1.27,2.77-3.66,4.11s-6.13,2.54-8.75-1-2.69-5.16-2.69-5.16,1.27-1.87,1.42-2.17,1.75,2.3,3.51,1.14,0-2.82-1.81-3.59c0,0,.62-.55.17-1.07s-.71-.3-1.25-1.64-.81-1.87-1.65-1.57-2.41,1.35-3.38.23-.22-1.94-1-3.29S10,10,10.49,12.13s3.07,7.7,5.83,9.65a7.4,7.4,0,0,1-1.2,6.8c-2.54,3.36-4,7-1.87,8.9,0,0-3.37,2.47-5.53,3.74S.77,45.7,1.14,47s4.41,1.42,5.38-.45.33-2.77,2.37-3.66a44.78,44.78,0,0,1,5.28-1.73s1.24-.29,1.32-.29-.56,4.46.33,5.66,7.48.22,8.75.37.15-1.27-1-2.09a2.82,2.82,0,0,0-2.69-.45c-1,.15-2.69.67-2.92-.3a3.58,3.58,0,0,1,.56-2.21,9.94,9.94,0,0,0,3,.57,32.88,32.88,0,0,0,7.7-.31c-.44.35-.82.78-.6,1.17.38.67,1.22-.16,1.62-.88a2.88,2.88,0,0,0,.69.5c-.42.56-1,1.5-.5,2,.6.71,1.26-.7,1.42-1.75a3.83,3.83,0,0,0,1,0,5.25,5.25,0,0,0,1.24-.26c.17.71.5,1.64,1,1.61.69,0,.59-1.08,0-2.13a3.68,3.68,0,0,0,.49-.41c.45.54,1.07,1.12,1.47.91.59-.32.11-1.17-.78-1.87a4.35,4.35,0,0,0,.43-1.62c.2-.12,1.76-.25,2-.38a20.31,20.31,0,0,1,.76,4.34c-.08,1.35-3,4.22-3,6.15,0,1.6.42,1.18,2.09.47,1.38-.58,1.74-.9,1.74-2.8,0-1.2-.5-2.63,0-3.68s2.77-1.5,2.4-2.62a2.52,2.52,0,0,1,.13-2,24.5,24.5,0,0,0,1.65-2.14c1.12-1.57,2-2.69,2.54-2.69s3.44,3.43,7.93-2C57.38,29.26,53,28.1,52.17,29Z"/></svg>
