<svg id="Layer_1" data-name="Layer 1" xmlns="http://www.w3.org/2000/svg" viewBox="0 0 40.25 53.69"><title>Ikoner + vandmærker NY</title><path d="M5.79,53.66c-.17,0-2.77-.17-3.22-2.12-.24-1,0-3.7.52-8,.2-1.75.41-3.56.53-5.05.36-4.47.66-15.93.6-17.24,0-.32-.84-.67-1.5-.94-1.05-.44-2.25-.94-2.6-2C-.41,16.62.91,4.93,1.18,2.61L1.25,2l1.48.18V13.64a1.49,1.49,0,0,0,.18.82,2,2,0,0,0,.22-1L3.53,2.09,4.37,2l.89.09.39,11.39a4.17,4.17,0,0,0,.12.95,3.7,3.7,0,0,0,.14-.95L6.3,2.09,7.14,2,8,2.09l.39,11.33a2.48,2.48,0,0,0,.19,1,2.23,2.23,0,0,0,.21-1.07V2.19L10.26,2l.07.6c.27,2.33,1.6,14,1.05,15.71-.35,1.1-1.55,1.59-2.6,2-.66.28-1.48.62-1.5.94-.05,1.32.24,12.77.6,17.24.12,1.49.33,3.3.53,5.05.49,4.26.76,6.92.52,8C8.49,53.49,5.9,53.65,5.79,53.66Z"/><path d="M21,53.66c-.17,0-2.77-.17-3.22-2.12-.27-1.17,0-4.69.47-9.54.11-1.23.22-2.42.31-3.47.23-2.85.38-8.33.43-10.73a2.62,2.62,0,0,0-1-1,3.9,3.9,0,0,1-1.61-1.73C14.27,21,17.51,6.3,18.42,2.87,19,.59,20.18-.1,21.06,0c1,.13,1.7,1.3,1.7,3V22.71c0,3.5.31,12.15.6,15.82.08,1,.18,2,.28,3.17.45,5,.75,8.64.47,9.84C23.65,53.49,21.06,53.65,21,53.66Z"/><path d="M34.18,53.69c-.18,0-2.83-.17-3.29-2.16-.25-1.06,0-3.79.54-8.17.21-1.8.42-3.66.54-5.18.37-4.59.68-16.36.62-17.71,0-.14-.07-.32-.46-.58C29.36,19.3,28,17.23,28,13.59c0-4.17,1.28-12.11,6.1-12.26A3.82,3.82,0,0,1,37,2.53c2.24,2.17,3.24,7.12,3.24,11.06,0,3.62-1.33,5.67-4.06,6.28-.41.27-.48.45-.48.6-.06,1.35.25,13.12.62,17.71.12,1.53.34,3.39.54,5.19.5,4.37.78,7.11.54,8.17C36.95,53.52,34.3,53.69,34.18,53.69Z"/></svg>