<svg id="Layer_1" data-name="Layer 1" xmlns="http://www.w3.org/2000/svg" viewBox="0 0 56.69 56.69"><title>Ikoner + vandmærker NY</title><g id="Denmark"><path d="M34.75,45c.46.47.14,2-.05,2.63-.14.47-.9,1.17-1.07,1.63-.11.28-.05.9-.17,1.17s-.36.41-.44.56c-.18.33-.26,1.12-.51,1.4-.09.11-.38.35-.51.28-.32-.18,0-1.1-.06-1.45s-.61-.88-.5-1.18c0-.09.27-.1.33-.17.29-.34.38-1.28.57-1.68A3.8,3.8,0,0,1,33,47.05c.15-.12.73,0,.73-.22a6.12,6.12,0,0,1,.11-1.34,1.08,1.08,0,0,1,.28-.5A.71.71,0,0,1,34.75,45Z"/><path d="M44,32.88s-.15,0-.17,0,.08-.34.17-.39a.41.41,0,0,1,.34,0c.45.32.65,1.53.73,2.07,0,.25.13.84-.06,1s-.26,0-.34,0-.39.37-.34.51.23,0,.28.06-.06.32,0,.39a.59.59,0,0,0,.56.11c.84-.64.6-3.18.34-4.2a1.43,1.43,0,0,0-.4-.62c-.19-.13-.75-.05-.9-.23a1,1,0,0,1-.06-.67,3.68,3.68,0,0,1,1.24-1.4c.39-.24,1.44-.16,1.8-.45.07-.06.09-.28.17-.34a1.68,1.68,0,0,1,1.18-.06,3.18,3.18,0,0,1,.9,1.17c.29.55.34,1.93.79,2.36.08.08.39,0,.44.11s-.23.63-.23.84a2,2,0,0,0,.23.89c0,.07.25.1.28.17s-.09.72-.06,1c.06.47.9,1.41.62,1.79s-1-.18-1.35-.05-.41.59-.62.67-.69-.14-.9-.06-.74.82-.95,1.12a5.39,5.39,0,0,0-.51,1c-.11.31-.42,1-.22,1.29s.93-.05,1.17.11a2.85,2.85,0,0,1,.73,1.35c.1.42.22,1.41-.06,1.74-.45.54-2.17.17-2.75.56a1.24,1.24,0,0,0-.34.51c-.05.17-.13.6,0,.73s.23,0,.28,0,.36.71.22.89-.22,0-.28,0-.14.33-.17.45c-.07.29.09,1-.11,1.18a1.32,1.32,0,0,1-1,.23c-.2-.06-.39-.51-.57-.61-.59-.34-2-.36-2.64-.62-.2-.08-.64-.25-.73-.45s0-.3.06-.34.66.47.84.34-.25-.92-.06-1.12c0-.05.23,0,.28,0a.67.67,0,0,0,.06-.61c-.36-.53-1.83-.64-2.47-.73s-1.93.41-2.36,0c-.26-.25.15-1.16-.06-1.46s-.91-.28-1.12-.5a1.42,1.42,0,0,1-.22-.56.61.61,0,0,1,0-.34c0-.06.23-.05.28-.11a2.15,2.15,0,0,0,.23-.84,9.89,9.89,0,0,0,.22-3A1.37,1.37,0,0,0,36,37c-.29-.19-1.07,0-1.35-.22-.1-.07-.26-.33-.23-.45S35,36.14,35,36s-.86-.17-1-.4a.37.37,0,0,1,0-.28,1.35,1.35,0,0,1,.67-.39,21.06,21.06,0,0,1,2.47.17,2.25,2.25,0,0,0,1.07-.23c.26-.25.1-1.19.4-1.4s.77.14,1,.06a1.19,1.19,0,0,0,.45-.4,1.51,1.51,0,0,0,.22-.9c-.15-.46-1.7-.78-1.51-1.23s1.17.34,1.57.39c.62.08,2.1-.41,2.52.06.13.14.06.62-.05.78s-.52.14-.62.28c-.21.3.08,1.14-.11,1.46-.07.11-.41.16-.45.28a.3.3,0,0,0,.11.28c.13,0,.34-.34.45-.28.32.17,0,1.09.05,1.45s-.1.83.12.9.65-.59.78-.84.13-1.26.39-1.57c0-.06.23-.05.28-.11C44,33.82,44.16,33.1,44,32.88Z"/><path d="M34.53,23.46a5,5,0,0,1-.28,2c-.43.74-1.88,2.4-2.69,2.13-.15-.05,0-.58-.17-.62-.44-.1-.74,1.41-1.18,1.35s-.5-.9-.56-1.24.22-.71.06-.84-.81.11-1,.28a4.43,4.43,0,0,0-.9,2.07c-.08.56.44,1.7.28,2.24a2.26,2.26,0,0,1-.95,1.12c-.53.2-1.69-.47-2.24-.34-.25.06-.79.36-.85.62s.73,1,.78,1.4,0,1.06-.28,1.23c-.5.32-1.71-.53-2.3-.5-.29,0-1,.06-1.13.34s1,.9,1.13,1.29a1.24,1.24,0,0,1,.05.67c-.22.57-1.69,1.08-1.8,1.68,0,.18.32.49.34.67,0,.51-.49,1.45-.56,2s-.27,1.25,0,1.51c.08.08.38-.08.45,0s0,.53-.06.67c-.3.46-1.61.6-1.91,1.06a3.64,3.64,0,0,0-.12,1.46c0,.25-.12.83.06,1s1-.07,1.24.06a2.65,2.65,0,0,1,.73.73,2.56,2.56,0,0,1,.39.79c0,.2,0,.67-.11.78s-.66-.05-.84-.17-.21-.39-.34-.45a.68.68,0,0,0-.44.05c-.09.05-.14.28-.23.34a3.28,3.28,0,0,1-.68.17c-.34-.28-1.19.66-1.63.67-1.11,0-3.11-1.27-4.21-1.46-.37-.06-1.23-.25-1.52,0,0-.45-.22-1.34-.23-1.8,0-1.48.75-4.42.56-5.89a6.69,6.69,0,0,0-.67-1.8A8.56,8.56,0,0,0,9.6,37.3c-.37-.36-1.12-1.2-1.63-1.23-.19,0-.48.35-.67.39s-.77.13-.9-.05c-.45-.61.6-2.22.72-3A14,14,0,0,0,7.35,31c0-.47-.39-1.38-.45-1.85a32.07,32.07,0,0,1,.06-5,13.35,13.35,0,0,1,.39-2.19c.21-.64,1-1.77,1.18-2.41s.29-1.61.45-2.13a34.46,34.46,0,0,1,1.8-4.26,12.13,12.13,0,0,1,1.07-1.68,6.89,6.89,0,0,1,1.68-1.51c1.73-.78,5.75-.19,7.53-.84a6.07,6.07,0,0,0,2-1.34c.29-.36.41-1.35.67-1.74a13.68,13.68,0,0,1,3-2.86c.88-.57,3-1.05,3.88-1.57.32-.18.81-1,1.17-.9.12,0,.28.27.28.39,0,.32-.5.83-.61,1.12A6.41,6.41,0,0,0,31,3.84c0,.89.67,2.59.73,3.47a4.8,4.8,0,0,1-.11,1.4c-.3.87-1.62,2.25-2,3.08a12.07,12.07,0,0,0-.78,2.35c-.09.51.18,1.61-.06,2.08,0,.08-.23.14-.28.22-.17.31,0,1.13-.18,1.4s-1.18.16-1.4.45-.21.7-.05.84c.32.27,1.24-.54,1.63-.39a.55.55,0,0,1,.28.39c0,.43-1.09.79-1.29,1.18a2.4,2.4,0,0,0-.17,1.07c0,.24.15.87.39.89s.48-1,.79-1.12a1.71,1.71,0,0,1,1.18.05c.28.17.37,1,.68,1.12s1-.43,1.35-.5a5.31,5.31,0,0,1,1.74-.11,1.88,1.88,0,0,1,.85.5A2.93,2.93,0,0,1,34.53,23.46Z"/><path d="M34,42.74a.35.35,0,0,1,0,.33c-.1.1-.45-.14-.56-.05-.29.23-.11,1.1-.17,1.46s-.05,1.52-.4,1.85-1.1.12-1.46.23a9,9,0,0,1-1.12.5,2.72,2.72,0,0,1-1-.22c-.39-.18-1-.92-1.4-1s-1.45.69-1.8.39c-.14-.12,0-.56.05-.73s.78-.59.68-.84-.55,0-.73-.06c-.54-.14-1.73-.48-2-1-.18-.28.12-1,0-1.34s-.78-.6-.84-.9.37-.62.34-.84-.78-.55-.68-.78c0-.08.28.06.34,0s0-.3,0-.39-.35-.44-.39-.62-.05-.47.05-.56.68,0,.9.05.69.46,1,.45,1.11-.35,1.11-.67.65-.43.9-.51a5.51,5.51,0,0,1,2.36-.11c.41.13.93.95,1.35,1.06a.68.68,0,0,0,.51-.05c.2-.22-.07-.91.06-1.18s.3-.42.45-.39c.7.13,1.18,1.82,1.29,2.53.06.35-.25,1-.23,1.4A4.88,4.88,0,0,0,32.9,42a1.64,1.64,0,0,0,.28.5C33.35,42.6,33.89,42.56,34,42.74Z"/><path d="M42.39,51.6c.27.55.92,1.83.62,2.36-.1.18-.58.22-.79.23-.45,0-1.31-.53-1.74-.39-.18.06-.34.46-.5.56a1.63,1.63,0,0,1-.9.23c-.6-.16-1.29-1.34-1.8-1.69s-1.5-.52-1.86-.89c-.17-.18-.55-.71-.4-.9s.48.18.62.11.75-.66.62-.9-.45.08-.57,0a1.14,1.14,0,0,1-.39-.89c.07-.22.56-.45.78-.51s1,.18,1.35.06c.09,0,.28-.18.28-.28,0,.08.22.11.27.17s.13.68.28.84.53.13.68.22.5.64.73.78.44.26.56.17-.07-.32,0-.39.51.11.62,0-.08-.37,0-.45a.81.81,0,0,1,.79.06c.11.11,0,.47.05.62S42.27,51.35,42.39,51.6Z"/><path d="M46.27,50.82a1.45,1.45,0,0,1,.11,1c-.14.32-.92.55-1.12.84a1.77,1.77,0,0,0-.17.51c-.13.61.3,2.23-.28,2.46-.22.09-.64-.4-.73-.62-.24-.56.38-1.84.17-2.41-.06-.17-.42-.35-.5-.5s-.11-.93-.28-1.18c-.07-.1-.32-.18-.4-.28a3.34,3.34,0,0,1-.51-1.35c0-.07,0-.23.06-.28s.55,0,.73,0,.33-.13.45-.11a1.45,1.45,0,0,1,.68.34c.13.14.15.58.28.73C45,50.3,46,50.45,46.27,50.82Z"/></g></svg>