<svg id="Layer_1" data-name="Layer 1" xmlns="http://www.w3.org/2000/svg" viewBox="0 0 56.69 56.69"><title>Ikoner + vandmærker NY</title><path d="M49.21,42.85,46.61,34a2.07,2.07,0,0,0-2-1.49H23.36L22.2,26.18H41.06a1.67,1.67,0,0,0,0-3.35H21.59L18.07,3.59a2.07,2.07,0,0,0-.83-1.31,1.25,1.25,0,0,0-.89-.39H5.86A1.44,1.44,0,0,0,4.52,3.41,1.44,1.44,0,0,0,5.86,4.94H14.1l1.8,9.82A20.49,20.49,0,1,0,43.41,37.82l1.77,6a6.46,6.46,0,1,0,4-1ZM16.54,18.31l1.79,9.79-6.63-6.62A16.82,16.82,0,0,1,16.54,18.31Zm-5.61,3.94L18.68,30l.61,3.31H6.36A16.88,16.88,0,0,1,10.94,22.25ZM6.36,34.39H19.48l.1.57a2.07,2.07,0,0,0,.66,1.17l-9.31,9.32A16.89,16.89,0,0,1,6.36,34.39ZM23.85,50.8V36.68H22.76V50.8a16.91,16.91,0,0,1-11.05-4.59l9.58-9.58a2.07,2.07,0,0,0,.34,0h3.73l9.55,9.56A16.9,16.9,0,0,1,23.85,50.8Zm11.83-5.36-8.79-8.78H40A16.89,16.89,0,0,1,35.68,45.44Zm13.09,6.77a2.9,2.9,0,1,1,2.9-2.9A2.9,2.9,0,0,1,48.76,52.21Z"/></svg>