<svg xmlns="http://www.w3.org/2000/svg" viewBox="0 0 579.66669 113.2" height="113.2" width="579.667"><g fill="#4860b0"><path d="M322.12 84.73c-1.015 7.17-6.723 10.93-13.5 10.4-1.693-.13-3.224-.478-4.6-1.016-5.463-3.135-7.113-8.385-7.593-11.682-.006.002-.01.002-.01.005-.374-5.102-.777-15.77 1.71-20.81 2.114-3.863 5.8-5.968 10.69-6.13 6.946-.228 12.202 3.218 13.235 10.267.917 6.213.96 12.758.07 18.965zm-3.447-47.105c-8.712-.93-16.25 1.71-22.62 9.37V.004l-23.07 2.794v108.765h23.07v-6.456c3.112 2.22 6.14 4.895 9.68 6.162 13.44 4.816 31.166.89 37.367-17.09 3.98-11.534 3.877-23.36.88-35.023-3.324-12.956-11.947-20.11-25.307-21.532M401.41 83.56c-.077.48-.157.955-.265 1.426-1.532 6.806-6.474 10.49-13.065 10.183-7.087-.325-11.948-4.467-12.63-11.55-.494-5.172-.534-10.454-.105-15.63.674-8.17 5.783-12.638 13.447-12.487 6.3.122 10.787 3.69 12.388 9.747 1.452 6.093.373 16.925.23 18.31zm-.975-44.592c-8.016-2.144-16.114-2.117-24.112.013-11.98 3.19-20.006 10.77-22.592 22.825-1.413 6.578-1.693 13.572-1.32 20.316.854 15.43 10.394 26.422 25.203 29.835.208.05.426.087.638.135h-.005l.108.02c.57.116 1.14.22 1.712.31.19.015.387.03.575.05h.016c.72.132 1.58.23 2.487.3 2.898.31 6.588.528 9.668.165.022 0 .033-.005.05-.007.155-.003.313-.003.47-.013 15.29-.796 26.894-10.437 30.28-25.228 1.86-8.112 1.86-16.265.062-24.382-2.812-12.742-10.54-20.94-23.237-24.337M54.112 38.586H37.646v-10.95C38.85 17.283 55.95 19.25 55.95 19.25l.004-.707-.005-.08V1.46h-.004v-.003h-.013c-.588-.14-34.013-8.073-40.652 17.366 0 .006 0 .014-.007.02-.013.055-.03.11-.042.166-1.044 3.18-.972 17.745-.96 19.576H0v19.477h15.157v52.978h22.07V58.064H54.11l1.9-19.477h-1.898M104.853 84.623c-.72 6.748-6.18 10.8-12.633 10.546-6.613-.26-10.988-3.8-12.416-10.144-1.713-9.027.29-19.752.46-20.62 1.73-6.06 6.136-9.057 12.603-8.906 6.35.143 11.244 3.9 11.96 10.48.67 6.153.686 12.487.026 18.643zm1.895-36.718c-.27-.3-.538-.59-.768-.83v-.003l-.104-.106c-.32-.334-.546-.556-.546-.556-5.197-5.285-7.158-6.6-11.228-7.8C78.446 34 63.205 42.196 58.38 57.946c-2.966 9.68-3.01 19.64-1.27 29.44 3.755 21.227 19.542 28.335 36.37 24.83 5.16-1.075 9-4.29 12.558-8.765 0 0 .32-.392.713-1.155v9.34h21.53V38.668h-21.53v9.235h-.002M194.04 106.405c-1-3.654-2.137-7.26-3.237-10.74l-1.04-3.873s-26.984 12.954-31.192-11.66c-.39-4.064-.27-8.257.29-12.266 1.05-7.567 5.665-11.62 13.01-12.313 2.48-.236 5.062-.117 7.518.3 3.344.564 6.61 1.57 10.27 2.475 1.27-3.893 2.573-7.744 3.785-11.62.19-.61.35-1.133.473-1.602h.003l.607-2.33c-.152-.31-.52-.63-1.014-.943v.002c-.62-.52-1.677-.95-3.328-1.555-.66-.24-1.322-.456-1.985-.663-.593-.188-.98-.3-.98-.3h.003c-7.09-2.026-14.368-2.183-21.762-1.404-15.583 1.646-26.16 10.842-29.093 26.022-1.54 7.988-1.468 16.074.3 24.086 2.648 11.998 9.92 19.75 21.742 23.217 7.714 2.26 15.62 2.374 23.485 1.147 3.308-.516 8.052-2.23 11.457-3.453l1.296-.455-.612-2.075.003.005M244.327 67.91H219.4c.128-4.957.748-9.566 5.156-12.373 4.68-2.973 9.85-3.085 14.664-.42 4.865 2.69 5.247 7.544 5.107 12.794zm20.75 9.95c-.102-5.05-.034-10.127-.75-15.09-1.968-13.612-10.256-22.225-23.658-24.475-5.115-.856-10.525-.742-15.722-.247-14.224 1.357-25.02 10.217-27.233 23.55-1.344 8.088-1.516 16.673-.43 24.796 1.64 12.22 7.59 20.003 17.884 23.74h.005c.044.003.09.01.134.017-.006.005-.003.005-.006.008 4.7 1.405 27.695 7.418 47.967-2.767l-.814-2.983c-.008.005-.02.005-.028.005-.94-3.98-2.068-7.918-3.13-11.865l-.114-.387s-.42.15-1.17.39c-.015.003-.037.003-.053.005-.884.23-1.757.5-2.627.793-.162.053-.32.103-.482.15-3.07.865-7.454 1.93-12.087 2.527-3.888.392-7.815.408-11.78.068-6.438-1.065-11.364-4.513-11.128-12.665h3.678c12.62 0 25.238 0 37.86-.003.3 0 .606.003.904-.002l-.002.005s2.712-.034 2.825-.06c0 0-.003-.716 0-.804l-.043-4.704M579.672 39.43H555.2l-21.255 33.228V.07l-23.07 2.797v108.767h23.07V78.347l21.255 33.335h24.472l-23.065-36.186 23.065-36.067M480.093 83.547c-.077.483-.157.955-.265 1.428-1.537 6.806-6.475 10.485-13.065 10.183-7.087-.33-11.948-4.47-12.632-11.55-.49-5.17-.537-10.452-.107-15.628.684-8.173 5.788-12.64 13.457-12.49 6.29.12 10.78 3.69 12.383 9.747 1.446 6.09.376 16.927.23 18.31zm-.973-44.59c-8.017-2.147-16.12-2.12-24.117.01C443.03 42.16 435 49.738 432.415 61.79c-1.412 6.58-1.694 13.57-1.32 20.318.85 15.43 10.394 26.423 25.198 29.834.212.05.43.087.642.135h-.006l.103.02c.57.115 1.146.22 1.718.306.19.018.385.037.575.048.006.006.01.006.016.006.725.133 1.58.233 2.483.304 2.904.308 6.598.528 9.673.165.015-.005.025-.005.047-.01.162-.003.316-.003.466-.01 15.294-.8 26.9-10.443 30.286-25.23 1.86-8.11 1.86-16.266.067-24.383-2.823-12.743-10.546-20.94-23.243-24.335"/></g></svg>