<?xml version="1.0" encoding="utf-8"?>
<!-- Generator: Adobe Illustrator 21.0.2, SVG Export Plug-In . SVG Version: 6.00 Build 0)  -->
<svg version="1.1" id="Layer_1" xmlns="http://www.w3.org/2000/svg" xmlns:xlink="http://www.w3.org/1999/xlink" x="0px" y="0px"
	 viewBox="0 0 28.6 24.6" style="enable-background:new 0 0 28.6 24.6;" xml:space="preserve">
<style type="text/css">
	.st0{fill:#15464B;}
</style>
<title>2101_burger_menu-svg-</title>
<path id="Rounded_Rectangle_664" class="st0" d="M1.1,0h26.4c0.6,0,1.1,0.5,1.1,1.1l0,0v2.3c0,0.6-0.5,1.1-1.1,1.1c0,0,0,0,0,0H1.1
	C0.5,4.4,0,4,0,3.4V1.1C0,0.5,0.5,0,1.1,0z"/>
<path id="Rounded_Rectangle_664_copy_3" class="st0" d="M1.1,10.1h26.4c0.6,0,1.1,0.5,1.1,1.1v2.2c0,0.6-0.5,1.1-1.1,1.1H1.1
	C0.5,14.5,0,14,0,13.4c0,0,0,0,0,0v-2.2C0,10.6,0.5,10.1,1.1,10.1z"/>
<path id="Rounded_Rectangle_664_copy_4" class="st0" d="M1.1,20.2h26.4c0.6,0,1.1,0.5,1.1,1.1l0,0v2.3c0,0.6-0.5,1.1-1.1,1.1H1.1
	c-0.6,0-1.1-0.5-1.1-1.1v-2.3C0,20.6,0.5,20.2,1.1,20.2z"/>
</svg>
