<svg id="Layer_1" data-name="Layer 1" xmlns="http://www.w3.org/2000/svg" viewBox="0 0 54.35 53.16"><title>Ikoner + vandmærker NY</title><path d="M42.51,14.15c-.82.84-1.74,1.57-2.62,2.33A21.74,21.74,0,0,0,37,19.66l.36-.31a9.18,9.18,0,0,1,1.42-.92c.54-.29,1.11-.54,1.65-.84l.19-.11c1.75-1,3.39-2.22,5.17-3.2.17-.1.35-.18.52-.26-.38,0-.76,0-1.14.07l-1.19.1a5.48,5.48,0,0,1-.85,0l-.64,0"/><path d="M50.42,14.93a2.72,2.72,0,0,1,.69,2.32,3.43,3.43,0,0,1-1.36,1.91,2.9,2.9,0,0,0,1.89-1,1.69,1.69,0,0,0,.15-.25,2.49,2.49,0,0,0,.12-1.84,2.62,2.62,0,0,0-1.81-1.62l-.17,0a4.49,4.49,0,0,1,.5.52"/><path d="M46.42,29.45c-.81.57-1.6,1.16-2.44,1.68a45.4,45.4,0,0,1-4.47,2.24l.39.06H40c1.33-.38,2.71-.54,4-1l.47-.17A29.62,29.62,0,0,1,47.9,31a3.66,3.66,0,0,1,3.12.23,2.19,2.19,0,0,1,.29.26,2.06,2.06,0,0,0-.09-.45,2.41,2.41,0,0,0-2-1.5c-.81-.15-1.62-.28-2.43-.4l-.37.26"/><path d="M43.12,23.76l-1.29,1,.53-.26c1.51-.73,2.94-1.61,4.4-2.44l-1.11-.15h0c-.85.6-1.69,1.22-2.53,1.85"/><path d="M52.61,22.88c.64,1.89-.57,3.25-2.21,4.21-.25.14-.5.28-.75.41l.69.07c1,.13,2.49.32,3.34-.38a2.12,2.12,0,0,0,.68-1.75,2.5,2.5,0,0,0-1.75-2.56"/><path d="M44.57,38.57c-1.27.46-2.55.89-3.85,1.24a8.22,8.22,0,0,0-1.84.79l.78.23c1.72.51,4.21,1.11,4.93-1.15a1.69,1.69,0,0,0,0-1,1.44,1.44,0,0,0-.06-.15"/><path d="M50.65,31.77a3.16,3.16,0,0,0-2.6-.13,29.7,29.7,0,0,0-3.36,1.22l-.51.19c-1.55.51-3.2.63-4.75,1.21-.35.13-1.25.5-1.62.35-.2-.08-.31-.36-.37-.55s.74-.72.91-.81c1.76-.9,3.61-1.6,5.3-2.64.83-.51,1.62-1.09,2.41-1.66a19.88,19.88,0,0,1,2.74-1.72c1.78-.87,4.19-2.12,3.07-4.52a2.2,2.2,0,0,0-3.33-.93c-2,1.06-3.88,2.3-5.91,3.28a29.9,29.9,0,0,0-5.47,3c-.19.15-.86.75-.89.34a.4.4,0,0,1,0-.14c.09-.28.81-.75,1-.91,1.86-1.3,3.62-2.73,5.43-4.1s3.53-2.61,5.39-3.76c.87-.54,2.14-1.3,2.37-2.39a2.12,2.12,0,0,0-.56-1.8c-1.1-1.33-2.36-1.34-3.84-.51C44.34,15.8,42.7,17,41,18l-.2.11c-.54.3-1.11.55-1.65.84a7.72,7.72,0,0,0-1.72,1.2c-1.19,1.14-2.46,2.2-3.69,3.3a3.65,3.65,0,0,1-.83.59,1.13,1.13,0,0,1-.3.1,1,1,0,0,1,0-.25,3.08,3.08,0,0,1,.31-.78,3,3,0,0,1,.39-.44l.88-.85a23.12,23.12,0,0,0,2.29-2.46,23,23,0,0,1,3-3.37c.87-.74,1.8-1.48,2.59-2.3a3.43,3.43,0,0,0,1.22-2.36,1.71,1.71,0,0,0,0-.28A2.49,2.49,0,0,0,42.2,9.55a2.62,2.62,0,0,0-2.43-.13A12.7,12.7,0,0,0,35.7,12.2c-.29.27-.57.55-.87.82a5.43,5.43,0,0,1-.66.53,15.83,15.83,0,0,0-3.22,3,31.77,31.77,0,0,1-5.23,5.33,14.08,14.08,0,0,1-3.67,2,3,3,0,0,1-2.36,0,1.5,1.5,0,0,1-.69-1.8c.07-.44.18-.88.28-1.31.16-.67.34-1.33.51-2a7.09,7.09,0,0,0,.45-4.13c-.28-1.86-2.12-6.14-4.35-4-.74.7-.77,2.12-.93,3.08a5.8,5.8,0,0,1-.21.89,29.66,29.66,0,0,0-1,4.23,12,12,0,0,1-.9,3.2,11.41,11.41,0,0,0-1,5.72,12,12,0,0,1-.6,3.26,10,10,0,0,0-.53,4.16c.22,1.32-1.36,3.1-2.21,4A28.07,28.07,0,0,1,5.19,42l-.11.08a1.65,1.65,0,0,0-.34,2.46c3.43,2.79,4.26,3.89,5.95,7.9a1.64,1.64,0,0,0,2.41.4c1.39-.95,2.79-1.87,4.15-2.85A16.48,16.48,0,0,1,23,47.11a45,45,0,0,0,6.15-1.9,38.79,38.79,0,0,0,6.53-3.32,19.24,19.24,0,0,1,4.85-2.68,64.57,64.57,0,0,0,7.54-2.69c1.66-.68,4-1.76,3.13-4a1.68,1.68,0,0,0-.58-.78"/><path d="M10.62,33l-.46-.09a21.31,21.31,0,0,0-3-.34c-1.18-.06-2.38-.16-3.54-.25l-1.5-.12a2.49,2.49,0,0,1-1.79-1,1.66,1.66,0,0,1-.26-1.42c1.17-4.13,1.2-5.39.29-9.65a1.67,1.67,0,0,1,.38-1.44,2.47,2.47,0,0,1,1.91-.86h.14a27.74,27.74,0,0,0,4.12-.13A3.36,3.36,0,0,1,8,14.92,6,6,0,0,1,10.5,13.6a6.28,6.28,0,0,1,2.92-4.71,6.35,6.35,0,0,1,5.53-.56,9,9,0,0,1,2-1.28,11.38,11.38,0,0,0,2.52-1.81l.06-.05a29.91,29.91,0,0,1,3.48-2.72,5.52,5.52,0,0,0,.66-.52l.43-.4A4.57,4.57,0,0,1,30.65,0a2.26,2.26,0,0,1,1.57.48l.13.12c1.23,1.48,1.09,3.48-.37,6a7.68,7.68,0,0,1-3.1,3.11l-1.35,1A6.24,6.24,0,0,1,32,14.84l.09.28-.2.21-.43.46-.61.67-.26-.82A5.07,5.07,0,0,0,25.74,12a7.49,7.49,0,0,0-3.6.47l-.07,0-.38.93-.48-1c-.08-.17-.17-.33-.27-.48l-.09-.14-.2-.29-.08-.11-.23-.28L20.22,11,20,10.83l-.14-.12-.22-.18-.14-.11-.24-.16-.13-.08L18.86,10,19,9.53l-.21.44-.39-.17A4.73,4.73,0,0,0,14,10.4a4.83,4.83,0,0,0-2,4.14V15h-.48A4.28,4.28,0,0,0,8.9,16.25a1.91,1.91,0,0,0-.39,1.65,3.74,3.74,0,0,0,.23.75l.11.24.16.32.1.19.1.17.16.24.09.13.3.41.2.27-.18.28a3.5,3.5,0,0,0-.64,3,3.44,3.44,0,0,0,2.24,1.91l.34.12v.36c0,.48,0,1,0,1.47a10.83,10.83,0,0,1-.53,3L11.1,31c-.14.5-.27,1-.38,1.52Z"/><path d="M28.92,15.07c-1.59.06-2.36,1.4-4.27.28a3.21,3.21,0,0,0-2.62,0,2.41,2.41,0,0,1-1.07.38c0,.18,0,.37,0,.55a3.05,3.05,0,0,0,.64-.3,3.22,3.22,0,0,1,2.62,0,4.28,4.28,0,0,0,4.7-.91"/><path d="M20.38,19a4.39,4.39,0,0,0,2.95-1.27c-1.08,0-1.78.68-2.73.72a5.49,5.49,0,0,1-.22.55"/><path d="M9.38,18.35c1.59.53,2.18-.54,3.53.25l.23.12.15-.79c-1.45-.81-2.58.33-3.9.42"/><path d="M41.39,51.7c1.09-.49,1.18-2.42-.59-4.17C39.15,49.17,39.12,51,40,51.59a1.33,1.33,0,0,0,.34,0c1.23,0,1.69-1.48.66-3,1,1.27,1,2.56.37,3.1"/><path d="M36.5,46.44c.75-.34.81-1.67-.4-2.88-1.14,1.13-1.16,2.37-.54,2.8a.93.93,0,0,0,.23,0c.85,0,1.17-1,.46-2.09.7.88.69,1.77.25,2.14"/><path d="M48.38,42.16c.56-.26.61-1.25-.3-2.16-.86.85-.87,1.78-.4,2.1l.17,0c.63,0,.87-.76.34-1.57.52.66.52,1.32.19,1.6"/></svg>