<svg width="512" height="146" viewBox="0 0 512 146" xmlns="http://www.w3.org/2000/svg" preserveAspectRatio="xMidYMid"><g fill="#343433"><path d="M27.127.902C16.68 5.278 5.197 17.625 1.57 33.135-3.024 52.78 16.09 61.09 17.66 58.37c1.844-3.202-3.426-4.284-4.51-14.478C11.746 30.726 17.867 16.015 25.57 9.56c1.43-1.2 1.363.47 1.363 3.557 0 5.52-.305 55.085-.305 65.43 0 13.995-.578 18.415-1.617 22.783-1.05 4.425-2.743 7.416-1.462 8.568 1.433 1.288 7.547-1.777 11.086-6.716 4.244-5.924 5.73-13.04 5.997-20.765.322-9.314.308-24.094.322-32.524.012-7.73.13-30.37-.136-43.98-.066-3.34-9.324-6.842-13.693-5.01M398.07 66.405c-.337 7.277-1.948 12.964-3.947 16.976-3.87 7.768-11.9 10.18-15.31-.985-1.858-6.086-1.945-16.25-.61-24.743 1.36-8.65 5.158-15.185 11.445-14.596 6.202.583 9.105 8.574 8.422 23.35zM293.52 111.55c-.084 12.09-1.987 22.692-6.067 25.77-5.788 4.367-13.567 1.092-11.956-7.73 1.425-7.808 8.166-15.78 18.04-25.523 0 0 .02 2.222-.017 7.484zm-1.58-45.216c-.354 6.628-2.072 13.285-3.947 17.047-3.87 7.768-11.958 10.196-15.31-.985-2.292-7.64-1.743-17.526-.61-23.756 1.472-8.084 5.04-15.583 11.445-15.583 6.228 0 9.3 6.833 8.422 23.277zm-60.565-.1c-.38 7.018-1.75 12.885-3.946 17.147-3.977 7.715-11.843 10.16-15.312-.985-2.5-8.037-1.65-18.995-.61-24.915 1.545-8.785 5.41-15.013 11.446-14.423 6.2.606 9.212 8.573 8.42 23.177zm277.553 8.198c-1.515 0-2.207 1.562-2.78 4.19-1.983 9.144-4.07 11.207-6.76 11.207-3.004 0-5.704-4.527-6.398-13.59-.546-7.125-.458-20.243.24-33.292.142-2.68-.598-5.334-7.79-7.946-3.093-1.124-7.59-2.78-9.83 2.627-6.328 15.273-8.804 27.398-9.387 32.323-.03.255-.343.308-.397-.288-.372-3.945-1.2-11.115-1.305-26.177-.018-2.94-.64-5.44-3.885-7.488-2.105-1.33-8.496-3.68-10.797-.883-1.994 2.286-4.304 8.44-6.703 15.736-1.95 5.93-3.308 9.94-3.308 9.94s.026-15.998.05-22.067c.01-2.29-1.56-3.052-2.035-3.19-2.13-.618-6.33-1.65-8.112-1.65-2.2 0-2.738 1.227-2.738 3.018 0 .236-.347 21.064-.347 35.628 0 .633 0 1.323.003 2.057-1.216 6.693-5.16 15.78-9.45 15.78-4.297 0-6.323-3.8-6.323-21.162 0-10.13.304-14.534.453-21.86.087-4.22.255-7.46.245-8.195-.032-2.255-3.93-3.392-5.745-3.812-1.823-.422-3.407-.587-4.644-.516-1.75.1-2.99 1.247-2.99 2.827 0 .85.01 2.46.01 2.46-2.255-3.545-5.882-6.01-8.295-6.726-6.5-1.93-13.283-.22-18.4 6.94-4.065 5.686-6.516 12.13-7.48 21.384-.706 6.767-.476 13.628.778 19.43-1.515 6.55-4.326 9.232-7.405 9.232-4.47 0-7.71-7.295-7.334-19.913.247-8.3 1.908-14.123 3.723-22.55.774-3.59.145-5.47-1.432-7.273-1.446-1.653-4.528-2.498-8.96-1.46-3.155.74-7.668 1.538-11.797 2.15 0 0 .25-.995.454-2.747 1.074-9.19-8.913-8.445-12.1-5.51-1.9 1.753-3.196 3.82-3.687 7.536-.78 5.898 4.03 8.68 4.03 8.68-1.577 7.224-5.446 16.66-9.44 23.483-2.14 3.655-3.775 6.364-5.888 9.243-.007-1.073-.013-2.146-.017-3.213-.048-15.187.154-27.14.243-31.448.087-4.22.256-7.375.247-8.11-.024-1.65-.987-2.273-2.99-3.062-1.772-.697-3.866-1.18-6.04-1.348-2.74-.213-4.393 1.24-4.35 2.96.01.325.01 2.32.01 2.32-2.256-3.545-5.883-6.01-8.296-6.726-6.5-1.93-13.283-.22-18.4 6.94-4.064 5.686-6.726 13.668-7.48 21.314-.703 7.125-.574 13.18.384 18.282-1.033 5.108-4.005 10.45-7.364 10.45-4.296 0-6.74-3.8-6.74-21.162 0-10.13.304-14.534.454-21.86.087-4.22.254-7.46.245-8.195-.033-2.255-3.932-3.39-5.747-3.812-1.898-.438-3.537-.6-4.796-.506-1.66.123-2.828 1.61-2.828 2.72v2.555c-2.256-3.545-5.883-6.01-8.296-6.726-6.5-1.93-13.244-.192-18.398 6.94-3.36 4.648-6.08 9.802-7.48 21.212-.406 3.297-.585 6.386-.56 9.27-1.34 8.197-7.26 17.643-12.102 17.643-2.833 0-5.532-5.497-5.532-17.208 0-15.6.966-37.812 1.13-39.952 0 0 6.117-.104 7.3-.118 3.053-.034 5.816.04 9.88-.17 2.04-.103 4.003-7.42 1.9-8.325-.955-.41-7.694-.768-10.366-.825-2.246-.05-8.5-.514-8.5-.514s.56-14.743.692-16.3c.11-1.3-1.57-1.967-2.532-2.372-2.342-.99-4.437-1.465-6.92-1.977-3.432-.71-4.988-.016-5.292 2.88-.458 4.394-.695 17.267-.695 17.267-2.52 0-11.12-.492-13.64-.492-2.34 0-4.865 10.064-1.63 10.188 3.723.144 10.21.27 14.51.398 0 0-.192 22.58-.192 29.55 0 .742.004 1.456.008 2.15-2.367 12.334-10.703 18.998-10.703 18.998 1.79-8.16-1.867-14.29-8.454-19.478-2.428-1.91-7.22-5.53-12.58-9.496 0 0 3.105-3.06 5.86-9.216 1.95-4.362 2.034-9.35-2.755-10.452-7.912-1.82-14.435 3.99-16.38 10.195-1.51 4.807-.705 8.372 2.25 12.076.214.27.448.548.69.826-1.786 3.442-4.24 8.077-6.318 11.67-5.768 9.98-10.125 17.873-13.418 17.873-2.633 0-2.598-8.014-2.598-15.517 0-6.468.478-16.193.86-26.26.126-3.33-1.54-5.227-4.33-6.945-1.696-1.044-5.315-3.096-7.41-3.096-3.14 0-12.19.427-20.743 25.167-1.08 3.118-3.197 8.8-3.197 8.8l.183-29.75c0-.7-.372-1.373-1.223-1.834-1.44-.783-5.29-2.383-8.713-2.383-1.63 0-2.445.758-2.445 2.27l-.298 46.546c0 3.537.092 7.663.442 9.467.347 1.806.912 3.276 1.61 4.15.7.873 1.506 1.54 2.837 1.814 1.24.255 8.023 1.126 8.376-1.466.422-3.108.44-6.468 4-19.002C75.89 58.072 83.12 48.552 86.52 45.17c.595-.59 1.273-.626 1.24.34-.144 4.28-.655 14.97-.998 24.052-.92 24.304 3.5 28.81 9.82 28.81 4.833 0 11.647-4.804 18.95-16.962 4.555-7.577 8.977-15.006 12.154-20.36 2.213 2.05 4.698 4.254 7.18 6.61 5.77 5.476 7.664 10.68 6.407 15.616-.96 3.773-4.58 7.662-11.024 3.883-1.88-1.104-2.68-1.957-4.57-3.2-1.013-.667-2.562-.867-3.49-.167-2.413 1.818-3.793 4.132-4.58 6.996-.767 2.786 2.024 4.26 4.918 5.548 2.49 1.11 7.846 2.114 11.26 2.228 13.305.445 23.964-6.424 31.384-24.143 1.328 15.303 6.98 23.962 16.8 23.962 6.567 0 13.15-8.487 16.03-16.836.825 3.402 2.048 6.362 3.628 8.865 7.568 11.99 22.248 9.41 29.622-.772 2.28-3.146 2.627-4.276 2.627-4.276 1.075 9.613 8.817 12.972 13.25 12.972 4.964 0 10.09-2.348 13.682-10.436.42.878.88 1.717 1.383 2.51 7.567 11.99 22.248 9.41 29.622-.77.348-.48.65-.912.913-1.3l.216 6.314s-4.206 3.86-6.79 6.227c-11.38 10.43-20.023 18.34-20.66 27.553-.808 11.747 8.713 16.113 15.927 16.685 7.647.607 14.208-3.62 18.234-9.538 3.544-5.21 5.864-16.42 5.693-27.49-.067-4.434-.18-10.07-.267-16.114 3.995-4.638 8.496-10.502 12.64-17.364 4.516-7.48 9.356-17.523 11.834-25.34 0 0 4.205.037 8.693-.257 1.435-.095 1.848.198 1.582 1.25-.32 1.272-5.67 21.905-.787 35.65 3.34 9.41 10.874 12.436 15.34 12.436 5.23 0 10.23-3.948 12.91-9.81.324.653.66 1.285 1.03 1.87 7.567 11.99 22.196 9.393 29.622-.773 1.676-2.294 2.627-4.276 2.627-4.276 1.593 9.95 9.33 13.023 13.763 13.023 4.616 0 8.998-1.893 12.552-10.304.148 3.704.382 6.732.75 7.686.226.585 1.538 1.317 2.492 1.67 4.224 1.567 8.53.827 10.124.505 1.104-.224 1.965-1.11 2.083-3.396.308-6.004.118-16.093 1.94-23.592 3.054-12.583 5.905-17.464 7.257-19.88.757-1.355 1.61-1.578 1.64-.145.065 2.9.21 11.413 1.393 22.853.87 8.412 2.03 13.385 2.923 14.96 2.548 4.5 5.693 4.713 8.255 4.713 1.63 0 5.038-.45 4.733-3.315-.148-1.396.112-10.024 3.125-22.42 1.967-8.097 5.247-15.41 6.43-18.086.437-.987.64-.21.632-.058-.25 5.575-.808 23.81 1.463 33.785 3.08 13.51 11.986 15.023 15.09 15.023 6.626 0 12.045-5.04 13.87-18.302.44-3.192-.21-5.656-2.162-5.656z"/></g></svg>