<?xml version="1.0" encoding="utf-8"?>
<!-- Generator: Adobe Illustrator 21.1.0, SVG Export Plug-In . SVG Version: 6.00 Build 0)  -->
<svg version="1.1" id="Слой_1" xmlns="http://www.w3.org/2000/svg" xmlns:xlink="http://www.w3.org/1999/xlink" x="0px" y="0px"
	 viewBox="0 0 80 80" style="enable-background:new 0 0 80 80;" xml:space="preserve">
<style type="text/css">
	.st0{fill:#1C1F19;}
</style>
<text transform="matrix(1 0 0 1 354.3301 212.5999)" style="font-family:'MyriadPro-Regular'; font-size:12px;">https://drive.google.com/open?id=0ByTX5Ha5ACD3UHRTTVBENVJTU0E</text>
<g>
	<g>
		<g>
			<path class="st0" d="M39.5,24.4c0,0,0.3-0.1,5.8-3c4.6-2.5,4.9-6.2,4.4-7.8l-0.2-0.7c0,0-4.5,1.6-7.2,2.6L39,3.4
				c0,0-3,0.8-3.9,3.9C33.9,11.3,39.5,24.4,39.5,24.4"/>
		</g>
		<g>
			<path class="st0" d="M50.6,0.1c2.4-0.2,4.6,0.1,4.6,0.1S51.6,4,49.4,6.3c-1,1.1-2.1,1.9-3.2,2.2c-1.4,0.4-2.7,0.6-2.7,0.6
				s0.3-4.4,1.3-6C45.8,1.6,48.2,0.3,50.6,0.1"/>
		</g>
		<g>
			<path class="st0" d="M40.8,72.2c4.8,2,8.4,7.8,8.4,7.8s2.6-6,2.9-8.6c0.5-5.1-2.9-8.4-4.6-10.5c0,0,1.5-2,2-4
				c0.8-3.5-1-8.8-2.9-9.5c0,0-1.5,7.2-4.7,11.7l-17.1-9.6l-0.1,0.8c-0.1,2.9,0.8,6.6,5.9,10c-0.1,2.6,0.6,5.6,2.2,7.3
				C34.1,69,34.8,69.7,40.8,72.2"/>
		</g>
		<g>
			<path class="st0" d="M28.7,43.6c4.1,3.1,9.3,7.1,11.6,8.9c3-4.4,3.9-8,4.5-9.9c0.9-2.7,0.3-5.8-0.1-7.6c1-1.2,1.9-2.4,2.2-3.4
				c1-2.5-1-5-1-5l-7.3,5.7c-5.3-8.5-8.5-16.6-8.5-16.6s-4.2,4.5-4.2,9.2c0,1.5,0.5,3.6,1.9,5.2C26.9,33,25.1,40.1,28.7,43.6"/>
		</g>
	</g>
</g>
</svg>
