<svg id="Layer_1" data-name="Layer 1" xmlns="http://www.w3.org/2000/svg" viewBox="0 0 163.62 194.4"><defs><style>.cls-1{fill:#fff;}</style></defs><title>logo til forsiden</title><path class="cls-1" d="M21.71 155.1v.27l-1 1.2a9.73 9.73 0 0 1 3.86 7.84 10.12 10.12 0 0 1-.83 4.07 9.44 9.44 0 0 1-2.41 3.32 11.54 11.54 0 0 1-3.95 2.2 15.25 15.25 0 0 1-5.14.81 15.68 15.68 0 0 1-3-.27 16.35 16.35 0 0 1-2.63-.73l-1.27 1.62-2.4-1.93 1-1.2A9.66 9.66 0 0 1 1 168.87a10.37 10.37 0 0 1-.17-8.52A9.67 9.67 0 0 1 3.24 157a11.38 11.38 0 0 1 3.86-2.24 15.25 15.25 0 0 1 5.14-.81 14.7 14.7 0 0 1 5.56 1l1.35-1.7zm-6.06 2.55a9.25 9.25 0 0 0-3.4-.58q-3.79 0-5.66 2a7.49 7.49 0 0 0-1.87 5.35 7.63 7.63 0 0 0 1.55 5zm-6.88 13.52a9.29 9.29 0 0 0 3.48.58q3.75 0 5.62-2a7.47 7.47 0 0 0 1.87-5.37 7.76 7.76 0 0 0-1.55-4.95zM33.8 148.38l.35.23v14.22l2.59-.85 5.29-4.4-2-.5.19-2.32h9.5l.19 2.4-3 .73-6.84 5.52 7.3 7.38 3.28.73-.23 2.43-5.91.19-8-8.65h-2.36v5.83l2.74.39-.19 2.36h-9.81l-.19-2.36 2.74-.39v-19.78l-2.66-.35-.23-2.36zM160.14 157.49a10.8 10.8 0 0 0-1.12-.31 5.63 5.63 0 0 0-1.16-.12l-.08.39a10.19 10.19 0 0 1 1.7 2.59 7 7 0 0 1 .66 3 8.35 8.35 0 0 1-.71 3.38 8.07 8.07 0 0 1-2.12 2.88 10.65 10.65 0 0 1-3.57 2 15.4 15.4 0 0 1-5.06.75 16.67 16.67 0 0 1-4.07-.45 10.87 10.87 0 0 1-3.07-1.25 3.27 3.27 0 0 0-1 1.22 3.17 3.17 0 0 0-.31 1.33 4.31 4.31 0 0 0 .27 1.45 2.9 2.9 0 0 0 1 1.33 19.8 19.8 0 0 1 4.17-1.53 20.44 20.44 0 0 1 4.67-.48 22.55 22.55 0 0 1 3.67.27 16.21 16.21 0 0 1 3 .79 12.8 12.8 0 0 1 2.63 1.35 24.79 24.79 0 0 1 2.47 1.91l-1.62 2a18.56 18.56 0 0 0-4.89-1.86 23.85 23.85 0 0 0-5.27-.58 31.23 31.23 0 0 0-5.33.45 32.27 32.27 0 0 0-5.08 1.31 10.63 10.63 0 0 1-3.17-3.34 8.87 8.87 0 0 1-1.24-3.73 10.09 10.09 0 0 1 1.68-1.74q1-.85 2.34-1.74a7.67 7.67 0 0 1-1.74-2.63 8.34 8.34 0 0 1-.58-3.09 8.6 8.6 0 0 1 .7-3.38 7.9 7.9 0 0 1 2.11-2.88 10.66 10.66 0 0 1 3.57-2 15.52 15.52 0 0 1 5.1-.75 13.61 13.61 0 0 1 6.76 1.51 4.61 4.61 0 0 1 1-1.31 8 8 0 0 1 1.12-.15h1.24a13.32 13.32 0 0 1 2.49.23q1.22.23 2.3.54V157zm-11.47 11.32a7.76 7.76 0 0 0 5-1.43 6.23 6.23 0 0 0 0-8.71 9.37 9.37 0 0 0-10 0 6.33 6.33 0 0 0 0 8.71 7.74 7.74 0 0 0 5 1.43zM64.59 154a15.26 15.26 0 0 1 5.14.81 11.39 11.39 0 0 1 3.86 2.19 9.7 9.7 0 0 1 2.41 3.35 10 10 0 0 1 .83 4.06 10.13 10.13 0 0 1-.83 4.07 9.44 9.44 0 0 1-2.41 3.32 11.55 11.55 0 0 1-3.87 2.2 16.65 16.65 0 0 1-10.28 0 11.53 11.53 0 0 1-3.86-2.22 9.41 9.41 0 0 1-2.41-3.32 10.09 10.09 0 0 1-.83-4.07 10 10 0 0 1 .83-4.06 9.66 9.66 0 0 1 2.42-3.33 11.37 11.37 0 0 1 3.86-2.24 15.25 15.25 0 0 1 5.14-.76zm0 3.09q-3.79 0-5.66 2a8.6 8.6 0 0 0 0 10.72q1.87 2 5.66 2t5.62-2a8.6 8.6 0 0 0 0-10.72 7.37 7.37 0 0 0-5.62-2.02zM102.39 170.86l2.74.85v2.36h-4.71l-1.24-2a10 10 0 0 1-3.75 2.11 15.86 15.86 0 0 1-4.63.64 13.27 13.27 0 0 1-4.64-.76 9.9 9.9 0 0 1-3.5-2.14 9.42 9.42 0 0 1-2.22-3.3 11.19 11.19 0 0 1-.77-4.23 10.4 10.4 0 0 1 .83-4.19 9.24 9.24 0 0 1 2.41-3.3 11.26 11.26 0 0 1 3.84-2.16 15.88 15.88 0 0 1 5.15-.77 15.16 15.16 0 0 1 3.21.31 12.19 12.19 0 0 1 2.59.85v-3.55l-2.7-.38-.23-2.36 7.3-.46.31.19zm-4.67-12.75a14.27 14.27 0 0 0-2.9-.71 22.54 22.54 0 0 0-2.9-.17 8.24 8.24 0 0 0-5.47 1.7q-2 1.7-2 5.49a9.14 9.14 0 0 0 .52 3.28 6.14 6.14 0 0 0 1.41 2.22 5.38 5.38 0 0 0 2.13 1.27 8.45 8.45 0 0 0 2.66.41 11.69 11.69 0 0 0 3.9-.6 6.72 6.72 0 0 0 2.66-1.6zM110.43 156.06a18 18 0 0 1 4.52-1.6 24.39 24.39 0 0 1 5-.48 16.71 16.71 0 0 1 4.35.5 8.43 8.43 0 0 1 3 1.43 5.68 5.68 0 0 1 1.74 2.22 7.08 7.08 0 0 1 .56 2.84v9.16a1.63 1.63 0 0 0 .29 1 1.06 1.06 0 0 0 .91.39h1.74l.19 2.55a10.14 10.14 0 0 1-1.49.39 8.46 8.46 0 0 1-1.45.12 4.22 4.22 0 0 1-2.57-.66 3.25 3.25 0 0 1-1.18-1.85 10.94 10.94 0 0 1-3.79 2.07 15.75 15.75 0 0 1-4.87.71 18.85 18.85 0 0 1-3.32-.29 8.58 8.58 0 0 1-2.9-1 6 6 0 0 1-2-2 5.91 5.91 0 0 1-.77-3.17 5.12 5.12 0 0 1 .6-2.49 5.68 5.68 0 0 1 1.68-1.89 9.34 9.34 0 0 1 2.59-1.3 19.71 19.71 0 0 1 3.36-.77 37.82 37.82 0 0 1 4-.39q2-.08 4.27-.08v-1.31a2.45 2.45 0 0 0-1.29-2.11 8.44 8.44 0 0 0-4.35-.83 17.51 17.51 0 0 0-3.65.41 20.38 20.38 0 0 0-4.08 1.37zm14.45 8.11q-2.24 0-4.17.12a36.09 36.09 0 0 0-3.59.39 5.7 5.7 0 0 0-3 1.16 3.18 3.18 0 0 0-.93 2.47 3 3 0 0 0 1.12 2.34 5.54 5.54 0 0 0 3.59.95 14.11 14.11 0 0 0 7-1.66zM.85 194.26v-7.51h.91v3.71l3.45-3.71h.91l-3.5 3.74 3.71 3.77h-.9l-3.66-3.68v3.68zM9.65 193.86l.73-.82a3.68 3.68 0 0 1-.54-1.14 5 5 0 0 1-.19-1.39 4.76 4.76 0 0 1 .25-1.58 3.66 3.66 0 0 1 .71-1.23 3.17 3.17 0 0 1 1.11-.8 3.55 3.55 0 0 1 1.46-.29 3.74 3.74 0 0 1 1.24.2 3.18 3.18 0 0 1 1 .56l.67-.76.61.53-.7.86a3.84 3.84 0 0 1 .54 1.14 5 5 0 0 1 .19 1.4 4.77 4.77 0 0 1-.25 1.57 3.6 3.6 0 0 1-.71 1.23 3.22 3.22 0 0 1-1.11.81 3.52 3.52 0 0 1-1.45.29 3.75 3.75 0 0 1-1.25-.2 3.16 3.16 0 0 1-1-.56l-.67.76zm1-3.35a4.46 4.46 0 0 0 .1 1 3.11 3.11 0 0 0 .3.81l3.8-4.29a2.22 2.22 0 0 0-.75-.46 2.63 2.63 0 0 0-1.9 0 2.27 2.27 0 0 0-.81.59 2.78 2.78 0 0 0-.54 1 4.17 4.17 0 0 0-.23 1.35zm5.12 0a4.38 4.38 0 0 0-.11-1 3.21 3.21 0 0 0-.3-.81l-3.83 4.3a2.34 2.34 0 0 0 .76.46 2.59 2.59 0 0 0 .9.15 2.54 2.54 0 0 0 1-.2 2.26 2.26 0 0 0 .81-.58 2.79 2.79 0 0 0 .54-1 4.13 4.13 0 0 0 .2-1.32zM21.94 193.44h3.85v.82H21v-7.51h4.56v.83h-3.62V190h3.24v.83h-3.24zM31 191.15v3.11h-.91v-7.51h2.75a4.05 4.05 0 0 1 .63.12 2.25 2.25 0 0 1 1.2.73 2 2 0 0 1 .41 1.28 2.14 2.14 0 0 1-.15.81 1.85 1.85 0 0 1-.41.62 2.17 2.17 0 0 1-.63.43 3.4 3.4 0 0 1-.82.25l2.22 3.21h-.92l-2.31-3.11zm0-3.58v2.75h1.62a2.57 2.57 0 0 0 .53-.1 1.47 1.47 0 0 0 .74-.47 1.29 1.29 0 0 0 .26-.84 1.21 1.21 0 0 0-.25-.78 1.35 1.35 0 0 0-.67-.43 2.61 2.61 0 0 0-.48-.09h-.71zM43.41 190.94q.69 1 1.36 2-.07-1.1-.07-2.24v-4h.92v7.51h-.92l-2.95-4.19Q41 189 40.43 188q.07 1 .07 2.4v3.83h-.91v-7.51h.91zM51.16 193.44H55v.82h-4.75v-7.51h4.56v.83h-3.65V190h3.24v.83h-3.24zM60 188.74a1 1 0 0 0 .13.55 1.11 1.11 0 0 0 .36.36 2.21 2.21 0 0 0 .53.23l.62.17.86.24a2.7 2.7 0 0 1 .75.36 1.72 1.72 0 0 1 .53.59 1.9 1.9 0 0 1 .2.94 2.16 2.16 0 0 1-.22 1 1.92 1.92 0 0 1-.61.7 2.75 2.75 0 0 1-.92.4 5.12 5.12 0 0 1-1.77.09 5.73 5.73 0 0 1-.58-.1 4.35 4.35 0 0 1-.5-.14A1.92 1.92 0 0 1 59 194v-.84a3.4 3.4 0 0 0 .45.19c.17.06.34.1.52.14l.54.09a4.47 4.47 0 0 0 .52 0 4 4 0 0 0 .75-.07 2 2 0 0 0 .63-.22 1.16 1.16 0 0 0 .43-.43 1.36 1.36 0 0 0 .16-.68 1 1 0 0 0-.14-.55 1.14 1.14 0 0 0-.37-.36A2.29 2.29 0 0 0 62 191l-.63-.17c-.29-.07-.58-.14-.86-.23a2.72 2.72 0 0 1-.75-.35 1.72 1.72 0 0 1-.53-.58 1.83 1.83 0 0 1-.2-.9 2.16 2.16 0 0 1 .21-1 1.94 1.94 0 0 1 .57-.68 2.44 2.44 0 0 1 .82-.4 3.72 3.72 0 0 1 1-.13 5.09 5.09 0 0 1 1.12.12 5.34 5.34 0 0 1 1 .3v.85a6.49 6.49 0 0 0-1-.32 4.51 4.51 0 0 0-1.06-.13 2.61 2.61 0 0 0-.74.09 1.49 1.49 0 0 0-.52.26 1.06 1.06 0 0 0-.31.42 1.4 1.4 0 0 0-.12.59zM74.22 194.26h-.91v-7.51h4.48v.83h-3.57V190h3.16v.83h-3.16zM88.51 190.51a4.83 4.83 0 0 1-.24 1.57 3.6 3.6 0 0 1-.7 1.23 3.17 3.17 0 0 1-1.1.81 3.46 3.46 0 0 1-1.44.29 3.59 3.59 0 0 1-1.48-.29 3.12 3.12 0 0 1-1.1-.81 3.57 3.57 0 0 1-.69-1.23 4.9 4.9 0 0 1-.24-1.57 4.78 4.78 0 0 1 .25-1.58 3.67 3.67 0 0 1 .7-1.23 3.16 3.16 0 0 1 1.1-.8 3.5 3.5 0 0 1 1.45-.29 3.56 3.56 0 0 1 1.47.29 3.13 3.13 0 0 1 1.1.8 3.6 3.6 0 0 1 .69 1.23 5 5 0 0 1 .23 1.58zm-.91 0a4.1 4.1 0 0 0-.2-1.34 2.76 2.76 0 0 0-.55-1 2.3 2.3 0 0 0-.82-.59 2.68 2.68 0 0 0-2 0 2.29 2.29 0 0 0-.82.59 2.76 2.76 0 0 0-.55 1 4.11 4.11 0 0 0-.2 1.34 4 4 0 0 0 .2 1.33 2.83 2.83 0 0 0 .55 1 2.27 2.27 0 0 0 .82.58 2.65 2.65 0 0 0 1 .2 2.6 2.6 0 0 0 1-.2 2.28 2.28 0 0 0 .82-.58 2.78 2.78 0 0 0 .55-1 4.07 4.07 0 0 0 .21-1.33zM93.81 191.15v3.11h-.91v-7.51h1.95a8.35 8.35 0 0 1 .84 0 4.07 4.07 0 0 1 .63.12 2.25 2.25 0 0 1 1.2.73 2 2 0 0 1 .42 1.28 2.13 2.13 0 0 1-.15.81 1.86 1.86 0 0 1-.41.62 2.18 2.18 0 0 1-.63.43 3.4 3.4 0 0 1-.82.25l2.22 3.21h-.92l-2.31-3.11zm0-3.58v2.75h1.62a2.55 2.55 0 0 0 .53-.1 1.47 1.47 0 0 0 .74-.47 1.29 1.29 0 0 0 .26-.84 1.21 1.21 0 0 0-.25-.78 1.35 1.35 0 0 0-.67-.43 2.6 2.6 0 0 0-.48-.09h-.71zM101.63 194.26l3.06-7.51h.79l3.06 7.51h-1l-.9-2.26h-3.14l-.9 2.26zm3.45-7.73a1.77 1.77 0 0 1-.51-.07 1.21 1.21 0 0 1-.41-.21 1 1 0 0 1-.27-.33 1 1 0 0 1 0-.89 1 1 0 0 1 .27-.33 1.21 1.21 0 0 1 .41-.21 1.86 1.86 0 0 1 1 0 1.21 1.21 0 0 1 .41.21 1 1 0 0 1 .27.33 1 1 0 0 1 0 .89 1 1 0 0 1-.27.33 1.21 1.21 0 0 1-.41.21 1.77 1.77 0 0 1-.49.08zm0 1.38q-.5 1.4-1 2.55l-.28.71h2.49l-.28-.71q-.46-1.17-.94-2.55zm0-2.93a.69.69 0 0 0-.42.13.49.49 0 0 0 0 .75.78.78 0 0 0 .85 0 .49.49 0 0 0 0-.75.69.69 0 0 0-.43-.11zM113.3 191.15v3.11h-.91v-7.51h2.79a4.09 4.09 0 0 1 .63.12 2.24 2.24 0 0 1 1.2.73 2 2 0 0 1 .42 1.28 2.13 2.13 0 0 1-.15.81 1.86 1.86 0 0 1-.41.62 2.18 2.18 0 0 1-.63.43 3.4 3.4 0 0 1-.82.25l2.22 3.21h-.92l-2.31-3.11zm0-3.58v2.75h1.62a2.55 2.55 0 0 0 .53-.1 1.47 1.47 0 0 0 .74-.47 1.29 1.29 0 0 0 .26-.84 1.21 1.21 0 0 0-.25-.78 1.36 1.36 0 0 0-.67-.43 2.62 2.62 0 0 0-.48-.09h-.71zM122.61 188.74a1 1 0 0 0 .13.55 1.1 1.1 0 0 0 .36.36 2.2 2.2 0 0 0 .53.23l.63.17.86.24a2.68 2.68 0 0 1 .75.36 1.72 1.72 0 0 1 .54.59 1.89 1.89 0 0 1 .21.94 2.17 2.17 0 0 1-.22 1 1.92 1.92 0 0 1-.61.7 2.75 2.75 0 0 1-.92.4 5.12 5.12 0 0 1-1.77.09 5.71 5.71 0 0 1-.58-.1 4.4 4.4 0 0 1-.5-.14 2 2 0 0 1-.35-.16v-.84a3.43 3.43 0 0 0 .46.19 5.42 5.42 0 0 0 .52.14l.54.09a4.49 4.49 0 0 0 .52 0 4 4 0 0 0 .75-.07 2 2 0 0 0 .62-.22 1.17 1.17 0 0 0 .43-.43 1.37 1.37 0 0 0 .16-.68 1 1 0 0 0-.14-.55 1.15 1.15 0 0 0-.37-.36 2.32 2.32 0 0 0-.53-.23l-.63-.17c-.29-.07-.58-.14-.86-.23a2.71 2.71 0 0 1-.75-.35 1.73 1.73 0 0 1-.53-.58 1.83 1.83 0 0 1-.2-.9 2.14 2.14 0 0 1 .21-1 1.92 1.92 0 0 1 .57-.68 2.43 2.43 0 0 1 .82-.4 3.71 3.71 0 0 1 1-.13 5.08 5.08 0 0 1 1.12.12 5.32 5.32 0 0 1 1 .3v.85a6.46 6.46 0 0 0-1-.32 4.49 4.49 0 0 0-1.06-.13 2.61 2.61 0 0 0-.74.09 1.49 1.49 0 0 0-.52.26 1 1 0 0 0-.31.42 1.38 1.38 0 0 0-.14.58zM131.83 194.26h-.91v-7.51h4.48v.83h-3.57V190H135v.83h-3.16zM140.32 193.44h3.85v.82h-4.77v-7.51h4.6v.83h-3.64V190h3.24v.83h-3.24zM149.17 188.74a1 1 0 0 0 .13.55 1.12 1.12 0 0 0 .36.36 2.25 2.25 0 0 0 .53.23l.62.17.86.24a2.71 2.71 0 0 1 .75.36 1.72 1.72 0 0 1 .54.59 1.89 1.89 0 0 1 .21.94 2.14 2.14 0 0 1-.22 1 1.91 1.91 0 0 1-.61.7 2.75 2.75 0 0 1-.92.4 4.87 4.87 0 0 1-1.17.13 4.81 4.81 0 0 1-.6 0 5.62 5.62 0 0 1-.58-.1 4.4 4.4 0 0 1-.5-.14 1.94 1.94 0 0 1-.35-.16v-.84a3.43 3.43 0 0 0 .46.19 5.38 5.38 0 0 0 .52.14l.54.09a4.46 4.46 0 0 0 .52 0 4 4 0 0 0 .75-.07 2 2 0 0 0 .63-.22 1.17 1.17 0 0 0 .43-.43 1.37 1.37 0 0 0 .16-.68 1 1 0 0 0-.14-.55 1.13 1.13 0 0 0-.37-.36 2.27 2.27 0 0 0-.53-.23l-.63-.17c-.29-.07-.58-.14-.86-.23a2.74 2.74 0 0 1-.75-.35 1.72 1.72 0 0 1-.53-.58 1.83 1.83 0 0 1-.2-.9 2.17 2.17 0 0 1 .21-1 2 2 0 0 1 .57-.68 2.42 2.42 0 0 1 .82-.4 3.73 3.73 0 0 1 1-.13 5.1 5.1 0 0 1 1.12.12 5.32 5.32 0 0 1 1 .3v.85a6.46 6.46 0 0 0-1-.32 4.5 4.5 0 0 0-1.06-.13 2.6 2.6 0 0 0-.74.09 1.48 1.48 0 0 0-.52.26 1.08 1.08 0 0 0-.31.42 1.42 1.42 0 0 0-.14.54zM160.17 194.26h-.91v-6.69h-2.51v-.83h5.93v.83h-2.51zM63.3 59.56s4.06 8.7 8.82 11.22a24 24 0 0 0 22.24.38c6.77-3.48 11.3-11.79 12.25-13 1.2-1.49.71.51 3 2.92s3.72 1.53 5.65-1 2.83-4.18 4.64-4.45 7.38 8.09 8 14.42-5.7 5.95-8.21 3.65-11.69-5.63-13.08-3.12.56 19.91-10.19 23.2-25.35 0-27.39-11S59 80.6 55.16 76.54 58.47 68 59.48 63s3.82-3.44 3.82-3.44zM68 36.6c-.8-.68 2.44-2.66-.13-4.53a9 9 0 0 1-4.06-6.54c-.37-1.79-6 1.89-7.72 2.21-1.3.24-4.9 1.17-6.4-3.36-.75-2.26-7 6-5.38 10.93s4.42 4.29 9.08 3.33 5.44-.13 6.6 1.8-.59 3.76.85 4.62c.83.49 2.63-4.41 4.28-4.88S71.2 46 74 44.43c5-2.91-5.21-7.16-6-7.83zm-10.4-7.37s-.54 3.23 2.31 3.3c-.01 0-6.28 1.47-2.32-3.3z"/><path class="cls-1" d="M152.17 68.64c-2.43 2.65-4.51 10.89-6.71 10.22s-3.09-5.16-4.85-7.06-.81-6.1-11.69 5.52A18.18 18.18 0 0 0 128 63c-3.75-7.94-7.94-10.59-9.71-9.7a8.74 8.74 0 0 0-1.78 1.37 12 12 0 0 0-4.31-12.07C107.38 39.05 99 30.89 101 24.71s4.39-7.27 8.16-7.28C116.8 17.41 116.8 0 113.31 0c-1.35 0-2.44 8.23-9.69 13.42-5.54 4-10.8 12.61-4 22.32S110 44.13 112 49.64c1 2.87.09 6.09-1 8.53-1.58-1.25-3.66-4.63-5.21-2.91-2 2.21-3.75 8.16-10.81 12.13s-18.09 7.5-25.81-3.09-7.94-15.22-7.94-15.22 3.75-5.52 4.19-6.4 5.18 6.79 10.36 3.37c4.85-3.2 0-8.32-5.35-10.58 0 0 1.83-1.61.51-3.16s-2.1-.88-3.7-4.85-2.44-5.46-4.9-4.62-7.1 4-10 .66-.66-5.74-3.09-9.71-21.4-1.1-20.08 5.07 9 22.72 17.21 28.46a21.83 21.83 0 0 1-3.5 20.08c-7.5 9.93-11.69 20.52-5.51 26.25 0 0-9.93 7.28-16.33 11s-20.51 13.24-19.41 17 13 4.19 15.88-1.32 1-8.17 7-10.81 14.26-4.65 15.59-5.09c0 0 3.66-.87 3.88-.87s-.66 10.15 2 13.69 22.06.66 25.81 1.1.44-3.75-2.87-6.18-5.08-1.76-7.94-1.33-7.94 2-8.6-.88.66-3.53.66-3.53a29.31 29.31 0 0 0 9 1.68 97 97 0 0 0 22.73-.92c-1.31 1-2.41 2.3-1.76 3.46 1.12 2 3.6-.48 4.79-2.6a8.5 8.5 0 0 0 2 1.47c-1.24 1.67-2.85 4.41-1.47 6 1.77 2.09 3.72-2.07 4.19-5.17a11.29 11.29 0 0 0 2.81.08 15.5 15.5 0 0 0 3.65-.77c.51 2.08 1.48 4.85 3 4.76 2-.12 1.73-3.19.09-6.27a10.86 10.86 0 0 0 1.44-1.21c1.33 1.58 3.14 3.31 4.35 2.67 1.74-.93.33-3.44-2.29-5.52a12.84 12.84 0 0 0 1.28-4.79q.89-.54 1.78-1.12s2.45 8.84 2.23 12.82-8.88 12.44-8.93 18.15c0 4.72 1.24 3.49 6.18 1.39 4.06-1.72 5.13-2.67 5.13-8.25 0-3.53 2.52-7.76 4-10.85s4.17-4.41 3.07-7.72a7.44 7.44 0 0 1 .39-5.72 18.85 18.85 0 0 0 8.87-6.31c3.31-4.63 6-7.94 7.5-7.94s10.15 10.12 23.39-5.79c7.09-8.55-5.86-11.96-8.29-9.32zm-44.81-57.8c3-2 5.41-10.46 6.29-9.21 1.12 1.58 2.34 12.87-3.13 14.28s-6.06-3.14-3.16-5.06zm47.14 71.34c-7.27 6.44-13.34 2.81-15.66.77s-4.84.39-6.19 2.51-4.56 7.16-8.31 9.28c-11 6.22-14.79.15-16.37 1.69-5.74 3.62-17 8-22.4 9.53-4.87 1.41-15.18 2.17-26.63.45-5.31-.8-13.15-3.94-13.15-3.94-5.12 1.18-4.59.53-8.22 1.72-2.16.71-14.75 4.15-16.49 5.44s-1.92 6.89-5 8.43c-1.49.74-10.49-1-10.49-1 1.77-1.89 16.3-11.46 26.17-17.65s7.35-6.46 7.35-6.46c-4.11-3.39-2.37-8.25-1.79-12.51s4.83-9.28 9.09-16.24 1.35-18 1.35-18c-6.77-3.1-8.12-8.7-13.53-18.76s-2.52-11-2.52-11c.72-1.2 7.82-4.21 12.18-2.9s5.39.25 6.19 8.51 9.67 3.09 12.18 1.95 2.9 1.94 3.48 4.06 2.87 3.1 4.22 4.46-.53 3.33-.53 3.33 5.85 2.26 7.05 5.84c.95 2.81-1.21 4.39-3.73 4.49s-6.92-5.09-7.55-4.27c-1.08 1.41-5 7.38-5 7.38s-.72 3.43 6.86 14C75.24 74.77 85 72.91 92.64 70c8.43-3.21 13.12-12.38 14-13.74s3.12 4.2 5.15 4.64 4.79-6.27 7.54-6.77 9.43 10.51 9.67 16.79-2.9 7.58-1.74 8.55 9-9.09 11-8.55 3.29 6.8 6.19 9.32 3.83-1.49 5.86-4.67c.88-1.39 2.78-.71 5.58.91 2.11 1.27 4.11.84-1.39 5.7z"/><path class="cls-1" d="M106.42 132.2s-41-.1-50.61.64c-2.75.21-3.32.92 2.91 2.15.82.16 1.83.71.23 1-2.27.35-6.62.66-12.88 1.08-15.06 1-28.83 1.5-28.65 2.67.29 1.89 66.66 2 69.85 1.38 1.13-.21 1.71-1.36-1.48-1.8-.83-.12-1.09-.72 1.61-.83 1.86-.08 5.23-.22 10.22-.2 9 0 50.67.88 50.67-.88 0-2.08-37.44-2.26-36.24-2.76 4.15-1.8.83-2.65-5.63-2.45z"/></svg>
