<svg id="Layer_1" data-name="Layer 1" xmlns="http://www.w3.org/2000/svg" viewBox="0 0 901.87 203.07"><defs><style>.cls-1{fill:#93c01f;}.cls-2{fill:#30302f;}</style></defs><title>Mejeri-logo-10</title><path class="cls-1" d="M26.53,130c2.4,0,21,.06,29.59,0a2.21,2.21,0,0,0,2.45-1.42c.35-.7,1.78-3.63,2.1-4.34.91-2,.89-2.19.58-3.89C53.68,79,66.16,58.32,80.07,47c12.12-9.93,26.66-10.16,40-10.16l76,0c2.38,0,4.08-.21,5.11-2.36,0,0,8.4-16.55,11.18-22.25,1.28-2.6,1.68-3,1.73-6.64,0-3.36.4-4.77-1.77-4.77C187,.75,126,.68,110.53.68,72.79.68,47.84,15.95,33.86,38,24,53.6,18.47,70.81,18.21,94.22c-.07,7.4,1.07,23,3.92,32.6C22.9,128.88,23.54,130,26.53,130Z"/><path class="cls-1" d="M96.08,113.57c3.4,8.13,2.2,16.37-2.61,18.39S82,129,78.57,120.84s-2.21-16.39,2.63-18.39S92.69,105.41,96.08,113.57Z"/><path class="cls-1" d="M102,87.15c2.84,6.86,1.87,13.83-2.2,15.49s-9.69-2.5-12.55-9.34-1.88-13.83,2.21-15.54S99.12,80.28,102,87.15Z"/><path class="cls-1" d="M109.47,65.24c2.43,5.89,1.6,11.83-1.9,13.28s-8.3-2.15-10.75-8-1.6-11.82,1.9-13.27S107,59.36,109.47,65.24Z"/><path class="cls-1" d="M110.1,103.84c-7,5.33-10.17,13-7,17.21s11.43,3.22,18.46-2.11,10.19-13,7-17.2S117.14,98.51,110.1,103.84Z"/><path class="cls-1" d="M115.55,78.23c-5.88,4.58-8.45,11.09-5.75,14.59s9.67,2.6,15.54-2,8.44-11.1,5.75-14.58S121.42,73.66,115.55,78.23Z"/><path class="cls-1" d="M120.92,55.11c-4.8,4.2-6.66,9.91-4.19,12.74s8.4,1.76,13.19-2.44,6.68-9.89,4.19-12.75S125.74,50.91,120.92,55.11Z"/><path class="cls-1" d="M61.66,123"/><path class="cls-1" d="M187.58,54.08c-2.41,0-21-.07-29.57-.06a2.22,2.22,0,0,0-2.45,1.43c-.36.71-1.81,3.64-2.12,4.33-.9,2-.88,2.2-.57,3.92,7.57,41.35-4.92,62-18.8,73.38-12.12,9.91-26.68,10.18-40,10.18l-76,0c-2.38,0-4.07.21-5.11,2.35,0,0-8.39,16.55-11.17,22.25-1.27,2.6-1.69,3-1.73,6.65,0,3.35-.4,4.76,1.77,4.76,25.3,0,86.31.08,101.78.08,37.74,0,62.68-15.28,76.69-37.34,9.9-15.58,15.37-32.81,15.62-56.22.07-7.38-1.09-23-3.91-32.59C191.25,55.16,190.59,54.08,187.58,54.08Z"/><path class="cls-2" d="M260.41,73.52,255,80H244.8V76.84l7.72-9.51c-6.12-6.49-9.76-15.72-9.76-27.56,0-24.94,17.08-39,38.36-39a41.52,41.52,0,0,1,21.3,5.64L307.56,0h10.36V3.13l-7.86,9.55c5.91,6.6,9.55,15.7,9.55,27.09,0,24.93-16.55,38.6-38.48,38.6A43.81,43.81,0,0,1,260.41,73.52Zm8.14-25.76L289.76,22a10.86,10.86,0,0,0-8.64-3.74c-7.82,0-13.08,6.3-13.08,21.72A45.89,45.89,0,0,0,268.55,47.76Zm25.81-7.83a49.71,49.71,0,0,0-.54-7.37l-21,25.74a11.13,11.13,0,0,0,8.28,3.35C289,61.64,294.36,55.28,294.36,39.93Z"/><path class="cls-2" d="M331.75,1.92h25.6V30.24L379.13,1.92h22.56V6.58L380.78,32.37l22.94,40.21V77.2H378.15L362.27,49.13l-4.92,5.39V77.2h-25.6Z"/><path class="cls-2" d="M408.06,39.77c0-24.94,17.06-39,38.33-39s38.53,14.08,38.53,39-16.59,38.6-38.53,38.6S408.06,64.7,408.06,39.77Zm51,.15c0-15.11-5-21.19-12.63-21.19s-12.53,6.09-12.53,21.19,5,21.1,12.53,21.1S459,55,459,39.93Z"/><path class="cls-2" d="M496.63,77.2V1.92h25.56V60.09h22.46l2.72,4.38V77.2Z"/><path class="cls-2" d="M551.93,40c0-24.91,17.07-39,38.4-39s38.44,14.12,38.44,39-16.51,38.58-38.44,38.58S551.93,64.93,551.93,40Zm51,.11c0-15-5.06-21.14-12.57-21.14s-12.59,6.12-12.59,21.14,5.06,21.17,12.59,21.17S602.9,55.11,602.9,40.09Z"/><path class="cls-2" d="M638.52,40.55C638.52,15,654.12,1,680.26,1,690.49,1,697.64,2.82,703.92,6V23.14H693.69A21.58,21.58,0,0,0,680.56,19c-10.55,0-16,5.55-16,21.38,0,16.26,3.91,21.6,12.72,21.6a19.35,19.35,0,0,0,6.22-.76V50.65h-7.1V36.2H707V72.77c-8.29,3.73-18.58,5.79-29.67,5.79C650.13,78.57,638.52,64.63,638.52,40.55Z"/><path class="cls-2" d="M721.45,77.42V2.16H747V77.42Z"/><path class="cls-2" d="M760.14,72.58V56.3h10.12c2.76,2.71,7.85,4.89,14.2,4.89,6,0,9.43-1.62,9.43-5,0-4.41-4.1-5-12-6.69-13.78-3-22.16-8.18-22.16-24.19C759.7,8.93,772.28,1,790.23,1,800.46,1,808.29,3,814.44,6.24V22.11H804.3c-2.67-2-7.76-3.81-13.23-3.81-6.09,0-8.78,1.52-8.78,4.66,0,3.68,3.31,4.54,10.6,6.06C812.14,32.89,818,39.35,818,53.66c0,15.53-11.17,24.9-32.46,24.9C774.32,78.57,765.84,76.11,760.14,72.58Z"/><path class="cls-2" d="M829.86,2.16h25.58V30.41L877.24,2.16h22.61V6.75l-21,25.8,23,40.22v4.64H876.29l-15.9-28.08-5,5.36V77.42H829.86Z"/><path class="cls-2" d="M244.25,182.76V97.12h2.19c3.58,0,4,.75,4,5.89v79.74Z"/><path class="cls-2" d="M302.6,174.06c-5.42,5.69-11.32,9.34-21.77,9.34-11.84,0-20.55-6.47-20.55-18.5,0-12.78,10.65-18.75,25.56-18.75a65.76,65.76,0,0,1,16.76,2V136.68c0-9.89-6.35-13.43-15.62-13.43-9.46,0-15.81,2.41-19.83,5.64h-2.61V123.8a45.46,45.46,0,0,1,22.65-5.51c13,0,21.52,4.81,21.52,18v46.47H307c-3.54,0-4.4-1.09-4.4-6.23Zm0-5.82V152.52a75.61,75.61,0,0,0-16.39-1.9c-11.26,0-19.68,4-19.68,13.81,0,10.12,6.56,14.18,15.15,14.18C291.94,178.61,297.6,174.16,302.6,168.24Z"/><path class="cls-2" d="M329.64,129.19c7.25-5.76,16.74-10.9,28-10.9,8.88,0,16.55,3.68,16.55,17v47.49H368V136.09c0-10.21-5.5-12.66-12.72-12.66-9.4,0-18.44,5.28-25.68,10.81v48.51h-6.1V119.08h2.81c2.65,0,3.29.72,3.29,6.39Z"/><path class="cls-2" d="M433.86,171.76a29.84,29.84,0,0,1-23.4,11.52c-12.84,0-25.17-8.11-25.17-31.82,0-24.66,14.22-33.17,27.28-33.17,10.06,0,16.48,3.12,21.3,8V97.12h2c3.63,0,4.24.75,4.24,5.89v79.74h-3.22c-2.58,0-2.89-1.22-3-7.09Zm0-6.24v-33.8c-5-5.3-10.91-8.62-20.3-8.62-10.77,0-22,5.87-22,28.08,0,21.2,10,27.32,19.58,27.32C421.48,178.49,428.32,173,433.86,165.52Z"/><path class="cls-2" d="M450.86,177.23v-5h2.44c3,2.8,8.67,6.25,17.87,6.25,11.71,0,17.29-4.9,17.29-13.7,0-7.47-4.11-10.55-17.1-12.57-12.2-2-19.92-6.25-19.92-17,0-11,8.71-16.93,21.39-16.93,9.29,0,14.94,2.47,18.48,4.81v5h-2.42c-3.45-2.77-7.72-5-15.88-5-10.38,0-15.83,3.89-15.83,11.59,0,7.38,4.3,10.18,16.68,12.23,13.29,2.1,20.65,6.16,20.65,17.4,0,11.71-7.24,19-23.14,19C460.5,183.28,454.49,180,450.86,177.23Z"/><path class="cls-2" d="M499.58,119.08H508v-6.34c0-11.22,6.38-15.91,15-15.91a37.76,37.76,0,0,1,7.82.66v4.34h-6.33c-6.62,0-10.32,2.4-10.32,11.22v6h15.44v4.65H514.11v59H508v-59h-8.41Z"/><path class="cls-2" d="M530.84,150.81c0-20,12-32.52,29.57-32.52,17.88,0,29.72,12.53,29.72,32.52,0,20.2-11.84,32.47-29.72,32.47C542.83,183.28,530.84,171,530.84,150.81Zm53.06,0c0-17.32-8.92-27.71-23.49-27.71-14.42,0-23.36,10.39-23.36,27.71,0,17.52,8.94,27.69,23.36,27.69C575,178.49,583.9,168.33,583.9,150.81Z"/><path class="cls-2" d="M607.42,130.08c4.88-5.88,11.85-11.52,20.92-11.52a8.85,8.85,0,0,1,2.93.35v5s-1.58-.14-2.67-.14c-9.33,0-16.06,6-21.18,12v47h-6.09V119.08h2.79c2.72,0,3.3.72,3.3,6.92Z"/><path class="cls-2" d="M663.8,178.25c10.17,0,16.4-3.21,19.83-6.67h2.68v4.58c-4.51,3.58-11.47,7.11-23.12,7.11-19.2,0-29.81-12.38-29.81-32.13,0-20.1,12-32.86,28.27-32.86,15.62,0,26.12,9.09,26.12,29.87,0,1.24-.1,2.65-.1,3h-48C639.61,168.93,648,178.25,663.8,178.25Zm-24-31.79h41.9c-.36-17-8.16-23.53-20-23.53S641.22,130.81,639.76,146.46Z"/><path class="cls-2" d="M704.75,129.19c7.24-5.76,16.78-10.9,28.06-10.9,8.9,0,16.47,3.68,16.47,17v47.49h-6.13V136.09c0-10.21-5.51-12.66-12.73-12.66-9.38,0-18.44,5.28-25.67,10.81v48.51h-6.1V119.08h2.84c2.7,0,3.27.72,3.27,6.39Z"/><path class="cls-2" d="M763.12,105.13a4.15,4.15,0,1,1,8.3,0,4.15,4.15,0,0,1-8.3,0Zm.95,77.63V119.08h2c3.69,0,4.17.72,4.17,6.58v57.1Z"/><path class="cls-2" d="M791.39,129.19c7.22-5.76,16.76-10.9,28-10.9,8.95,0,16.53,3.68,16.53,17v47.49h-6.09V136.09c0-10.21-5.57-12.66-12.74-12.66-9.43,0-18.49,5.28-25.71,10.81v48.51H785.3V119.08h2.8c2.68,0,3.29.72,3.29,6.39Z"/><path class="cls-2" d="M901.83,182.06c0,14-12.24,21-27,21-10.87,0-19.42-2.56-24.33-5.64v-4.78h2.44c4.05,3.18,11.71,5.61,21.13,5.61,11.89,0,21.56-4.52,21.56-16.6V171A30.36,30.36,0,0,1,872,182.27c-12.38,0-24.91-8.11-24.91-31.24,0-24.15,14.1-32.74,27.33-32.74,9.81,0,16.56,3.22,21.19,8,.36-3.78.92-7.17,4.23-7.17h2Zm-6.21-17.43V131.9c-5.19-5.48-11-8.8-20.06-8.8-10.54,0-22.27,5.45-22.27,27.62,0,20.87,10,26.83,19.54,26.83C883.12,177.55,890.23,171.88,895.62,164.63Z"/></svg>