<svg id="Layer_1" data-name="Layer 1" xmlns="http://www.w3.org/2000/svg" viewBox="0 0 160.99 141.4"><defs><style>.cls-1{fill:#16464b;}</style></defs><title>logo til menu</title><path class="cls-1" d="M61.73,59.56s4.06,8.7,8.82,11.22a24,24,0,0,0,22.24.38c6.77-3.48,11.3-11.79,12.25-13,1.2-1.49.71.51,3,2.92s3.72,1.53,5.65-1,2.83-4.18,4.64-4.45,7.38,8.09,8,14.42-5.64,5.93-8.16,3.59S106.45,68.07,105,70.58s.56,19.91-10.19,23.2-25.35,0-27.39-11-10-2.14-13.86-6.21S56.9,68,57.91,63,61.73,59.56,61.73,59.56Z"/><path class="cls-1" d="M66.42,36.6c-.8-.68,2.44-2.66-.13-4.53a9,9,0,0,1-4.06-6.54c-.37-1.79-6,1.89-7.72,2.21-1.3.24-4.9,1.17-6.4-3.36-.75-2.26-7,6-5.38,10.93s4.42,4.29,9.08,3.33,5.44-.13,6.6,1.8-.59,3.76.85,4.62c.83.49,2.63-4.41,4.28-4.88s6.09,5.87,8.89,4.25C77.46,41.52,67.22,37.27,66.42,36.6ZM56,29.23s-.54,3.23,2.31,3.3C58.33,32.53,52.06,34,56,29.23Z"/><path class="cls-1" d="M150.6,68.64c-2.43,2.65-4.51,10.89-6.71,10.22s-3.09-5.16-4.85-7.06-.81-6.1-11.69,5.52A18.18,18.18,0,0,0,126.46,63c-3.75-7.94-7.94-10.59-9.71-9.7A8.74,8.74,0,0,0,115,54.65a12,12,0,0,0-4.31-12.07c-4.86-3.53-13.24-11.69-11.25-17.87s4.39-7.27,8.16-7.28c7.65,0,7.65-17.43,4.16-17.43-1.35,0-2.44,8.23-9.69,13.42-5.54,4-10.8,12.61-4,22.32s10.37,8.38,12.35,13.9c1,2.87.09,6.09-1,8.53-1.58-1.25-3.66-4.63-5.21-2.91-2,2.21-3.75,8.16-10.81,12.13s-18.09,7.5-25.81-3.09-7.94-15.22-7.94-15.22,3.75-5.52,4.19-6.4S69,49.48,74.17,46.06c4.85-3.2,0-8.32-5.35-10.58,0,0,1.83-1.61.51-3.16s-2.1-.88-3.7-4.85-2.4-5.52-4.86-4.63-7.1,4-10,.66-.66-5.74-3.09-9.71-21.4-1.1-20.08,5.07,9,22.72,17.21,28.46A21.83,21.83,0,0,1,41.31,67.4c-7.5,9.93-11.69,20.52-5.51,26.25,0,0-9.93,7.28-16.33,11S-1,117.91.06,121.66s13,4.19,15.88-1.32,1-8.17,7-10.81,14.26-4.65,15.59-5.09c0,0,3.66-.87,3.88-.87s-.66,10.15,2,13.69,22.06.66,25.81,1.1.44-3.75-2.87-6.18-5.08-1.76-7.94-1.33-7.94,2-8.6-.88.66-3.53.66-3.53a29.31,29.31,0,0,0,9,1.68,97,97,0,0,0,22.73-.92c-1.31,1-2.41,2.3-1.76,3.46,1.12,2,3.6-.48,4.79-2.6a8.5,8.5,0,0,0,2,1.47c-1.24,1.67-2.85,4.41-1.47,6,1.77,2.09,3.72-2.07,4.19-5.17a11.29,11.29,0,0,0,2.81.08,15.5,15.5,0,0,0,3.65-.77c.51,2.08,1.48,4.85,3,4.76,2-.12,1.73-3.19.09-6.27a10.86,10.86,0,0,0,1.44-1.21c1.33,1.58,3.14,3.31,4.35,2.67,1.74-.93.33-3.44-2.29-5.52a12.84,12.84,0,0,0,1.28-4.79q.89-.54,1.78-1.12s2.45,8.84,2.23,12.82-8.88,12.44-8.93,18.15c0,4.72,1.24,3.49,6.18,1.39,4.06-1.72,5.13-2.67,5.13-8.25,0-3.53,2.52-7.76,4-10.85s4.17-4.41,3.07-7.72a7.44,7.44,0,0,1,.39-5.82A18.85,18.85,0,0,0,128,91.66c3.31-4.63,6-7.94,7.5-7.94s10.15,10.12,23.39-5.79C166,69.41,153,66,150.6,68.64Zm-44.81-57.8c3-2,5.41-10.46,6.29-9.21,1.12,1.58,2.34,12.87-3.13,14.28S102.89,12.77,105.79,10.85Zm47.13,71.33c-7.27,6.44-13.34,2.81-15.66.77s-4.84.39-6.19,2.51-4.56,7.16-8.31,9.28c-11,6.22-14.79.15-16.37,1.69-5.74,3.62-17,8-22.4,9.53-4.87,1.41-15.18,2.17-26.63.45-5.31-.8-13.15-3.94-13.15-3.94-5.12,1.18-4.59.53-8.22,1.72-2.16.71-14.75,4.15-16.49,5.44s-1.92,6.89-5,8.43C13,118.81,4,117,4,117c1.77-1.89,16.3-11.46,26.17-17.65s7.35-6.46,7.35-6.46c-4.06-3.37-2.32-8.23-1.74-12.49s4.83-9.28,9.09-16.24,1.35-18,1.35-18c-6.77-3.1-8.12-8.7-13.53-18.76s-2.52-11-2.52-11c.72-1.2,7.82-4.21,12.18-2.9s5.39.25,6.19,8.51S58.18,25.14,60.69,24s2.9,1.94,3.48,4.06,2.87,3.1,4.22,4.46-.53,3.33-.53,3.33,5.85,2.26,7.05,5.84c.95,2.81-1.21,4.39-3.73,4.49s-6.92-5.09-7.55-4.27c-1.08,1.41-5,7.38-5,7.38s-.72,3.43,6.86,14c8.18,11.46,17.95,9.6,25.58,6.7,8.43-3.21,13.12-12.38,14-13.74s3.12,4.2,5.15,4.64,4.79-6.27,7.54-6.77,9.43,10.51,9.67,16.79-2.9,7.58-1.74,8.55,9-9.09,11-8.55,3.29,6.8,6.19,9.32,3.83-1.49,5.86-4.67c.88-1.39,2.78-.71,5.58.91C156.48,77.75,158.41,77.32,152.92,82.18Z"/><path class="cls-1" d="M104.85,132.2s-41-.1-50.61.64c-2.75.21-3.32.92,2.91,2.15.82.16,1.83.71.23,1-2.27.35-6.62.66-12.88,1.08-15.06,1-28.83,1.5-28.65,2.67.29,1.89,66.66,2,69.85,1.38,1.13-.21,1.71-1.36-1.48-1.8-.83-.12-1.09-.72,1.61-.83,1.86-.08,5.23-.22,10.22-.2,9,0,50.67.88,50.67-.88,0-2.08-37.44-2.26-36.24-2.76C114.63,132.85,111.31,132,104.85,132.2Z"/></svg>