<svg id="Layer_1" data-name="Layer 1" xmlns="http://www.w3.org/2000/svg" viewBox="0 0 54.06 49.71"><defs><style>.cls-1{fill-rule:evenodd;}</style></defs><title>Ikoner + vandmærker NY</title><path class="cls-1" d="M54.06,42.88C49,38.82,42.8,34.22,37.17,30.34l1.07-1.27L36.9,27.94a19.42,19.42,0,1,0-6,7.21l1.32,1.11.91-1.08c4.78,4.89,10.35,10.22,15.21,14.53.83-.24,2.15-1.55,3.16-2.7h0l.24-.28.24-.28h0C52.89,45.26,54,43.74,54.06,42.88ZM30.11,28.43a14,14,0,1,1,3.23-10.19A13.92,13.92,0,0,1,30.11,28.43Z"/></svg>