<svg id="Layer_1" data-name="Layer 1" xmlns="http://www.w3.org/2000/svg" viewBox="0 0 178.46 178.46"><title>ikon</title><path d="M32,137a.94.94,0,0,0,.59-.17c.23-.18.64-.72.59-1a1.08,1.08,0,0,0-.76-.59c-.12,0-.33.18-.41.28s-.52.7-.48,1A.9.9,0,0,0,32,137Z"/><path d="M29.91,133.19c.15,0,.37-.27.41-.41a2.66,2.66,0,0,0-.17-1.31c-.11-.3-.7-.75-.72-1.07s.26-.48.31-.65a2.59,2.59,0,0,0,.1-.93c-.07-.32-.36-1.12-.69-1.14s-.28.64-.48.66-.21-.16-.24-.24c-.15-.32,0-1.08-.1-1.41s-.33-.68-.55-.76a1.18,1.18,0,0,0-.83.24,1.51,1.51,0,0,0-.34.83,11.72,11.72,0,0,0,2.24,5.56C29,132.77,29.6,133.22,29.91,133.19Z"/><path d="M68.24,153.82c-.07-.25-.13-.81-.31-1s-1.17-.29-1.52-.48c-.81-.46-2-2-2.79-2.48-.12-.07-.39-.22-.52-.17s-.15.33-.24.41a4.71,4.71,0,0,1-1.72.9,4.19,4.19,0,0,1-1.66-.14c-.29-.1-.93-.39-1-.69,0-.09.1-.26.17-.31.52-.39,2-.19,2.55-.59a2,2,0,0,0-.59-3.73c-.15,0-.4.25-.55.24s-.38-.13-.41-.24.14-.35.24-.41c.28-.18,1.14.11,1.31-.17s-.44-.78-.41-1.07a.87.87,0,0,1,.24-.41,6.53,6.53,0,0,1,.83-.35c.48-.28,1.22-1.25,1.76-1.38a1.32,1.32,0,0,1,.66.14c.27.14.59.81.9.83A2.51,2.51,0,0,0,67,141.33c.06-.26-.51-.67-.48-.93s.78-.74.9-1.07a2,2,0,0,0,0-1.17,2.84,2.84,0,0,0-1.31-.9,3.19,3.19,0,0,0-1.48,0c-.53.19-1.24,1.2-1.76,1.41s-2,0-2.66.24c-.44.15-1.09,1-1.55,1-.06,0-.18-.11-.17-.17.07-.62,1.53-1.15,2.14-1.31.43-.11,1.34.2,1.76.07s1.25-1,1.73-1.24c.12-.06.41-.09.52-.17s.14-.34.24-.41.87,0,1-.17-.11-.73-.28-.9-.62-.07-.66-.24.29-.24.35-.35a2.44,2.44,0,0,0,.24-1,1.82,1.82,0,0,0-.41-1.07c-.1-.07-.37,0-.48,0s-.4-.27-.41-.41c0-.3.62-.7.66-1a3,3,0,0,0-.66-1.9c.17-.06.27-.48.41-.59.35-.26,1.28-.32,1.66-.55s.81-.54.83-.83-.3-.4-.41-.52c-.42-.43-1.23-1.51-1.83-1.55-.19,0-.47.37-.66.41a5.35,5.35,0,0,1-2.24-.17c-.15-.05-.5-.19-.52-.34s.11-.15.17-.17c.44-.17,1.45.26,1.9.11a.54.54,0,0,0,.28-.24c0-.13-.15-.38-.17-.52s-.12-.51,0-.59c.36-.23,1.13.69,1.55.69s1.15-.72,1.59-.76,1,.4,1.31.35a.85.85,0,0,0,.52-.35c.07-.19-.24-.56-.24-.76a1.64,1.64,0,0,1,.24-.9c.15-.15.66-.11.83-.24.32-.25.57-1.09.83-1.41.41-.52,2-1.18,1.9-1.83,0-.17-.48-.22-.66-.24-.41-.05-1.24.22-1.66.17a1.91,1.91,0,0,1-.93-.35c-.24-.27-.09-1.13-.31-1.41s-.65-.27-.83-.41-.61-1-.93-1.14c-.6-.34-2.11-.1-2.73-.41-.21-.1-.74-.44-.66-.65s.75,0,1,0a10,10,0,0,1,2.38-.1c.62.2,1.45,1.38,2.07,1.59.32.11,1-.11,1.35,0s.42.39.59.48a1.17,1.17,0,0,0,.48.17c.38,0,1-.62,1.31-.76A19.8,19.8,0,0,1,76,115c.35-.05,1.17.19,1.41-.07,0,0,0-.18,0-.24-.11-.34-.86-.82-.83-1.17,0-.11.22-.25.31-.31s.85-.17,1.07-.35.7-.73.59-1-.64-.09-.83-.17-.69-.33-.72-.55.31-.44.41-.59c.25-.37.93-1,1-1.48a1,1,0,0,0-.24-.59,1.79,1.79,0,0,0-.72-.24c-.2,0-.62,0-.83,0a15.67,15.67,0,0,1-3.24-.93c-.24-.11-.9-.32-.9-.59s.64-.52.9-.55.36.12.48.14c.39.07,1.24.3,1.59.1s.27-.78.48-.93a1.41,1.41,0,0,1,.69-.07c.21,0,.61.23.83.24s.48,0,.55-.1c.32.17,1.07-.41,1.41-.31s.43.63.66.65.41-.43.59-.41.15.11.17.17-.08.44-.07.59A1.71,1.71,0,0,0,81,107c.24.26,1,.7,1.31.55.07,0,.07-.24.1-.31s.51-.59.48-.83-.3-.23-.34-.35a1.27,1.27,0,0,1,0-.73c.22-.5,1.31-1,1.59-1.52a5.36,5.36,0,0,0,.48-1.79c0-.59-.38-1.76-.31-2.35,0-.28.34-.79.41-1.07a5.64,5.64,0,0,0,.17-1.31,13.66,13.66,0,0,0-.76-2.83c-.22-.58-1-1.62-1.07-2.24a5.55,5.55,0,0,1,1.07-3c.14-.15.6-.21.76-.34.36-.3.69-1.28,1.07-1.55.17-.13.67-.09.83-.24.35-.33.34-1.46.66-1.83.12-.14.53-.21.66-.34s.21-.75.41-.9a2,2,0,0,1,1.35-.17c.25.09.48.66.72.76s.4,0,.52,0,.53.36.55.55-.51.86-.72,1.1-.86.45-.83.72.39.14.48.24a1.36,1.36,0,0,1,.35.83.88.88,0,0,1-.52.52,1,1,0,0,1-.73-.41c-.07-.13.12-.45.07-.59a.16.16,0,0,0-.07-.07h-.1a1.05,1.05,0,0,0-.31.07c-.3.17-.62.85-.93,1s-.92-.11-1.14.07a.43.43,0,0,0-.1.35c.06.17.47.28.59.41s.31,1,.59,1.14a1.08,1.08,0,0,0,.66,0c.39-.13.93-.92,1.34-1a2.61,2.61,0,0,1,2,.83,1.11,1.11,0,0,1-.24,1c-.15.12-.6-.11-.76,0a1.12,1.12,0,0,0-.31.76c0,.59.68,1.83,1.24,2a1.18,1.18,0,0,0,.9-.41,3.53,3.53,0,0,0,.17-2c-.07-.36-.68-.94-.66-1.31a5.5,5.5,0,0,1,2.14-3.24.94.94,0,0,1,.59,0,2.7,2.7,0,0,1,1.24,1.24,1.13,1.13,0,0,1-.24.83c-.11.1-.49,0-.59.07s0,.45,0,.59A4.16,4.16,0,0,0,97.32,92a.47.47,0,0,0,.31-.07,2.8,2.8,0,0,0,.66-1.07,16.34,16.34,0,0,0,.28-2.24,4.6,4.6,0,0,1,.24-1.35c.25-.41,1.23-.78,1.55-1.14a7.69,7.69,0,0,0,.52-.93c.31-.53,1-1.57,1.31-2.07s1.45-1.5,1.66-2.14a11.7,11.7,0,0,0-.07-1.9,6.86,6.86,0,0,1,.59-2.73c.11-.15.55-.19.66-.35a.62.62,0,0,0,.07-.41c-.26-.72-1.83-1.41-2.31-2s-.72-1.73-1.17-2.14a4.12,4.12,0,0,0-1.72-.76c-1.66-.19-4.89,1.2-6.55,1.24a10.78,10.78,0,0,1-3.38-.48,6.57,6.57,0,0,1-2-1.59c-.4-.54-.43-2.09-1-2.48a1.19,1.19,0,0,0-.93-.07c-.08,0-.12.26-.17.35-.42.71-1.68,1.92-1.9,2.73-.15.56.27,1.74.17,2.31,0,.22-.37.61-.35.83a.86.86,0,0,0,.35.48c.28.14.94-.07,1.24,0s.7.16.66.35c-.1.45-1.37.13-1.83.07-.25,0-.71-.3-1-.31A5.11,5.11,0,0,0,82,74.4a11,11,0,0,1-1.34.52c-.39,0-1.16-.19-1.55-.17s-1.25.47-1.66.35c-.06,0-.19-.11-.17-.17.15-.56,1.67-.51,2.24-.59a3.8,3.8,0,0,1,.72,0,8,8,0,0,0,.79.21,3.63,3.63,0,0,0,1-.28,3.59,3.59,0,0,0,1-.52,2.28,2.28,0,0,0,.41-.83c.14-.62-.22-1.93-.07-2.55a8.74,8.74,0,0,1,1.31-2.42c.58-.74,2.53-1.64,2.76-2.55a3.12,3.12,0,0,0-.59-1.76A4.17,4.17,0,0,0,85,62.08c-.44-.07-1.22.57-1.66.66a1.59,1.59,0,0,1-.76,0c-.32-.17-.51-1-.83-1.17a1.93,1.93,0,0,0-1.31,0c-.33.18-.47,1.14-.83,1.24-.17,0-.47-.32-.66-.31-.89.06-2.18,1.61-3,2a7,7,0,0,1-1.48.34c-.11,0-.36-.07-.45,0s-.16,0-.21,0a12.63,12.63,0,0,1-1.24.41c-.22,0-.77,0-.83-.24s.17-.2.24-.24c.73-.37,2.49-.19,3.24-.52a12,12,0,0,0,1.07-.83c.2-.12.64-.28.83-.41s.55-.57.76-.72.7-.56,1-.52c.12,0,.22.34.35.35.37,0,.74-.84,1.07-1s1.17-.45,1.48-.24c.09.06,0,.33.1.41a1.1,1.1,0,0,0,.66.31c.26,0,.64-.5.9-.55.82-.18,2.59.83,3.31.41a.59.59,0,0,0,.17-.41c0-.51-.82-1.29-1-1.76a15.37,15.37,0,0,1-.48-2.38,35.61,35.61,0,0,1-.48-5.14c0-.74.48-2.16.55-2.9a4.73,4.73,0,0,1,0-.83c.07-.2.48-.45.52-.66a.67.67,0,0,0-.17-.52c-.31-.18-1.06.26-1.41.24a3.87,3.87,0,0,1-1.14-.31,13.94,13.94,0,0,1-2.07-1.59c-.81-.7-2.22-2.32-3.07-3-.14-.1-.42-.35-.59-.34-.54,0-1.3,1.06-1.83,1.17-.35.07-1.06-.27-1.41-.24s-.92.37-1.24.41c-.57.07-1.74-.25-2.31-.17A5.79,5.79,0,0,0,68,44c-.17.19-.13.74-.24,1a12.82,12.82,0,0,1-.93,1.1,6.59,6.59,0,0,1-.66,1.07c-.23.19-.94.18-1.14.41s-.1.63-.17.83-.21.73-.41.72-.55-.83-.52-1.14.65-.78.83-1.07.39-.56.35-.76-.47-.48-.66-.59A8.22,8.22,0,0,0,62,44.76a13.35,13.35,0,0,0-3.14.35,5.86,5.86,0,0,0-2.07.66c-.26.23-.34,1-.59,1.24s-.57.22-.73.35a10.23,10.23,0,0,0-2,2.48A3.32,3.32,0,0,0,53,51.49c.06.25.58.51.72.72a2.89,2.89,0,0,1,.59,1.24c0,.63-1.2,1.55-1.31,2.17a3.59,3.59,0,0,0,.41,2.14c.19.24.94.24,1.14.48a1.9,1.9,0,0,1,.24,1.17c-.16.76-1.56,1.81-1.79,2.55-.08.26-.24,1,0,1.1.46.24,1.21-1.07,1.73-1.17.09,0,.26.08.34.07.31,0,.83-.51,1.14-.48s.47.46.66.41c0,.34.49.91.52,1.24a17.18,17.18,0,0,1-.76,3.38,5.6,5.6,0,0,0-.31,2,1.24,1.24,0,0,0,.66.66c.46.07,1.26-1.06,1.66-.83s.33,1.4.07,1.76c0,.05-.18.06-.24.07s-.44-.09-.59-.07c-.34.05-1,.74-1.24.55,0,0,0-.11,0-.14a6.52,6.52,0,0,0-.9-1.17c-.19-.26-.72-.74-.76-1.07a.94.94,0,0,1,.17-.41c.24-.38,1.11-.9,1.17-1.35a1.36,1.36,0,0,0-.41-.9,2.88,2.88,0,0,0-1.35-.24,11.46,11.46,0,0,1-1.31.24,1.44,1.44,0,0,1-.76-.41c-.16-.25.21-1.09-.07-1.17-.47-.14-1.36,1.13-1.17,1.59.09.24.9-.06,1,.17s-.36.94-.66,1-.41-.43-.59-.41-.36.28-.41.41.06.86,0,1.14-.21.95-.48,1-.7-.51-.83-.76a4,4,0,0,1-.17-2.07c.13-.46.91-1.13,1.14-1.55s.24-1.29.59-1.48c.08,0,.26.1.35.07.55-.23,1.14-1.43,1.31-2a2.2,2.2,0,0,0,0-.83,9.25,9.25,0,0,0-1.83-3.86,1.78,1.78,0,0,0-1.14-.35c-.26.07-.5.7-.76.76-.56.12-1.58-.95-2.14-.83-.37.08-.76.86-1.07,1.07s-.88.28-1.1.48a7.37,7.37,0,0,0-1.07,1.76c-.14.28-.57.84-.48,1.14,0,.07.17.15.24.17a5.8,5.8,0,0,0,.9-.07c.32,0,1,0,1.24.24a.4.4,0,0,1,0,.31c-.09.19-.45.52-.66.52s-.28-.34-.41-.35-.47.37-.66.41-.81-.12-1.07-.07a1.43,1.43,0,0,0-.52.24c-.68.61-1.23,2.51-1.9,3.14a1.51,1.51,0,0,1-.66.35c-.26,0-.75-.44-1-.35a.58.58,0,0,0-.24.41c0,.22.39.56.48.76A8.12,8.12,0,0,0,39,67.29c.23.31,1,.58,1.24.9.1.15,0,.57.17.69a1.91,1.91,0,0,0-.59,1.07,14,14,0,0,0,.24,1.55,2.48,2.48,0,0,1-.24,1.24,3.45,3.45,0,0,1-2.55.76c-.53-.16-.88-1.57-1.41-1.73-.25-.08-.74.35-1,.31s-.57-.24-.59-.41.27-.38.41-.41.44.22.59.17a1.26,1.26,0,0,0,.66-.76c0-.35-.53-.91-.66-1.24s-.06-.87-.24-1.07a.68.68,0,0,0-.52-.17c-.25.09-.33.77-.55.93a1.31,1.31,0,0,1-.76.17c-.73-.15-1.73-1.47-2.41-1.76a5.1,5.1,0,0,0-2.55-.41c-.22.07-.5.49-.66.66s-.15.29-.24.28-.25-.43-.28-.59.34-1,.17-1.24-1.13-.18-1.41-.41-.53-1.5-1-1.76c-.11-.07-.39,0-.52,0s-.54-.24-.59-.41.16-.46.28-.55.32-.05.41-.1.41-.27.41-.41-.31-.28-.34-.41a1,1,0,0,1,.17-.72c.09-.09.4,0,.48-.1a.87.87,0,0,0,.1-.48c0-.28,0-.93-.28-1.07-.05,0-.19,0-.24.07a2.68,2.68,0,0,0-.48.83A41.71,41.71,0,0,0,22,67.53,66.25,66.25,0,0,0,21.56,75c0,.61,0,1.84,0,2.45,0,2.21.12,6.63-.07,8.83-.17,2-1.33,5.92-1.31,7.93,0,.75-.06,2.52.55,3a.54.54,0,0,0,.52-.07c.12-.15-.07-.57-.07-.76a24,24,0,0,1,.24-2.62,7.85,7.85,0,0,0,.24-1.17c0-.33-.66-1-.41-1.24.54-.47,1.85,1.46,2.55,1.31.23,0,.45-.53.59-.73s.05-.18.1-.17c.44.07.21,1.33.41,1.72.29.57,1.42,1.34,1.66,1.93s-.09,2.26.14,3,1.45,2,1.76,2.73a4.44,4.44,0,0,1,.24,1.07,1.85,1.85,0,0,1-.07.76c-.68,1.25-3.07,3.45-4.49,3.49a1,1,0,0,1-.59-.41c-.07-.11,0-.42-.07-.52a.4.4,0,0,0-.35-.07c-.3.17-.07,1.29-.41,1.31s-.38-.71-.41-1c-.06-.44.26-1.32.24-1.76s-.25-1-.31-1.31c-.13-.78-.22-2.36-.34-3.14,0-.22-.11-.65-.17-.86s-.14-.88-.38-1a.53.53,0,0,0-.48.14c-.19.29.16,1,.21,1.38.23,1.92-.82,6.53.73,7.69-.31.42.22,1.55.21,2.07a31.43,31.43,0,0,1-.83,5.21c-.37,1.41-1.53,4.1-2,5.49-.13.39-.64,1.18-.48,1.55.28.67,2,.94,2.55,1.34,1,.69,2.52,2.78,3.66,3.21.17.06.61.14.73,0s0-1-.17-1.24c-.24-.53-1.6-1.15-1.55-1.72,0-.1.3-.15.31-.24s-.34-.42-.41-.59a2.92,2.92,0,0,1-.31-1.17,2.72,2.72,0,0,1,.72-1.24,1.4,1.4,0,0,1,.83-.31c.26.05.76.46.76.73s-.74.49-.76.76c-.07.86,1.5,2.12,2,2.83s1.33,2.45,2.07,3a5.61,5.61,0,0,0,2.42.66c.23,0,.67-.28.9-.24a4.47,4.47,0,0,1,2.07,1.41c.65.91.92,3.22,1.17,4.31a5.82,5.82,0,0,1,.24,1.24c0,.33-.38.92-.41,1.24-.09.8-.36,2.76.31,3.21-.63,1,.9,3.49.76,4.66s-1.62,3.27-1.9,4.45a8.54,8.54,0,0,0-.17,2.59c.13.75,1.15,2,1.24,2.79s-1,2.67-.59,3.41c.33.57,1.82.91,2.48.9s1.64-.9,2.24-.9c.32,0,.86.44,1.17.48.52.07,1.56-.33,2.07-.24,1,.18,2.64,1.56,3.62,1.83s2.71,0,3.55.24A5.12,5.12,0,0,1,52.43,160c.23.39-.13,1.46.17,1.79a4,4,0,0,0,3,.52c.23-.07.52-.49.69-.66s.69-1,1.07-1.1c.22,0,.6.33.83.35a2.77,2.77,0,0,0,1.07-.24,12,12,0,0,0,1.31-1.07,12.1,12.1,0,0,1,1.35-.93c.29-.15,1-.16,1.24-.41s0-.56.07-.73a6.55,6.55,0,0,1,1-1.34c.11-.13.31-.47.48-.48.32,0,.86.53,1,.83,0,.07.06.26,0,.31-.24.23-1-.25-1.31-.07a.64.64,0,0,0-.17.48c.07.37.91.74,1,1.1s-.3.8-.24,1.07a.82.82,0,0,0,.31.41c.32.16,1.09-.14,1.41,0s.55.77.83.9a1.24,1.24,0,0,0,.83,0,1.32,1.32,0,0,0,.48-.9c-.07-.7-1.83-1.47-1.79-2.17,0-.19.36-.5.55-.55s.69.26.93.24.53-.09.59-.24-.14-.26-.17-.35C68.73,156,68.44,154.54,68.24,153.82Z"/><path d="M77.27,155.4a13,13,0,0,0-2.59-3.73c-.38-.27-1.39-.29-1.79-.52A20.74,20.74,0,0,1,71,149.33a9.48,9.48,0,0,0-2.14-1.55,4,4,0,0,0-1,0,4.28,4.28,0,0,0-1.24.07c-.51.23-1.56,1-1.55,1.59,0,.23.43.6.66.66s.84-.34,1.14-.35c.11,0,.35,0,.41.1s.1.42,0,.48-.22-.17-.31-.17c-.34,0-1.22.24-1.24.59s.89.66,1.24.76a9.38,9.38,0,0,0,1.31,0c.36,0,1.31-.1,1.41.24.05.16-.46.31-.48.48s.09.22.14.28a6.29,6.29,0,0,0,1.76,1.14c.2.08.8,0,.83.17s-.71.22-.83.41a.79.79,0,0,0,0,.59c0,.08.23.13.31.17s.58.15.59.31-.5.52-.72.52-.33-.18-.41-.28c-.34-.38-.5-1.53-.93-1.79-.09-.05-.32,0-.41,0s-.61-.72-.83-.59c-.53.33.22,1.89.41,2.48a5.51,5.51,0,0,0,1.07,2.14,2,2,0,0,0,1.17.24c.29-.06.71-.57,1-.65a2.58,2.58,0,0,1,1.14,0A4.8,4.8,0,0,1,75.62,159c.07.13.13.52,0,.59-.72.39-1.94-2.07-2.73-1.83-.11,0-.1.33-.17.41s-.73.2-.76.41c0,.06.14.12.17.17s0,.19.07.24a5.26,5.26,0,0,0,1.93.9,3.49,3.49,0,0,0,1.38.24c.42-.11,1-.89,1.35-1.07s1,0,1.24-.24.1-.62.07-.83A10.56,10.56,0,0,0,77.27,155.4Z"/><path d="M62.27,145.12c-.05,0,0,.18,0,.24s.16.63.35.66.51-.32.48-.48S62.46,145,62.27,145.12Z"/><path d="M33.46,141.22c-.1-.25-.77-.28-1-.41s-.63-.61-.9-.73-.51-.18-.66-.1c-.3.16-.48.92-.59,1.24-.39,1.23-1.15,3.81-.9,5.07a2.92,2.92,0,0,0,.9,1.38,1,1,0,0,0,.59.1c.28-.09.61-.63.83-.83s.63-.37.72-.59c.25-.59-.35-1.92-.24-2.55S33.72,141.89,33.46,141.22Z"/><path d="M85.86,110.35c-.33,0-.22,1-.48,1.24-.1.08-.37,0-.48.07-.31.09-1.11.2-1.17.52,0,.06.12.14.17.17a3.79,3.79,0,0,0,1.07.24c.31,0,1,.2,1.24,0a1.69,1.69,0,0,0,.24-1.17C86.4,111.11,86.17,110.33,85.86,110.35Z"/><path d="M78.59,107.79a.33.33,0,0,0-.17.24.91.91,0,0,0,.52.66c.18,0,.6-.24.59-.41S78.84,107.73,78.59,107.79Z"/><path d="M104.6,143.64c-.33,0-.6.78-.76,1.07a25.92,25.92,0,0,0-1.14,2.83c-.28.79-.67,2.44-1,3.21s-.89,2.42-1.59,2.83c-.13.07-.45-.05-.59,0a5,5,0,0,0-1.38,1.31c-.47.6-1.64,1.9-1.52,2.66,0,.09.19.21.28.24s.72-.2.9-.07a1.42,1.42,0,0,1,.24,1.07.82.82,0,0,1-.31.41.73.73,0,0,1-.41,0c-.16-.05-.35-.42-.52-.41s-.14.12-.17.17a2.22,2.22,0,0,0-.41.83c0,.19.32.53.28.72a1.71,1.71,0,0,1-.93.93c-.32.08-1-.61-1.24-.41,0,0,0,.13,0,.17a.71.71,0,0,0,0,.24c.22.43,1.3.74,1.59,1.14a5.38,5.38,0,0,1,.83,2.66c0,.18-.35.47-.35.66,0,.45.55,1.43,1,1.52.25,0,.68-.38.83-.59a15.36,15.36,0,0,0,1-3.24,47.52,47.52,0,0,0,1.83-5c0-.2,0-.63,0-.83a7.52,7.52,0,0,1,.41-1L102.6,154c.34-.83,1.08-2.46,1.35-3.31.46-1.46,1.66-4.46,1.38-6C105.26,144.39,104.92,143.64,104.6,143.64Z"/><path d="M83.24,148.26c0-.23-.38-.69-.28-.9s.2-.11.28-.11a2.63,2.63,0,0,1,1,.52c.28.21.73.77,1,1a3.8,3.8,0,0,0,1.17.83c.33.06,1-.47,1.31-.35.16.06.2.49.35.59.38.25,1.38.13,1.83.24a10.83,10.83,0,0,0,1.66.66,4.76,4.76,0,0,0,.72-.24,8.71,8.71,0,0,0,1.07-.07c.45-.17,1.06-1,1.52-1.17a5.43,5.43,0,0,1,1.31,0,6.53,6.53,0,0,0,1.66,0,2.73,2.73,0,0,0,1-.83c.09-.14.1-.5.17-.65s.55-.59.66-.83a15.83,15.83,0,0,0,.31-1.66c.14-.49.65-1.4.76-1.9a12.19,12.19,0,0,0,.17-2.66c0-.42-.28-1.24-.35-1.66a15.23,15.23,0,0,0-.17-1.66c-.06-.21-.44-.54-.41-.76a.67.67,0,0,1,.41-.41c.24,0,.64.37.83.52s.27.41.41.41a.61.61,0,0,0,.41-.41c0-.44-.88-1-1.07-1.41-.1-.22-.16-.71-.24-.93a16.53,16.53,0,0,0-1.24-2.48c-.65-1-3.06-2.43-3.07-3.62,0-.3.5-.78.76-.93s.77,0,1-.14.68-.36.72-.59-.5-.93-.66-1.24-.43-1-.59-1.35c-.55-1.12-1.31-3.74-2.38-4.38-.21-.13-.85-.2-1,0s0,.19.07.24.56.33.66.52c.25.46.67,1.91.17,2.07s-.45-1.45-.83-1.34c-.07,0,0,.21,0,.28.07.61.51,1.77.59,2.38,0,.21.19.75,0,.83s-.43-.62-.66-.66a.93.93,0,0,0-.76.41c0,.12.16.32.24.41.25.3,1.07.63,1.17,1a.9.9,0,0,1-.24.72c-.12.08-.44-.1-.59-.07s-.65.48-.9.59a3.51,3.51,0,0,1-.93.24c-.27,0-.88-.36-1.07-.17s.31,1,.17,1.24a1.14,1.14,0,0,1-.76.41c-.09,0-.22-.18-.31-.17s-.36.36-.52.34a.68.68,0,0,1-.41-.41,3.43,3.43,0,0,1,1-2.24c.16-.14.68-.09.83-.24a1,1,0,0,0,.17-.59c0-.27-.45-.73-.41-1s.35-.39.41-.55a1.18,1.18,0,0,0,.07-.59c-.17-.52-1.07-1.24-1.48-1.59C89,121,87,118.92,85.8,119c-.08,0-.22.16-.24.24s.06.18.07.24c.07.39.35,1.27.1,1.59a.44.44,0,0,1-.34.07.77.77,0,0,1-.35-.31c-.11-.23.12-.84-.07-1-.35-.3-1.4,0-1.83.17a6.59,6.59,0,0,0-.66.48,7.73,7.73,0,0,1-1.66.76c-.22,0-.68,0-.9,0s-.51.25-.69.31-.44,0-.55.1-.08.4-.17.48-.5.1-.66.17c-.78.37-2.06,1.6-2.83,2a4.8,4.8,0,0,1-1.83.66,2,2,0,0,1-1.07-.59c-.16-.22-.14-.81-.24-1.07s-.21-.68-.41-.76a2.67,2.67,0,0,0-2.24.66c-.14.19.08.71,0,.93a1.85,1.85,0,0,1-.83.9c-.38.1-1.12-.62-1.48-.48a.23.23,0,0,0-.1.17c0,.38.88.76,1.1,1.07s.33.87.55,1.07.86.25,1.1.41,1,.65,1,1c0,.11-.2.29-.31.31a.83.83,0,0,1-.41-.14c-.42-.24-1-1-1.48-1.24-.12-.06-.44-.21-.52-.1-.31.39.42,1.54.83,1.83.21.14.76,0,1,.07s1.24.24,1.24.59-.82.18-.83.41,1,.47,1.24.76a1,1,0,0,1,.17.72c-.21.43-1.67.29-1.76.76-.05.29.56.7.83.83s1.16,0,1.52.17.83.33.9.59-.33.47-.35.65.25.61.28.83a17.4,17.4,0,0,1-.17,2.07c0,.25,0,.75,0,1a2.8,2.8,0,0,0,0,.83,3.88,3.88,0,0,0,1.14,1.07c.38.26,1.41.43,1.66.83.08.13-.06.45,0,.59s.34.5.52.48.18-.38.31-.41.28.1.34.17.06.48.17.59a2.49,2.49,0,0,0,1.66.48c.29-.06.6-.77.9-.76.06,0,.14.12.17.17s0,.18.07.24A25.73,25.73,0,0,1,81,145c.06.2.13.67,0,.83s-.83.05-1.07.17-.37.39-.52.48-.88.19-1.07.41a1.22,1.22,0,0,0-.17.83,1,1,0,0,0,.52.52c.37.07,1-.55,1.38-.59a2.61,2.61,0,0,1,1.17.24c.35.21.68,1.11,1.07,1.24a.56.56,0,0,0,.35-.07A1.62,1.62,0,0,0,83.24,148.26Z"/><path d="M99.7,124.84a.44.44,0,0,0-.07.41.61.61,0,0,0,.48.17c.14,0,.46-.27.41-.41S99.87,124.72,99.7,124.84Z"/><path d="M96.8,150.75c0,.1.31.12.41.1a1.27,1.27,0,0,0,.76-.59.73.73,0,0,0-.24-.59c-.35-.2-1.39-.11-1.59.24,0,0,0,.14.07.17s.84,0,.93.17S96.75,150.61,96.8,150.75Z"/><path d="M94.83,155.06c.28-.11.64-.67.9-.83s1.09-.21,1.31-.48.4-.95.17-1.1-.88.73-1.24.76c-.16,0-.52-.1-.59-.24-.25-.55,1-1.74.76-2.31,0-.12-.34-.17-.41-.27s-.06-.58-.17-.73a.74.74,0,0,0-.48-.24c-.55.09-1.09,1.31-1.59,1.55-.32.15-1.09,0-1.41.17-.13.06-.39.27-.41.41s.45.78.52,1.07,0,.45,0,.59c.12.4.88,1,.9,1.41,0,.09-.18.22-.17.31a.44.44,0,0,0,.28.28c.15,0,.34-.3.48-.35S94.56,155.16,94.83,155.06Z"/><path d="M94.73,158.3c.09,0,.2-.19.24-.28s.34-.79.17-1a.9.9,0,0,0-1,.14A1.11,1.11,0,0,0,94.73,158.3Z"/><path d="M92.49,123.94c-.11-.06-.41-.2-.48-.1s.1.28.17.35.48.37.66.31a.17.17,0,0,0,.07-.14C92.88,124.21,92.62,124,92.49,123.94Z"/><path d="M90.11,158.13c-.06,0-.16.11-.17.17s.18.35.17.48-.2.73-.41.76c-.06,0-.13-.13-.17-.17a4.31,4.31,0,0,1-.66-.76c-.07-.15,0-.51-.1-.66s-.42-.85-.66-.76c-.06,0,0,.21,0,.28a1,1,0,0,1-.48.48,2,2,0,0,1-1.17-.41c-.39-.31-.69-1.34-1.07-1.66-.22-.18-.83-.26-1.07-.41-.48-.31-1.08-1.55-1.66-1.59a.31.31,0,0,0-.24.17c-.09.49,1,1.19,1.14,1.66.08.22,0,.72.1.93a17.25,17.25,0,0,0,3,3.62c.5.51,1.48,1.7,2.17,1.9a.67.67,0,0,0,.41-.07c.24-.16.34-.85.59-1s1.12,0,1.48-.07.8-.12.9-.35-.3-.89-.48-1.14C91.44,159.1,90.65,158.11,90.11,158.13Z"/><path d="M90.11,151.68a.58.58,0,0,0-.17.55c0,.06.18.11.24.1s.66-.16.66-.34S90.29,151.6,90.11,151.68Z"/><path d="M90.28,127.15a.59.59,0,0,0,0,.41.37.37,0,0,0,.31.1.47.47,0,0,0,.17-.35c0-.12-.12-.4-.24-.41S90.31,127.07,90.28,127.15Z"/><path d="M88.69,153.57a2.86,2.86,0,0,0-.83-.17c-.21,0-.73.2-.76.41,0,.06.11.16.17.17s.49-.19.66-.17.73.53,1,.48.56-.31.52-.48S88.89,153.62,88.69,153.57Z"/><path d="M83.73,150.26c-.11,0-.33.19-.35.31s.39.62.59.76a6.27,6.27,0,0,0,2,.66c.16,0,.59.15.66,0s-.42-.47-.59-.59C85.51,151,84.36,150.17,83.73,150.26Z"/><path d="M81.48,117.87c-.11.17.38.62.59.59a.33.33,0,0,0,.17-.31C82.17,118,81.59,117.7,81.48,117.87Z"/><path d="M81,149.68c-.21-.17-.49-.76-.76-.76s-.39.27-.41.41a1.68,1.68,0,0,0,.52,1.1.92.92,0,0,0,.55.14c.21,0,.69-.27.69-.48S81.14,149.79,81,149.68Z"/><path d="M75.62,145.05a.65.65,0,0,0,.24.31c.28.19,1,.48,1.31.35a.49.49,0,0,0,.17-.35c0-.74-.75-2.46-1.48-2.55-.06,0-.15.12-.17.17a.66.66,0,0,0,0,.24,7.72,7.72,0,0,1,.24,1.07C75.91,144.5,75.59,144.85,75.62,145.05Z"/><path d="M70.41,136.26A.78.78,0,0,0,71,136a.72.72,0,0,0,.1-.41,1.26,1.26,0,0,0-.41-.76.76.76,0,0,0-.66.11c-.12.14-.05.55,0,.72S70.24,136.21,70.41,136.26Z"/><path d="M66.75,132.94c0,.06.12.14.17.17a1,1,0,0,0,.41.17c.17,0,.58-.18.59-.35s-.41-.41-.59-.41S66.77,132.77,66.75,132.94Z"/><path d="M67,125.6c-.11-.05-.42-.1-.48,0-.16.26.3,1,.59,1.07s.52-.1.55-.24S67.23,125.71,67,125.6Z"/><path d="M153.93,152.75a5.6,5.6,0,0,0-1.66-1.83,9.79,9.79,0,0,0-2.48-.24c-1-.11-3,0-3.79-.52-.26-.17-.37-.95-.66-1.07a1.19,1.19,0,0,0-.9.21.42.42,0,0,0-.07.21c0,.09,0,.28,0,.35s.52,0,.66.07a2.23,2.23,0,0,1,.76,1.35c0,.21-.42.52-.41.73a1,1,0,0,0,.41.59c.36.21,1.56-.23,1.66.17s-1.14,1.13-1.59,1c-.07,0-.15-.2-.14-.27s.13-.09.14-.14a.48.48,0,0,0-.24-.34c-.48-.17-1.48.75-2,.59-.17-.06-.26-.5-.41-.59s-.8-.19-.93,0,.26.48.24.65a.18.18,0,0,1-.07.1h-.07c-.09,0-.26-.12-.35-.1-.38.07-1.21.54-1.24.93,0,.23.67.42.65.65s-.57.3-.65.48.14.76.07,1-.35.29-.31.42c.09.28,1,.07,1.14.34s-.25.4-.24.55a.34.34,0,0,0,.1.17,1.88,1.88,0,0,0,.83.24,3.11,3.11,0,0,0,1.31-.31c.87-.56,1.74-2.6,2.55-3.24a6.39,6.39,0,0,1,2.48-1.14c1-.08,2.89,1.11,3.9,1.07a2.47,2.47,0,0,0,1.41-.52,1.26,1.26,0,0,0,.07-.66A3,3,0,0,0,153.93,152.75Z"/><path d="M143.82,150.16c.07,0,.13-.18.17-.24a2.1,2.1,0,0,0,.24-.41.44.44,0,0,0,0-.24.84.84,0,0,0-.55-.35c-.32,0-1,.5-1,.83,0,.09.16.23.24.28A1.43,1.43,0,0,0,143.82,150.16Z"/><path d="M141,158.2a1.56,1.56,0,0,0-.59-.24c-.36-.07-1.12,0-1.48,0a4.32,4.32,0,0,1-1.9-.48c-.21-.2-.22-.84-.34-1.1a2.34,2.34,0,0,0-.59-.83,1.58,1.58,0,0,0-1-.07c-.11,0-.24.25-.31.35s-.17.59-.34.65-.53-.12-.66-.24-.24-.87-.41-1.1a3.56,3.56,0,0,0-1.24-1c-.11,0-.4-.09-.48,0s.27.88.14,1.14a.45.45,0,0,1-.31.17c-.34,0-.76-.69-1.07-.83a1.64,1.64,0,0,0-.93-.17c-.44.19-1.19,1.13-1.07,1.59s1.11.27,1.24.59-.35.71-.35,1a7.9,7.9,0,0,0,.52,1.34c.07.26,0,.85.17,1.07s.76.39,1,.59a2.4,2.4,0,0,1,.69,1c0,.22-.39.61-.34.83.14.73,1.86,1.42,2.07,2.14,0,.08-.09.26-.07.35s.44.46.48.66-.29.67-.24.9.83.81.9,1.17c.15.83-1.12,2.38-1,3.21s1.38,1.72,1.59,2.41c.11.38-.2,1.24,0,1.59a2.45,2.45,0,0,0,1.48.9.51.51,0,0,0,.35-.17c.47-.86-.39-2.92-.41-3.9a10.94,10.94,0,0,1,.17-2.9,19.55,19.55,0,0,1,1.38-2c.22-.39.45-1.28.69-1.66.44-.69,1.74-1.74,2.21-2.41.18-.26.35-.92.59-1.14s.53-.15.66-.28a.88.88,0,0,0,.17-.48A5.42,5.42,0,0,0,141,158.2Z"/><path d="M140.86,153.64c.06-.1.18-.42.07-.48s-.56.3-.55.48.17.17.24.17A.42.42,0,0,0,140.86,153.64Z"/><path d="M140,154.82c.11,0,.31-.23.31-.34s-.11-.17-.17-.17c-.26,0-1,.27-.9.52S139.78,154.89,140,154.82Z"/><path d="M137.89,155.54c-.19,0-.66,0-.76.17a.86.86,0,0,0,.17.76,2.75,2.75,0,0,0,2,.31c.19-.06.56-.35.59-.55a1.15,1.15,0,0,0-.48-.83C139,155.23,138.26,155.48,137.89,155.54Z"/><path d="M136.89,154.64c-.06,0-.11.18-.1.24a.53.53,0,0,0,.28.34c.09,0,.3-.08.31-.17S137,154.61,136.89,154.64Z"/><path d="M132.09,166.65c.12,0,.36.18.48.17a.87.87,0,0,0,.48-.24,1.78,1.78,0,0,0,.17-1.1c-.25-1-2.16-2.19-2.48-3.14-.07-.21.1-.7,0-.9s-.95-.53-1.14-.83-.06-.72-.17-.93a2.13,2.13,0,0,0-.41-.41,10.89,10.89,0,0,0-1.76-1.31c-.23-.11-.77-.39-1-.24-.38.28.07,1.45-.1,1.9-.09.25-.4.75-.66.83s-.87-.39-1.17-.34c-.15,0-.46.2-.48.34-.05.37,1,.81.9,1.17,0,.07-.17.13-.24.14-.91.12-3-.26-3.55-1-.13-.16,0-.66-.07-.83s-.52-.25-.69-.35a9.25,9.25,0,0,1-2.07-1.41c-.24-.3-.33-1.11-.55-1.42a7,7,0,0,0-2-1.72,7.5,7.5,0,0,0-2.48-.41c-.74,0-2.46,0-2.9.59-.09.12.15.46.07.59s-.18.07-.24.07-.43-.27-.59-.24a4.08,4.08,0,0,0-2,2,1.78,1.78,0,0,0,0,1c.17.41,1,.87,1.24,1.24s.22.93.41,1.17,1,.35,1.07.66c0,.13-.22.36-.35.41a1.13,1.13,0,0,1-.41,0c-.12,0-.39-.15-.48-.07s.19.66.07.83a1.12,1.12,0,0,1-.9.24c-.27-.08-.5-.71-.76-.83s-.73-.18-.83,0,.33.34.35.48a.53.53,0,0,1-.17.34c-.19.13-.74-.1-.9.07s0,.18,0,.24a6,6,0,0,0,1.66,2.17,10.1,10.1,0,0,0,2,.65,33.92,33.92,0,0,1,4.83,1.83,30.21,30.21,0,0,1,2.31,2.07c1,.81,2.86,3.18,4.14,3.07.38,0,.74-.91,1.07-1.1s1.27-.28,1.66-.48.87-.87,1.24-1a4.3,4.3,0,0,1,.9,0c.56,0,1.68-.28,2.24-.24a9.23,9.23,0,0,1,.93.24c.74.16,2.25.75,3,.52.23-.07.51-.5.66-.69.25-.34.85-1.06.83-1.48,0-.18-.3-.45-.41-.59-.24-.29-1-.7-1.07-1.07A.83.83,0,0,1,132.09,166.65Z"/><path d="M123,155.06c.06,0,.11-.13.14-.17.21-.3.84-.89.76-1.24s-.75-.7-1.07-.72-1,.2-1.07.48A1.91,1.91,0,0,0,123,155.06Z"/><path d="M121.57,157.71c-.13,0-.39.18-.41.31a.73.73,0,0,0,.41.59c.21,0,.73-.27.72-.48S121.78,157.7,121.57,157.71Z"/><path d="M117.91,155.4c-.05.18.21.53.34.66s.8.51,1.07.41.22-.47.35-.59,1.23-.3,1.31-.66c0-.2-.32-.53-.48-.65a1.71,1.71,0,0,0-.83-.35,1.13,1.13,0,0,0-.41.24c-.12.09-.3.33-.41.41S118,155.15,117.91,155.4Z"/><path d="M128.61,142.78a1.15,1.15,0,0,0,0-.62.86.86,0,0,0-.24-.41.7.7,0,0,0-.59,0,1.32,1.32,0,0,0-.1,1.14.62.62,0,0,0,.41.24A.86.86,0,0,0,128.61,142.78Z"/><path d="M110.35,124.17h0Z"/><path d="M110,123.94a1.17,1.17,0,0,0-.9.24.9.9,0,0,0,0,.83,1,1,0,0,0,1,.07c.18-.14-.08-.83.14-.9C110.2,124.19,110.13,124,110,123.94Z"/><path d="M129.85,110.59a2,2,0,0,0,1,1.66c.19,0,.54-.25.66-.41a3.37,3.37,0,0,0,.41-1.83,1.58,1.58,0,0,0-.59-1,.3.3,0,0,0-.24.07c-.13.14,0,.6-.11.76S129.93,110.26,129.85,110.59Z"/><path d="M111.95,141.4a2.21,2.21,0,0,0,.83.83c.09,0,.34.15.41.07s-.08-.5-.14-.66c-.18-.47-.52-1.84-1-1.72S111.82,141,111.95,141.4Z"/><path d="M112.36,139.4s0-.11,0-.14-.42-.21-.48-.1.12.14.17.17S112.3,139.44,112.36,139.4Z"/><path d="M110.88,143.95c0,.24.27.83.52.83s.89-.93.83-1.31a.58.58,0,0,0-.41-.35A1.36,1.36,0,0,0,110.88,143.95Z"/><path d="M118.74,142.16c0,.28.79.31,1.07.31s.7-.05.76-.24-.22-.4-.35-.48-.64-.36-.83-.24,0,.3-.07.38S118.73,142,118.74,142.16Z"/><path d="M108.91,103.48a.39.39,0,0,0-.1.31c0,.25.48.58.66.76a11.24,11.24,0,0,0,1.24,1c.46.3,1.4,1.11,1.93,1a.24.24,0,0,0,.14-.17c-.07-1-2-2.19-2.9-2.66C109.66,103.61,109.13,103.36,108.91,103.48Z"/><path d="M155.76,117.11a2.16,2.16,0,0,0-.35-1c-.18-.34-.84-.86-.9-1.24,0-.13.19-.36.17-.48a1.65,1.65,0,0,0-.66-.93c.54-.55.16-2.3.14-3.07a14,14,0,0,0-.14-1.48c-.14-.86,0-3.09-.83-3.38.1-.4-.53-1.11-.69-1.48a7.22,7.22,0,0,1-.72-2,10.12,10.12,0,0,1,1.31-3.38c.29-.52,1.18-1.38,1.41-1.93a.77.77,0,0,0,.07-.41c-.22-.56-1.42-1.12-1.9-1.48-.22-.17-.66-.52-.9-.65a4.48,4.48,0,0,0-1.35-.59c-.23,0-.66.24-.9.24a3.39,3.39,0,0,1-1.07-.24c-.33-.15-.86-.66-1.17-.83a7.2,7.2,0,0,0-2.24-.9,7.94,7.94,0,0,0-2.9.9c-1.55.81-4.07,3.33-5.52,4.31-1,.67-3.18,1.69-4.14,2.42-.28.21-.93.63-1,1a1.83,1.83,0,0,0,.48,1.24,1.76,1.76,0,0,0,1,.28c.8-.07,2.11-1.23,2.9-1.41.16,0,.53-.1.66,0s.12.95.24,1.24.59.71.69,1,0,.73.07,1c.11.48.79,1.33.76,1.83,0,.34-.67.83-.69,1.17s.46,1.05.59,1.41.31,1.17.41,1.55c.16.58.06,2.26.65,2.31a3.63,3.63,0,0,0,.28,1.17c0,.13.24.35.24.48,0,.64-1.06,1.7-1.07,2.35,0,.2.27.53.31.72s.07.29,0,.35a.67.67,0,0,1-.65-.1c-.16-.18.1-.74,0-1a2.38,2.38,0,0,0-1.07-1c-.1,0-.32.12-.41.07s-.16-.63-.35-.65-.64.42-.66.65.23.24.24.35a.8.8,0,0,1-.24.48c-.08.07-.33,0-.41.1-.31.21-.58,1-.83,1.24,0,0-.12.16-.17.14s-.08-.23-.07-.31c.08-.92,1.19-2.52,1.41-3.42a1.36,1.36,0,0,0,.07-.66c.11,0,.24-.25.35-.24.29,0,.54.78.83.83s.48-.3.66-.34a5.58,5.58,0,0,1,1,0c.09,0,.34.09.38,0,.12-.24-.57-.58-.65-.83a6.3,6.3,0,0,1,0-.9c-.08-.59-.52-1.73-.66-2.31-.06-.25-.13-.75-.17-1a5.31,5.31,0,0,0-.31-1.48c-.18-.27-.95-.45-1.07-.76s.08-.5.14-.66c.13-.34.77-.88.76-1.24a.88.88,0,0,0-.35-.48c-.12-.08-.43,0-.55-.1s-.59-.59-.83-.73a3.13,3.13,0,0,0-1.59-.52.79.79,0,0,0-.41.41,4.67,4.67,0,0,0,.59,2.07c.16.39.76,1.06.83,1.48a3.16,3.16,0,0,1-.41,2.07c-.19.19-.84,0-1.07.17a3.49,3.49,0,0,0-.93,1.24,6.09,6.09,0,0,0-.41,2.17c0,.26.13.83.35,1-.37.3-.34,1.39-.52,1.83a6.32,6.32,0,0,1-.83,1.59c-.25.26-1.12.39-1.24.73,0-.06-.14-.17-.14-.24,0-.5,1.12-1.15,1.14-1.66a2.41,2.41,0,0,0-1-1.66c-.68-.3-2.19.8-2.9.59a1,1,0,0,1-.48-.48.47.47,0,0,1,.07-.34c.41-.39,1.71-.15,2.24-.35.25-.09.88-.29.93-.55s-.34-.42-.41-.59-.15-1-.28-1.24-.32-.71-.55-.76c-.63-.12-1.54,1.28-2.17,1.35a1.45,1.45,0,0,1-1-.35.52.52,0,0,1,0-.41c.14-.22.82-.25.93-.48s-.15-.44-.1-.59a1,1,0,0,1,.52-.52c.26-.06.74.37,1,.35a.8.8,0,0,0,.41-.24,2.22,2.22,0,0,0,.24-1.07,3.66,3.66,0,0,0-.41-1.24c-.17-.29-.73-.72-.93-1s-.51-.67-.48-.93c.05-.57.84-1.81,1.41-1.79.07,0,.17.17.17.24s-.37.47-.35.66a.74.74,0,0,0,.41.41,1.17,1.17,0,0,0,.9-.24c.2-.27-.1-1,0-1.34S130,101.47,130,101a.93.93,0,0,0-.52-.66c-.62-.11-1.57,1.05-2.14,1.31a4.23,4.23,0,0,1-1.9.59c-.37-.09-.78-.87-1.1-1.07a1.25,1.25,0,0,0-.48-.17c-.35,0-1,.46-1.31.48a8,8,0,0,1-1.41-.31c-.31-.06-.93-.12-1.24-.17a13.92,13.92,0,0,1-2.24-.41c-.85-.34-2.26-2.44-3.07-2,0,0,0,.13,0,.17a3.88,3.88,0,0,0,.52,1.42,5.65,5.65,0,0,0,1.79,1c.93.36,3,.45,3.9.9a3.48,3.48,0,0,1,1.24,1.07,4.63,4.63,0,0,1,.1,2.24,3.35,3.35,0,0,1-.83,1.59c-.23.16-.84.05-1.1.14s-1.06.77-1.48.83-1.13-.54-1.41-.31c0,0,0,.18,0,.24s.14.17.17.24c.17.43.1,1.39.24,1.83.07.21.44.54.41.76-.07.48-.94,1.18-1.38,1.38-.28.13-.94,0-1.24.1-.09,0-.31.08-.35.17s.09.18.07.24a1.28,1.28,0,0,1-.72.73c-.36,0-.88-.75-1.24-.73s-.52.61-.76.59-.18-.21-.24-.28-.5-.67-.76-.73c-.88-.18-2.48,1.24-3.38,1.24-.68,0-1.87-.89-2.55-.93s-2.31,0-2.48.59c0,.08.17.19.24.24a3.86,3.86,0,0,0,1.24.69c.31,0,.94-.36,1.24-.28.85.23,1.83,1.92,2.55,2.42.23.16.84.26,1,.48a.74.74,0,0,1,.07.52.54.54,0,0,1-.31.24c-.38.05-1-.51-1.41-.59s-1,0-1.31,0a6.54,6.54,0,0,0-1.24-.24c-.17,0-.55.18-.59.35s.2.35.31.41c.4.24,1.39.16,1.83.31a11.36,11.36,0,0,1,2.73,1.48A6.63,6.63,0,0,1,111,121a4.36,4.36,0,0,1,.14,2.14c-.09.29-.45.9-.77,1,.52,0,1.17,1.18,1.35,1.67.05.14,0,.44,0,.59.1.41.66,1.08.76,1.48s-.11,1.49,0,2,1.13,1.37.9,1.83c-.07.13-.45.05-.59.1-.45.17-1.19.84-1.66,1-.23.06-.75-.11-1,0s-.6.52-.59.76.34.39.48.48.93.52,1.24.41.33-.83.59-.9a1.09,1.09,0,0,1,.83.41.47.47,0,0,1,0,.41s-.14,0-.17,0,0,.56-.17.66-.54-.06-.72-.07-.7-.17-.83,0,0,.19.07.24a6.39,6.39,0,0,0,1.24.9,6.62,6.62,0,0,1,1.48,1.1,8.71,8.71,0,0,1,.35,1.9c.08.32.49.92.41,1.24,0,.14-.4.27-.41.41s.16.32.24.41a3.71,3.71,0,0,0,1.07.83c.33.12,1.21.36,1.41.07.06-.09-.21-.31-.17-.42s.07-.06.1-.07h.07s.13.07.17.07.41-.43.59-.41.38.57.59.59.4-.34.55-.41.65-.12.83-.24.25-.48.41-.52c.55-.13,1.53.75,2.07.93.24.08.75.37,1,.24.23.4,1.36.32,1.79.48a11.66,11.66,0,0,1,1.45.72c.14.08.39.28.52.38a9.75,9.75,0,0,1,1.48,1.24c.11.14.1.63.28.65s.11-.12.14-.17a1,1,0,0,0,.1-.48c-.15-.6-1.3-1.35-1.59-1.9a1.61,1.61,0,0,1-.21-.79,1.56,1.56,0,0,1,.55-.62,1.78,1.78,0,0,1,1-.34,1.37,1.37,0,0,1,.72.83c0,.1-.18.25-.17.35s.29.29.28.41-.45.41-.59.55-.33.28-.35.42a.6.6,0,0,0,.17.41c.18.14.67.07.9.1.5.08,1.68,0,2,.41a.69.69,0,0,1,0,.66c-.16.16-.69-.07-.9,0s-.57.6-.83.65-.63-.31-.83-.24a.39.39,0,0,0-.17.24,2,2,0,0,0,.48,1.17c.15.14.66.13.76.31s-.2.59-.1.76a.61.61,0,0,0,.52.24c.1,0,.06-.39.17-.41.27-.06.66.53.83.76s.62.81.48,1.07c0,.08-.26.08-.34.07a6.14,6.14,0,0,1-1-.41c-.37-.13-1.14-.3-1.52-.41a20,20,0,0,0-2.55-.93c-.09,0-.33-.05-.34,0-.11.72,2,.84,2.66,1.17,1.39.72,3.83,3.4,5.38,3.21.21,0,.38-.58.59-.59.76,0,1.63,1.66,2.31,2a3.26,3.26,0,0,0,1.66.35c.6-.16,1.27-1.4,1.83-1.66s1.66.05,2.07-.28a.71.71,0,0,0,.17-.48c-.06-.41-.81-.94-1-1.31-.35-.67-1.21-2.21-.9-2.9a.32.32,0,0,1,.24-.1c.07,0,.17.15.24.17a1.55,1.55,0,0,0,1,0c.19-.14.27-.66.31-.9a1.62,1.62,0,0,0,0-.76,2.28,2.28,0,0,0-1.31-.9c-.25,0-.65.39-.9.41s-.82-.28-1.1-.28-.5.24-.65.17-.18-.31-.24-.41c-.15-.27-.62-.77-.59-1.07,0-.13.25-.32.35-.41.28-.25.87-.81,1.24-.83a.67.67,0,0,1,.48.24c.2.42-.62,1.41-.41,1.83a.45.45,0,0,0,.35.17c.23,0,.57-.44.66-.66s-.16-.94-.07-1.24a7.53,7.53,0,0,1,1.9-2.48,8.09,8.09,0,0,1,2.66-1.42c.63-.13,1.95.46,2.55.24.28-.1.59-.66.83-.83s1-.37,1.31-.59a3.75,3.75,0,0,0,.93-1.14,7.08,7.08,0,0,0,.17-2.17,3.93,3.93,0,0,0-.17-1.14,7.92,7.92,0,0,0-2.24-2.59,1.54,1.54,0,0,0-1-.24c-.3-.76-2.4-.61-3.07-1.07a5.12,5.12,0,0,1-1.48-1.76,5.56,5.56,0,0,1,0-2.31,8.88,8.88,0,0,1,1.24-2.66c.69-.88,3.46-1.68,3.48-2.79.4,0,.87-.87,1.24-1a11.85,11.85,0,0,1,1.48,0,2.62,2.62,0,0,0,1-.35,1.66,1.66,0,0,0,.48-1c.42.12,1.3-1,1.59-.69s-1.14,1.2-.9,1.59a2.53,2.53,0,0,0-.34,1.72,1.45,1.45,0,0,0,.41.76c.16.1.6,0,.76.07s.13.42.24.52a1.66,1.66,0,0,0,1.07.31c.14,0,.3-.32.41-.41.41-.34,1.44-.79,1.72-1.24a1.19,1.19,0,0,0,.1-.55C156.7,119.09,156.47,117.23,155.76,117.11Zm-21-4.83h0Z"/><path d="M160.07,116.9c-.09-.25-.26-.86-.52-.93s-.46.21-.55.34a3.1,3.1,0,0,0-.35,1.72,2.24,2.24,0,0,0,.76,1.17.87.87,0,0,0,.66,0c.14-.1.22-.48.24-.65A5.26,5.26,0,0,0,160.07,116.9Z"/><path d="M25.84,60.19c.11,0,.1-.31.1-.41,0-.45-.38-1.31-.34-1.76s.19-1.44.59-1.55.88.55,1.07.83a17.55,17.55,0,0,1,.66,2.07c.14.29.55.78.69,1.07s.25,1.05.48,1.31,1,.81,1.31.66c.19.64,1.59,1.23,2,1.76s.84,2.22,1.41,2.73a.71.71,0,0,0,.48.17.22.22,0,0,0,.1-.17c0-.09-.27-.15-.28-.24s.12-.15.17-.17c.3-.15,1.1.06,1.35-.17a2.75,2.75,0,0,0,.31-1.9c-.06-.29-.63-.7-.66-1s.61-1,.59-1.41a.7.7,0,0,0-.24-.41,1.48,1.48,0,0,0-.83,0c-.44.12-1.13,1-1.59.93-.29,0-.54-.76-.83-.83s-.62.17-.83.24-.3.18-.41.17-.43-.41-.59-.35a3.15,3.15,0,0,1,.83-.45c.13-.07.37-.27.52-.28.32,0,.83.48,1.14.55.13,0,.43.09.52,0a1.43,1.43,0,0,0,0-1.38c-.22-.25-1.18.12-1.35-.17-.28-.5,1-1.51.93-2.07,0-.24-.55-.52-.59-.76a2.69,2.69,0,0,1,.59-1.41,4.94,4.94,0,0,1,1.48-1.07c.23-.1.78,0,1-.17A4.81,4.81,0,0,0,37,52.8c.12-.29.09-.94.17-1.24a15.51,15.51,0,0,1,.66-1.48,9.94,9.94,0,0,0,.41-.93c.05-.18.06-.55.1-.72s.15-.64.31-.76a1.63,1.63,0,0,1,.83-.07c.41,0,1.18.49,1.59.41s.86-.66,1.17-.83,1.15-.2,1.31-.52-.34-.69-.24-.9.35-.22.48-.24.65.23.76.07-.54-.69-.52-1,.25-.51.41-.52.14.12.17.17c.18.26.59.86.52,1.17,0,.09-.28.15-.28.24s.53.6.76.55c.38-.07.49-1.12.83-1.31.11-.06.36,0,.48,0,.55-.11,1.53-1.06,2.07-.9.19.06.24.56.41.66a.54.54,0,0,0,.34,0c.19-.08.42-.46.59-.59s.54-.18.59-.34c.33.14,1-.49,1.38-.41,1,.19,2,2.34,3,2.48,1.31.19,3.6-1.7,4.86-2.07a15.94,15.94,0,0,1,3.24-.55c.4,0,1.2.34,1.59.24.2-.05.49-.39.66-.52.4-.3,1.16-1.07,1.66-1.14s1.27.59,1.72.59a2.19,2.19,0,0,0,1-.35,3.71,3.71,0,0,0,.9-1.41c0-.14-.13-.51,0-.59.6-.34,1.76,1.05,2.35,1.41a12.9,12.9,0,0,0,1.9,1.21.93.93,0,0,0,.48,0c.34-.15.64-.91.93-1.14A2.2,2.2,0,0,1,77.76,41c2,.3,4.15,4.66,6,5.38a5.42,5.42,0,0,0,3.24,0,1.55,1.55,0,0,0,.41-.59,28.23,28.23,0,0,0,1-3.45A30.56,30.56,0,0,1,89.69,38a35.24,35.24,0,0,1,2.48-3,7.17,7.17,0,0,0,1.14-1.76c.38-1.6-.65-4.88-.72-6.52a16.3,16.3,0,0,1,.07-2.76c0-.25.3-.71.35-1a4.39,4.39,0,0,0,0-1.52c-.28-.93-1.72-2.35-2.17-3.21a9.47,9.47,0,0,1-1.07-2.66A7.52,7.52,0,0,1,90.35,13a17,17,0,0,1,1.9-3,5.08,5.08,0,0,1,.41-.41c.52-.48,1.64-1.36,2.17-1.83.25-.22,1-.58,1-.9-.13-.49-1.47-.58-2-.48-.93.18-2.33,1.62-3.07,2.21-1.06.85-3,2.82-4.07,3.59A16.38,16.38,0,0,1,83.31,14a26.16,26.16,0,0,1-4.38.41c-.72,0-2.28-.27-2.9.1-.93.55-1.56,2.84-2.17,3.73s-2,2.28-2.55,3.14c-.73,1.16-1.64,3.77-2.31,5A49.62,49.62,0,0,1,63.92,34a17.53,17.53,0,0,1-4.38,3.24,13,13,0,0,1-2.79.41,29,29,0,0,1-4.66.24c-.58-.07-1.76-1-2.24-.66-.19-.25-.94-.17-1.24-.24s-.67-.31-.9-.28c-.6.1-1.46,1.13-2,1.41a13.06,13.06,0,0,1-3.86,1.48,14.23,14.23,0,0,1-2.9-.72c-.5-.11-1.52-.6-2-.41-1.2.46-1.86,3.68-3.07,4.14-.12,0-.37-.15-.48-.1-.78.32-1.29,2.18-1.83,2.83-.36.44-1.3,1.14-1.66,1.59a28.6,28.6,0,0,0-2.55,4.28,29.93,29.93,0,0,0-2,5.66,7.86,7.86,0,0,0,0,2.38C25.41,59.51,25.58,60.22,25.84,60.19Z"/><path d="M50.12,53.63c-.26-.52-1.77-.18-2.35-.07-.29.06-1,.2-1.07.48s.4.78.59,1,.68.86,1,.83.45-.83.72-.93.44.14.59.1.67-.31.66-.52-.52-.16-.55-.31S50.2,53.79,50.12,53.63Z"/><path d="M50.61,51.63a.47.47,0,0,0,.34,0,.86.86,0,0,0,.31-.66.76.76,0,0,0-.59-.41.74.74,0,0,0-.41.52A.85.85,0,0,0,50.61,51.63Z"/><path d="M44,51.32c.09,0,.28.1.35.17s.19.77.41.83c.07,0,.2-.11.24-.17a5.37,5.37,0,0,0,.83-2.9c0-.07-.14-.17-.17-.24-.13-.31,0-1.16-.24-1.34s-1.13.12-1.41.34c-.51.39-.65,2-1.24,2.24-.08,0-.26-.11-.35-.1-.27,0-.71.43-1,.52a7.82,7.82,0,0,1-1.41.24,10.24,10.24,0,0,0-1.66,0,.75.75,0,0,0-.34.24c-.14.28.08.94,0,1.24-.15.56-1.33,1.46-1.14,2,.12.35,1.22.21,1.38.55,0,.1-.07.33-.14.41a2.37,2.37,0,0,1-1.24.69c-.16,0-.42-.28-.59-.28a2,2,0,0,0-1.35.69c-.13.26.3.88.17,1.14s-1.3.45-1.48.83c-.11.23-.06.91.17,1s.57-.62.83-.66.65.41.9.41c.07,0,.18-.12.24-.1.24,0,.45.64.69.69.06,0,.18-.09.24-.1a1.3,1.3,0,0,1,.72,0,.82.82,0,0,1,.28.66.24.24,0,0,1-.17.1c-.05,0-.12-.09-.17-.1s-.55-.13-.66,0c-.23.28.18,1.08.31,1.41s.26.85.52.93.84-.43,1.14-.52.76-.11,1-.17,1.26-.23,1.48-.55c.08-.12-.05-.45,0-.59.15-.37.86-.85,1.1-1.17a13.23,13.23,0,0,0,1.24-2c.15-.34.06-1.3.41-1.41.09,0,.22.27.31.24s.31-.75.24-1-.69-.62-.83-.9a4.72,4.72,0,0,1-.41-2.48A1.49,1.49,0,0,1,44,51.32Z"/><path d="M35.22,59.84a.82.82,0,0,0,0,.83s.1,0,.14,0a1.11,1.11,0,0,0,.52-.24c.08-.11.15-.41.07-.52A.71.71,0,0,0,35.22,59.84Z"/><path d="M106.84,34.83a.83.83,0,0,0-.31,0,1,1,0,0,0-.45.21.41.41,0,0,0-.07.28.36.36,0,0,0,.21.17,1.19,1.19,0,0,0,.72-.28A.35.35,0,0,0,107,35C107,34.91,106.9,34.85,106.84,34.83Z"/><path d="M102.91,32.79c.54.43,2.06.52,2.59,1a.52.52,0,0,1,.14.24c0,.06-.09.18-.07.24s.2.13.28.14c.44.05,1.52,0,1.73-.38,0,0,0-.14-.07-.17s-.29,0-.31-.1.07-.11.1-.14.64-.1.83-.21a2,2,0,0,0,.55-.59,1.4,1.4,0,0,0,.07-.28,4,4,0,0,0,.14-.66c0-.21-.2-.62-.17-.83a.62.62,0,0,1,.14-.28,2.24,2.24,0,0,1,.72-.31c.51-.14,1.62-.1,2.1-.31a.56.56,0,0,0,.17-.14,1.27,1.27,0,0,0,.21-.55.65.65,0,0,0-.14-.35,2,2,0,0,0-.9-.31,3.69,3.69,0,0,0-.9.14c-.34.08-1,.38-1.31.45-.56.11-1.74-.08-2.28.1-.25.08-.62.5-.86.59s-1,0-1.24.1a1.21,1.21,0,0,0-.38.31c-.14.19-.22.67-.34.86s-.76.61-.9.9a.7.7,0,0,0,0,.34A.52.52,0,0,0,102.91,32.79Z"/><path d="M72.55,41.8c-.17,0-.56.15-.59.31s.39.52.59.59.91.06,1-.17-.27-.45-.41-.55A1.2,1.2,0,0,0,72.55,41.8Z"/><path d="M36.6,70.54s.14-.06.17-.1a1.74,1.74,0,0,0,.1-.48c.14-.58,1-1.9.59-2.31-.14-.14-.64.08-.76.24-.31.42,0,1.55,0,2.07C36.69,70.1,36.48,70.45,36.6,70.54Z"/><path d="M37,64.74c.15,0,.21-.43.21-.59a2.22,2.22,0,0,0-.41-1.24.59.59,0,0,0-.41-.1.94.94,0,0,0-.48.52,1.15,1.15,0,0,0,.24.59C36.29,64.16,36.69,64.81,37,64.74Z"/><path d="M22.87,104c-.06.31.18,1.07.48,1.17.11,0,.29-.24.41-.24s.42.32.59.31a.46.46,0,0,0,.24-.17,1.23,1.23,0,0,0,.17-.83c-.1-.22-.72-.27-.83-.48s.21-.53.1-.66a.67.67,0,0,0-.69,0c-.07.07,0,.32,0,.41S22.9,103.8,22.87,104Z"/><path d="M122,61.84c.21.25.46.89.72,1.07A.58.58,0,0,0,123,63a1.23,1.23,0,0,0,.45-.28c.35-.33.77-1.22,1.1-1.55a9.84,9.84,0,0,1,.83-.59c.09-.07.3-.18.34-.28s0-.15,0-.17c-.68-.54-2.51.78-3.38.79-.18,0-.55-.18-.73-.14a.46.46,0,0,0-.21.17.58.58,0,0,0,0,.34C121.47,61.48,121.85,61.69,122,61.84Z"/><path d="M96.49,106.45c.09-.21.29-.73.14-.9s-.69.16-.9.07-.39-.47-.48-.65-.46-.76-.35-1,.74-.11.83-.31c0,0,0-.14-.07-.17s-.4-.16-.52-.24a5.82,5.82,0,0,1-1.41-1.42c-.33-.61.13-2.57-.55-2.72-.45-.1-1,1-1.1,1.48a2.73,2.73,0,0,0,.28,1.83c.2.22.9.13,1.14.31a2.93,2.93,0,0,1,.83,1.34,3.58,3.58,0,0,1-.41,2.07c-.22.29-1.11.35-1.31.65-.43.64-.31,2.3-.24,3.07,0,.4.1,1.3.41,1.55a2.84,2.84,0,0,0,2.31.11,2.3,2.3,0,0,0,.59-1.17c.16-.69-.23-2.16,0-2.83C95.77,107.2,96.36,106.76,96.49,106.45Z"/><path d="M88.87,101.17c-.1,0-.19.3-.17.41a.92.92,0,0,0,.35.48,1,1,0,0,0,.55.07c.18-.05.62-.3.59-.48C90.12,101.31,89.19,101,88.87,101.17Z"/></svg>