<?xml version="1.0" encoding="utf-8"?>
<!-- Generator: Adobe Illustrator 21.0.0, SVG Export Plug-In . SVG Version: 6.00 Build 0)  -->
<svg version="1.1" id="Layer_1" xmlns="http://www.w3.org/2000/svg" xmlns:xlink="http://www.w3.org/1999/xlink" x="0px" y="0px"
	 viewBox="0 0 691.7 914.6" style="enable-background:new 0 0 691.7 914.6;" xml:space="preserve">
<style type="text/css">
	.st0{fill:#00A8E1;}
	.st1{fill:#D0D2D3;}
	.st2{fill:#B0DCF3;}
	.st3{fill:#FFB819;}
	.st4{fill:#ED1C2E;}
	.st5{fill:#231F20;}
	.st6{fill:#FFFFFF;}
</style>
<g>
	<g>
		<path class="st0" d="M548.6,857.5c0,31.4-25.7,57.1-57.1,57.1H200.1c-31.4,0-57.1-25.7-57.1-57.1V57.1C143,25.7,168.7,0,200.1,0
			h291.4c31.4,0,57.1,25.7,57.1,57.1V857.5z"/>
		<path class="st1" d="M684.4,462c0,187-151.6,338.6-338.6,338.6S7.2,649,7.2,462s151.6-338.6,338.6-338.6
			C532.8,123.4,684.4,275,684.4,462"/>
		<path class="st2" d="M684.4,462c0,187-151.6,338.6-338.6,338.6S7.2,649,7.2,462s151.6-338.6,338.6-338.6
			C532.8,123.4,684.4,275,684.4,462"/>
		<path class="st0" d="M677.1,464c-1.2,121.7-66.5,233-172.6,292.9c-111.4,62.9-252.2,48.5-354-25.9C54.8,661.2,5.4,542.9,16.3,426
			c11-119.3,90.1-224.6,199-272.6c106.8-47,232.7-28.3,325.8,39.7C627.1,255.9,676,358.4,677.1,464c0,4.1,14.7,1.5,14.6-3.9
			c-1.2-112.3-55.8-215.8-147.7-280.2c-87.1-61-200.1-74.9-300.9-44.2C144.3,165.8,64.2,241.1,24.7,335.9
			C-18.2,438.7-3.7,558,56,650.7C139.3,780,303.8,832.5,448.6,788.4c143.7-43.7,241.6-179.3,243.1-328.3
			C691.7,456,677.1,458.6,677.1,464"/>
		<path class="st3" d="M585.7,462c0,132.5-107.4,239.9-239.9,239.9S105.9,594.5,105.9,462s107.4-239.9,239.9-239.9
			S585.7,329.5,585.7,462"/>
		<path class="st4" d="M401.5,646.7c0,0-1.5,35-8.9,46.3s-26.4,12.5-31.7,10.8c0,0,12.2-24.3,12.7-26.1c0.4-1.8-9.8,16.8-16.2,22.1
			c0,0-16.6-6-9-9.7c7.5-3.7,15.8-20.1,21-22.3s18.7-3.3,24.3-7.3C399.1,656.5,403.8,648.9,401.5,646.7"/>
		<path class="st5" d="M398.3,646.5c-1,22.2-3.7,62.5-36.8,54.8c0.7,1.3,1.4,2.7,2,4c2.3-4.5,15.8-24.4,12.5-28.9
			c-1.2-1.7-4.1-2.2-5.5-0.4c-1.8,2.4-13.5,20.9-12.9,21.1c-2.5-0.9-9.9-3.4-5.4-6.1c4.5-2.7,7.9-8.2,11-12.3
			c4-5.3,6.7-8.7,13.4-10.3c5.7-1.3,11.3-2.3,16.6-4.6c5.5-2.3,14.3-11.2,11.2-17.7c-1.4-2.9-7.7-2.5-6.1,0.9
			c3.3,7.1-11.2,13.2-15.3,14.3c-4.5,1.2-9.3,1.7-13.8,3.2c-7.6,2.8-12,11.6-16.9,17.6c-2.1,2.6-12.1,7.2-8.8,12
			c2.9,4.2,8.1,6.3,12.8,8c0.9,0.3,2.3,0.2,3-0.5c7.1-6.5,10.8-15.2,16.6-22.7c-1.8-0.1-3.6-0.3-5.5-0.4c-1.4-1.9-1-0.2-2.1,2.1
			c-1.4,3-2.9,6-4.4,9.1c-2,4.1-4.1,8.2-6.2,12.4c-0.9,1.7,0.2,3.6,2.1,4c13.8,3.2,31-2.5,37.3-15.7c6.1-12.8,6.6-29.8,7.3-43.7
			C404.8,643.6,398.5,642.9,398.3,646.5"/>
		<path class="st4" d="M204.8,218.8c0,0-49.7-11.4-71.6,0c-22,11.4-22.2,21.8-18.8,32.8c3.4,11,25.1,22.7,32.8,27.8
			c7.7,5.1,4.7,7,3,9.5s-8.6,1.7-20.6-4.5c-12-6.3-38.6-25.7-51.5-22.2s-19.3,12.9-15.5,19.4c3.9,6.4,12.5,12,17.6,12
			c5.2,0,12.5,3.9,16.7,7.7c5.6,5,15.5,11,21.1,10.5c6.3-0.6,16.2-0.7,23.5,0s9.9,4.5,10.7,12.3c0.9,7.7,3,13.7,3,17.8
			c0,4.1-4.7,3.1-12.9,4.5c-8.2,1.4-24.9,7.8-28.1,21.5s-3.8,30.5,6.6,53.4s26.2,39.4,39.5,45.8c13.3,6.4,35.8,10.7,54.2,8.2
			l18.4-2.6c0,0,2.5,17.2,1.4,25.8c-1,8.6-1.9,14.3-5.8,16.8c-3.8,2.5-11.3,10.7-15.5,18s1.4,24.9,5.3,34.4
			c3.8,9.4,34,90.8,36.5,97.8s5.5,17.3,4.7,22.4c-0.9,5.1-6.3,10.7-8.7,13.7c-2.4,3-7.2,6.4-11.4,7.3c-4.3,0.9-8.9-3-15-1.7
			s-19.8,16.7-19.8,16.7s-7.9,6.9-6.5,10.3c1.8,4.3,8.6,5.2,10.4,3.4c2-2.1,12.9-16.4,12.9-16.4s-11.9,15.9-11.1,23.4s16,0.4,24-2.7
			c8-3,20.5-6.9,23-9.4c2.6-2.6,13.7-15.5,13.7-15.5s3.4-9,6.4-8.6s7.9,0.7,10-3.1c2-3.8-6.1-54.4-11.3-65.2
			c-5.2-10.8-18.9-49-18.9-49s36.9,86.7,58,93.6c21,6.9,27.1-94.9,24.9-123.2c0,0,6.9,14,6,131.7c0,0,1.7,9.4,4.7,12
			c3,2.7,4.3,10.8,4.7,12.5c0.4,1.7,12.9,20.2,22.3,22.8c9.5,2.6,17.6,0,19.3-0.9s-12-27.5-12-27.5s11.2,21.2,13.7,26.6
			c0,0,3.1-2.6,7.2-2.6c4,0,8.7-3.9,7.4-6.9s-15.8-21-24.5-28.8c-8.6-7.7-17.1-6.3-20.2-18.9c-2.2-9.2-1.5-17.2-1.5-17.2
			s5.4-21.5,8.8-28.3c3.4-6.9,16-23.7,20.2-25.3c0,0-5.2,9.5-4.3,12.9s8.2,7.3,8.2,11.2s0,11.4-3.9,14.5s-12.9,7.2-13.2,12.5
			c-0.4,5.3-0.1,12,3.8,13.3c3.9,1.3,9,2.6,18-3.9c9-6.4,8.6-11.6,13.3-10.7c4.7,0.9,11.2-1.1,11.6,4.6c0.4,5.7-1.2,11.3-2.6,16.4
			c-1.4,5.2-11.4,8.9-6.9,16.3c4.5,7.4,21,7.3,23.6,1.3s-2.2-19.9,6.4-22c8.6-2.1,19.3-1.2,22.3,6.5s3,18,7.7,18.5
			c4.7,0.4,11.5-3,12.4-2.6s1.9-1,6.1,5.5c4.2,6.5,4.2,8.3,9.8,10.8c5.6,2.6,14.2,13.3,22.3,12c8.2-1.3,10.1-1.3,11.2-5.2
			c1.1-3.9-14.6-26.6-14.6-26.6s14.1,19.7,19.3,19.3s5.2-8.6-2.5-17.6s-17.2-17.6-24.5-18.5s-21.3-10.3-21-15.9
			c0.4-5.6-0.5-13.5,3.8-14.2c4.3-0.8,15.8,0.9,17.1,3.9s8.6,3.2,11.6,2.6c3-0.6,4.7-6.9,0.4-10.7c-4.3-3.9-17.6-7.7-20.2-10.3
			l-2.6-2.6c0,0-0.4-9.5,3.4-14.2c3.9-4.7,6-12,4.3-16.7s-3.4-12.9,0.4-18c3.9-5.2,46.8-34.9,45.1-78.2c-1.7-43.2-21.5-75.3-40.8-84
			c-17.3-7.8-25.2-9.8-25.2-9.8s-26.8-4.9-39.6,7.9c0,0,8.2-9.6,30.5-9.7s20.7,2.5,20.7,1.1s-0.5-24.9,0.8-30.9s3-14.7-1.3-17.2
			s-5.2-5.2-14.6,0c-9.4,5.2-17.6,14.2-21.9,17.2c-4.3,3-13.7,7.3-13.7,7.3c-5.6,0.4-3.9-6.9-3-6.5s19.1-55.6,22.3-59.5
			s4.1-1.5,6,0.2s6.4,1.2,7.3,5.1l0.9,3.9c0,0,4,9.4,8.2,11.4c4.2,1.9,12.8,4.7,16.7,7.8c3.9,3.1,2.5,0.8,4.7,4.5s2.1,5.1,7.3,8.6
			l5.2,3.5c0,0,39.1,12.9,47.2,14.6c8.2,1.7,26.2,11.2,32.6,16.3c6.4,5.2,12.9,18.9,16.3,26.2c3.4,7.3,2.6,14.2,3,20.6
			s3.4,23.2,6.9,31.8c3.4,8.6,10.3,32.6,9.9,36.9c-0.4,4.3,8.6-11.2,11.2-8.1c2.6,3,3.9-0.4,7.7-0.4c3.9,0,17.2-32.2,13.7-43.8
			l-3.4-11.6c0,0-9.9-24.5-18.4-30.9l-8.6-6.4c0,0-13.3-12.2-15.5-16.8c-2.2-4.6-16.7-20.1-29.2-24s-67.4-20.9-79-33.2L516,324.9
			c0,0-21.9-33.8-30.9-36s-27.5-6.9-34.8,5.5s-17.2,61-17.2,61s-12,41.2-22.8,52.4c0,0,20.7-27.8,12.9-44.4
			c-7.9-16.6-23.2-20.4-26.6-16.5c-3.4,3.9-8.6,19.3-8.2,25.5c0.4,6.2,9.9,48.4-20.2,53.1c-30.1,4.7-63.5-6.9-76-22.4
			s-14.6-26.1-15.9-28.5s3-8.5,4.3-11.9s2.3-16.6-0.9-22.7c0,0,5,13.3,7.8,14.6c2.9,1.3,11.5-3.4,18.3,0.4
			c6.9,3.9,17.2,14.2,24,19.6c6.9,5.3,21,11.2,30.1,3.3c9-7.9,10-22.9-6-36c-15.9-13.1-22.8-18.7-37-18.7s-18.9,0.4-23.6-1.9
			c-4.7-2.4-6-6.3-2.6-9.5c3.5-3.2,9.9-5.6,15-3.3c5.2,2.3,29.2,3.3,36.5-1.7s17.2-16.6,15.9-22.4c-1.3-5.8-3.9-19.9-24.5-32.8
			s-39.9-30.5-44.2-27.5c-4.3,3-5.8,7.3-2,12.5c3.7,5.1,24.8,23.2,25.6,29.2c0.9,6,2.2,8.6-4.7,9.4c-6.9,0.9-10.7-2.1-16.8-2.1
			c-6,0-11.6,11.8-12.9,20.6c0,0-8.4-4.6-11.5-25c0,0-7.3-2.1-10.8,0c-4.3,2.5-8.9-4.4-10.8-4.6c-1.5-0.2-11.1,5.4-13.3,4.6
			c-2.2-0.7-2.9-11.5-8.1-11c-5.2,0.4-10.1,8.6-14.1,8.6s-9.3-7.7-12-7.7s-9,15.9-13.4,14.2c-4.4-1.7-2.9-13.3-8.8-18
			s-29.7-7.7-18-15C169.9,232.2,194.5,235.4,204.8,218.8"/>
		<path class="st6" d="M152,286.2c1.2,0.1,24,1,31.5-15.1c0,0-1.7-11.5-7.4-15.5c-5.7-4-22.6-9.6-21-12.3c1.6-2.7,6.8-5.9,10.4-6.9
			c3.6-0.9,27.2-7,30-8.8s9.3-8.8,9.3-8.8s-35.5-7.1-45.5-5.1s-17.8-1-35.6,9.3c-17.8,10.3-8.3,31.4-2.3,38.3
			c6.1,6.9,27.1,15.9,28.1,19.8C150.4,285,152,286.2,152,286.2"/>
		<path class="st6" d="M294.8,224.9c0,0,6.1,3.8,14.3,9.4c15.9,10.8,40,28.1,44.9,37.3c7.5,14,1,21.2-2.5,27s-18.6,10.8-29.4,11.7
			c-10.8,1-16-3.7-20.8-2.8c-4.8,1-9.1,2.8-10.2,4.2c-0.8,0.9-11.4-13.5-11.8-19.5c-0.3-4.8,6.5-18.4,10.5-18.8s19.2,2.4,21.8-0.1
			c2.5-2.5,4.9-9.2,1-12.1c-3.8-2.9-25.4-20.8-26-26.7c-0.6-5.9-0.7-11.1,4.6-10.9"/>
		<path class="st6" d="M158,420.8c0,0,10.7,24.7,18.1,27.5c7.5,2.8,18.8,4,29.8,0s26.8-14.6,26.8-14.6S175.6,430.4,158,420.8"/>
		<path class="st6" d="M169.9,329.3c0,0,9.6-29.7,24-21.2s20.6,27,13.2,42.2c-6.4,13.1-13,18.6-13.9,18.2c-0.4-0.1-22.5-9-23.7-12.5
			C168,351.4,167.9,336.3,169.9,329.3"/>
		<path class="st6" d="M222.2,374.7c0,0-2.3-37.3,12-44c14.3-6.8,19.4-4.4,23.7-0.7c4.4,3.6,7.4,12.2,5.5,18.2
			c-6.9,21.6-16.8,28.9-17.5,29.6c0,0-12.2-0.4-23.7-2.1V374.7z"/>
		<path class="st5" d="M684.1,455.1c-4.5-15.2-11.2-31.7-24.2-41.4c-13.9-10.4-22.3-25.5-35.6-36.5c-16-13.3-41.6-16.8-60.6-24.2
			c-16.8-6.5-34.7-14.8-44.6-29.9c-7.8-11.9-18.7-32.9-33.4-36.5c-17.5-4.2-35.2-3.4-42.4,15.2c-6.7,17.2-10.3,35.8-14,53.8
			c-0.6,3-1.4,6.1-2.2,9.3c-1.7-7.4-6.4-14.1-15.5-19c-19.1-10.5-28.8,14.7-26.7,30c1.5,10.7,2.3,21.4-0.5,31.9
			c-7,26.4-46.6,16.6-65.1,9.7c-18.8-7.1-31.1-22.3-38.1-40.9c-2.4-6.5,1.8-10.3,3.5-16.5c0.4-1.3,0.6-2.7,0.8-4.1
			c7.5,0.8,15.1-1.5,21.9,3.5c6.7,4.9,12.6,10.9,19,16.2c14.1,11.4,39.4,10.3,43.6-10.3c2.7-13.3-10.5-23.4-19.3-30.5
			c-9.6-7.8-18.8-13.1-31.3-13.5c-6.5-0.2-13.2,0.7-19.7-0.6c-14.7-2.9-1.3-11.3,6.8-10c9.6,1.6,20.7,2,30.2-0.5
			c9.3-2.5,15.5-8.5,21.3-16.1c6-8,3.8-15.2-0.3-23.5c-6.5-13.1-20.2-20.2-31.7-28.2c-8.4-5.8-20.9-19.5-31.7-20.5
			c-5.9-0.5-9.9,2.6-12.4,7.9c-3.3,7,13.5,19.4,17.1,23.1c3.7,3.8,7.7,7.7,10.1,12.4c4.7,9.1-5.6,6.7-11.6,6.1
			c-8.3-0.8-13.2,2-17.7,9c-1.2,1.9-2.1,3.9-2.8,6.1c-3.5-5.7-4.9-13.5-5.9-19.2c-0.1-0.3-0.4-0.5-0.7-0.5c-3.3-0.8-6.4-1-9.8-0.9
			c-5.1,0.2-7.6-2.4-11.8-3.7c-7.1-2.1-11.8,8.2-16-1.9c-2.3-5.8-8.5-5.2-13.2-2.8c-4.5,2.3-7.3,7.5-12.3,3.3
			c-2.5-2.2-4.8-4.7-8.4-4.1c-6.8,1.1-9.4,8.8-13.1,13.6c2.1-2.7-2.7-12.3-4.1-14.8c-1.9-3.5-6.7-4.9-10.1-6.1
			c-3.3-1.2-20.3-5.7-7.9-11c5.7-2.4,12.4-3.1,18.5-4.5c10.2-2.4,19.6-6.7,25.8-15.4c0.3-0.4,0.3-0.6,0.1-0.8c0.1-0.2,0-0.4-0.5-0.5
			c-17.7-4-36.1-6.1-54.2-4.8c-15.5,1.1-43.8,10.3-44.5,29.3c-0.4,10.7,4.6,17.6,12.5,24.2c4.9,4.2,10.5,7.6,16,11
			c3.5,2.2,17.1,13.5,6.4,10.8c-20.5-5.1-40.6-31.4-63.2-27.4C62.1,263.6,46,285,72,294c7.5,2.6,14.8,3.6,21.4,8.8
			c4.1,3.3,8.3,6.7,13.3,8.7c12.5,5,36.9-5.3,41.4,10.7c1,3.4,6.1,21.5-0.3,22.2c-4.3,0.5-8.3,1.3-12.5,2.6
			c-8.2,2.6-18.3,7.9-22.3,15.9c-13.1,26.3,1.8,60,17.1,81.6c24,33.8,61.8,35.3,99.3,30.4c0.9,6.4,1.4,12.9,1.6,19.4
			c0.1,6.1-0.8,12.5-3,18.2c-1.3,3.5-9,8.9-11.5,11.8c-13.4,15.2-7,30.8-0.3,48c11,28.6,21.5,57.4,32.1,86.1
			c1.4,3.8,2.8,7.6,4.1,11.4c1.9,5.4,3.2,11,3.7,16.8c0.6,6.6-11.3,22.2-18.9,20.4c-14.8-3.4-22.5,3.4-32.5,13.8
			c-5,5.2-18,18.2-2.3,19.5c1.8,0.2,3.5-0.1,5-0.5c-0.8,2.7-0.9,5.4,0,7.8c2.5,7,22.7-2.1,25.9-3.4c11.6-4.5,23.3-6.7,31.8-16.2
			c2.8-3.2,8.3-7.4,9.9-11.4c2.5-6.1,2.8-5.1,8.5-6.6c8.6-2.3,8.6-6.9,7.9-14.7c-1.2-13.7-3.8-27.4-6.8-40.8
			c7.4,13.7,20.1,35.8,34.3,32.1c17.5-4.5,19.2-35.1,21.3-49.2c0.8-5.3,1.4-10.6,2-15.9c0.6,17.9,0.5,35.8,0.6,53.6
			c0,9.3-1,18.3,2.1,27.2c2,6,5.9,10.4,7.3,16.9c2.4,10.9,17.4,22.2,27.6,24.2c2.1,0.4,18.7,0.6,21.3-3.3c0.5-0.2,0.9-0.4,1.1-0.6
			c4.4-3,20.8-3.4,13.9-13.2c-9.3-13-19.9-25.9-34.1-33.6c-21.1-11.3-8.7-51.6,6.9-71.4c-0.5,2.3-0.3,4.6,1.3,6.3
			c5.7,6.1,7.5,8.9,5.9,17.5c-1,5.7-9.9,9.4-13.9,13.2c-4.8,4.6-3.4,15.2,1.6,18.7c4.1,2.9,11.9,1.2,16-0.3
			c4.4-1.7,8.1-4.3,11.7-7.3c2.5-2,4.5-6.7,7.7-6.4c18.6,1.7-0.1,23.5-3.2,31.1c-5.2,12.8,22.4,13.1,28.6,8.6
			c5.4-4.1,4.3-10.2,4.4-16.4c-0.5-5.6,2.7-8.2,9.4-7.7c7.2,0.1,10.1,4.3,12.1,10.2c1.7,5,1.8,10.2,5.1,14.6
			c3.4,4.5,12.1-2.1,15.2-1.5c4,0.8,6.1,6.8,8,10c2.2,3.6,5.3,5.1,8.8,7.1c6.3,3.6,11.6,11.3,19.6,11.2c4.5,0,14-0.2,17.3-4.3
			c1.7-2.1,1.8-4.8,1.1-7.7c2.5,0.4,4.9-0.4,7-3c7.6-9.1-7.8-22.2-13.6-27.7c-10.5-9.9-28.5-9.2-35.7-22.6c-1-1.9-0.2-5.8-0.1-7.8
			c0.2-7,1.9-6.1,8-4.8c4.6,0.9,5.9,4.9,10.4,5.6c6.2,0.9,13.3,1,16.6-5c4.8-8.6-12.8-14-17.7-16.1c-16.1-6.9,0-18.1,0.8-29.3
			s-5.3-19.6,4.6-28.4c7.8-7,15.1-14.3,21.7-22.5c18.7-23.5,21.6-49.3,15.5-78c-5.2-24.8-18.3-49.7-42.2-60.3
			c-4.7-2.1-9-3.8-13.3-5.2c1.2-0.1,2.4-0.4,3.7-1.3c0.4-0.3,0.9-0.7,0.8-1.2c-0.7-6.5-0.2-13.4-0.1-19.9c0.1-5.8,5.4-22.5,0.9-27.1
			c-13-13.5-31.3,4.9-41.2,13.7c-4.3,3.8-9.3,6.3-14.5,8.7c-3.4,1.6,0.2-4,1-5.6c2.5-4.6,3.9-10.1,5.6-15c3.1-8.8,6.2-17.6,9.3-26.4
			c1.8-4.9,3.2-11.7,6.5-16.3c3.6,2.1,6.8,5.6,7.5,9c0.6,2.8,3.1,6.7,5,8.7c4.6,5.1,12,6.3,17.9,9.3c5.2,2.7,5.9,6.3,9.6,10.3
			c11.9,13.1,35.2,16.1,51.3,20.8c12.3,3.6,23.4,8.1,34.4,14.9c14,8.7,22.6,29.6,23,45.4c0.7,25.5,13.3,48.4,17,73.3
			c0.2,1,2.5,0.7,3.1,0.6c3.3-0.6,10.9-7.3,10-7.9c2.5,1.7,9.9-1.3,12.3-2.5c5.5-2.8,8-12.1,10-17.3
			C684.5,476.5,687.3,465.8,684.1,455.1 M139.9,309.5c-7.8-0.6-16.8,1.5-24.4-0.4c-8.3-2.1-14.6-9.4-21.6-13.8
			c-9-5.6-34.3-6.4-27.8-23.2c8.2-21.2,40.4,1.9,51,8.3c7.4,4.5,34.2,21,38.6,3.9c1.4-5.4-18.4-14.8-21.9-17.2
			c-10.7-7.4-20.6-17.6-16.5-31.5c5.5-18.8,32.1-20.9,47.9-20.3c11.3,0.4,22.7,2.1,33.8,4.3c0.4,0.1,0.8,0.2,1.2,0.2
			c-10.8,13.8-28.3,10-42.4,17.7c-8.3,4.5-8.1,8.5,0.6,12.2c6.5,2.8,13.4,3.4,17.1,10.1c1.9,3.6,1.3,12.5,6.2,14
			c7.3,2.2,12.3-5.9,15.5-10.8c1.2-1.8,1.6-2.7,1.7-3.1c-0.1,0.5-0.3,2.1,1.2,3.4c2.3,2,4.1,3.3,7,4.1c2.4,0.6,6-0.5,8-1.9
			s3.1-2.3,5-3.9c4.7-4.1,6.6,4.8,7.6,6.9c1,2.2,4.4,1.7,6.3,1.2c3.8-1.2,8.3-4.8,11.4-2.2c3.5,3,6.9,3.6,11.3,2.2
			c8.6-2.7,7.1,2.5,8.5,8c0.9,3.9,2.6,7.5,4.6,10.9c1.3,2.3,3.2,4.7,5.4,6.1c1.4,0.9,6.8,0.1,7.2-1.9c1.1-5.5,3.7-19.5,12.7-17.4
			c4.1,0.9,7.5,1.4,11.7,1.3c4-0.1,8.4-1.6,10.5-5.1c6.1-10-19.3-28.9-24.4-34.3c-1.6-1.6-2.8-3.5-3.6-5.7
			c-5.4-10.6,5.5-3.5,7.1-2.4c5.3,3.3,10.2,7.2,15.3,10.8c11.4,8.3,24.3,15,33.7,25.7c4.9,5.6,10.6,16,8.4,23.7
			c-4.9,17.8-25.4,20.2-40.6,18.4c-7-0.8-11.5-3.1-18.5-0.4c-5.7,2.2-11.9,6.3-8,12.7c2.9,4.8,11.9,4.6,16.5,4.6
			c15.3,0.3,25,1.1,37.4,10.4c11.1,8.3,24.5,18.6,21.3,34.1c-4.7,23.3-30.9,2.1-39.2-5.3c-6.1-5.4-13.5-13.3-22.6-12.4
			c-5.2,0.5-9.3,2.7-12.3-2.6c-1.8-3.2-3.2-6.8-4.5-10.2c-0.8-2-8.1,0.3-7.5,2c2.7,6.9,2.8,15.2,0.9,22.3c-1.1,4.1-3.8,6.8-4.1,10.3
			c-7,5.4-25.6,2.5-33.6,1.9c-4.6-0.4-9.2-0.9-13.7-1.6c0-0.2,0-0.4,0-0.6c-1.5-11.8-0.5-25.4,6.1-35.5c5.8-8.8,20.8-13.2,27.5-3.9
			c1.5,2,2.4,3.9,2.9,5.8c-2.1-3.4-5-6.3-8.7-7.4c-9.5-2.7-16.8,14.4-17.9,21c-1.2,6.9,4.6,24.1,13.5,23c4.8-0.6,30-20.8,17.2-41.7
			c-6.7-10.9-14.4-13.6-26.8-9.6c-19.3,6.1-22.2,30.4-20,47.7c0,0.1,0,0.1,0,0.2c-6.7-1.1-13.4-2.6-20.1-4.2
			c-1.1-0.3-2.2-0.6-3.2-0.9c0,0,0.1,0,0.1-0.1c16.8-12.6,23.3-52,0.2-61.2c-15.3-6.1-24.6,14.1-27,25.9c-0.1,0.4,5-1.5,5.4-3.2
			c0.6-3,1.5-5.9,2.5-8.7c1.1-3,2.6-5.9,4.3-8.5c4.7-7.2,14,0.5,18.1,3.8c4.4,3.6,6.3,10.3,6.3,17.9c-2-5.5-5.1-11-9.7-14.1
			c-9.6-6.3-16.9,11.4-18.3,18.4c-2.2,11.4,8,19.1,18.3,19.9c2.1,0.2,3.7-0.4,5.1-1.5c-2,4.7-4.5,8.6-7.2,10.8
			c-6.2-2-11.8-4.7-17.8-8c-9.6-5.3-14.2-11.8-17.8-20.3c0-3.2-1.3-7.1-2.2-11.5C154.1,315.2,152.7,310.5,139.9,309.5 M154,459.3
			c-26.1-19.4-42.7-57.4-36.8-89.5c1.7-9.1,7.2-14.9,15.3-19.1c6.4-3.4,13.1-2.4,19.6-4.5c2-0.6,3.4-1.4,4.4-2.4
			c1.9,3.5,4.3,7.8,7.8,10.4c8.6,6.5,4.3,3.9,17.1,10.7c0.1,0,16.8,6.1,17,6.1c12.4,3.8,19.5,5.2,31.8,6.6c9.6,1.1,19.3,1.9,29,2.1
			c3.8,0.1,10.1,0.5,14.9-0.8c3.5,8.8,8,17.1,14,24.1c7.6,32.8-22.7,59.6-52.6,67.6c-0.7-0.1-1.6,0.1-1.9,0.1
			C206.3,474.6,177.2,476.6,154,459.3 M676.6,477c-1.4,6.3-6.2,24.4-11.7,25.8c-2,0.5-3.4-1.3-7.1-0.1c-1.7,0.5-3.1,1.3-4.5,2.5
			c-0.5,0.5-1.1,1.1-1.6,1.6c-4-21-13-40.6-15.8-62c-1-8-0.4-15.1-3.2-22.8c-2.4-6.5-6.3-12.9-10-18.7c-6.5-10.3-18.3-15.5-29-20.5
			c-17.5-8.1-37.9-11.9-56.2-17.9c-7-2.3-10.4-9.5-15.4-14.8c-2.9-3.1-7.8-4.9-11.6-6.5c-7.7-3.4-12.1-6-15.8-13.8
			c-3.1-6.7-4.7-9.8-12.5-12.3c-4.2-1.4-8.8,2.9-10.4,6.3c-7.9,16.4-12.6,34.6-18.8,51.7c-1.4,3.8-4,6.9-2.8,10.9
			c1.5,5.4,10.9,0.5,13.4-0.7c11.1-5.4,18.8-13.8,28.8-20.9c19.6-13.8,12.1,21.4,11.9,30.1c-0.1,4.4,0,8.7,0,13.1
			c-16.6-2.5-39.9-0.8-50.8,11.3c-1.9,2.1,5.6,0.7,6.8-0.4c16.2-14.3,37.8-5.3,54.2,1.7c25,10.7,36.4,38.2,41.7,63.3
			c6.1,29.2-0.5,54.1-19.4,76.8c-8.3,9.9-25,18.6-25.4,32.6c-0.2,7.2,3.3,10.9,1.3,18.6c-1.6,5.9-6.3,9.3-6.9,15.8
			c-0.6,6.9,2.1,8.5,8.4,11.4c4.9,2.2,9.9,3.9,14.3,7.1c5.1,3.8,1.8,12.6-5.1,5.5c-1.1-1.1-2.1-2-3.7-2.4
			c-5.4-1.7-13.7-3.7-19.2-0.8c-6.1,3.3-6.1,11.4-5,17.7c1.3,7.5,14.9,13.3,21.3,14.7c7.3,1.5,12.8,6.7,18,11.7
			c4.2,4,7.8,8.4,10.6,13.6c0.7,1.3,3.4,8.1-0.6,4.7c-3-2.5-5.7-5.6-8.2-8.7c-1.5-2-2.9-3.8-4-5.3c-0.5-0.7-1-1.4-1.5-2.1
			c-1.2-1.6-8,1.2-7.2,2.3c2.6,3.7,20.1,27.1,11.4,28.6c-9,1.7-20-8.5-27.1-13.7c-4.4-3.2-5.6-12.9-11.6-13.9
			c-3.6-0.6-6.9,0.7-10.3,1.8c-6.7,2.1-7.8-10.5-8.7-13.8c-1.2-4.8-3.2-7.4-7.5-9.8c-7.7-4.3-23.9-2.8-28.1,5.9
			c-3.8,7.8,3.6,23.3-12.8,18.4c-13.3-3.9,0.8-16.5,2.7-23.7c1.2-4.4,4.6-16.2-2.7-17.4c-4.6-0.7-10.6-1.9-15,0.2
			c-8.1,3.8-11,16.6-22.6,14.3c-6.7-1.4-5.7-13.1-3-16.7c2.7-3.9,8.2-4.7,11.1-8.3c3-3.8,6.8-13.5,3.2-18c-3.2-3.9-8-6.5-6.7-12.2
			c0.7-3.1,2.4-6.1,3.8-8.8c1-1.9-5.4-0.3-5.9,0c-18.1,10.2-30.7,40.5-30.6,60.5c0.1,8.6,1.7,17.3,8.7,22.9c7.5,6,15,9.6,21.8,16.9
			c5.5,5.9,10.9,12.3,15.4,19c1.7,2.6-3.1,4.8-7.5,6.6c-1.1-2.3-2.3-4.7-3.5-7c-2.7-6.3-6.6-12.4-9.4-17.9c-1.1-2-8.2,0.6-7.5,2
			c3.7,7.2,7.3,14.5,10.5,21.9c5.2,12.2-15.1,2.2-19.7-1.9c-5-4.4-9.3-10.1-12.7-15.8c-1.9-3.3-2-7.9-3.7-11.5
			c-2.3-4.8-5-8.3-6.1-13.8c-2-10,0.1-22.5,0.1-32.7c-0.1-9-0.2-17.9-0.4-26.9c-0.4-19.7-1-39.6-3.3-59.2c-0.5-4-0.6-9.1-2.4-12.9
			c-0.9-1.9-7.6-0.1-7.5,2c1.5,21.4-0.2,43.3-2.5,64.6c-0.6,5.6-7.2,58.1-15.6,56.1c-8-2-14.8-13.4-19-19.5
			c-6.7-9.7-12.3-20.1-17.8-30.5c-7.4-14-14.2-28.4-20.4-43c-0.8-2-8.1,0.2-7.5,2c5.7,15.9,11.4,32,18.2,47.5
			c7.7,17.5,10,38.6,11.9,57.5c0.4,3.6,2.3,10.2-3.8,9.6c-2-0.2-4.3,0.6-6.1,1.5c-4.7,2.4-8.4,11.6-12,15.7
			c-9.6,11-21.1,13.9-34.3,19.1c-23.3,9.2-8.5-14.1-2.7-22c1.6-2.2-5.7-1.2-6.8,0.4c-3.2,4.2-6.4,8.4-9.7,12.5
			c-2.9,3.7-8.3,2.3-5.8-3.9c1.1-2.7,3.9-4.5,5.8-6.6c5.7-6.3,13-16.3,22.7-13.6c4.6,1.3,9.6,1,13.9-1.4c6.6-3.7,10.9-8.5,15.4-14.6
			c5.2-7.1,2.8-15.1,0.6-22.9c-2.9-10.4-7.3-20.5-11-30.6c-9.1-24.6-17.9-49.4-27.7-73.8c-3.4-8.5-6.1-17.3-6.8-26.4
			c-0.8-11,10.8-19.8,18.2-26.4c1.1,18.2,2.9,37.6,10.5,53.1c1.4,3,7.5,1.4,5.8-2c-9.3-19-9.4-44.9-10.7-65.7c0-0.2-0.1-0.4-0.1-0.6
			c0.5-9-1.2-19.2-2.1-25.5c29.2-6.4,60.9-30.8,58.8-62.1c1.4,1.2,2.9,2.3,4.5,3.4c14.2,9.5,32.3,13.1,49.1,13.9
			c10.8,0.5,25.4,0,34-7.8c18-16,5.5-39.5,10.5-59.2c0.8-3,1.9-6,3.1-8.9c2.4-6.2,4.4-5.4,10.1-2.3c7.9,4.3,13.4,13.3,14.2,22.1
			c1.2,12.2-7.4,26.4-14.3,35.9c-1.7,2.3,5.6,1,6.8-0.4c12.3-14,17.8-35.1,23-52.6c5.1-17.1,7.5-34.9,13.3-52
			c3.2-9.4,6.1-15.8,19.2-15c5.2,0.3,11.8,1.2,16.2,4.4c9,6.4,15.8,17.6,22.1,26.5c7.8,11.1,16.3,21.1,28.5,27.7
			c19.8,10.6,42,17.3,63.3,24.1c22.4,7,32,26.6,48.1,41.6c6.1,5.7,12.1,9.1,16.8,16.4c4,6.3,8.3,13.9,10.4,21.1
			C677.3,459.5,679,466.5,676.6,477"/>
		<path class="st5" d="M424.5,606.7c-5-0.9-10.8,0.5-15.8,1.3c-3.2,0.6,0.6,5.5,2.8,5.1c5.9-1,12.4-2.4,18.2-0.5
			c7.8,2.6,15.8,4,23.9,2.5c14.5-2.7,34.7-8.3,43-21.7c1.3-2.2-3.5-6.3-4.7-4.4c-7.8,12.6-26.3,17.7-40,20.7
			C441.9,612,433.9,608.4,424.5,606.7"/>
		<path class="st5" d="M385.7,520.4c4.5,17.3,9.9,35.7,10.3,53.6c0.1,2.8,5.7,5.7,5.6,2.2c-0.4-18.5-5.7-37.2-10.3-55
			C390.5,518.5,384.7,516.6,385.7,520.4"/>
		<path class="st5" d="M249.1,433.8c1.9,3.5,4.5,6.8,7.8,8.9c1.9,1.2,4.5,1.3,6.6,0.7c1.2-0.3,3.6-1.9,1.7-3.2
			c-3.9-2.6-6.7-7-8.4-11.3c0.3-2.7,1.1-5,3-7.2c2.5-2.9-5.7-8-8.4-4.7c-1.2,1.4-2.1,3-2.7,4.7c-1.5,5.1-0.8,4.6-6.2,5.8
			c-13.4,2.9-27.7,2.9-41.4,1.7c-20-1.7-39.3-9.9-53.3-24.4c1.8-2.5,3.1-5.3,3.4-8.3c0.3-2.9-9.4-3.1-9.7,0.1
			c-0.4,4.9-4.2,9.2-8.1,11.9c-1.9,1.3,0.6,2.7,1.8,3c2.1,0.5,4.7,0.4,6.6-0.9c0.5-0.4,1.1-0.8,1.6-1.2c2.6,2.5,5.3,4.8,8.1,6.9
			c5.9,12.1,13,33.9,27.8,35.8c10.9,1.4,22.8,0.2,33-3.8c8.7-3.5,16.7-8.9,25.3-12.7C241.6,435,245.4,434.5,249.1,433.8
			 M185.6,449.6c-9,0.6-16.2-14.1-21.2-25.1c17.4,9.1,37.1,12.5,57.2,12.1C210.2,442.1,199.4,448.6,185.6,449.6"/>
		<path class="st5" d="M180.5,409.9c4.6-0.4,6.3-1.4,8.3-13.6c0,0-1.9-8.9-8.5-9.4c0.4,0,0.3-0.7,0.5-1c2.1-1.4,3.7-2.9,4.8-4.9
			c-1.4-2.1-3.5-3.2-6.3-3.3c-6.6-0.2-13.1,6.6-15.5,11.1c-1.5,6.1-0.1,11.2,2.8,16.1C169.6,408.7,174.9,410.4,180.5,409.9"/>
		<path class="st5" d="M213.2,419.3c6.6,2,13,2.7,18.8-3.2c2.5-4.3,2.3-8.5,1.9-12.6c-1.4-10-11.8-12.4-19.7-14
			c-1.5,0.2-1.9-0.9-2.8,2.5c-1.2,4.1,4.7,3,5.4,6.3c-2.1,1-2.8,2.2-4.4,3.2c-2.1,2.2-3.7,5.2-3.8,7.3
			C207.3,413.6,210,416.4,213.2,419.3"/>
		<path class="st5" d="M174.5,297.6c2.8-2.3,5.9-4.1,9.2-5.7c9-4.5,18.7,2.6,21.8,11.3c0.8,2.2,9.7,2.8,9.2,1.4
			c-3.6-10-15.9-16.2-25.9-17.8c-8.5-1.3-16.8,2.9-23.3,8.1C164.6,295.7,172.6,299.1,174.5,297.6"/>
		<path class="st5" d="M232.5,314c9.4-6.6,29.9-15.5,36.5-1.8c1.2,2.5,6.4,4.8,7,6.1c-4.2-8.7-13.4-18.9-23.6-19.6
			c-9.5-0.7-19.3,3.2-27,8.7C225.3,307.5,231.4,314.8,232.5,314"/>
		<path class="st6" d="M183.2,334.8c0,0,1.8-10.2,6.8-12.2c7-2.7,12.6,10.3,12.6,10.3S187.3,332.1,183.2,334.8"/>
		<path class="st6" d="M248.5,335.2c-5,2-6.2,5.6-7.6,14.4c0,0,14.5-5.9,20-2.4C261,347.1,259.6,330.7,248.5,335.2"/>
		<path class="st5" d="M496.9,701.5c2.2-6.7,0.6-13.3-2.6-19.3c-3.4-6.4-6.6-10.5-4.2-18c1.9-6.2,5.3-9,11.9-9.4
			c3-0.2-1-5.1-3.1-4.9c-9.8,0.6-12.6,5.9-15.2,14.6c-1.1,3.7,0.3,7.7,2.2,10.9c4.2,7.1,8.6,14.1,5.8,22.7
			C491,700.1,496.1,703.9,496.9,701.5"/>
	</g>
	<g>
		<path class="st6" d="M252.4,25.3v14.9h-22.8v66.1h-18.8V40.2H188V25.3H252.4z"/>
		<path class="st6" d="M330.8,106.3h-18.9V72.1H279v34.2h-18.9v-81H279v33.8h32.9V25.3h18.9V106.3z"/>
		<path class="st6" d="M396.3,25.3v14.5h-33.2v18.9h25.5v13.9h-25.5v19.2h33.2v14.4h-52.1v-81h52.1V25.3z"/>
		<path class="st6" d="M450.5,73.6c0.7,1.5,1.3,3.1,2,4.7c0.6-1.6,1.3-3.2,2-4.8c0.7-1.5,1.4-3,2.2-4.5l20.8-40.9
			c0.4-0.7,0.7-1.3,1.1-1.6c0.4-0.4,0.8-0.7,1.3-0.9c0.5-0.2,1-0.3,1.6-0.3s1.3,0,2.1,0H498v80.9h-16.6V59.6c0-2.3,0.1-4.7,0.3-7.3
			l-21.4,41.6c-0.7,1.3-1.6,2.3-2.7,2.9c-1.1,0.7-2.4,1-3.9,1h-2.6c-1.4,0-2.7-0.3-3.9-1c-1.1-0.7-2-1.6-2.7-2.9l-21.6-41.7
			c0.1,1.3,0.3,2.6,0.3,3.9c0.1,1.3,0.1,2.5,0.1,3.5v46.6H407V25.4h14.3c0.8,0,1.5,0,2.1,0s1.2,0.1,1.6,0.3c0.5,0.2,0.9,0.5,1.3,0.9
			c0.4,0.4,0.8,0.9,1.1,1.6l20.8,41.1C449.1,70.7,449.8,72.1,450.5,73.6z"/>
	</g>
	<g>
		<path class="st6" d="M330.1,853.8c0,4.2-0.7,8.1-2.1,11.6c-1.4,3.6-3.4,6.6-5.9,9.3c-2.5,2.6-5.6,4.6-9.1,6.1
			c-3.6,1.5-7.5,2.2-11.8,2.2s-8.3-0.7-11.8-2.2c-3.6-1.5-6.6-3.5-9.2-6.1c-2.5-2.6-4.5-5.7-5.9-9.3s-2.1-7.4-2.1-11.6
			c0-4.2,0.7-8.1,2.1-11.6c1.4-3.6,3.4-6.6,5.9-9.3c2.5-2.6,5.6-4.6,9.2-6.1s7.5-2.2,11.8-2.2s8.2,0.7,11.8,2.2
			c3.6,1.5,6.6,3.5,9.1,6.1s4.5,5.7,5.9,9.2C329.4,845.8,330.1,849.7,330.1,853.8z M319.2,853.8c0-3.1-0.4-5.9-1.2-8.4
			c-0.8-2.5-2-4.6-3.6-6.3s-3.4-3.1-5.7-4c-2.2-0.9-4.7-1.4-7.5-1.4s-5.3,0.5-7.5,1.4s-4.1,2.2-5.7,4c-1.6,1.7-2.8,3.9-3.6,6.3
			c-0.8,2.5-1.3,5.3-1.3,8.4c0,3.1,0.4,5.9,1.3,8.4c0.8,2.5,2,4.6,3.6,6.3s3.5,3,5.7,4c2.2,0.9,4.7,1.4,7.5,1.4s5.3-0.5,7.5-1.4
			s4.1-2.2,5.7-4c1.6-1.7,2.7-3.8,3.6-6.3C318.8,859.8,319.2,857,319.2,853.8z"/>
		<path class="st6" d="M369,835.7c-0.3,0.6-0.6,1-1,1.2s-0.8,0.4-1.4,0.4c-0.5,0-1.1-0.2-1.8-0.6c-0.7-0.4-1.4-0.9-2.3-1.4
			c-0.9-0.5-1.9-1-3.1-1.4c-1.2-0.4-2.6-0.6-4.2-0.6c-1.5,0-2.8,0.2-3.8,0.5c-1.1,0.4-2,0.8-2.8,1.5c-0.7,0.6-1.3,1.4-1.7,2.3
			c-0.4,0.9-0.6,1.8-0.6,2.9c0,1.3,0.4,2.5,1.1,3.4c0.8,0.9,1.7,1.7,3,2.3c1.2,0.6,2.6,1.2,4.2,1.7s3.2,1,4.8,1.6s3.3,1.2,4.8,2
			c1.6,0.8,3,1.7,4.2,2.8s2.2,2.5,3,4.2c0.7,1.7,1.1,3.7,1.1,6c0,2.6-0.4,5-1.3,7.2c-0.9,2.3-2.2,4.2-3.9,5.9s-3.8,3-6.2,3.9
			c-2.4,1-5.3,1.4-8.4,1.4c-1.8,0-3.6-0.2-5.4-0.5c-1.8-0.4-3.5-0.9-5.1-1.5c-1.6-0.7-3.1-1.4-4.5-2.4c-1.4-0.9-2.7-1.9-3.8-3.1
			l3.1-5.1c0.3-0.4,0.6-0.7,1-0.9c0.4-0.3,0.9-0.4,1.4-0.4c0.7,0,1.4,0.3,2.1,0.8c0.8,0.5,1.7,1.1,2.7,1.8s2.3,1.3,3.7,1.8
			c1.4,0.5,3.1,0.8,5.1,0.8c3,0,5.4-0.7,7-2.2c1.7-1.4,2.5-3.5,2.5-6.2c0-1.5-0.4-2.7-1.1-3.7c-0.8-0.9-1.7-1.7-3-2.4
			c-1.2-0.6-2.6-1.2-4.2-1.6c-1.6-0.4-3.2-0.9-4.8-1.5c-1.6-0.5-3.2-1.2-4.8-1.9c-1.6-0.7-3-1.7-4.2-2.9s-2.2-2.7-3-4.4
			c-0.8-1.8-1.1-4-1.1-6.6c0-2.1,0.4-4.1,1.2-6.1c0.8-2,2-3.7,3.6-5.2s3.5-2.7,5.9-3.7c2.3-0.9,5-1.4,7.9-1.4c3.4,0,6.5,0.5,9.3,1.6
			s5.3,2.5,7.3,4.4L369,835.7z"/>
		<path class="st6" d="M421,825.3v8.7h-17.2v48.4h-10.6V834H376v-8.7H421z"/>
	</g>
</g>
</svg>
