<?xml version="1.0" encoding="utf-8"?>
<!-- Generator: Adobe Illustrator 21.0.0, SVG Export Plug-In . SVG Version: 6.00 Build 0)  -->
<svg version="1.1" id="Layer_1" xmlns="http://www.w3.org/2000/svg" xmlns:xlink="http://www.w3.org/1999/xlink" x="0px" y="0px"
	 viewBox="0 0 924.8 287" style="enable-background:new 0 0 924.8 287;" xml:space="preserve">
<style type="text/css">
	.st0{fill:#509637;}
	.st1{fill:none;}
	.st2{fill:#369B49;}
	.st3{fill:#0084C7;}
	.st4{fill:#0077BC;}
	.st5{fill:#2E8E46;}
	.st6{fill:#53B252;}
	.st7{fill:#FFFFFF;}
	.st8{fill:#009FDB;}
	.st9{fill:#0092D1;}
	.st10{fill:#5DB755;}
	.st11{fill:#06ACE4;}
	.st12{fill:#73C060;}
	.st13{fill:#41B8EA;}
	.st14{fill:#86C670;}
	.st15{fill:#66BFEB;}
	.st16{clip-path:url(#SVGID_2_);}
	.st17{clip-path:url(#SVGID_5_);}
</style>
<g>
	<g>
		<path class="st0" d="M599.2,208.9c-0.4,2.5-0.8,5.1-1.3,7.6c-1.4,8.5-3.8,16.7-5.8,25.1c-3.3,13.8-6.7,27.5-10,41.2
			c-0.2,1-0.6,1.2-1.5,1.1c-3.6,0-7.1-0.1-10.7,0c-1.1,0-1.4-0.4-1.7-1.3c-3.4-13.9-6.8-27.8-10.1-41.7c-1.6-6.7-3.4-13.4-4.9-20.2
			c-0.8-3.6-1.3-7.4-1.9-11.1c-0.2,0-0.3,0-0.5,0c0,3,0.1,5.9,0,8.9c-0.1,6.3-1,12.5-1.5,18.8c-0.5,6.7-1.2,13.4-1.8,20
			c-0.7,7.7-1.4,15.4-2.1,23.1c0,0.1,0,0.3,0,0.4c-0.3,3-0.3,3-3.2,3c-4.3,0-8.5,0-12.8,0c-1.1,0-1.3-0.3-1.2-1.3
			c0.7-6.7,1.4-13.3,2.1-20c0.8-7.6,1.6-15.1,2.4-22.7c0.9-8.6,1.8-17.2,2.7-25.7c0.8-7.5,1.6-15,2.3-22.5c0.1-1,0.3-1.5,1.4-1.4
			c6,0.1,11.9,0.1,17.9,0c0.9,0,1.3,0.2,1.5,1.1c5,19.6,10,39.1,15,58.7c1,3.7,1.3,7.6,1.8,11.4c0.3-2.3,0.7-4.6,1-6.9
			c0.7-5.8,2.5-11.4,3.9-17.1c3.9-15.3,7.9-30.6,11.8-45.9c0.2-1,0.6-1.3,1.7-1.3c5.9,0.1,11.7,0.1,17.6,0c1.1,0,1.5,0.2,1.6,1.4
			c1.2,12,2.5,24.1,3.8,36.1s2.5,24.1,3.8,36.1c0.7,6.3,1.3,12.7,2,19c0.1,1-0.2,1.1-1,1.1c-4.9,0-9.9,0-14.8,0
			c-0.9,0-1.1-0.3-1.2-1.2c-1.1-11.5-2.2-23.1-3.2-34.6c-0.9-10-2.2-20.1-2.6-30.1c-0.1-3,0-6,0-9
			C599.4,209,599.3,208.9,599.2,208.9z"/>
		<path class="st0" d="M67.7,255.3c0,7.4,0,14.8,0,22.1c0,0.8-0.1,1.3-1,1.6c-6.6,2.5-13.3,4.9-20.4,5.9c-7.7,1.1-15.3,1.1-22.7-1.4
			c-9.7-3.3-16-10.2-19.6-19.6c-2.8-7.3-3.8-14.9-4-22.6c-0.2-9.4,0.4-18.8,3.4-27.8c2.7-8.1,6.9-15,14.2-19.6
			c5.4-3.4,11.3-4.8,17.6-5c9.7-0.4,18.5,2.4,26.8,7.1c0.7,0.4,0.8,0.6,0.5,1.4c-1.4,3.1-2.7,6.2-3.9,9.3c-0.4,0.9-0.6,0.8-1.4,0.4
			c-4.2-2.5-8.7-4.4-13.6-5.2c-11.1-1.8-19.6,3.6-22.9,14.4c-1.2,3.9-1.6,7.9-1.9,11.9c-0.5,7.3-0.7,14.5,0.2,21.8
			c0.4,3.6,1.2,7.1,2.4,10.5c3.3,8.6,9.3,12.5,18.5,12.1c3.7-0.2,7.1-1.2,10.4-2.6c0.6-0.3,0.8-0.6,0.8-1.3c0-7.9,0-15.9,0-23.8
			c0-0.9-0.3-1.1-1.1-1.1c-5.3,0-10.5,0-15.8,0c-1,0-1.4-0.2-1.4-1.3c0.1-3.1,0.1-6.1,0-9.2c0-1,0.2-1.4,1.3-1.4
			c10.6,0,21.2,0,31.9,0c1.2,0,1.4,0.5,1.3,1.5C67.7,240.6,67.7,247.9,67.7,255.3z"/>
		<path class="st1" d="M152.4,252.5c-0.6-0.9-2.2-0.6-3.3-0.7c-4.7-0.4-9.4-0.5-13.7,1.8c-4.4,2.3-6.8,7.2-5.8,12.1
			c0.9,4.4,4.9,7.6,9.9,8c4.7,0.4,8.7-1.3,12.5-3.8c0.6-0.4,0.6-0.8,0.6-1.4c0-2.5,0-5.1,0-7.6c0-1.6,0-3.3,0-4.9
			C152.6,254.8,153,253.4,152.4,252.5z"/>
		<path class="st0" d="M352.1,250.9c0-10.5,0-21,0-31.4c0-1.1,0.2-1.6,1.4-1.8c4.3-0.4,8.6-0.9,12.9-1.4c0.7-0.1,0.9,0.1,0.9,0.8
			c0,1,0,2,0,3c0,1.7,0,1.7,1.4,0.9c3.5-1.8,7.1-3.5,10.9-4.3c6-1.3,11.9-1.2,17.3,2c6.1,3.7,8.7,9.3,8.6,16.3c0,15.9,0,31.9,0,47.8
			c0,1-0.3,1.2-1.2,1.1c-4.3,0-8.6-0.1-12.8,0c-1.1,0-1.3-0.3-1.3-1.3c0-14,0-27.9,0-41.9c0-1.6-0.1-3.2-0.5-4.7
			c-1.1-4.4-4.6-7.1-9.1-7.2c-4.8-0.2-8.8,1.9-12.8,4.2c-0.8,0.4-0.6,1.1-0.6,1.7c0,15.8,0,31.7,0,47.5c0,1.4-0.3,1.8-1.8,1.8
			c-4.1-0.1-8.2-0.1-12.3,0c-1.1,0-1.3-0.3-1.3-1.3C352.1,272,352.1,261.5,352.1,250.9z"/>
		<path class="st0" d="M875.1,256c-6,0-12,0-18,0c-1.1,0-1.2,0.3-1.1,1.3c1.4,9.9,8,15.9,18.1,16.3c5.1,0.2,10-0.9,14.8-2.6
			c0.8-0.3,1.1-0.2,1.3,0.7c0.7,2.9,1.3,5.8,2.2,8.6c0.5,1.5-0.2,1.9-1.3,2.2c-3.8,1-7.6,2.1-11.5,2.5c-6.1,0.6-12.2,0.7-18.2-0.8
			c-10-2.6-16.8-8.7-20-18.6c-3.5-10.8-3.6-21.7,0.5-32.4c3.8-9.8,11.2-15.2,21.6-16.6c4.9-0.7,9.8-0.5,14.6,1.3
			c7.2,2.7,11.6,8.1,14.1,15.1c2.6,7.2,3,14.7,2.5,22.3c-0.1,1-0.8,0.8-1.3,0.8C887.3,256,881.2,256,875.1,256z M867.3,246
			c3.9,0,7.7,0,11.6,0c0.9,0,1.2-0.2,1.2-1.2c-0.1-3.6-0.6-7-2-10.3c-1.8-4-4.6-6.8-9.2-7.1c-4.9-0.3-8.9,1.4-11.5,5.9
			c-2,3.5-2.7,7.4-2.8,11.5c0,0.9,0.3,1.2,1.2,1.2C859.6,246,863.4,246,867.3,246z"/>
		<path class="st0" d="M768.9,256c-6,0-11.9,0-17.9,0c-1.1,0-1.4,0.3-1.3,1.4c1.5,9.9,8,15.8,18,16.2c5.1,0.2,10.1-0.9,14.8-2.6
			c0.9-0.3,1.2-0.1,1.4,0.7c0.6,2.8,1.4,5.6,2.1,8.5c0.4,1.7,0.4,1.8-1.4,2.3c-3.8,1-7.5,2.1-11.4,2.4c-6.1,0.6-12.2,0.7-18.2-0.8
			c-10.6-2.8-17.5-9.5-20.5-20c-2.6-8.9-2.8-18-0.4-27c3.5-13.3,13.2-20.8,27-21c3.4,0,6.7,0.3,9.8,1.4c8.2,2.8,12.8,8.9,15.3,16.8
			c2.2,6.8,2.5,13.8,2,20.9c-0.1,1-0.7,0.8-1.2,0.8C781,256,775,256,768.9,256z M761,246c3.8,0,7.7,0,11.5,0c0.9,0,1.2-0.2,1.2-1.2
			c-0.1-3.7-0.6-7.3-2.2-10.6c-1.8-3.9-4.7-6.5-9.1-6.7c-4.8-0.2-8.7,1.4-11.3,5.7c-2.2,3.6-2.8,7.7-2.9,11.9c0,0.9,0.4,1,1.1,0.9
			C753.2,246,757.1,246,761,246z"/>
		<path class="st0" d="M456.7,256c-6.1,0-12.1,0-18.2,0c-0.6,0-1.2-0.1-1.1,0.9c1.1,8,5.5,14.2,13.7,16.1c3.9,0.9,7.7,0.7,11.6,0.1
			c2.7-0.5,5.3-1.2,7.8-2.2c0.8-0.3,0.9-0.1,1.1,0.6c0.7,3.1,1.5,6.2,2.3,9.3c0.4,1.5-0.8,1.4-1.5,1.6c-3.8,1-7.6,2.1-11.5,2.5
			c-6.1,0.6-12.2,0.7-18.2-0.9c-10.4-2.7-17.2-9.3-20.3-19.5c-2.8-9.2-3-18.6-0.4-27.9c3.5-13,13.5-20.3,27.1-20.5
			c6.8-0.1,12.9,1.6,17.9,6.4c4.3,4.1,6.5,9.2,7.8,14.8c1.3,5.8,1.7,11.8,1.2,17.8c-0.1,1-0.6,0.9-1.2,0.9
			C468.8,256,462.7,256,456.7,256z M448.5,246c3.9,0,7.8,0,11.7,0c0.9,0,1.2-0.2,1.2-1.2c0-3.1-0.5-6.2-1.5-9.1
			c-1.8-5-5.5-8.1-9.8-8.3c-5.7-0.2-9.9,2.4-12.2,7.5c-1.4,3.1-1.9,6.4-2,9.9c0,0.9,0.3,1.2,1.2,1.2C440.9,246,444.7,246,448.5,246z
			"/>
		<path class="st0" d="M669.2,256c-6,0-12,0-18,0c-1.1,0-1.3,0.3-1.1,1.3c1,6.3,3.8,11.4,9.7,14.3c4.3,2.1,8.8,2.3,13.5,1.8
			c3.4-0.4,6.6-1.3,9.8-2.4c0.9-0.3,1.1,0,1.3,0.7c0.7,2.8,1.4,5.6,2.1,8.5c0.4,1.8,0.4,1.9-1.3,2.3c-3.8,1-7.5,2.1-11.4,2.5
			c-6.1,0.6-12.2,0.7-18.2-0.8c-10.4-2.7-17.4-9.2-20.4-19.6c-3.2-10.8-3.3-21.6,1.1-32.1c4.3-10.2,12.3-15.2,23.2-16.1
			c5.1-0.4,10,0.1,14.7,2.4c6.9,3.4,10.7,9.3,12.8,16.5c1.9,6.6,2.3,13.3,1.8,20.1c-0.1,1-0.7,0.8-1.2,0.8
			C681.3,256,675.2,256,669.2,256z M661.2,246c3.9,0,7.8,0,11.7,0c0.9,0,1.1-0.2,1.1-1.1c-0.1-3.3-0.5-6.5-1.7-9.6
			c-1.7-4.2-4.5-7.4-9.3-7.8c-4.9-0.4-9,1.3-11.6,5.6c-2.2,3.7-2.9,7.8-2.9,12c0,0.9,0.4,0.9,1.1,0.9C653.4,246,657.3,246,661.2,246
			z"/>
		<path class="st0" d="M278,256.6c-6.1,0-12.1,0-18.2,0c-0.9,0-1.1,0.2-1,1.1c1.6,11.1,9.3,17.2,21.2,16.4c4.1-0.2,8-1.2,11.8-2.6
			c0.8-0.3,1.1-0.2,1.3,0.7c0.7,2.8,1.4,5.6,2.1,8.5c0.4,1.8,0.5,1.9-1.3,2.3c-3.8,1-7.6,2.1-11.5,2.5c-6.1,0.6-12.2,0.7-18.2-0.9
			c-10.7-2.8-17.5-9.7-20.5-20.2c-2.6-9-2.7-18.1-0.2-27.1c3.6-13.1,13.4-20.4,27-20.6c7.4-0.1,13.9,1.8,19.1,7.4
			c3.8,4.1,5.8,9.1,7,14.5c1.2,5.5,1.5,11,1.1,16.7c-0.1,1.2-0.5,1.3-1.5,1.3C289.9,256.6,284,256.6,278,256.6z M270,246.7
			c3.9,0,7.8,0,11.7,0c0.7,0,1.2,0,1.1-0.9c-0.1-4-0.6-7.9-2.5-11.6c-3.9-7.4-14-8.3-19.1-1.7c-3,3.9-3.8,8.6-3.9,13.4
			c0,1,0.6,0.7,1.2,0.7C262.3,246.7,266.1,246.7,270,246.7z"/>
		<path class="st0" d="M207.3,215.6c7.2,0,14.1,1.7,21,3.8c0.9,0.3,0.9,0.7,0.6,1.4c-1,3.1-1.9,6.2-2.7,9.3
			c-0.3,1.1-0.7,1.3-1.7,0.9c-4.2-1.5-8.4-2.6-12.8-3.2c-3.2-0.4-6.5-0.5-9.6,0.4c-3.7,1.1-5.5,3.8-4.8,7.1c0.5,2.4,2.2,3.7,4.3,4.7
			c3.1,1.5,6.2,3,9.4,4.5c3.8,1.8,7.7,3.3,11.2,5.6c3.6,2.4,6.6,5.3,7.9,9.6c2.4,8-1.7,17.6-9.4,22c-4.7,2.7-9.9,3.7-15.2,3.9
			c-8,0.2-15.7-1.6-23.3-4c-0.8-0.3-0.9-0.6-0.7-1.4c1-3.3,2.1-6.5,2.9-9.8c0.3-1.3,0.8-1.2,1.8-0.8c5.2,1.9,10.5,3.4,16.2,3.2
			c2.4-0.1,4.8-0.4,7-1.2c2.5-0.9,4.5-2.4,4.8-5.3c0.2-2.7-1.4-4.4-3.4-5.7c-3.7-2.4-7.8-4-11.8-5.8c-4.5-2-8.7-4.3-12.3-7.8
			c-8.4-8.2-5.2-21,3-26.5C194.1,217.3,200,215.7,207.3,215.6z"/>
		<path class="st2" d="M595.5,77.4c13.1,0.5,26.1,1.1,39.2,1.6c0.3,0,0.5,0.1,0.8,0.2c0,0.6-0.4,1-0.7,1.3c-1,0.8-0.4,1,0.3,1.2
			c0.2,0.1,0.4,0.1,0.7,0.2c3.7,1,4.4,3.7,2.6,6.8c-3.4,6-7.5,11.3-13,15.6c-5.6,4.4-11.3,8.4-17.7,11.6c-2.9,1.4-5.9,2.7-8.7,4.3
			c-3.4,1.9-6.9,3.4-10.5,4.7c-4.5,1.7-9,3.6-13.5,5.2c-4.2,1.5-8.1,3.8-12.5,4.6c-1.3,0.2-2.7,0.4-4,0.6c-2.4,0.4-4.7,1.1-7.2,1.3
			c-2.8,0.2-5.6,0.3-8.3,1c-4,0.9-7.9,1.8-11.9,2.7c-4.7,1-9.4,1.9-14.1,2.9c-0.5,0.1-1.2-0.1-1.3,0.8c-2.9,0.6-5.9,0.8-8.9,1
			c-15.9,1.5-31.8,2.1-47.8,1.9c-13.7-0.2-27.3-0.9-40.9-2.3c-19.1-2-38-5.2-56.6-10.2c-12.9-3.5-25.5-7.8-37.5-13.8
			c-10.3-5.1-19.9-11.1-28.1-19.1c-4.6-4.5-8.5-9.5-11.4-15.3c0.5-0.2,0.7-0.7,1.1-1.1c1-1.3,2.3-1.9,3.9-2
			c5.6-0.3,11.1,0.1,16.6,0.7c5.1,0.5,10.2,0.7,15.2,0.9c4.6,0.2,9.1,0.5,13.7,0.7c1.6,0.1,3.3,0.1,4.9,0.3c3.7,0.4,7.3,0.8,11,1.1
			c2.9,0.2,5.9,0.4,8.8,0.6c4.2,0.3,8.5,0.7,12.7,1.1c2.8,0.3,5.6,0.7,8.5,1c3.1,0.3,6.2,1,9.2,1.5c5.1,0.9,10.3,1.8,15.4,2.8
			c5.9,1.2,11.7,2.7,17.6,3.9c10.6,2.1,20.8,5.3,31,8.7c4.9,1.7,9.7,3.7,14.7,5c1.1,0.3,2.1,0.9,3.3,0.2c0.7-0.2,1.2,0.2,1.7,0.4
			c4.2,1.8,8.3,3.6,12.5,5.4c0.3,0.1,0.6,0.3,0.9,0.4c0.2,0,0.4,0,0.5-0.1c0.2-0.2,0.1-0.5-0.1-0.6c-0.5-0.4-1-0.8-1.6-1.2
			c-7.3-5.3-15.1-9.6-23.2-13.3c-0.3-0.2-0.6-0.4-1-0.5c0.4-0.9-0.5-0.9-0.8-1.1c-2.7-1.6-5.5-2.8-8.3-4c-3-1.2-6-2.4-8.7-4.3
			c-1.3-0.9-1.4-2.8,0.2-3.5c2.4-1,4.9-1.3,7.4-1.6c2.3-0.3,4.7-0.3,7-0.7c3.6-0.5,7.1-1,10.7-1.1c2.5-0.1,4.9-0.4,7.4-0.7
			c3.5-0.4,7-1,10.6-1.2c3.2-0.2,6.4-0.5,9.6-0.7c4.8-0.2,9.6-1,14.3-1.3c5.5-0.3,11.1-0.8,16.7-0.7c1.9,0.1,3.8-0.2,5.7-0.3
			c4.6-0.3,9.2-1.2,13.8-1.3c9-0.2,18,0,27-0.6c3.4-0.2,6.8,0,10.1,0c0.8,0,1.6-0.2,2.4-0.2c2.4,0.2,4.7,0.5,7.1,0.5
			C595.7,79.2,595.8,79,595.5,77.4z M558,81.5c-3.1,0.2-7,0-10.8,0.2c-6.2,0.3-12.4,1.1-18.6,1.2c-8.6,0.1-17.2,0.4-25.8,1.4
			c-4.4,0.5-8.8,0.6-13.3,0.8c-4,0.2-8,0.7-12,1.3c-6.6,1-13.2,0.8-19.8,1.9c-2.8,0.5-5.6,0.5-8.3,1.3c-0.8,0.2-1.8,0.4-1.9,1.4
			s0.8,1.4,1.6,1.7c3.8,1.7,7.7,3.4,11.5,5.2c4.5,2.2,9,4.5,13.3,7c3.6,2.1,7.5,3.7,11,5.9c2,1.2,3.9,2.7,5.1,4.7
			c0.6,1,0.9,2.1,0.3,3.2c-0.6,1-1.6,1-2.6,1c-1.4,0-2.7-0.5-4.1-0.8c-3.1-0.6-5.9-2.2-8.8-3.2c-3.7-1.2-7.4-2.2-11-3.6
			c-6.6-2.7-13.4-4.9-20.2-7.3c-7.5-2.6-15.3-4.2-23.1-6c-7.8-1.8-15.6-3.6-23.6-4.8c-4.9-0.8-9.7-1.6-14.6-2.6
			c-3.4-0.7-6.9-1-10.4-1.3c-3.4-0.2-6.7-1.1-10.2-1c-2.1,0-4.3-0.3-6.4-0.5c-4.3-0.4-8.6-0.8-12.9-1.3c-4.2-0.5-8.4-0.6-12.6-0.9
			c-5.1-0.4-10.2-0.5-15.4-0.6c-4,0-8-0.5-12.1-0.3c-0.9,0-1.8,0.1-2.6-0.1c-3-0.8-5.9-0.3-8.8-0.1c-3.1,0.2-4.2,2.4-2.6,5.1
			c1.5,2.5,3.4,4.6,5.4,6.7c2.2,2.4,4.8,4.5,7.2,6.7c3.8,3.6,8,6.6,12.5,9.2c7.5,4.4,15.3,7.9,23.5,10.7c5.8,2,11.8,3.7,17.7,5.7
			c6.1,2,12.3,3.8,18.6,5.3c6.1,1.4,12.3,2.2,18.4,3.7c4.9,1.2,9.9,2.1,14.9,2.7c5.2,0.6,10.5,0.8,15.8,1.2c4.3,0.3,8.6,0.7,13,1.1
			c5.9,0.6,11.8,1,17.8,1c6.4,0.1,12.7,0.1,19.1-0.2c7.4-0.3,14.9,0.1,22.3-0.9c3.9-0.5,7.8-0.6,11.7-0.9c4.2-0.3,8.5-0.8,12.6-1.5
			c9.9-1.7,19.7-4,29.6-6.1c5.9-1.3,11.8-2.6,17.5-4.4c5.8-1.8,11.5-3.7,17.1-5.8c5.1-1.9,10.1-3.9,15-6.3
			c6.7-3.2,13.3-6.6,19.4-10.7c5.5-3.7,10.9-7.6,14.9-13.1c1.7-2.3,3.6-4.6,4.3-7.5c0.4-1.6,0-2.4-1.6-2.8c-1.8-0.5-3.7-0.6-5.5-0.9
			c-5.1-0.9-10.2-1.1-15.3-1.3c-4.6-0.2-9.3-0.4-13.9-0.5c-6.1-0.1-12.2-0.8-18.2-0.7c-2,0-3.9,0.4-5.9,0.3
			c-0.8-0.1-1.6-0.3-2.4-0.2c-2.2,0.1-4.4,0.4-6.6,0.5C564.6,81.5,561.7,81.5,558,81.5z"/>
		<path class="st0" d="M99.8,236.4c0,15.4,0,30.7,0,46.1c0,1.3-0.3,1.6-1.5,1.5c-4.1-0.1-8.3-0.1-12.4,0c-1,0-1.4-0.2-1.4-1.3
			c0-30.3,0-60.7,0-91c0-1,0.2-1.3,1.3-1.4c4.2-0.4,8.3-0.8,12.5-1.3c1.2-0.1,1.6,0,1.6,1.4C99.7,205.7,99.8,221,99.8,236.4z"/>
		<path class="st3" d="M500.5,67.9c-2,0.5-4,0.4-6,0.5c-9.3,0.7-18.7,1.5-28,2.5c-4.6,0.5-9.2,1.1-13.9,1.5
			c-5.3,0.6-10.6,1.5-15.9,2.3c-1,0.2-2,0.3-3,0.4c0-0.2-0.1-0.5-0.4-0.4c-4.3,0.6-8.7,1.2-13,1.7c-3.1,0.4-6.3,0.8-9.4,1
			c-3.6,0.2-7.2,0-10.8-0.5c-2.8-0.4-5.7-0.2-8.5-0.4c-2.8-0.2-5.7-0.3-8.5-0.7c-3.3-0.4-6.6-1-10-0.9c-0.5,0-1.1-0.3-1.3,0.5
			c-5-0.6-9.9-1.2-14.9-1.8c-6.6-0.8-13.2-1.4-19.9-1.8c-4.1-0.3-8.2-0.6-12.3-0.9c-0.1-0.7-0.8-0.7-1.2-0.7c-2.5-0.4-5-0.8-7.5-1.2
			c-2.8-0.3-5.6-0.7-8.3-0.8c-2.1-0.1-4.2-0.7-6.3-0.3c-2.6,0.5-5.1-0.1-7.7-0.2c-1.5,0-3.1-0.2-4.5-0.8c-2-0.8-2.9-2.4-2.3-4.5
			c0.4-1.6,1.3-2.9,2.1-4.2c3.6-5.7,7.6-11,12.8-15.4c2.4-2.1,4.8-4.3,7.5-6.1c4.4-2.9,8.9-5.5,13.8-7.5c4.5-1.9,8.8-4.2,13.2-6.3
			c0.7-0.3,1.5-0.7,2.3-0.6c0,0.4-0.3,0.6-0.6,0.7c-2.7,1.1-5.3,2.5-7.9,3.7c-6.5,3-13,6.1-19,10c-6.7,4.5-12.4,10.1-17.3,16.5
			c-2,2.6-3.9,5.2-5.1,8.4c-0.8,2.1,0.2,3.7,2.4,4.1c1.6,0.3,3.1,0.6,4.7,0.5c4.7-0.1,9.4,0.2,14.2,0.6c2.6,0.2,5.1,0.4,7.6,0.7
			c2.4,0.4,4.9,0.3,7.3,0.8c0.9,0.2,1.9,0,2.7,0.4c1.1,0.5,2.5,0.4,3.6,0.4c2.8,0.1,5.6,0.4,8.3,0.6c3.8,0.2,7.5,0.7,11.3,1
			c2.6,0.2,5.2,0.4,7.8,0.7c3.9,0.4,7.9,0.9,11.8,1.3c3,0.3,5.9,0.7,8.9,1s6,1.1,9,1c0.2,0,0.4,0,0.6,0c3.1,0.6,6.2,0.7,9.2,0.8
			c0.1,0,0.2-0.1,0.3-0.2c0.2,0,0.4,0,0.6,0c0.1,0.5,0.4,0.5,0.8,0.6c3.7,0.3,7.5,0.5,11.2,0c4.3-0.5,8.6-1.2,12.9-1.9
			c3.6-0.6,7.2-1.3,10.8-1.7c2.1-0.2,4.2-0.7,6.3-0.7c1.7,0,3.3-0.6,4.9-0.9c4.4-0.6,8.8-1.4,13.3-1.8c3.9-0.3,7.8-0.7,11.7-1.1
			c3-0.3,6-0.5,8.8-1.6c0.5-0.2,1-0.4,1.1-1s-0.5-0.8-0.8-1c-3.5-1.8-6.6-4.2-10.1-6.1c-2.1-1.1-4.3-2.1-6-3.9
			c-4.5-4.7-7.5-10-7-16.8c0.3-4,1.4-7.8,3.2-11.4c2.4-4.6,6.5-7.4,10.8-9.9c4.5-2.5,9.4-3.3,14.5-2.8c3.3,0.3,6.5,1.3,9.1,3.4
			c2.8,2.3,5.6,4.5,8.5,6.7c1.9,1.4,4,2.4,6.5,2c3-0.4,5.9-0.5,8.9-0.6c5.4-0.2,9.8,1.7,13.5,5.6c4.8,5,10.7,7.8,17.8,7.4
			c4.8-0.2,9,1.4,12.8,4.3c1.4,1.1,3,2,4.8,2.2c2.4,0.4,4.8,0.4,7.3,0.6c2.5,0.1,5,0.6,7.2,2.1c3.8,2.5,5.6,6.4,6.4,10.6
			c0.7,3.5,1.3,4.7,3.7,5.3c2.3,0.6,4.7,0.7,7.1,0.8c3,0.1,6.1,0.4,9.1,0.5c6.3,0.3,12.6,0.3,18.9,0.9c3,0.3,6,0.1,8.9,0.5
			c1,0.1,2.1-0.2,3-0.4c1.3-0.4,2-1.7,1.7-3c-0.3-0.9-0.6-1.9-1.1-2.7c-3.1-5.1-6.8-9.7-11.1-13.9c-0.4-0.3-0.7-0.6-1.2-0.5
			c-0.2-0.4-0.5-0.7-0.8-0.8c-0.2-0.4-0.4-0.6-0.8-0.6c-0.2-0.4-0.5-0.7-0.8-0.8c-0.2-0.4-0.4-0.6-0.8-0.6c-0.5-0.9-1.4-1.2-2.3-1.7
			c0-0.6-0.5-0.8-0.9-1.2c-6.4-4.8-13.5-8.5-20.8-11.6c-9.7-4.1-19.3-8.3-29.5-11.3c-6.3-1.9-12.6-3.5-18.9-5.1
			c-8.7-2.2-17.6-3.8-26.5-5c-6.7-0.9-13.5-1.7-20.3-2.4c-5.4-0.6-10.9-1-16.3-1.1c-7.4-0.2-14.7-0.4-22-0.6
			c-6.2-0.2-12.4-0.1-18.6,0.1c-7,0.3-14,0.2-20.9,0.7c-2.2,0.2-4.4,0.5-6.7,0.7c-2.4,0.3-4.7,0.6-7.1,0.9c-3.3,0.4-6.6,0.9-9.8,1.3
			c-3.6,0.5-7.2,1.3-10.8,1.8c-5.6,0.8-11.1,1.8-16.6,2.9c-1.3,0.3-2.5,0.7-3.8,0.8c0-0.3,0.2-0.5,0.5-0.6c2.8-0.6,5.5-1.4,8.3-1.9
			c4.1-0.8,8.1-1.6,12.3-2.1c3.8-0.5,7.5-1.3,11.3-1.8c4.3-0.6,8.7-1.1,13-1.8c4.4-0.7,8.9-1.3,13.3-1.5c4.7-0.2,9.5-0.6,14.2-0.3
			c2.4,0.1,4.7,0,7.1,0c9.4,0,18.8-0.3,28.1,0.5c3.5,0.3,7,0,10.5,0.2c4.3,0.3,8.6,0.4,12.9,0.9c4.7,0.5,9.5,1,14.2,1.4
			c5.2,0.5,10.4,1.6,15.7,2.1c4,0.4,8,1.4,11.9,2.4c4.5,1.1,9.1,1.9,13.7,3.1c6,1.5,12,3.3,17.9,5.3c2.2,0.7,4.4,1.2,6.5,2
			c6.8,2.6,13.5,5.4,20.2,8.4c6.3,2.8,12,6.5,17.6,10.4c3.5,2.5,7,5,10.2,7.9c0.3,0.3,0.6,0.6,0.9,0.1c5.2,5.4,9,11.7,11.5,18.7
			c-0.4,0-0.7,0.2-0.9,0.6c-0.7,1.1-1.7,1.5-2.9,1.7c-2.6,0.6-5.2-0.1-7.8-0.2c-3.7-0.1-7.4-0.7-11.1-1c-4-0.4-8.1-0.3-12.2-0.5
			c-4.6-0.2-9.2-0.4-13.9-0.6c-1.8-0.1-3.5-0.3-5.3-0.7c-2.2-0.5-3.9-1.7-4.2-4.3c-0.1-0.5,0-1.3-0.7-1.6c0.1-1.1,0.4-2.2,0.2-3.3
			c-1-5.2-5.8-8.3-10.5-8.8c-4.1-0.4-7.9,0.3-11,3.4c-1.4-2.4-2.9-4.5-4.9-6.3c-4.8-4.3-10.2-5.4-16.3-3.6c-2.1-2.2-4.7-3.3-7.7-3.6
			c-0.3-0.4-0.5-0.8-0.8-1.1c-3.6-5.2-8.5-7.8-14.8-8c-3.1-0.1-6.1,0.5-9.1,1.5c0-0.5-0.1-0.8-0.7-0.8c-3-0.2-5.4-1.7-7.8-3.4
			c-1-0.7-1.9-1.7-3.3-1.6c-0.3-0.2-0.5-0.4-0.8-0.6c-9.9-9.3-25.7-8.2-34,2.5c-4.3,5.4-5,11.6-3.6,18.1c1.7,8,6.2,13.5,14,16.2
			c3.3,1.1,6.7,1.9,10.2,2c-0.1,1.5,1.2,1.5,2.1,1.8c3.6,0.9,7.4,1,11,1.5c1.6,0.2,3.2,0.3,4.8,0.9c0.4,0.1,0.9,0.2,0.9,0.7
			s-0.4,0.8-0.9,1C501.4,67.3,500.6,67.2,500.5,67.9z"/>
		<path class="st0" d="M326.7,222.3c1.5-1,2.8-1.9,4.2-2.8c3.5-2.1,7.3-2.9,11.3-2.9c0.9,0,1.1,0.2,1,1.1c-0.5,4-0.9,7.9-1.3,11.9
			c-0.1,1-0.4,1.2-1.4,1.1c-4.3-0.5-8.6-0.2-12.6,1.9c-0.9,0.5-1.2,1-1.1,1.9c0,15.9,0,31.8,0.1,47.6c0,1.5-0.5,1.8-1.9,1.8
			c-4.1-0.1-8.3-0.1-12.4,0c-1,0-1.3-0.3-1.3-1.3c0-21.2,0-42.4,0-63.5c0-1,0.3-1.2,1.2-1.3c4.4-0.2,8.8-0.4,13.2-0.7
			c0.7,0,1.1,0.1,1.1,1C326.6,219.4,326.7,220.7,326.7,222.3z"/>
		<path class="st0" d="M817.6,222.4c3.5-2.8,7-4.9,11.2-5.5c1.4-0.2,2.9-0.2,4.3-0.3c0.8-0.1,1,0.2,0.9,1c-0.5,4.1-0.9,8.2-1.4,12.3
			c-0.1,0.7-0.2,1-1.1,0.8c-4.4-0.6-8.7-0.3-12.7,1.8c-0.9,0.5-1.2,1-1.2,2c0,15.9,0,31.8,0.1,47.8c0,1.2-0.2,1.7-1.6,1.6
			c-4.2-0.1-8.5-0.1-12.7,0c-1,0-1.3-0.2-1.3-1.2c0-21.2,0-42.4,0-63.6c0-1,0.2-1.3,1.2-1.3c4.4-0.2,8.8-0.4,13.2-0.7
			c0.9-0.1,1.2,0.2,1.1,1C817.6,219.5,817.6,220.8,817.6,222.4z"/>
		<path class="st0" d="M923.8,250.3c0,10.7,0,21.3,0,32c0,1.2-0.2,1.7-1.6,1.7c-4.2-0.1-8.4-0.1-12.5,0c-0.9,0-1.3-0.1-1.3-1.2
			c0-21.2,0-42.4,0-63.7c0-0.9,0.2-1.2,1.1-1.3c4.3-0.4,8.6-0.8,12.9-1.3c1.1-0.1,1.4,0.2,1.4,1.3
			C923.8,228.6,923.8,239.5,923.8,250.3z"/>
		<path class="st0" d="M717.8,250.2c0,10.8,0,21.6,0,32.4c0,1.1-0.3,1.4-1.4,1.4c-4.3-0.1-8.5-0.1-12.8,0c-0.9,0-1.2-0.3-1.2-1.2
			c0-21.2,0-42.4,0-63.7c0-0.9,0.2-1.2,1.1-1.3c4.3-0.4,8.6-0.8,12.9-1.3c1.1-0.1,1.4,0.2,1.4,1.3
			C717.8,228.6,717.8,239.4,717.8,250.2z"/>
		<path class="st4" d="M338.4,22.6c-0.8-0.1-1.6,0.2-2.3,0.6c-4.4,2.1-8.7,4.4-13.2,6.3c-4.9,2.1-9.4,4.6-13.8,7.5
			c-2.7,1.8-5,4-7.5,6.1c-5.1,4.4-9.2,9.7-12.8,15.4c-0.8,1.3-1.7,2.7-2.1,4.2c-0.5,2.1,0.4,3.7,2.3,4.5c1.5,0.6,3,0.8,4.5,0.8
			c2.6,0,5.1,0.6,7.7,0.2c2-0.4,4.2,0.2,6.3,0.3c2.8,0.1,5.6,0.5,8.3,0.8c2.5,0.3,5,0.7,7.5,1.2c0.4,0.1,1.1,0.1,1.2,0.7
			c-5.1-0.2-10.2-0.3-15.3-0.5c-8.7-0.3-17.4-0.2-26,0.1c-1.7,0.1-1.7,0.1-1.3-1.6c2.1-8.8,6.8-16.2,13-22.7
			c7.5-7.8,16.4-13.7,26-18.6c16.3-8.4,33.7-13.9,51.5-18c14.4-3.4,29.1-5.7,43.8-7.3c9.3-1,18.7-1.7,28.1-2.1
			c10.9-0.5,21.8-0.6,32.6-0.4c14.5,0.4,28.9,1.4,43.2,3.2c17.2,2.2,34.1,5.3,50.7,10.2c15.7,4.6,30.8,10.6,44.6,19.4
			c3.2,2.1,6.2,4.4,9.1,6.9c2.6,2.3,5.5,4.4,7.6,7.1c-0.3,0.5-0.6,0.2-0.9-0.1c-3.2-2.9-6.7-5.5-10.2-7.9
			c-5.6-3.9-11.3-7.6-17.6-10.4c-6.7-3-13.4-5.9-20.2-8.4c-2.1-0.8-4.4-1.3-6.5-2c-5.9-1.9-11.8-3.8-17.9-5.3
			c-4.5-1.1-9.1-1.9-13.7-3.1c-3.9-1-7.9-2-11.9-2.4c-5.2-0.6-10.4-1.6-15.7-2.1c-4.7-0.4-9.5-0.9-14.2-1.4
			c-4.3-0.4-8.6-0.6-12.9-0.9c-3.5-0.2-7,0.1-10.5-0.2c-9.4-0.8-18.7-0.5-28.1-0.5c-2.4,0-4.7,0.1-7.1,0c-4.7-0.3-9.5,0.1-14.2,0.3
			c-4.4,0.2-8.9,0.9-13.3,1.5c-4.3,0.7-8.7,1.1-13,1.8c-3.8,0.6-7.5,1.3-11.3,1.8c-4.1,0.6-8.2,1.4-12.3,2.1
			c-2.8,0.5-5.5,1.3-8.3,1.9c-0.3,0.1-0.5,0.3-0.5,0.6c-0.2,0.1-0.4,0.2-0.6,0.3c-5.4,1.2-10.7,2.8-16,4.5c-0.6-0.5-1.2-0.3-1.8-0.1
			c-3.7,1.3-7.4,2.5-11.1,3.8c-0.6,0.2-1.1,0.5-1.4,1.1C340.1,21.8,339.3,22.2,338.4,22.6z"/>
		<path class="st5" d="M595.5,77.4c0.3,1.6,0.1,1.8-1.5,1.8c-2.4,0-4.7-0.3-7.1-0.5c-0.8-0.1-1.6,0.2-2.4,0.2c-3.4,0-6.8-0.2-10.1,0
			c-9,0.6-18,0.4-27,0.6c-4.6,0.1-9.2,1-13.8,1.3c-1.9,0.1-3.8,0.4-5.7,0.3c-5.6-0.2-11.1,0.3-16.7,0.7c-4.8,0.3-9.5,1-14.3,1.3
			c-3.2,0.1-6.4,0.5-9.6,0.7c-3.5,0.2-7,0.8-10.6,1.2c-2.5,0.3-4.9,0.6-7.4,0.7c-3.6,0.1-7.1,0.6-10.7,1.1c-2.3,0.3-4.6,0.4-7,0.7
			c-2.5,0.3-5,0.6-7.4,1.6c-1.6,0.7-1.5,2.6-0.2,3.5c2.7,1.8,5.7,3,8.7,4.3c2.8,1.2,5.7,2.4,8.3,4c0.3,0.2,1.2,0.2,0.8,1.1
			c-5.5-2.3-11.1-4.6-16.7-6.6c-7-2.5-14-4.7-21.1-6.9c-0.4-0.1-0.7-0.2-1.1-0.6c3.1-0.5,6.3-1,9.4-1.4c9.7-1.3,19.4-2.7,29.2-3.9
			c8.6-1.1,17.2-1.9,25.9-2.7c10-0.9,20.1-1.6,30.2-2.1c14.6-0.7,29.2-1,43.8-0.9C572.8,76.7,584.2,76.9,595.5,77.4z"/>
		<path class="st4" d="M584.8,58.9c0.7,0.3,0.7,1,0.7,1.6c0.3,2.6,2,3.7,4.2,4.3c1.7,0.4,3.5,0.6,5.3,0.7c4.6,0.3,9.2,0.4,13.9,0.6
			c4.1,0.2,8.1,0.1,12.2,0.5c3.7,0.3,7.4,0.9,11.1,1c2.6,0.1,5.2,0.8,7.8,0.2c1.2-0.3,2.2-0.7,2.9-1.7c0.2-0.3,0.5-0.6,0.9-0.6
			c0.8,1.7,1.2,3.4,1.7,5.4c-2.9-0.2-5.7-0.4-8.5-0.6c-7.2-0.5-14.3-1.1-21.5-1.6c-10.8-0.8-21.6-1.2-32.5-1.6c-6-0.2-12-0.3-18-0.4
			c-10.3-0.1-20.7-0.1-31,0.1c-10.8,0.2-21.7,0.7-32.5,1.3c-0.3,0-0.7,0-1,0c0.1-0.8,0.8-0.6,1.3-0.8c0.5-0.2,0.9-0.4,0.9-1
			c0-0.5-0.5-0.6-0.9-0.7c-1.6-0.5-3.2-0.7-4.8-0.9c-3.7-0.4-7.4-0.5-11-1.5c-0.9-0.2-2.2-0.2-2.1-1.8c2,0,4,0.1,6,0.1
			c11,0.1,22,0.1,32.9,0.2c18.6,0.2,37.2,0.2,55.9,0.3C581.3,62,583.4,61.3,584.8,58.9z"/>
		<path class="st5" d="M472.1,111.3c-1.1,0.7-2.2,0.1-3.3-0.2c-5-1.3-9.8-3.3-14.7-5c-10.2-3.4-20.4-6.7-31-8.7
			c-5.9-1.2-11.7-2.7-17.6-3.9c-5.1-1-10.3-1.9-15.4-2.8c-3.1-0.5-6.1-1.2-9.2-1.5c-2.8-0.3-5.6-0.7-8.5-1
			c-4.2-0.4-8.5-0.8-12.7-1.1c-2.9-0.2-5.9-0.4-8.8-0.6c-3.7-0.3-7.3-0.7-11-1.1c-1.6-0.2-3.3-0.2-4.9-0.3
			c-4.6-0.3-9.1-0.5-13.7-0.7c-5.1-0.2-10.2-0.4-15.2-0.9c-5.5-0.5-11.1-1-16.6-0.7c-1.6,0.1-2.9,0.8-3.9,2
			c-0.3,0.4-0.5,0.9-1.1,1.1c-0.8-1.4-1.3-2.9-2-4.3c-0.5-1-0.1-1.2,0.8-1.1c5.9,0.2,11.8,0.3,17.7,0.5c6.8,0.3,13.7,0.6,20.5,1
			c10.8,0.6,21.5,1.4,32.3,2.5c12.9,1.2,25.7,2.8,38.5,4.9c26.8,4.3,53,10.8,78.1,21.1C471.1,110.7,471.7,110.9,472.1,111.3z"/>
		<path class="st5" d="M515.7,143.8c0.1-0.9,0.9-0.7,1.3-0.8c4.7-1,9.4-1.9,14.1-2.9c4-0.8,7.9-1.8,11.9-2.7c2.7-0.6,5.5-0.8,8.3-1
			c2.5-0.2,4.8-0.9,7.2-1.3c1.3-0.2,2.7-0.4,4-0.6c4.4-0.8,8.3-3.1,12.5-4.6c4.5-1.6,9-3.5,13.5-5.2c3.6-1.4,7.1-2.9,10.5-4.7
			c2.8-1.6,5.8-2.8,8.7-4.3c6.4-3.2,12.1-7.2,17.7-11.6c5.5-4.3,9.6-9.7,13-15.6c1.7-3.1,1.1-5.7-2.6-6.8c-0.2-0.1-0.4-0.1-0.7-0.2
			c-0.7-0.2-1.3-0.4-0.3-1.2c0.4-0.3,0.8-0.7,0.7-1.3c3-0.1,5.9,0.2,8.8,0.3c0.9,0,0.5,0.6,0.4,1c-0.9,2.6-2.1,5.2-3.5,7.7
			c-5.1,9.1-12.4,16.2-20.8,22.2c-6,4.4-12.5,8.1-19.3,11.3c-16,7.6-32.9,12.7-50.2,16.5c-9.6,2.1-19.2,3.7-28.9,5
			C520,143.4,517.9,143.9,515.7,143.8z"/>
		<path class="st0" d="M924.8,198c0,0.6,0,1.4-0.2,2.2c-0.8,4.4-3.8,6.6-8.4,6.1c-1.6-0.2-3.2-0.6-4.8-1c-2-0.6-3.1-2-3.5-4
			s-0.4-4.1-0.1-6.2c0.4-2.8,1.9-4.4,4.6-4.9c2.5-0.5,5-0.5,7.4,0c3,0.6,4.6,2.5,4.9,5.7C924.8,196.5,924.8,197.2,924.8,198z"/>
		<path class="st0" d="M718.8,198c-0.1,0.7,0,1.6-0.2,2.5c-0.8,4.2-3.8,6.3-8.4,5.8c-1.7-0.2-3.3-0.6-4.9-1.1
			c-1.8-0.6-2.9-1.7-3.3-3.5c-0.6-2.5-0.6-5,0-7.5c0.5-2.1,1.9-3.4,4-3.9c2.6-0.6,5.2-0.7,7.8-0.1c3,0.6,4.5,2.4,4.9,5.4
			C718.8,196.3,718.8,197,718.8,198z"/>
		<path class="st0" d="M130.8,210.8c-2,0-4-0.6-5.7-2.1c-3.8-3.3-3.1-8.9,1.5-11.3c3.3-1.8,7.8-1.2,10.7,1.2
			c2.9,2.5,3.1,6.9,0.3,9.6C135.7,210,133.5,210.7,130.8,210.8z"/>
		<path class="st0" d="M155.2,210.8c-2.1-0.1-4.1-0.5-5.8-1.9c-2.1-1.8-3.1-4-2.5-6.7c0.7-3.1,3-4.8,5.9-5.5c3-0.7,5.9,0,8.3,1.9
			c3.3,2.6,3.3,7.4,0.1,10C159.5,210,157.5,210.8,155.2,210.8z"/>
		<path class="st4" d="M371.7,75.5c0.2-0.8,0.8-0.5,1.3-0.5c3.4-0.1,6.7,0.5,10,0.9c2.8,0.4,5.7,0.5,8.5,0.7s5.7,0,8.5,0.4
			c3.6,0.5,7.2,0.6,10.8,0.5c3.2-0.1,6.3-0.6,9.4-1c4.3-0.5,8.7-1.1,13-1.7c0.3,0,0.4,0.2,0.4,0.4c-4.2,0.7-8.3,1.4-12.5,2.2
			c-5.4,1-10.9,1.8-16.2,3.2c-1.6,0.4-3-0.1-4.4-0.4c-8.5-1.6-16.9-3.1-25.5-4.2C374,76,372.9,75.7,371.7,75.5z"/>
		<g>
			<path class="st0" d="M167.9,238.8c0-1.9,0-3.8-0.3-5.8c-0.8-5.9-3.3-10.6-9-13.2c-1.9-0.9-4-1.5-6-1.8
				c-11.1-1.7-21.8,0.2-32.3,3.2c-0.6,0.2-0.8,0.4-0.6,1.1c1.1,3.2,2.2,6.5,3.2,9.7c0.3,0.8,0.7,0.8,1.3,0.6
				c1.9-0.6,3.7-1.2,5.6-1.7c4.9-1.4,9.8-2.1,14.9-1.3c4.6,0.7,7.2,3.3,7.7,8c0.3,2.2,0.1,4.4,0.2,6.6c0,1-0.1,1.3-1.2,1
				c-6.6-1.5-13.2-2.4-20-1.2c-5.8,1-10.8,3.5-14.3,8.4c-2.7,3.7-3.9,7.9-4.1,12.4c-0.4,7.6,2,14.1,8.6,18.5
				c6.5,4.3,13.5,4.5,20.8,2.3c3.8-1.2,7.1-3.4,10.3-6.1c0.2,1.7,0.4,3.1,0.5,4.6c0.1,0.9,0.4,1.2,1.3,1.2c4,0,8-0.1,12,0
				c1.2,0,1.4-0.3,1.4-1.5C167.9,268.8,167.9,253.8,167.9,238.8z M152.6,257.3c0,1.6,0,3.3,0,4.9c0,2.5,0,5.1,0,7.6
				c0,0.6-0.1,1.1-0.6,1.4c-3.8,2.5-7.8,4.2-12.5,3.8c-0.6,0-1.1-0.1-1.6-0.3c-0.1,0-0.3-0.1-0.4-0.1c-0.4-0.1-0.8-0.2-1.3-0.4
				c-0.1,0-0.2-0.1-0.3-0.1c-0.5-0.2-0.9-0.4-1.4-0.7c-0.1-0.1-0.2-0.1-0.3-0.2c-0.3-0.2-0.7-0.4-1-0.7c-0.1-0.1-0.2-0.2-0.3-0.2
				c-0.4-0.3-0.7-0.6-1.1-1c-0.1-0.1-0.1-0.1-0.2-0.2c-0.3-0.3-0.5-0.6-0.7-1c-0.1-0.1-0.1-0.2-0.2-0.3c-0.2-0.4-0.4-0.8-0.6-1.2
				v-0.1c-0.2-0.5-0.3-0.9-0.4-1.4c0-0.1,0-0.1,0-0.2c0-0.2-0.1-0.4-0.1-0.6v-0.1c-0.1-0.4-0.1-0.8-0.1-1.2
				c-0.1-4.2,2.2-8.1,5.9-10.1c0.7-0.4,1.4-0.6,2.1-0.9c0.1,0,0.2-0.1,0.4-0.1c0.2-0.1,0.4-0.1,0.5-0.2c0.2-0.1,0.4-0.1,0.5-0.2
				c0.4-0.1,0.8-0.2,1.2-0.3c0.1,0,0.3-0.1,0.4-0.1c0.5-0.1,1-0.2,1.6-0.2c0.1,0,0.2,0,0.3,0c0.4,0,0.8-0.1,1.3-0.1
				c0.2,0,0.4,0,0.6,0c0.4,0,0.7,0,1.1,0c0.2,0,0.4,0,0.6,0c0.4,0,0.8,0,1.1,0.1c0.2,0,0.3,0,0.5,0c0.5,0,1.1,0.1,1.6,0.1
				c1.1,0.1,2.7-0.2,3.3,0.7C153,254.7,152.6,256.1,152.6,257.3z"/>
		</g>
		<path class="st6" d="M558,81.5c3.7,0,6.6,0.1,9.6,0c2.2-0.1,4.4-0.4,6.6-0.5c0.8,0,1.6,0.2,2.4,0.2c2,0.1,3.9-0.2,5.9-0.3
			c6.1-0.1,12.2,0.5,18.2,0.7c4.6,0.1,9.3,0.3,13.9,0.5c5.1,0.2,10.3,0.4,15.3,1.3c1.8,0.3,3.7,0.4,5.5,0.9c1.6,0.5,2,1.2,1.6,2.8
			c-0.7,2.9-2.6,5.2-4.3,7.5c-4,5.4-9.4,9.4-14.9,13.1c-6.2,4.1-12.8,7.5-19.4,10.7c-4.9,2.4-9.9,4.4-15,6.3
			c-5.7,2.1-11.4,4-17.1,5.8c-5.7,1.8-11.6,3.1-17.5,4.4c-9.8,2.1-19.7,4.3-29.6,6.1c-4.2,0.7-8.4,1.2-12.6,1.5
			c-3.9,0.3-7.8,0.4-11.7,0.9c-7.4,1-14.9,0.6-22.3,0.9c-6.4,0.3-12.8,0.3-19.1,0.2c-5.9-0.1-11.9-0.5-17.8-1
			c-4.3-0.4-8.6-0.8-13-1.1c-5.3-0.4-10.5-0.6-15.8-1.2c-5-0.6-10-1.5-14.9-2.7c-6.1-1.5-12.3-2.4-18.4-3.7
			c-6.3-1.4-12.5-3.2-18.6-5.3c-5.9-2-11.8-3.6-17.7-5.7c-8.2-2.8-16-6.4-23.5-10.7c-4.5-2.6-8.7-5.6-12.5-9.2
			c-2.4-2.2-5-4.3-7.2-6.7c-1.9-2.1-3.9-4.2-5.4-6.7c-1.6-2.7-0.5-4.9,2.6-5.1c2.9-0.2,5.8-0.7,8.8,0.1c0.7,0.2,1.7,0.2,2.6,0.1
			c4-0.2,8.1,0.3,12.1,0.3c5.1,0,10.2,0.2,15.4,0.6c4.2,0.3,8.4,0.4,12.6,0.9c4.3,0.5,8.6,0.9,12.9,1.3c2.1,0.2,4.3,0.6,6.4,0.5
			c3.4-0.1,6.8,0.7,10.2,1c3.5,0.3,7,0.6,10.4,1.3c4.8,0.9,9.7,1.8,14.6,2.6c7.9,1.2,15.8,3,23.6,4.8c7.7,1.8,15.5,3.3,23.1,6
			c6.7,2.4,13.6,4.6,20.2,7.3c3.6,1.5,7.4,2.4,11,3.6c3,1,5.7,2.6,8.8,3.2c1.4,0.2,2.7,0.8,4.1,0.8c1,0,2,0,2.6-1
			c0.6-1.1,0.3-2.2-0.3-3.2c-1.3-2-3.1-3.5-5.1-4.7c-3.6-2.2-7.4-3.8-11-5.9c-4.3-2.5-8.8-4.8-13.3-7c-3.8-1.9-7.7-3.5-11.5-5.2
			c-0.8-0.4-1.7-0.7-1.6-1.7s1.1-1.2,1.9-1.4c2.7-0.7,5.5-0.8,8.3-1.3c6.5-1.1,13.2-0.9,19.8-1.9c4-0.6,7.9-1,12-1.3
			c4.4-0.3,8.9-0.3,13.3-0.8c8.6-1,17.1-1.3,25.8-1.4c6.2-0.1,12.4-0.9,18.6-1.2C551,81.5,554.9,81.7,558,81.5z M301.3,86.2
			c-3.3,0.1-5.6-0.2-7.9,0.6c-1.6,0.5-2.1,1.5-1.4,3c0.4,0.8,0.7,1.5,1.3,2.2c4.9,5.5,10,10.6,15.8,15.2c6.7,5.3,14.4,8.6,22.1,11.8
			c5.7,2.4,11.7,4.1,17.7,6c4.6,1.4,9,3.1,13.6,4.4c6.9,2.1,14,3.6,21.1,5c8.9,1.7,17.7,3.7,26.7,4.6c5.1,0.5,10.2,0.7,15.3,1.3
			c3.3,0.4,6.6,0.5,9.9,0.9c6.4,0.9,12.8,1,19.1,1.2c3.1,0.1,6.2-0.2,9.3-0.1c5.1,0.1,10.2-0.3,15.3-0.3c3.1,0,6.2,0.1,9.2-0.1
			c3.8-0.2,7.6-1,11.4-1c5,0,10-0.7,14.9-1.2c6.3-0.6,12.4-2.1,18.6-3.3c3.7-0.7,7.3-1.6,10.9-2.4c5.4-1.2,10.8-2.3,16.1-3.8
			c7.1-2.1,14.2-4.5,21.2-7.1c6.7-2.5,13.3-5.1,19.7-8.2c7.9-3.8,15.4-8.1,22.2-13.7c3.6-3,7-6.2,9.3-10.4c1.4-2.5,1.2-4.2-1.9-4.8
			c-6.3-1.3-12.6-1.9-19-2.1c-3.5-0.1-6.9-0.3-10.4-0.6c-4.9-0.3-9.9-0.5-14.9-0.6c-7-0.2-14,0.3-20.9,0.5
			c-9.5,0.3-18.9-0.4-28.4,0.6c-4.5,0.5-9.1,0.1-13.6,0.5c-2.9,0.3-5.8,0-8.7,0.3c-3.4,0.3-6.9,0.6-10.3,1c-4.8,0.5-9.6,0.7-14.4,1
			c-3.8,0.2-7.6,0.8-11.4,1.3c-4.1,0.6-8.1,1.2-12.2,1.3c-3,0-5.8,0.6-8.7,1.3c-0.6,0.2-1.6,0.2-1.7,1.1c-0.1,0.8,0.7,1.1,1.2,1.6
			c0.1,0.1,0.3,0.2,0.5,0.3c4.8,2.5,9.6,4.9,14.4,7.3c5.6,2.8,11.2,5.4,16.4,8.9c3,2,5,4.7,5.5,8.4c0.4,2.5-1.7,4.8-4.2,4.4
			c-1.7-0.3-3.3-0.7-4.9-1.2c-4-1.2-7.7-3.1-11.7-4.3c-7.7-2.4-15-6-22.7-8.3c-2.4-0.7-4.7-1.7-7.1-2.4c-6.9-2-13.7-4-20.7-5.3
			c-5.2-1-10.3-2.3-15.4-3.4c-5.4-1.2-10.9-2.1-16.4-3c-3.9-0.6-7.7-1.6-11.6-2.1c-3.1-0.4-6.2-0.7-9.3-1.2
			c-4.1-0.7-8.2-1.2-12.3-1.6c-3.3-0.3-6.6-0.4-9.9-0.9c-5.9-0.9-11.8-1.1-17.7-1.6c-4-0.3-8-0.5-12-0.6
			C312.5,86.4,306.4,86.7,301.3,86.2z"/>
		<path class="st7" d="M584.8,58.9c-1.4,2.3-3.5,3.1-6,3.1c-18.6-0.1-37.2-0.1-55.9-0.3c-11-0.1-22-0.2-32.9-0.2c-2,0-4-0.1-6-0.1
			c-3.5-0.1-6.9-0.9-10.2-2c-7.8-2.7-12.3-8.2-14-16.2c-1.4-6.5-0.7-12.7,3.6-18.1c8.4-10.6,24.2-11.8,34-2.5
			c0.2,0.2,0.5,0.4,0.8,0.6c2.6,3,4.8,6.2,6.4,10c1.2-2.3,3.4-3.1,5.3-4.1c3-1,5.9-1.6,9.1-1.5c6.3,0.2,11.2,2.8,14.8,8
			c0.3,0.4,0.5,0.8,0.8,1.1c0.9,1.9,1.9,3.8,2.4,5.8c0.2,0.6,0.3,0.8,0.9,0.3c1.3-1.2,2.8-1.9,4.4-2.5c6.1-1.8,11.6-0.7,16.3,3.6
			c2,1.8,3.5,3.9,4.9,6.3c3.1-3.1,6.9-3.8,11-3.4c4.7,0.5,9.5,3.6,10.5,8.8C585.2,56.8,584.9,57.8,584.8,58.9z"/>
		<path class="st8" d="M399,75.6c-0.2,0-0.4,0-0.6,0c-3.1-0.5-6.2-0.9-9.4-0.8c-0.1,0-0.1,0.1-0.2,0.2c-0.2,0-0.4,0-0.6,0
			c-0.1-0.7-0.7-0.5-1.1-0.6c-1.4-0.2-2.8-0.3-4.2-0.5c-2.5-0.3-4.9-0.6-7.4-0.9c-2.9-0.3-5.7-0.6-8.6-0.9
			c-3.9-0.4-7.9-1.1-11.8-1.3c-3.8-0.2-7.5-0.7-11.3-1c-5.1-0.4-10.2-0.8-15.3-1.5c-4.6-0.6-9.2-1.4-13.9-1.8
			c-4.3-0.4-8.5-0.8-12.8-1c-2.5-0.1-5-0.2-7.4-0.3c-0.9-0.1-1.8-0.3-2.6-0.6c-1.6-0.5-2.1-1.6-1.6-3.2c0.3-1.1,0.9-2.2,1.5-3.2
			c3-4.8,6.8-9,10.8-13.1c4.9-4.9,10.6-8.6,16.7-11.7c4.8-2.4,9.6-4.6,14.5-6.8c3.2-1.5,6.5-2.7,9.9-3.5c1.7-0.4,3.4-0.6,5-1.3
			c7-3.4,14.3-5.8,21.9-7.4c5.9-1.2,11.6-3.1,17.6-4c3.6-0.5,7.2-1.2,10.7-1.8c3.7-0.6,7.4-1,11.1-1.5s7.4-1.3,11.1-1.5
			c5.4-0.3,10.7-0.7,16.1-0.9c5.7-0.2,11.3-0.1,17-0.3c4.7-0.1,9.5-0.3,14.2,0.2c3.1,0.3,6.2,0.2,9.3,0.2c6.9,0.2,13.8,0.2,20.6,0.6
			c3.8,0.2,7.5,0.7,11.3,1c4.1,0.3,8.2,1.1,12.3,1.6c5.3,0.6,10.6,1.3,15.9,2.4c7.2,1.5,14.5,2.6,21.5,4.9c4,1.3,8.2,1.9,12.1,3.4
			c3.4,1.3,6.9,2.3,10.4,3.5c1.9,0.7,3.8,1.6,5.7,2.3c5.9,2.2,11.6,4.9,17.5,7.2c3.7,1.5,7.2,3.7,10.6,5.8c1.9,1.2,3.7,2.7,5.8,3.7
			c0.8,0.5,1.7,0.8,2.3,1.7c0,0.6,0.4,0.6,0.8,0.6c0.4,0.2,0.7,0.5,0.8,0.8c0,0.6,0.4,0.6,0.8,0.6c0.4,0.2,0.7,0.5,0.8,0.8
			c0.1,0.2,0,0.4,0.2,0.5c1.7,1.3,3.1,2.9,4.4,4.5c2.6,3,5.1,6.1,6.9,9.7c1.9,3.6,0.3,5.2-3.1,5.1c-4.8-0.1-9.6-0.5-14.4-0.8
			c-4.7-0.3-9.4-0.3-14.2-0.6c-4.3-0.2-8.6-0.2-12.8-1c-3.7-0.6-4.2-1.2-4.8-4.8c-0.8-4.7-3-8.7-7.1-11.3c-3.1-2.1-6.8-2.6-10.5-2.7
			c-3.3-0.1-6.4-0.7-9.1-2.7c-4.3-3.1-9.2-4.4-14.5-4.4c-1.6,0-3.2-0.2-4.7-0.4c-3.8-0.6-6.8-2.9-9.5-5.3c-3.8-3.4-7.6-6.4-12.9-6.8
			c-3.1-0.2-6.1-0.5-9.2,0c-2.2,0.4-4.5,0.8-6.6-0.4c-3.2-1.8-6.2-4-8.9-6.4c-4-3.6-8.7-5.1-13.9-5.1c-3.9-0.1-7.6,0.8-11.1,2.4
			c-3.2,1.4-6.1,3.4-8.5,5.8c-2.1,2.1-3.6,4.8-4.6,7.6c-1.9,4.9-3,10-1.7,15.2c1.8,7.4,5.8,13.2,12.6,16.9c1.7,0.9,3.5,1.6,4.9,2.9
			c1.3,1.3,1.2,1.8-0.6,2.4c-3.7,1.2-7.6,1.3-11.4,1.8c-4.8,0.5-9.5,1.5-14.2,2.1c-5.3,0.7-10.5,1.7-15.7,2.4
			c-4.6,0.6-9.2,1.6-13.8,2.2c-3.9,0.5-7.7,1.3-11.7,1.3C404,75.9,401.5,75.6,399,75.6z M340.1,46c-3.6-1.2-5.3-4.4-5.6-8
			c-0.2-2.5,0.3-4.9,1.2-7.3c0.4-1.1-0.2-1.9-1.4-1.6c-0.8,0.2-1.6,0.4-2.4,0.7c-4.8,2-9.6,4.1-14.2,6.5c-4.7,2.5-9.1,5.6-12.9,9.3
			c-2,1.9-3.7,4-5.4,6.1c-1.9,2.4-3.8,4.9-5.1,7.7c-0.8,1.7-0.4,2.7,1.4,3.2c1.1,0.3,2.3,0.6,3.4,0.5c2.2-0.1,4.4,0.2,6.6,0.4
			c3.6,0.3,7.2,0.8,10.8,1.4c2.9,0.5,5.9,0.7,8.9,1.1c2.1,0.3,4.2,0.6,6.2,0.9c2.8,0.4,5.7,0.6,8.5,0.9c3.4,0.4,6.9,0.6,10.3,1
			c2.5,0.3,5,0.5,7.5,0.6c3.4,0.2,6.8,0.7,10.1,1.1c3.8,0.4,7.5,0.6,11.3,1.2c4.4,0.7,8.8,1,13.2,1.3c1.6,0.1,3.2,0.3,4.7,0.5
			c2.8,0.2,5.7,0.7,8.5,0.6c2.5-0.1,5-0.3,7.5-0.7c5.9-0.8,11.8-2,17.6-3c5.4-1,10.8-1.8,16.3-2.4c5.3-0.6,10.4-2,15.6-3.5
			c1.6-0.5,1.8-1.4,0.6-2.5c-1.1-1.1-2.1-2.4-3.2-3.6c-2.2-2.5-2.9-5.6-4-8.6c-1-2.5-1.8-5.2-1.9-7.9c-0.3-5.9,0.5-11.6,2.8-17
			c1.3-3.1,2.4-6.2,5.4-8.1c7.6-4.9,15.7-8.2,25-6.3c2.1,0.4,4.1,1,5.8,2.3c3.3,2.5,6.4,5.1,9.9,7.3c2.6,1.7,5.4,2.5,8.4,2.1
			c3.7-0.5,7.3-0.2,10.9,0.5c5,0.9,9.1,3.6,12.8,6.9c3.8,3.4,8.2,5.2,13.4,5.1c2.4-0.1,4.8,0.6,7.2,1.2c3.6,0.9,6.7,2.9,10,4.4
			c1.1,0.5,2.2,0.9,3.4,1.1c3.5,0.6,7,0.9,10.4,2.2c3.3,1.2,6.1,3.1,8.5,5.8c2.2,2.5,3.1,5.4,3.9,8.4c0.6,2.1,1.8,3.3,3.9,3.6
			c2.2,0.4,4.4,0.6,6.7,0.8c4.9,0.3,9.7,0.4,14.6,0.6c0.5,0,0.9,0,1.4,0c5.1,0.4,10.2,0.9,15.3,0.8c2.6,0,3.5-1.5,2.2-3.8
			c-3.4-6.4-8.3-11.6-14.1-15.9c-7-5.2-14.5-9.5-22.5-12.9c-9.9-4.2-19.7-8.6-30-11.8c-7.2-2.2-14.5-4-21.9-5.4
			c-6.5-1.2-12.9-2.9-19.5-3.6c-3.8-0.4-7.6-1.1-11.4-1.5c-3.6-0.4-7.2-1-10.8-1.4c-2.3-0.2-4.6-0.4-6.8-0.5
			C492,6.6,484.9,7.5,477.8,7c-5.3-0.4-10.5-0.8-15.8-0.8c-6.5,0-13-0.2-19.6,0.2c-5,0.3-10.1,0.3-15.1,0.6
			c-3.7,0.3-7.4,0.9-11.1,1.3s-7.3,1.1-10.9,1.5c-4.1,0.5-8.1,1.4-12.1,2.3c-0.7,0.2-1.9,0.2-1.8,1.2c0,0.9,1.1,1,1.8,1.3
			c4,1.7,8.2,2.6,12.6,2.3c3.7-0.2,7.2,0.3,10.6,1.7c3.1,1.2,5.8,3.2,7.3,6.3c1,2.1,1.7,4.3,2.4,6.6c0.2,0.7,0.8,1.6,0.1,2.4
			c-0.7-2.3-1.5-4.5-3-6.5c-1.2-1.7-3.1-2.4-4.5-3.7c-1.9-1.7-4.1-2.6-6.5-3.1c-3.3-0.6-6.5-0.2-9.8-0.3c-1.2,0-2.4-0.2-3.6-0.5
			c-3.9-1-7.6-2.9-11.7-3.4c-3.7-0.5-7.3-0.7-10.9,0.6c-2.1,0.8-3.8,2.1-5.5,3.4c-2.3,1.7-4.8,2.8-7.8,2.7c-3.5-0.2-7-0.5-10.5-0.3
			c-1.9,0.1-3.7,0.4-5.3,1.4c-3,1.8-5.5,4.2-7.7,6.9c-2,2.6-2.7,5.5-2,8.7C337.8,42.2,339.4,43.9,340.1,46z"/>
		<path class="st9" d="M621.5,41.2c-2.1-1-3.9-2.4-5.8-3.7c-3.4-2.2-6.8-4.4-10.6-5.8c-5.9-2.3-11.6-5-17.5-7.2
			c-1.9-0.7-3.8-1.7-5.7-2.3c-3.4-1.2-7-2.2-10.4-3.5c-3.9-1.5-8.1-2.1-12.1-3.4c-7-2.3-14.3-3.4-21.5-4.9
			C532.7,9.3,527.3,8.6,522,8c-4.1-0.5-8.2-1.2-12.3-1.6c-3.8-0.3-7.5-0.8-11.3-1C491.5,5,484.6,5,477.8,4.8
			c-3.1-0.1-6.2,0.1-9.3-0.2c-4.7-0.5-9.5-0.3-14.2-0.2c-5.7,0.1-11.3,0.1-17,0.3c-5.4,0.2-10.7,0.5-16.1,0.9
			c-3.7,0.2-7.4,1.1-11.1,1.5c-3.7,0.5-7.4,0.8-11.1,1.5c-3.6,0.6-7.2,1.3-10.7,1.8c-6,0.9-11.7,2.8-17.6,4
			c-7.6,1.6-14.9,4-21.9,7.4c-1.6,0.8-3.3,1-5,1.3c-3.5,0.7-6.7,2-9.9,3.5c-4.9,2.2-9.7,4.4-14.5,6.8c-6.1,3.1-11.8,6.8-16.7,11.7
			c-4,4-7.8,8.2-10.8,13.1c-0.6,1-1.2,2-1.5,3.2c-0.5,1.6,0,2.7,1.6,3.2c0.8,0.3,1.7,0.5,2.6,0.6c2.5,0.2,5,0.2,7.4,0.3
			c4.3,0.2,8.6,0.7,12.8,1c4.6,0.4,9.2,1.2,13.9,1.8c5.1,0.7,10.2,1.1,15.3,1.5c3.8,0.3,7.5,0.8,11.3,1c3.9,0.2,7.9,0.9,11.8,1.3
			c2.9,0.3,5.7,0.6,8.6,0.9c2.5,0.3,4.9,0.6,7.4,0.9c1.4,0.2,2.8,0.3,4.2,0.5c0.4,0,1-0.1,1.1,0.6c-3.1,0.1-6-0.7-9-1
			s-5.9-0.7-8.9-1c-3.9-0.4-7.9-0.9-11.8-1.3c-2.6-0.3-5.2-0.4-7.8-0.7c-3.8-0.3-7.5-0.9-11.3-1c-2.8-0.1-5.6-0.5-8.3-0.6
			c-1.1,0-2.4,0.1-3.6-0.4c-0.9-0.4-1.8-0.2-2.7-0.4c-2.4-0.5-4.9-0.4-7.3-0.8c-2.5-0.4-5.1-0.5-7.6-0.7c-4.7-0.4-9.4-0.7-14.2-0.6
			c-1.6,0-3.2-0.3-4.7-0.5c-2.2-0.4-3.2-2-2.4-4.1c1.1-3.1,3.1-5.8,5.1-8.4c4.9-6.4,10.5-12.1,17.3-16.5c6-4,12.4-7.1,19-10
			c2.6-1.2,5.2-2.6,7.9-3.7c0.3-0.1,0.6-0.3,0.6-0.7c0.8-0.4,1.6-0.8,2.5-0.9c0.6,0.4,1.1,0,1.6-0.1c4.4-1.2,8.4-3.4,12.8-4.7
			c5.3-1.7,10.6-3.4,16-4.5c0.2,0,0.4-0.2,0.6-0.3c1.3,0,2.6-0.5,3.8-0.8c5.5-1.1,11.1-2.2,16.6-2.9c3.6-0.5,7.1-1.3,10.8-1.8
			c3.3-0.4,6.6-0.9,9.8-1.3c2.4-0.3,4.7-0.7,7.1-0.9c2.2-0.3,4.4-0.6,6.7-0.7c7-0.5,13.9-0.4,20.9-0.7c6.2-0.2,12.4-0.3,18.6-0.1
			c7.3,0.2,14.7,0.4,22,0.6c5.5,0.1,10.9,0.5,16.3,1.1c6.8,0.7,13.5,1.5,20.3,2.4c8.9,1.2,17.8,2.8,26.5,5
			c6.3,1.6,12.6,3.2,18.9,5.1c10.1,3.1,19.8,7.2,29.5,11.3c7.3,3.1,14.4,6.8,20.8,11.6C621,40.3,621.4,40.6,621.5,41.2z"/>
		<path class="st9" d="M399,75.6c2.5,0,4.9,0.3,7.4,0.3c3.9,0,7.8-0.8,11.7-1.3c4.6-0.6,9.2-1.6,13.8-2.2c5.3-0.7,10.5-1.7,15.7-2.4
			c4.8-0.6,9.5-1.6,14.2-2.1c3.8-0.4,7.7-0.6,11.4-1.8c1.8-0.6,1.9-1.1,0.6-2.4c-1.4-1.4-3.3-2-4.9-2.9c-6.8-3.8-10.8-9.6-12.6-16.9
			c-1.3-5.2-0.2-10.3,1.7-15.2c1.1-2.8,2.5-5.5,4.6-7.6c2.5-2.4,5.3-4.4,8.5-5.8c3.5-1.6,7.3-2.5,11.1-2.4c5.2,0.1,9.9,1.5,13.9,5.1
			c2.7,2.4,5.7,4.5,8.9,6.4c2.1,1.2,4.4,0.8,6.6,0.4c3.1-0.6,6.1-0.3,9.2,0c5.3,0.4,9.1,3.5,12.9,6.8c2.7,2.5,5.7,4.8,9.5,5.3
			c1.6,0.2,3.2,0.4,4.7,0.4c5.3,0,10.2,1.3,14.5,4.4c2.7,2,5.8,2.6,9.1,2.7c3.7,0.1,7.3,0.6,10.5,2.7c4,2.7,6.3,6.6,7.1,11.3
			c0.6,3.6,1.2,4.1,4.8,4.8c4.2,0.7,8.5,0.7,12.8,1c4.7,0.2,9.4,0.3,14.2,0.6c4.8,0.3,9.6,0.8,14.4,0.8c3.4,0.1,5-1.5,3.1-5.1
			c-1.9-3.5-4.4-6.6-6.9-9.7c-1.4-1.6-2.7-3.2-4.4-4.5c-0.1-0.1-0.1-0.3-0.2-0.5c0.5-0.1,0.9,0.2,1.2,0.5c4.3,4.1,8,8.7,11.1,13.9
			c0.5,0.8,0.8,1.8,1.1,2.7c0.4,1.3-0.4,2.7-1.7,3c-1,0.3-2,0.6-3,0.4c-3-0.4-6-0.2-8.9-0.5c-6.3-0.6-12.6-0.7-18.9-0.9
			c-3-0.1-6.1-0.4-9.1-0.5c-2.4-0.1-4.7-0.3-7.1-0.8c-2.4-0.6-3-1.8-3.7-5.3c-0.8-4.2-2.6-8.1-6.4-10.6c-2.2-1.4-4.7-1.9-7.2-2.1
			c-2.4-0.1-4.9-0.2-7.3-0.6c-1.8-0.3-3.4-1.2-4.8-2.2c-3.8-2.9-8-4.5-12.8-4.3c-7.1,0.4-13-2.5-17.8-7.4c-3.8-3.9-8.1-5.7-13.5-5.6
			c-3,0.1-6,0.2-8.9,0.6c-2.5,0.4-4.6-0.6-6.5-2c-2.9-2.1-5.7-4.4-8.5-6.7c-2.6-2.1-5.8-3.2-9.1-3.4c-5.1-0.4-10,0.3-14.5,2.8
			c-4.3,2.5-8.5,5.2-10.8,9.9c-1.8,3.6-3,7.4-3.2,11.4c-0.5,6.8,2.5,12.1,7,16.8c1.7,1.7,3.9,2.8,6,3.9c3.5,1.8,6.6,4.3,10.1,6.1
			c0.4,0.2,1,0.4,0.8,1c-0.1,0.6-0.6,0.8-1.1,1c-2.8,1.1-5.8,1.3-8.8,1.6c-3.9,0.4-7.8,0.8-11.7,1.1c-4.5,0.4-8.9,1.1-13.3,1.8
			c-1.6,0.2-3.2,0.9-4.9,0.9c-2.1,0-4.2,0.5-6.3,0.7c-3.6,0.3-7.2,1.1-10.8,1.7c-4.3,0.7-8.6,1.4-12.9,1.9c-3.7,0.4-7.5,0.3-11.2,0
			C399.5,76.1,399.1,76.1,399,75.6z"/>
		<path class="st4" d="M509.8,29c-1.9,1-4.1,1.9-5.3,4.1c-1.6-3.8-3.9-7-6.4-10c1.4-0.1,2.3,0.9,3.3,1.6c2.3,1.8,4.8,3.2,7.8,3.4
			C509.7,28.2,509.8,28.5,509.8,29z"/>
		<path class="st4" d="M542.2,40.3c-1.6,0.6-3.2,1.4-4.4,2.5c-0.6,0.5-0.7,0.3-0.9-0.3c-0.5-2-1.5-3.9-2.4-5.8
			C537.5,37,540.1,38.1,542.2,40.3z"/>
		<path class="st9" d="M388.9,75c0.1-0.1,0.1-0.2,0.2-0.2c3.2-0.1,6.3,0.2,9.4,0.8c-0.1,0.1-0.2,0.2-0.3,0.2
			C395.1,75.7,392,75.6,388.9,75z"/>
		<path class="st9" d="M626.2,44.8c-0.4,0-0.8,0-0.8-0.6C625.8,44.3,626.1,44.5,626.2,44.8z"/>
		<path class="st9" d="M624.6,43.4c-0.4,0-0.8,0-0.8-0.6C624.1,42.9,624.4,43,624.6,43.4z"/>
		<path class="st3" d="M355.4,16.9c-4.3,1.4-8.4,3.5-12.8,4.7c-0.5,0.1-1,0.5-1.6,0.1c0.3-0.6,0.8-0.9,1.4-1.1
			c3.7-1.3,7.4-2.5,11.1-3.8C354.1,16.6,354.8,16.4,355.4,16.9z"/>
		<path class="st10" d="M301.3,86.2c5.1,0.4,11.2,0.2,17.2,0.4c4,0.1,8,0.2,12,0.6c5.9,0.5,11.8,0.7,17.7,1.6
			c3.3,0.5,6.6,0.6,9.9,0.9c4.1,0.3,8.2,0.8,12.3,1.6c3.1,0.5,6.2,0.8,9.3,1.2c3.9,0.5,7.7,1.4,11.6,2.1c5.5,0.9,10.9,1.9,16.4,3
			c5.2,1.1,10.3,2.4,15.4,3.4c7,1.4,13.9,3.3,20.7,5.3c2.4,0.7,4.7,1.6,7.1,2.4c7.7,2.4,15,6,22.7,8.3c4,1.2,7.7,3.1,11.7,4.3
			c1.6,0.5,3.2,0.9,4.9,1.2c2.5,0.4,4.6-1.8,4.2-4.4c-0.5-3.7-2.5-6.4-5.5-8.4c-5.2-3.5-10.8-6.1-16.4-8.9
			c-4.8-2.4-9.6-4.9-14.4-7.3c-0.2-0.1-0.3-0.2-0.5-0.3c-0.5-0.5-1.3-0.8-1.2-1.6c0.1-0.8,1-0.9,1.7-1.1c2.9-0.7,5.7-1.3,8.7-1.3
			c4.1-0.1,8.2-0.7,12.2-1.3c3.8-0.5,7.6-1.1,11.4-1.3c4.8-0.3,9.6-0.5,14.4-1c3.4-0.4,6.9-0.7,10.3-1c2.9-0.2,5.8,0,8.7-0.3
			c4.5-0.5,9.1,0,13.6-0.5c9.4-1,18.9-0.3,28.4-0.6c7-0.2,13.9-0.7,20.9-0.5c5,0.1,9.9,0.3,14.9,0.6c3.5,0.2,6.9,0.4,10.4,0.6
			c6.4,0.2,12.7,0.8,19,2.1c3.1,0.6,3.3,2.3,1.9,4.8c-2.3,4.2-5.7,7.4-9.3,10.4c-6.8,5.6-14.3,9.9-22.2,13.7
			c-6.4,3.1-13,5.7-19.7,8.2c-7,2.6-14,5-21.2,7.1c-5.3,1.5-10.7,2.6-16.1,3.8c-3.6,0.8-7.3,1.7-10.9,2.4
			c-6.2,1.2-12.3,2.7-18.6,3.3c-5,0.5-9.9,1.2-14.9,1.2c-3.8,0-7.6,0.8-11.4,1c-3.1,0.2-6.2,0.1-9.2,0.1c-5.1,0-10.2,0.4-15.3,0.3
			c-3.1-0.1-6.3,0.3-9.3,0.1c-6.4-0.3-12.8-0.3-19.1-1.2c-3.3-0.5-6.6-0.5-9.9-0.9c-5.1-0.7-10.2-0.8-15.3-1.3
			c-9-0.9-17.8-2.9-26.7-4.6c-7.1-1.4-14.2-2.9-21.1-5c-4.6-1.4-9.1-3-13.6-4.4c-5.9-1.9-11.9-3.6-17.7-6
			c-7.7-3.3-15.4-6.5-22.1-11.8c-5.7-4.6-10.9-9.7-15.8-15.2c-0.5-0.6-0.9-1.4-1.3-2.2c-0.7-1.5-0.2-2.5,1.4-3
			C295.7,86,298,86.3,301.3,86.2z M555.8,84.6c-6.7-0.1-12.6,0.4-18.5,0.8c-3.9,0.2-7.7,0.4-11.6,0.5c-4.7,0.2-9.4,0.1-14,0.6
			c-2.3,0.3-4.7,0.3-7,0.7c-3.7,0.6-7.4,0.9-11.1,1c-2.4,0.1-4.8,0.3-7.1,0.7c-4.7,0.7-9.4,1.8-14.2,2.2c-1.6,0.2-3.2,0.4-4.6,1.1
			c-1.5,0.7-1.6,1.3-0.3,2.3c1.4,1.2,2.9,2.2,4.5,3c6.2,3,12.4,6.2,18,10.4c3.4,2.5,5.8,5.6,6.6,9.9c0.7,3.6-1.2,6.1-4.9,6.1
			c-2,0-3.8-0.4-5.6-1c-5.6-1.7-10.9-4.3-16.5-6c-4.6-1.3-8.8-3.7-13.3-5.2c-10.7-3.5-21.2-7.1-32.4-8.9c-9.6-1.6-18.9-4.2-28.4-6.2
			c-10.8-2.2-21.7-3.9-32.7-5.5c-4.5-0.7-9-0.9-13.5-1.5c-1.2-0.2-2.3,0.2-3.5,0c-3.5-0.6-7.1-1.1-10.6-1.4c-5-0.3-10-0.8-15.1-0.8
			c-6.6,0-13.1-0.4-19.7-0.3c-1.5,0-3,0.1-4.4,0.5s-1.7,1.1-1.1,2.4c0.2,0.4,0.4,0.8,0.6,1.1c1.5,1.7,3,3.5,4.6,5.1
			c2.1,2.1,4.3,4.2,6.5,6.2c3.6,3.4,7.6,6.3,11.9,8.7c6.3,3.4,12.9,6,19.6,8.3c4,1.4,8.1,2.5,12,3.8c4.7,1.6,9.3,3.3,14,4.6
			c5.7,1.6,11.4,3,17.1,4.2c9.2,1.9,18.3,3.8,27.6,5c4.9,0.6,9.8,0.7,14.6,1.3c4.1,0.5,8.3,0.7,12.4,1.2c6.5,0.8,13.1,1.2,19.7,1.4
			c1.3,0,2.5-0.5,3.8-0.3c3.5,0.5,7-0.2,10.5,0c0.5,0,1,0,1.5,0c3-0.4,6.1-0.3,9.1,0c1.6,0.2,3.2,0.4,4.7,0.3
			c4.8-0.3,9.6-1,14.3-1.3c3.5-0.2,7.1-0.3,10.6-0.5c3.6-0.3,7.2-0.7,10.7-1.3c7.6-1.4,15.1-2.9,22.6-4.7c7.6-1.7,15.3-3.3,22.7-5.8
			c9.9-3.3,19.6-6.9,29.2-11c5.8-2.5,11.4-5.3,16.7-8.7c4.9-3.2,9.8-6.2,13.8-10.6c1.6-1.7,3.1-3.5,4-5.7c0.6-1.6,0.2-2.5-1.3-3.2
			c-3.3-1.4-6.7-2.1-10.2-2.5c-2.7-0.3-5.4-0.3-8.1-0.6c-5.2-0.6-10.3-0.9-15.5-1c-5.2-0.2-10.5-0.3-15.7-0.1c-0.8,0-1.7,0-2.5,0
			c-4.2,0.3-8.4,0.7-12.6,0.5C560.8,84.6,557.9,84.7,555.8,84.6z"/>
		<path class="st11" d="M426.1,33.8c0.7-0.8,0.1-1.7-0.1-2.4c-0.7-2.2-1.4-4.5-2.4-6.6c-1.5-3.1-4.1-5-7.3-6.3
			c-3.4-1.4-6.9-1.9-10.6-1.7c-4.4,0.3-8.6-0.6-12.6-2.3c-0.7-0.3-1.8-0.5-1.8-1.3c0-1,1.1-1,1.8-1.2c4-0.9,8-1.8,12.1-2.3
			c3.7-0.4,7.3-1.1,10.9-1.5c3.7-0.4,7.4-1.1,11.1-1.3c5-0.3,10.1-0.3,15.1-0.6c6.5-0.4,13-0.2,19.6-0.2c5.3,0,10.6,0.4,15.8,0.8
			c7.1,0.6,14.2-0.3,21.3-0.2c2.3,0.1,4.6,0.2,6.8,0.5c3.6,0.4,7.2,1,10.8,1.4c3.8,0.4,7.6,1.1,11.4,1.5c6.6,0.7,13,2.4,19.5,3.6
			c7.4,1.4,14.7,3.2,21.9,5.4c10.3,3.2,20.1,7.6,30,11.8c8,3.4,15.5,7.7,22.5,12.9c5.8,4.3,10.7,9.5,14.1,15.9
			c1.2,2.3,0.4,3.7-2.2,3.8c-5.1,0.1-10.2-0.5-15.3-0.8c-0.5,0-0.9,0-1.4,0c-4.9-0.2-9.7-0.3-14.6-0.6c-2.2-0.2-4.5-0.4-6.7-0.8
			s-3.3-1.5-3.9-3.6c-0.8-3-1.7-6-3.9-8.4c-2.4-2.7-5.2-4.5-8.5-5.8c-3.4-1.3-6.9-1.6-10.4-2.2c-1.2-0.2-2.3-0.6-3.4-1.1
			c-3.3-1.6-6.4-3.5-10-4.4c-2.4-0.6-4.7-1.2-7.2-1.2c-5.2,0.1-9.6-1.7-13.4-5.1c-3.7-3.3-7.8-6-12.8-6.9c-3.6-0.7-7.2-1-10.9-0.5
			c-3,0.4-5.8-0.5-8.4-2.1c-3.5-2.2-6.6-4.8-9.9-7.3c-1.7-1.3-3.8-1.9-5.8-2.3c-9.3-1.9-17.4,1.4-25,6.3c-3,1.9-4.1,5.1-5.4,8.1
			c-2.3,5.5-3.1,11.2-2.8,17c0.1,2.7,0.9,5.3,1.9,7.9c1.1,3,1.8,6.1,4,8.6c1,1.2,2,2.4,3.2,3.6s1,2.1-0.6,2.5
			c-5.1,1.5-10.2,2.9-15.6,3.5c-5.5,0.6-10.9,1.4-16.3,2.4c-5.9,1-11.7,2.2-17.6,3c-2.5,0.3-5,0.6-7.5,0.7c-2.8,0.1-5.7-0.3-8.5-0.6
			c-1.6-0.1-3.1-0.4-4.7-0.5c-4.4-0.3-8.8-0.7-13.2-1.3c-3.7-0.6-7.5-0.8-11.3-1.2c-3.4-0.4-6.8-0.8-10.1-1.1
			c-2.5-0.2-5-0.4-7.5-0.6c-3.4-0.4-6.9-0.7-10.3-1c-2.8-0.3-5.7-0.5-8.5-0.9c-2.1-0.3-4.2-0.6-6.2-0.9c-3-0.4-5.9-0.6-8.9-1.1
			c-3.6-0.6-7.2-1.1-10.8-1.4c-2.2-0.2-4.4-0.5-6.6-0.4c-1.2,0.1-2.3-0.2-3.4-0.5c-1.8-0.5-2.2-1.5-1.4-3.2c1.3-2.8,3.2-5.3,5.1-7.7
			c1.7-2.1,3.5-4.2,5.4-6.1c3.9-3.7,8.2-6.8,12.9-9.3c4.6-2.4,9.4-4.5,14.2-6.5c0.8-0.3,1.6-0.6,2.4-0.7c1.2-0.2,1.8,0.5,1.4,1.6
			c-0.9,2.4-1.4,4.8-1.2,7.3c0.3,3.6,2,6.8,5.6,8c0.3,0.5,1,0.4,1.3,0.7c2.8,2.7,6.4,2.8,9.9,2.9c7.7,0.3,15.5-0.2,23.2,0.3
			c1,0.1,2-0.4,3.1-0.3c3.4,0.5,6.9,0.4,10.3,0.5c3.3,0.1,6.5-0.1,9.8-0.2c4.7-0.1,9.4-0.2,14.1-1c3.9-0.6,8-1,11.1-4
			c0.5-0.4,1.4-0.4,1.4-1.4c0.4,0,0.6-0.2,0.6-0.6c0-0.1,0-0.2,0-0.3c0.5,0,0.6-0.4,0.8-0.7c1.1-2.4,1-4.9,0.9-7.4
			c0-0.3-0.3-0.3-0.5-0.4C426.1,34.2,426.1,34,426.1,33.8z M453.4,53.3c0.1-1.6-0.2-3.4-0.5-5.1c-0.4-2.2-0.8-4.4-0.9-6.6
			c-0.2-4.8,0.8-9.5,1.6-14.2c0.4-2.3,0.7-4.6,0.3-6.8c-0.7-4.2-3.9-6.1-7.6-7.2c-4.4-1.2-8.8-0.7-13.1,0.5c-3.4,1-5.9,3.2-6.4,6.9
			c-0.4,2.6,0.1,5.2,1.1,7.7c1.4,3.7,2,7.6,1.4,11.5c-0.8,4.8-3.9,7.8-8.3,9.3c-3.4,1.2-6.9,1.3-10.5,1.7c-6.3,0.7-12.7,0.9-19,1.1
			c-5.4,0.2-10.8-0.4-16.2-0.3c-7.6,0.1-15.1-0.4-22.7-0.3c-2.3,0-4.7-0.1-7-0.6c-3-0.7-5.6-2.4-8-4.2c-3.1-2.3-6.4-2.8-9.9-1.8
			c-5,1.4-9.3,3.6-10.2,9.6c-0.6,4.3,2,8.8,6.3,9.5c5.5,1,10.9,2.2,16.4,2.6c3.5,0.3,7,0.7,10.6,1.1c2.4,0.2,4.7,0.4,7.1,0.6
			c3.9,0.3,7.8,0.7,11.7,1.1c2.3,0.2,4.5,0.5,6.8,0.7c3.8,0.5,7.6,1,11.4,1.2c2.8,0.2,5.6,0.3,8.4,0.6c5,0.5,9.9,0.9,14.9,0.3
			c5.1-0.6,10.2-1.4,15.2-2.6c6.7-1.6,13.5-2.5,20.1-4.2c2.1-0.5,3.7-1.6,4.9-3.5C452.8,59.3,453.6,56.5,453.4,53.3z M502.8,10.1
			c-0.5,0-1.3,0-1.9,0.2c-2.4,0.6-2.6,1.6-0.9,3.4c2.2,2.2,4.9,3.5,7.9,4.4c3.5,1,7.1,1,10.7,1.5c5.7,0.7,10.9,3,15.6,6.3
			c2.4,1.6,4.8,3.2,7.6,4.1s5.8,1.1,8.7,1.5c5,0.8,9.8,2.3,14.3,4.8c3.8,2.1,7.9,3.2,12,4.4c4.5,1.3,8.8,3,12.4,6.1
			c4.1,3.6,8.1,7.3,13.1,9.8c3.5,1.7,7,2.9,10.9,2.7c3.6-0.2,6.5-3.2,6.4-6.8c-0.1-4.4-2.7-7.4-5.8-10c-2.4-2-5.2-3.6-8-5.1
			c-4.3-2.4-8.6-4.6-13.1-6.5c-3.8-1.6-7.7-3.2-11.6-4.7c-5.8-2.4-11.6-4.7-17.7-6.3c-6-1.6-12.1-2.6-18.2-3.8
			c-7.5-1.6-15-2.3-22.5-3.2c-3.2-0.4-6.5-0.9-9.7-1.3C509.5,11,506.3,10.3,502.8,10.1z"/>
		<path class="st9" d="M424.4,43.7c-0.1,0.9-0.9,0.9-1.4,1.4c-3.1,3-7.2,3.3-11.1,4c-4.7,0.8-9.4,0.8-14.1,1
			c-3.3,0.1-6.6,0.3-9.8,0.2c-3.4-0.2-6.9,0-10.3-0.5c-1-0.2-2,0.4-3.1,0.3c-7.7-0.5-15.5-0.1-23.2-0.3c-3.5-0.1-7.1-0.2-9.9-2.9
			c-0.3-0.3-1-0.3-1.3-0.7c-0.7-2.1-2.3-3.8-2.9-6c-0.8-3.2,0-6.2,2-8.7c2.1-2.8,4.7-5.1,7.7-6.9c1.7-1,3.5-1.3,5.3-1.4
			c3.5-0.2,7,0.1,10.5,0.3c3,0.2,5.4-1,7.8-2.7c1.7-1.3,3.4-2.6,5.5-3.4c3.6-1.3,7.2-1.1,10.9-0.6c4.1,0.5,7.8,2.4,11.7,3.4
			c1.2,0.3,2.4,0.4,3.6,0.5c3.3,0.1,6.6-0.4,9.8,0.3c2.4,0.5,4.7,1.4,6.5,3.1c1.4,1.3,3.3,2,4.5,3.7c1.5,2,2.3,4.2,3,6.5
			c0,0.2,0,0.4,0,0.6c0,2.9,0.2,5.8-1.1,8.5c0,0.1,0,0.2,0,0.3C424.6,43.1,424.4,43.3,424.4,43.7z M356.5,24.3c-1.4,0-2.9-0.2-4.2,0
			c-6.2,1.1-10.6,4.7-13.2,10.4c-1.1,2.4-1.2,5.2,0.6,7.3c2.7,3.2,6,5.5,10.4,5.6c9.8,0.1,19.7-0.1,29.5,0.2
			c4.6,0.2,9.1,0.7,13.7,0.5c4.4-0.3,8.8,0.1,13.2-0.4c4-0.4,8-1,11.7-2.5c2.9-1.1,5-3.1,5.5-6.4c0.2-1.5,0.1-3-0.1-4.5
			c-1.2-8.8-9.2-14.3-18.3-13.2c-2.4,0.3-4.7,0.2-6.9-0.5c-4.3-1.2-8.4-3.1-13.1-3.4c-4.9-0.3-9.4,0.2-13.3,3.4
			c-2.9,2.3-6.2,3.7-10,3.4C360.2,24.4,358.4,24.3,356.5,24.3z"/>
		<path class="st12" d="M555.8,84.6c2.1,0.1,5,0,7.9,0.2c4.2,0.3,8.4-0.1,12.6-0.5c0.8-0.1,1.7,0,2.5,0c5.2-0.2,10.5-0.1,15.7,0.1
			s10.3,0.5,15.5,1c2.7,0.3,5.4,0.3,8.1,0.6c3.5,0.4,6.9,1.1,10.2,2.5c1.5,0.6,1.9,1.6,1.3,3.2c-0.8,2.2-2.4,4-4,5.7
			c-4,4.3-8.9,7.4-13.8,10.6c-5.3,3.4-10.9,6.2-16.7,8.7c-9.6,4-19.3,7.7-29.2,11c-7.4,2.5-15.1,4-22.7,5.8
			c-7.5,1.7-15,3.3-22.6,4.7c-3.5,0.6-7.1,1-10.7,1.3c-3.5,0.3-7.1,0.3-10.6,0.5c-4.8,0.3-9.6,1-14.3,1.3c-1.5,0.1-3.2-0.1-4.7-0.3
			c-3-0.3-6.1-0.4-9.1,0c-0.5,0.1-1,0-1.5,0c-3.5-0.2-7,0.5-10.5,0c-1.3-0.2-2.5,0.3-3.8,0.3c-6.6-0.2-13.1-0.6-19.7-1.4
			c-4.1-0.5-8.3-0.7-12.4-1.2c-4.9-0.6-9.8-0.7-14.6-1.3c-9.3-1.2-18.5-3.1-27.6-5c-5.8-1.2-11.5-2.6-17.1-4.2
			c-4.7-1.3-9.3-3-14-4.6c-4-1.3-8.1-2.4-12-3.8c-6.7-2.3-13.4-4.9-19.6-8.3c-4.3-2.3-8.3-5.2-11.9-8.7c-2.2-2.1-4.4-4.1-6.5-6.2
			c-1.6-1.6-3.1-3.4-4.6-5.1c-0.3-0.3-0.5-0.7-0.6-1.1c-0.6-1.4-0.3-2,1.1-2.4s2.9-0.5,4.4-0.5c6.6-0.1,13.1,0.3,19.7,0.3
			c5,0,10,0.5,15.1,0.8c3.6,0.2,7.1,0.8,10.6,1.4c1.1,0.2,2.3-0.2,3.5,0c4.5,0.6,9,0.8,13.5,1.5c10.9,1.6,21.8,3.3,32.7,5.5
			c9.5,1.9,18.9,4.6,28.4,6.2c11.2,1.8,21.7,5.5,32.4,8.9c4.5,1.5,8.8,3.8,13.3,5.2c5.6,1.6,10.9,4.3,16.5,6c1.8,0.6,3.7,1,5.6,1
			c3.7-0.1,5.6-2.5,4.9-6.1c-0.8-4.3-3.2-7.4-6.6-9.9c-5.6-4.2-11.8-7.3-18-10.4c-1.7-0.8-3.1-1.9-4.5-3c-1.3-1-1.1-1.6,0.3-2.3
			c1.4-0.7,3-1,4.6-1.1c4.8-0.5,9.5-1.6,14.2-2.2c2.3-0.3,4.7-0.6,7.1-0.7c3.7-0.1,7.4-0.4,11.1-1c2.3-0.4,4.6-0.4,7-0.7
			c4.7-0.5,9.3-0.4,14-0.6c3.9-0.2,7.8-0.3,11.6-0.5C543.2,85,549.1,84.5,555.8,84.6z M502,118.7c0.6,2.9-3.1,7.2-6,8.1
			c-3.4,1.2-6.8,1.5-10.2,0.8c-1.9-0.3-3.7-0.1-5.6-0.3c-2.6-0.4-4.8-1.8-7.3-2.5c-2.2-0.6-4.3-1.7-6.2-2.9
			c-2.4-1.5-4.8-3.1-7.7-3.4c-2-0.2-3.7-1.1-5.4-1.9c-2.1-1-4.3-1.8-6.6-2.2c-4.2-0.8-8.4-1.4-12.5-2.3c-4.3-0.9-8.7-1.4-13-1.5
			c-4.2-0.1-8.2-1.3-12.2-2.2c-4.8-1.1-9.2-3.4-14.3-3.1c-1.4,0.1-2.8-0.5-4.3-0.7c-3.1-0.6-5.8-2.6-9.1-2.8c-0.7,0-1.5-0.1-2.2-0.3
			c-3.4-0.7-6.5-2.2-9.8-3.2c-4.8-1.5-9.7-2.9-14.5-4.2c-4.6-1.2-9.3-1.8-14.1-2.3c-5.2-0.6-10.3-1.3-15.5-1.1
			c-3.5,0.1-7,0.2-10.5,0.3c-2.3,0.1-4.6,0.4-6.9,0.9c-1.9,0.4-2.3,1.7-1.1,3.2c1.5,1.9,3.1,3.8,4.3,5.9c0.4,0.7,1,1.2,1.7,1.7
			c1.1,0.9,2.3,1.8,3.3,2.8c1.8,1.7,3.7,3.2,5.9,4.2c6.7,3,13.8,4.9,20.7,7.3c3.4,1.2,6.9,1.8,10.3,3.4s7.1,2.4,10.7,3.3
			c2.3,0.6,4.5,1.1,6.7,2c0.3,0.1,0.5,0.2,0.8,0.3c7.2,0.8,14.1,3.6,21.4,4.4c2.2,0.2,4.2,1.3,6.4,1.5c3.8,0.3,7.5,1.3,11.3,1.7
			c3.6,0.4,7.2,1,10.8,1.2c1.5,0.1,3.1,0.1,4.6,0.3c4.7,0.5,9.5,1.1,14.2,1.1c0.9,0,1.8-0.1,2.7,0c3.1,0.4,6.3,0.5,9.4,0.4
			c2.6-0.1,5.2-0.3,7.8-0.3c1.6,0,3.2-0.2,4.8-0.2c1.5,0,2.9-0.2,4.3-0.5c3.2-0.6,6.4-0.6,9.5-1.5c0.3-0.1,0.7-0.1,1,0
			c2.9,1,5.9,1.6,8.9,1.8c2.2,0.2,4.3,0.8,6.5,0.1c0.7-0.2,1.5-0.2,2.2-0.3c3-0.2,5.9,1,8.9,0.8c1.6-0.1,3.3-0.7,4.8-0.4
			c2.1,0.4,4,0,6-0.2c5.2-0.6,10.3-1.7,15.4-3c6.3-1.6,12.5-3.5,18.9-4.9c4.6-1,9.1-2.5,13.5-4.1c5.8-2,11.5-4.1,17.2-6.5
			c2-0.8,4-1.5,6.1-2.1c5.2-1.6,10.4-3.1,15.2-5.8c4.3-2.4,7.9-5.7,11.2-9.3c1.1-1.2,1.6-2.6,1.9-4.2c0.6-2.7-0.2-4.1-2.7-5.4
			c-2.1-1.1-4.3-2-6.6-2.4c-6.6-1.3-13.3-1.5-20.1-1.3c-5.4,0.1-10.5,1.5-15.9,1.3c-1.8-0.1-3.6,0-5.5,0.2c-2.2,0.3-4.5-0.2-6.7,0
			c-0.5,0-1,0-1.5,0.2c-5.3,1.6-10.8,1.1-16.2,2.4c-2.1,0.5-4.2,0.2-6.3,0.3c-3.3,0.2-6.7,0.8-10,0.8c-0.9,0-1.7-0.3-2.6-0.1
			c-1.5,0.2-3,0.5-4.6,0.7c-3.4,0.5-6.7,1-10,1.8c-1.7,0.4-3.4,0.8-5.2,1c-2.6,0.4-3.9,2.3-5.1,4.3c-1,1.6-0.1,2.9,0.6,4.2
			c1,1.9,2.1,3.7,2.9,5.6C501.6,112.6,501.8,115.6,502,118.7z"/>
		<path class="st13" d="M453.4,53.3c0.1,3.2-0.7,6.1-2.3,8.7c-1.2,1.8-2.8,2.9-4.9,3.5c-6.7,1.7-13.5,2.7-20.1,4.2
			c-5,1.2-10.1,2-15.2,2.6c-5,0.6-9.9,0.2-14.9-0.3c-2.8-0.3-5.6-0.4-8.4-0.6c-3.8-0.3-7.6-0.8-11.4-1.2c-2.3-0.3-4.5-0.5-6.8-0.7
			c-3.9-0.4-7.8-0.8-11.7-1.1c-2.4-0.2-4.7-0.4-7.1-0.6c-3.5-0.4-7-0.8-10.6-1.1c-5.6-0.4-11-1.7-16.4-2.6c-4.3-0.8-6.9-5.2-6.3-9.5
			c0.9-6,5.2-8.2,10.2-9.6c3.5-1,6.8-0.4,9.9,1.8c2.4,1.8,5,3.5,8,4.2c2.3,0.5,4.7,0.6,7,0.6c7.6,0,15.1,0.5,22.7,0.3
			c5.4-0.1,10.8,0.5,16.2,0.3c6.3-0.2,12.7-0.4,19-1.1c3.5-0.4,7.1-0.5,10.5-1.7c4.5-1.6,7.6-4.5,8.3-9.3c0.6-3.9,0.1-7.8-1.4-11.5
			c-1-2.5-1.4-5.1-1.1-7.7c0.5-3.7,3-5.9,6.4-6.9c4.3-1.3,8.7-1.7,13.1-0.5c3.7,1,6.9,2.9,7.6,7.2c0.4,2.3,0.1,4.6-0.3,6.8
			c-0.8,4.7-1.8,9.3-1.6,14.2c0.1,2.3,0.5,4.4,0.9,6.6C453.3,49.9,453.6,51.6,453.4,53.3z M406.6,70.2c4.5,0.1,9-0.3,13.3-1.3
			c6.5-1.6,12.8-4,19-6.5c2.4-1,4.8-2.2,6.2-4.6c1.6-2.9,2.5-6.1,2.6-9.4c0.1-2.5-0.1-5,0.1-7.5c0.3-4.1,0.5-8.1,0.5-12.2
			c0-3.6-1.3-6.7-5.2-8.2c-4.9-1.9-9,0.7-10.2,5.1c-0.7,2.6-0.2,5.3,0,7.9c0.2,2.7,0.4,5.4,0,8c-1.1,6.8-5.9,10.3-12.4,10.6
			c-4.2,0.2-8.4,0.2-12.6,0.6s-8.5,0.6-12.7,1.2c-4.8,0.7-9.6,0.7-14.4,1c-3.3,0.2-6.5,0-9.8-0.1c-6-0.2-12.1-0.4-18.1-0.7
			c-3.2-0.1-6.3-0.5-9.4-1c-3.3-0.5-6.7-1.2-9.9,0.2c-1.9,0.8-3.5,2-3.7,4.2c-0.2,2,1,3.4,2.6,4.5c1.8,1.1,3.7,1.9,5.7,2.2
			c3.7,0.6,7.3,1.2,11.1,1.5c5.4,0.4,10.8,0.9,16.2,1.1c1.4,0,2.8,0.2,4.2,0.4c2.8,0.3,5.6,0.8,8.5,1c3.6,0.3,7.3,0.5,10.9,0.9
			C395,69.7,400.8,70.2,406.6,70.2z"/>
		<path class="st13" d="M502.8,10.1c3.5,0.2,6.7,0.9,10,1.3c3.2,0.4,6.5,0.9,9.7,1.3c7.5,0.9,15.1,1.6,22.5,3.2
			c6.1,1.3,12.2,2.2,18.2,3.8c6.1,1.6,11.9,3.9,17.7,6.3c3.9,1.6,7.7,3.1,11.6,4.7c4.5,1.9,8.8,4.1,13.1,6.5c2.8,1.6,5.6,3.1,8,5.1
			c3.1,2.6,5.8,5.6,5.8,10c0.1,3.6-2.8,6.7-6.4,6.8c-3.9,0.2-7.4-1-10.9-2.7c-5-2.5-9-6.2-13.1-9.8c-3.6-3.1-7.9-4.8-12.4-6.1
			c-4.1-1.2-8.2-2.3-12-4.4c-4.5-2.5-9.3-4-14.3-4.8c-2.9-0.4-5.8-0.7-8.7-1.5c-2.8-0.8-5.2-2.5-7.6-4.1c-4.7-3.3-9.9-5.6-15.6-6.3
			c-3.6-0.4-7.2-0.5-10.7-1.5c-3-0.9-5.7-2.2-7.9-4.4c-1.7-1.7-1.5-2.8,0.9-3.4C501.5,10.1,502.3,10.2,502.8,10.1z M604.8,49.1
			c1.1-0.1,2,0.2,2.4-0.7c0.4-0.8-0.1-1.7-0.7-2.3c-0.7-0.8-1.5-1.7-2.5-2.3c-3.7-2.4-7.5-4.6-11.1-7.2c-2.7-1.9-5.5-3.4-8.5-4.6
			c-4.9-1.9-9.7-4.3-14.7-6.1c-5.7-2-11.4-3.8-17.4-4c-4.1-0.1-8.1-0.8-12-2c-1.2-0.3-2.4-0.4-3.6-0.3c-0.6,0.1-1.1,0.2-1.3,0.9
			c-0.1,0.7,0.3,1,0.8,1.3c1,0.5,1.9,1,3,1.1c4.2,0.6,8.4,1.3,12.3,3c5.6,2.4,11.6,4.1,17,7.1c5.1,2.9,10.5,5.1,15.9,7.4
			c2.8,1.2,5.7,2,8.3,3.5c2.9,1.7,6,2.9,9,4.2C602.9,48.7,604,49.2,604.8,49.1z"/>
		<path class="st8" d="M425,42.9c1.3-2.7,1.2-5.6,1.1-8.5c0.2,0,0.5,0.1,0.5,0.4c0.1,2.5,0.3,5-0.9,7.4
			C425.6,42.5,425.5,42.9,425,42.9z"/>
		<path class="st8" d="M424.4,43.7c0-0.4,0.2-0.6,0.6-0.6C425,43.5,424.8,43.7,424.4,43.7z"/>
		<path class="st3" d="M356.5,24.3c1.8,0,3.6,0.1,5.5,0.2c3.8,0.3,7.1-1.1,10-3.4c3.9-3.2,8.4-3.7,13.3-3.4
			c4.7,0.3,8.8,2.2,13.1,3.4c2.3,0.6,4.5,0.7,6.9,0.5c9.2-1.1,17.1,4.3,18.3,13.2c0.2,1.5,0.4,3,0.1,4.5c-0.5,3.3-2.6,5.3-5.5,6.4
			c-3.8,1.4-7.7,2-11.7,2.5c-4.4,0.5-8.8,0.1-13.2,0.4c-4.5,0.3-9.1-0.3-13.7-0.5c-9.9-0.3-19.7-0.1-29.5-0.2
			c-4.4-0.1-7.7-2.4-10.4-5.6c-1.8-2.1-1.7-4.9-0.6-7.3c2.6-5.6,7-9.2,13.2-10.4C353.7,24.1,355.1,24.3,356.5,24.3z M372.9,25.4
			c-0.4-0.1-0.7-0.3-1.1-0.3c-2.4,0-4.5,1.1-6.5,2.2c-0.4,0.2-0.4,0.5-0.4,0.8c-0.4-0.1-0.7-0.2-1.1-0.3c-8.6-2.5-16.5,0.2-21.8,7.4
			c-2.1,2.9-1.2,8.2,3.3,8.7c0.7,0.1,1.5,0.2,2.2,0.3c6.2,0.7,12.4,0.7,18.5,0.8c9.3,0.2,18.6,0.1,27.9,0.1c3.6,0,7.2,0.2,10.8,0.2
			c2.5,0,5.1,0.2,7.6-0.2c5-0.7,8.2-3.6,8.7-8.5c0.4-3.3-1.1-6.2-3.1-8.8c-1.7-2.2-4.1-3.4-6.9-3.7c-2-0.2-4,0.1-6,0.6
			c-0.1-0.7-0.5-0.8-1.1-0.8c-1-0.1-2-0.3-3-0.5c-3.5-0.7-6.8-1.9-10.3-2.7c-0.7-0.2-1.5-0.6-1.9,0.4c-5.9-1.4-11.2-0.5-15.5,4.1
			C373.3,25.3,373.1,25.3,372.9,25.4z"/>
		<path class="st14" d="M502,118.7c-0.2-3.1-0.3-6.1-1.4-8.8c-0.8-2-1.9-3.7-2.9-5.6c-0.7-1.3-1.6-2.6-0.6-4.2
			c1.2-2,2.5-3.9,5.1-4.3c1.7-0.3,3.5-0.6,5.2-1c3.3-0.8,6.7-1.3,10-1.8c1.5-0.2,3-0.5,4.6-0.7c0.9-0.1,1.7,0.1,2.6,0.1
			c3.4,0,6.7-0.6,10-0.8c2.1-0.2,4.2,0.2,6.3-0.3c5.3-1.3,10.9-0.8,16.2-2.4c0.5-0.2,1-0.1,1.5-0.2c2.2-0.2,4.4,0.3,6.7,0
			c1.8-0.2,3.7-0.3,5.5-0.2c5.4,0.2,10.6-1.2,15.9-1.3c6.8-0.2,13.4,0,20.1,1.3c2.3,0.4,4.5,1.3,6.6,2.4c2.5,1.2,3.2,2.7,2.7,5.4
			c-0.3,1.5-0.9,3-1.9,4.2c-3.3,3.6-6.9,6.9-11.2,9.3c-4.8,2.7-10,4.1-15.2,5.8c-2.1,0.7-4.1,1.3-6.1,2.1
			c-5.7,2.3-11.4,4.4-17.2,6.5c-4.4,1.6-8.9,3.1-13.5,4.1c-6.3,1.3-12.6,3.2-18.9,4.9c-5.1,1.3-10.2,2.4-15.4,3
			c-2,0.2-3.9,0.5-6,0.2c-1.5-0.3-3.2,0.4-4.8,0.4c-3,0.2-5.9-1-8.9-0.8c-0.7,0.1-1.5,0-2.2,0.3c-2.2,0.7-4.4,0.1-6.5-0.1
			c-3-0.2-6-0.8-8.9-1.8c-0.3-0.1-0.7-0.1-1,0c-3.1,0.9-6.4,0.9-9.5,1.5c-1.4,0.3-2.8,0.5-4.3,0.5c-1.6,0-3.2,0.2-4.8,0.2
			c-2.6,0-5.2,0.2-7.8,0.3c-3.1,0.1-6.3-0.1-9.4-0.4c-0.9-0.1-1.8,0-2.7,0c-4.8,0-9.5-0.5-14.2-1.1c-1.5-0.2-3.1-0.2-4.6-0.3
			c-3.6-0.2-7.2-0.8-10.8-1.2c-3.8-0.4-7.5-1.4-11.3-1.7c-2.2-0.2-4.2-1.2-6.4-1.5c-7.3-0.8-14.1-3.6-21.4-4.4
			c-0.3,0-0.5-0.1-0.8-0.3c-2.1-1-4.4-1.5-6.7-2c-3.6-0.9-7.3-1.8-10.7-3.3c-3.3-1.5-6.9-2.2-10.3-3.4c-6.9-2.4-14-4.3-20.7-7.3
			c-2.2-1-4.1-2.6-5.9-4.2c-1.1-1-2.2-1.9-3.3-2.8c-0.6-0.5-1.3-1-1.7-1.7c-1.2-2.1-2.8-4-4.3-5.9c-1.2-1.5-0.8-2.8,1.1-3.2
			c2.3-0.5,4.6-0.8,6.9-0.9c3.5-0.1,7-0.2,10.5-0.3c5.2-0.2,10.3,0.6,15.5,1.1c4.7,0.5,9.5,1,14.1,2.3c4.9,1.3,9.7,2.7,14.5,4.2
			c3.3,1,6.4,2.5,9.8,3.2c0.7,0.2,1.5,0.2,2.2,0.3c3.3,0.2,6,2.2,9.1,2.8c1.4,0.3,2.9,0.8,4.3,0.7c5.1-0.3,9.6,2,14.3,3.1
			c4,0.9,8,2.1,12.2,2.2c4.4,0.1,8.7,0.6,13,1.5c4.1,0.9,8.3,1.5,12.5,2.3c2.3,0.4,4.5,1.2,6.6,2.2c1.7,0.8,3.4,1.7,5.4,1.9
			c2.9,0.3,5.3,1.9,7.7,3.4c1.9,1.2,4,2.3,6.2,2.9c2.5,0.7,4.7,2.1,7.3,2.5c1.9,0.3,3.7,0,5.6,0.3c3.4,0.6,6.8,0.3,10.2-0.8
			C498.9,125.8,502.6,121.6,502,118.7z"/>
		<path class="st15" d="M406.6,70.2c-5.8-0.1-11.7-0.6-17.5-1.1c-3.6-0.3-7.3-0.5-10.9-0.9c-2.8-0.3-5.6-0.7-8.5-1
			c-1.4-0.2-2.8-0.3-4.2-0.4c-5.4-0.2-10.8-0.7-16.2-1.1c-3.7-0.3-7.4-0.9-11.1-1.5c-2.1-0.3-3.9-1.2-5.7-2.2
			c-1.7-1-2.8-2.5-2.6-4.5c0.2-2.2,1.8-3.4,3.7-4.2c3.3-1.4,6.6-0.8,9.9-0.2c3.1,0.5,6.3,0.9,9.4,1c6,0.3,12.1,0.4,18.1,0.7
			c3.3,0.1,6.6,0.3,9.8,0.1c4.8-0.3,9.6-0.3,14.4-1c4.2-0.6,8.4-0.8,12.7-1.2c4.2-0.4,8.4-0.4,12.6-0.6c6.5-0.3,11.3-3.8,12.4-10.6
			c0.4-2.6,0.2-5.3,0-8c-0.2-2.6-0.7-5.3,0-7.9c1.2-4.4,5.3-7,10.2-5.1c3.8,1.5,5.1,4.6,5.2,8.2c0,4.1-0.1,8.1-0.5,12.2
			c-0.2,2.5,0,5-0.1,7.5c-0.1,3.3-1,6.5-2.6,9.4c-1.4,2.4-3.8,3.6-6.2,4.6c-6.2,2.5-12.5,4.9-19,6.5C415.6,70,411.2,70.4,406.6,70.2
			z"/>
		<path class="st15" d="M604.8,49.1c-0.8,0.1-1.9-0.4-2.9-0.8c-3.1-1.3-6.1-2.5-9-4.2c-2.6-1.5-5.5-2.3-8.3-3.5
			c-5.4-2.3-10.8-4.5-15.9-7.4c-5.4-3-11.3-4.7-17-7.1c-4-1.7-8.1-2.4-12.3-3c-1.1-0.1-2-0.6-3-1.1c-0.5-0.3-1-0.6-0.8-1.3
			c0.1-0.7,0.7-0.9,1.3-0.9c1.2-0.2,2.4-0.1,3.6,0.3c3.9,1.1,7.9,1.8,12,2c6,0.2,11.8,2,17.4,4c5,1.8,9.7,4.2,14.7,6.1
			c3,1.2,5.8,2.7,8.5,4.6c3.6,2.5,7.4,4.8,11.1,7.2c1,0.6,1.7,1.5,2.5,2.3c0.5,0.6,1,1.4,0.7,2.3C606.8,49.3,605.9,49,604.8,49.1z"
			/>
		<path class="st7" d="M405.2,24.8c2-0.4,3.9-0.8,6-0.6c2.8,0.3,5.2,1.4,6.9,3.7c2,2.6,3.4,5.5,3.1,8.8c-0.5,4.9-3.7,7.8-8.7,8.5
			c-2.5,0.4-5.1,0.2-7.6,0.2c-3.6,0-7.2-0.2-10.8-0.2c-9.3,0-18.6,0-27.9-0.1c-6.2-0.1-12.4-0.1-18.5-0.8c-0.7-0.1-1.5-0.2-2.2-0.3
			c-4.4-0.5-5.3-5.8-3.3-8.7c5.2-7.2,13.2-9.9,21.8-7.4c0.4,0.1,0.7,0.2,1.1,0.3c2,0.8,4,1.8,5.5,3.8c0.3-2.5,1.2-4.6,2.4-6.5
			c0.2-0.1,0.4-0.1,0.5-0.2c4.3-4.6,9.6-5.5,15.5-4.1c4.2,1.5,7.2,4.2,8.8,8.6C399.8,27.1,402.4,25.8,405.2,24.8z"/>
		<path class="st4" d="M405.2,24.8c-2.8,1-5.5,2.3-7.5,4.9c-1.6-4.4-4.7-7.1-8.8-8.6c0.5-1,1.3-0.5,1.9-0.4c3.4,0.8,6.8,2,10.3,2.7
			c1,0.2,2,0.4,3,0.5C404.7,24,405.2,24.1,405.2,24.8z"/>
		<path class="st4" d="M372.9,25.4c-1.2,2-2.1,4-2.4,6.5c-1.6-2-3.5-3-5.5-3.8c0-0.3,0-0.6,0.4-0.8c2-1.1,4.1-2.2,6.5-2.2
			C372.2,25.1,372.5,25.3,372.9,25.4z"/>
	</g>
</g>
<g>
	<g>
		<defs>
			<rect id="SVGID_1_" x="-33.7" y="693" width="978.9" height="978.9"/>
		</defs>
		<clipPath id="SVGID_2_">
			<use xlink:href="#SVGID_1_"  style="overflow:visible;"/>
		</clipPath>
		<g class="st16">
			<g>
				<defs>
					<rect id="SVGID_3_" x="-375.2" y="597.5" width="1617.9" height="1143.9"/>
				</defs>
				<defs>
					<rect id="SVGID_4_" x="-375.2" y="597.5" width="1617.9" height="1143.9"/>
				</defs>
				<clipPath id="SVGID_5_">
					<use xlink:href="#SVGID_3_"  style="overflow:visible;"/>
				</clipPath>
				<clipPath id="SVGID_6_" class="st17">
					<use xlink:href="#SVGID_4_"  style="overflow:visible;"/>
				</clipPath>
			</g>
		</g>
	</g>
</g>
</svg>
