<?xml version="1.0" encoding="utf-8"?>
<!-- Generator: Adobe Illustrator 21.0.0, SVG Export Plug-In . SVG Version: 6.00 Build 0)  -->
<svg version="1.1" id="Layer_1" xmlns="http://www.w3.org/2000/svg" xmlns:xlink="http://www.w3.org/1999/xlink" x="0px" y="0px"
	 viewBox="0 0 925.5 480.2" style="enable-background:new 0 0 925.5 480.2;" xml:space="preserve">
<style type="text/css">
	.st0{fill:#B9131D;}
	.st1{fill:#003469;}
	.st2{clip-path:url(#SVGID_2_);}
	.st3{clip-path:url(#SVGID_5_);}
</style>
<g>
	<g>
		<path class="st0" d="M904.1,185.3c-9.7,9.4-18.3,14-26.5,14.5L876,200c13-18.5,18.3-37.6,15.9-57.2c-1.4-11.6-5.7-24.3-12.6-38.9
			c-7.9-16.9-12.9-28.6-14.6-36.1c4.8-7.2,9-15.4,12.9-25.6c4.5-12.3,6.5-22.8,5.5-30.9c-1-8.6-5.4-12.1-13.3-11.1
			c-18,2.2-25.1,19.5-21.3,51.7c0.5,4.5,1.1,8.6,2,13.1l-34.9,57.9c-16.3,27.1-25.5,47.1-27.4,60.7c-0.1,0.3-0.1,0.7-0.1,1.1
			c-5.3,8.6-10.5,13.5-15.6,14c-5.1,0.7-8.2-2-8.9-8.6c-0.4-3.5,1.2-16,4.7-37.4s4.8-36.9,3.7-46.5c-1.8-15.1-7.4-26.2-16.6-32.7
			c-7.8-5.7-16.8-7.7-26.6-6.4c-4.3,0.6-12.5,3.6-18.7,13.5l1.9-11.5l-36.1,4.5l-12.4,88c-12.1,22.9-24.7,38-26.1,39.8
			c-14,22.7-27.3,34.5-39.5,36.1c-5.9,0.7-11.5-9.3-12.6-18.9c-0.4-3,0.6-11.3,2.6-24.9c22.9-14.5,37.6-25,44-31.4
			c18.2-17.6,27.4-34.4,24.9-55.6c-2-17.1-15.2-26.9-36.8-24.3c-14.6,1.8-27.9,9.6-39.5,22.7c-12.2,14.3-20.2,31.6-23.1,53l-7.4,54
			c-0.1,0.4-1.7,11.4-8.2,17.7c-9.7,9.4-16.9,15.6-25.2,16.1l-1.5,0.2c12.9-18.4,18.3-37.5,15.9-57.1c-1.4-11.6-5.6-24.4-12.6-38.9
			c-8-16.9-12.9-28.5-14.6-36.1c4.7-7.2,8.9-15.4,12.9-25.6c4.5-12.4,6.5-22.8,5.5-30.8c-1-8.6-5.5-12.2-13.3-11.2
			c-18,2.2-25.1,19.5-21.4,51.7c0.6,4.5,1,8.5,2,13l-34.9,58c-16.3,27-25.5,47.1-27.4,60.6c0,0.4-0.1,0.7-0.1,1.1
			c-5.3,8.7-7.6,12.7-12.7,13.3s-10.7-2.8-11.5-9.4c-0.4-3.5,1.3-16,4.7-37.4c3.4-21.3,4.9-35.6,3.6-46.5
			c-1.7-15.1-7.4-26.2-16.6-32.7c-7.8-5.7-16.8-7.6-26.6-6.4c-4.3,0.5-12.5,4.4-18.7,13.6l1.8-11.5l-36.1,4.4L297.7,241
			c-6.2,11.4-12.2,17.8-18.1,18.5c-5.1,0.6-8.1-2.1-9-8.6c-0.2-1.5,5.9-44.6,17.7-129.5l-36.1,4.5l-1.4,11.4
			c-1.6-7.4-6.8-10.4-15-9.4c-14.5,1.8-27.9,9.6-39.5,22.8c-12.3,14.3-20.1,31.7-23.2,53l-7.9,56.1c-6.6,13-13,20-19.3,20.8
			c-5.1,0.6-8.2-2-9-8.6c-0.2-1.5,4.7-36.2,14.8-108l24-2.5l18.2-31.9l-37.7,5L174.9,3.8l-39.8,5.4l-18,129.5l-35.7,4.9L99.5,14.1
			c-20,2.4-25,5.3-42.6,9.9L40.4,150.9l-23.9,3l-4,29.4l23.9-3.1L0,438.9l40.6-6.9l36.5-258.6l36.1-5c-3.7,23-7.3,44.2-10.6,67.1
			c-5.2,37-7.3,58.7-6.7,64.8c2.7,22.1,12.3,39.9,25.2,38.3c11.3-1.4,30.6-19.8,45-47.2c2.5,11.6,7.7,20.3,15.4,25.8
			c7.5,5.7,16.5,7.7,26.6,6.5c11.8-1.5,22.7-6.9,33.1-16.4c4.5,8.1,10.1,11.6,16.8,10.7c10.1-1.2,21.7-13.6,34.4-37l-4.6,32.9
			l35.6-4.4l18.2-126c1-5.7,3.7-12.2,8-19.4c4.7-7.3,9-11.4,12.5-11.8c6.3-0.8,11.4,8.8,12.6,18.9c0.8,7.1-1,22.1-5.4,45.2
			c-4,23-5.8,38.5-4.8,47.1c2.6,22.2,12.7,39.9,25.6,38.3c11.1-1.4,23.7-14.6,37.6-42.7c3.1,14.2,10.5,23.9,22.3,29.6
			c9.7,4.4,21,6.1,34,4.5c14.1-1.8,27.8-7,41.2-15.3c14.1-8.9,17.4-19.4,24.9-32.7c2.5,11.8,7.7,20.8,15.5,26.3
			c7.5,5.7,16.4,7.7,26.7,6.4c22.7-2.8,48-26.1,63.9-64.1l-7.8,55.3l35.7-4.4l18.1-126c1-5.8,3.7-12.2,8-19.4
			c4.7-7.3,9-11.4,12.6-11.8c6.2-0.7,11.4,8.8,12.5,19c0.8,7-0.9,22.1-5.4,45.1c-4,23-5.8,38.6-4.8,47.1
			c2.6,22.2,12.6,39.9,25.6,38.3c11.1-1.3,24.1-16.2,38.1-44.2c3,14.2,10.5,23.9,22.2,29.6c9.7,4.4,21.1,6.1,34,4.5
			c14.1-1.8,27.8-7.1,41.1-15.3c15.3-9.5,26.4-22.2,33.8-36.9l5.6-40.1C920.8,165.4,913.6,175.5,904.1,185.3z M593.4,153.9
			c1-5.8,3.8-12.2,8.1-19.4c4-6,7.6-9.9,10.7-11.3c0,0,4.9-2.9,12.3-2c2.7,0.2,4.2,1.5,4.5,3.8c0.3,2.5-0.5,6.2-2.7,11
			c-9.3,19.6-22.6,27.8-35.8,37.2L593.4,153.9z M238.4,226.2l-3.6,26c-0.9,5.7-3.7,12.7-8.4,19.9c-4.3,7.2-8.7,10.8-12.6,11.3
			c-5.9,0.7-11.5-9.4-12.6-19c-0.4-3-0.2-5.6,0.3-8.2l8-56.7c0.9-5.7,3.8-12.2,8.1-19.4c4.7-7.3,9-11.4,12.5-11.8
			c6.3-0.8,11.4,8.9,12.6,18.9C242.9,189.8,241.6,202.8,238.4,226.2z M496.6,221.5c-0.9,5.7-3.7,12.6-8.4,19.9
			c-4.4,7.2-8.7,10.8-12.7,11.3c-5.9,0.7-11.4-9.4-12.6-18.9c-0.8-6.5,2.6-18.2,9.8-35c9.8-21.2,14.9-32.5,15.4-35.1
			c5.3,28,7.7,42,7.8,42.5C496.8,212.6,497,217.8,496.6,221.5z M497.4,93.5c-0.3-5.6-0.5-10.7-0.7-15.7c0-6.7,1.6-9.9,5.2-10.4
			c0.8-0.1,1.2,0.9,1.4,2.4C503.9,74.3,502,82.2,497.4,93.5z M857.5,175.2c-0.9,5.7-3.7,12.7-8.4,20c-4.3,7.1-8.7,10.7-12.6,11.2
			c-5.9,0.7-11.4-9.3-12.6-18.9c-0.8-6.6,2.6-18.3,9.8-35c9.8-21.2,14.9-32.5,15.3-35.1c5.3,28,7.7,42,7.8,42.5
			C857.7,166.5,857.9,171.6,857.5,175.2z M858.4,47.3c-0.3-5.6-0.5-10.6-0.6-15.8c0-6.7,1.6-9.9,5.1-10.3c0.8-0.1,1.2,0.9,1.4,2.4
			C864.9,28.1,863,36,858.4,47.3z"/>
		<path class="st0" d="M240.6,361.9c1.1,3,4.1,4,28.5,0c159.9-26.2,320.2-33.1,402.6-20.1c0,0,19.7,3,20.7-11
			c0.8-11.1-6.3-11.9-12.7-13.7c0,0-141.1-21.8-430.7,37.8C249,354.8,238.7,356.6,240.6,361.9z"/>
	</g>
	<g>
		<path class="st1" d="M242.4,409.2h22.4l16.6,52.9h0.2l16.6-52.9h22.4V479h-13.4v-57.6H307L288.2,479h-13.4L256,421.4l-0.2,0.2V479
			h-13.4V409.2z"/>
		<path class="st1" d="M362.8,409.2H404v11h-27.2v17.2h24.9v11h-24.9V468h27.4v11h-41.4V409.2z"/>
		<path class="st1" d="M438.5,466.8c1.9,0.7,3.9,1.2,6.7,1.2c9.1,0,9.1-7.3,9.1-12.3v-46.5h14v53.2c0,7.4-4.8,17.8-19.1,17.8
			c-3.8,0-6.8-0.3-10.7-1.3V466.8z"/>
		<path class="st1" d="M509.3,409.2h41.2v11h-27.2v17.2h24.9v11h-24.9V468h27.4v11h-41.4V409.2z"/>
		<path class="st1" d="M589.7,409.2h15.1c15,0,32.9-0.5,32.9,18.9c0,8.2-5.5,15-14.4,16.2v0.2c3.8,0.3,6,4.1,7.4,7.2l11.2,27.3
			h-15.6l-8.4-21.8c-2-5.2-3.8-7.2-9.7-7.2h-4.5v29h-14V409.2z M603.7,439h4.6c6.9,0,14.8-1,14.8-9.7c0-8.4-7.8-9.1-14.8-9.1h-4.6
			V439z"/>
		<path class="st1" d="M676.8,409.2h14V479h-14V409.2z"/>
	</g>
</g>
<g>
	<g>
		<defs>
			<rect id="SVGID_1_" x="-1055.4" y="729.8" width="978.9" height="978.9"/>
		</defs>
		<clipPath id="SVGID_2_">
			<use xlink:href="#SVGID_1_"  style="overflow:visible;"/>
		</clipPath>
		<g class="st2">
			<g>
				<defs>
					<rect id="SVGID_3_" x="-1396.9" y="634.3" width="1617.9" height="1143.9"/>
				</defs>
				<defs>
					<rect id="SVGID_4_" x="-1396.9" y="634.3" width="1617.9" height="1143.9"/>
				</defs>
				<clipPath id="SVGID_5_">
					<use xlink:href="#SVGID_3_"  style="overflow:visible;"/>
				</clipPath>
				<clipPath id="SVGID_6_" class="st3">
					<use xlink:href="#SVGID_4_"  style="overflow:visible;"/>
				</clipPath>
			</g>
		</g>
	</g>
</g>
</svg>
