<?xml version="1.0" encoding="utf-8"?>
<!-- Generator: Adobe Illustrator 21.0.0, SVG Export Plug-In . SVG Version: 6.00 Build 0)  -->
<svg version="1.1" id="Layer_1" xmlns="http://www.w3.org/2000/svg" xmlns:xlink="http://www.w3.org/1999/xlink" x="0px" y="0px"
	 viewBox="0 0 934.9 258.1" style="enable-background:new 0 0 934.9 258.1;" xml:space="preserve">
<style type="text/css">
	.st0{fill:#EC1C24;}
</style>
<g>
	<g>
		<g>
			<path class="st0" d="M934.6,257.5l-0.4,0.6c-21.9-11.5-44-22.4-66.6-32.1c-38.1-17.3-77.3-31.7-117.5-43.7c-2.9-1.2-6.1-1.7-9-3
				c-5.8-1-11.3-3-17-4.6c-28.4-7.3-56.5-14.8-86-19.4c-2.5-0.7-5.1-0.7-7.6-1.4c-3-0.7-6.2-1.1-9.3-1.7l-0.4-0.4
				c0.3-4.6-0.3-8.9,0.6-13.3c8.3,0.3,16.2,3.2,24.6,3.7c8.2,1.7,16.5,3.2,24.6,4.6c3.3,1.1,6.8,1.7,10.2,2.5
				c12.9,3,25.9,5.7,38.3,9.7c4.3,0.4,8,2.5,12.3,3.2c25.1,6.9,49.8,15,74.1,24c13.7,5,27,10.8,40.7,15.9c1.8,1.1,3.9,1.5,5.7,2.8
				c1.4-0.3,1.9,1.1,3,1.1c6.4,2.9,13,5.3,19.4,8.6c1.1,0.3,2.2,0.8,3.5,1.5c19.1,8.7,38.1,18.3,56.8,28.1
				C935.3,248.6,934.2,252.6,934.6,257.5z"/>
			<path class="st0" d="M934.6,227c-12.3-5.5-24.1-11.9-36.4-17.6c-14.8-6.5-30.3-13.7-40.8-28.1c-3.6-7.3-7.3-16.3-3.5-24.5
				c2.5-8.6,11.1-13.2,19.1-14.8c7.3-1.4,13.4,2.1,19.9,3.7c3.5,2.3,7.8,3,11.4,5.4c1.4,0,2.1,1.4,3.6,1.2c0.3,0.3,0.3,0.7,0.7,0.7
				c0.7-1.2-0.3-2.6,0.3-3.7c0.1-19.4,0.2-44.8-0.2-63.9c0,0,2.7,1.3,3.4,1.9c6.9,3.7,13.8,7.3,20.9,10.9c3.3,1.9,1.2,5.7,1.8,9
				c0.1,13.3-0.3,27.6-0.1,41.4l0.1,41.3C935.1,202.7,934.6,214.4,934.6,227z M909,175.5c-1-2.4,1.4-5.5-1-6.8c0-1-3.3-2.2-3.3-2.2
				c-3.6-2.1-7.3-3.6-11.3-4.6c-2.2-1.1-5.3-1.1-7.8-0.6c-2.8,1-4.9,3.7-5.3,6.5c-2.4,5.7,0.8,12.2,5,16.2c1.5,1.8,3.6,3.3,5.3,5.4
				c1.2,0.7,2.5,1.4,3.7,2.1c1.7,0.1,2.8,2.1,4.6,1.9c1.7,1.5,4,2.1,6,3.3l3.2,1.2c0.4,0,0.6-0.4,0.8-0.6
				C909,190.1,908.9,182.3,909,175.5z"/>
			<path class="st0" d="M829.6,177.6c-0.3,0.4-0.6,1-1.1,0.6c0,0-1,0-1.5-0.1c-8.2-3.7-16-6.2-24.2-9.8c-0.4-19-0.1-40.2-0.3-59.5
				c1.3-0.6,2.1,0.3,3.3,0.6c7.1,2.9,14.4,5.3,21.7,7.6v11.5c1.5-1,3-3,4.7-4.3c9.7-2.5,18.1,2.1,26,5.8c0.7,1.5,0.1,3.5,0.6,5
				l-0.1,9.8l-0.4,0.4c-6.5-2.9-13.4-9.4-21-4.6c-1.7,1-2.9,2.4-4.6,3.3c-0.8,1-0.9,2-1.9,2.8c-0.2-0.2-1.3,2.5-1.8,3.8L829.6,177.6
				z"/>
			<path class="st0" d="M785.8,161.8c-3-0.4-6-1.8-8.9-2.6c-5.3-1.7-10.5-3.7-15.9-5c-0.8-0.3-1.8,0.4-2.5-0.4
				c-1.4-0.6-0.1-1.9-0.1-2.9c-0.8-1,1.3-3.3-0.8-3.1l-3.4,0.4c-6.2,0.3-13.4,0-19.4-0.7c-4.2-1-7.3-3.5-11.2-4.7
				c-7.5-4.7-14-12.5-12.3-22.2c0.7-6.2,6.8-10.7,12.2-12.6c11.1-2.6,22.8,0.6,33.5,0.6c-4.8-4.8-12.3-4.6-18.3-7.2
				c-5.1-1-9.7-3-14.8-4c-1.2-0.6-2.9-0.6-4-1.4c0.1-4,0.4-9.4,0.3-13.6c9,1.4,17.4,4.8,26.6,6.4c5.3,1.5,10.4,3.6,15.8,5
				c0.4-0.2,3,1.7,2.5,1c6.4,2.6,12.9,5.1,16.7,11.8c5.1,6.8,4.2,16.1,4.2,24.4C785.8,140.8,785.9,152.1,785.8,161.8z M758.5,123.3
				c0.1-0.3-0.6-0.8,0-1.1c0.1-0.3,0.4-0.7,0-1c-6.5,0.8-14.8-2.1-20.5,2.2c-2.5,1.7-0.4,4.2-0.1,6.2c2.5,1.8,5.1,4.3,8.6,4.4
				c4.2-0.4,8.4,0.3,12-1C758.8,130.1,758.8,126.4,758.5,123.3z"/>
			<path class="st0" d="M702.2,136.2c-0.8,0.7-1.5,0.3-2.4,0.4c-6.9-1.7-14-3.3-20.8-4.7c-2.8-0.1-1.3-3.3-2.6-4.7
				c0-0.3,0.3-1-0.3-1.1c-5.9,1.1-12.2,1.2-18.4,1.2c-7.9-0.4-15.5-1.9-21.5-6.5l-0.7-0.1c-6.2-5.5-12.2-12.9-9.3-21.6
				c2.2-6.6,8.9-11.6,16.2-11.9c10.9-0.1,21.7,0.1,33.4,0.7c-0.1-0.7-1.1-1.1-1.7-1.7c-0.6,0.1-1.4-0.7-1.7-0.7
				c-0.1-0.3-0.7,0-0.6-0.6c-2.5-1.1-5.3-1.7-8.2-1.9c-8.6-1.9-17.2-3.7-25.9-5.3c-0.7,0.3-1.4-0.4-1.5-1.1c0.3-4.2-0.3-8.7,0-13
				c0.1-0.1,0.4-0.4,0.8-0.3c0.6,1.1,1.3-0.7,1.8,0.4c9.7,1.7,19.7,2.8,29.1,4.8c9.7,2.6,19.9,4.4,27.8,11.5
				c9.7,8.9,5.5,23.8,6.5,36.1V136.2z M677,111.4c0.3-3.5-0.3-6.9,0-10.4c-1.8,0-3.5-0.7-5.3-0.4c-5.8,1.2-14.5-2.2-16.8,5
				c0,2.2,1.1,4,2.8,5.5c5.8,3.3,12.6,1.7,18.8,0.6L677,111.4z"/>
			<path class="st0" d="M615.9,117.7c0.3,11.2-0.1,22-0.6,33.4c-0.4,1-1.2,0.4-1.7-0.1c-51.9-8.3-107.3-11.5-160.5-11.6L453,139
				c0.3-4.6-0.3-9.1,0.4-13.7c20.1-0.4,40.3-0.3,60.5,0.8c24.2,0.7,48,3.5,72,6.2c0,0,0.1,0.3,1.2,0.3c0.7,0.1,2.2,0.6,1.9-0.8
				v-14.9c-1.2-0.8-3.2,0-4.4-0.7c-3.5-0.6-6.9-0.8-10.4-1.4c-1,0.3-2.1-0.7-3-0.4c-14-1.4-29.2-8-34.6-22.2
				c-3.2-8-1.3-17.7,3.2-24.6c6-7.2,13.7-12,22.7-13c10.1-0.8,20.2,0.3,29.8,1.5c7.5,1.4,15.6,2.2,23.4,3.6c0.8,0.7-0.3,1.8,0.6,2.6
				C615.9,80.3,616.4,98.5,615.9,117.7z M589.1,87.6c0-5.7,0.1-11.6,0-17l-1.8-0.4c-5-0.8-10-1.1-14.4,0.7c-2.2,0-4.1,1.7-5.1,2.2
				c0,0.1,0.1-0.3,0,0c-2.2,0-3,3-4,4.8c-1.1,1.9-1,4.2-1.5,6.2c0.6,3.2,1,6.4,3.6,8.9c5.7,5.4,13.4,7.1,21.2,7.8
				c0.4,0.3,1.4,0.3,1.9,0c0.6-3.3,0-6.9,0-10.2c0-0.8,0.4-1.4,0-2.2L589.1,87.6z"/>
			<path class="st0" d="M524.3,84.8c-5.3,3.6-11.9,3.6-18.4,3.9c-5.5-0.1-11.2,0.6-16.3-0.1c-0.3,0.6-4.2,0.4-4.4,0l-0.1-0.1
				c-0.6,0.6,0.7,0.6,0.1,1.1c-0.6,4.9,38.9,6.1,40.7,5.7l0.4,0.6l-0.7,13.6l-0.3,0.4c-13.8,0.3-25.9-1.1-39.5-1.7
				c-7.1-1.1-14-2.8-20.1-6.4c-7.9-5.1-11.9-13.3-12.6-22.2c-0.4-10.5,6.5-20.1,15.6-25.1c14.7-7.8,36.3-9.1,51.1-0.8
				c6.4,3.2,11.3,9,12.5,16.1C532.7,76.1,529.7,82.2,524.3,84.8z M506.2,72.2c1.7-1.4,0.8-3.9,0.4-5.5c-2.9-5-9.3-5.8-14.7-5.1
				c-2.1,0-3,2.5-4.4,2.5c-2.1,1.8-3.9,4.6-4.8,7.1c-0.7,1.4-0.8,3.2-0.8,4.4c1.7,0.3,4-0.1,6.1-0.1h2.4c4.6-0.3,7.8,0,12.2-0.6
				C503.8,74.2,505.1,73.4,506.2,72.2z"/>
			<path class="st0" d="M363.3,109.9c-0.6,0.7,0,1.9-1,2.2c-0.4-0.4-0.8-0.1-1.2,0c-7.9,0.1-15.5,2.1-23.2,2.2
				c-1-12.3,0.4-23.1-0.3-35.4c-0.7-1.2,0.2-2.7-1.3-3.3l0,0c-4.3-1-8.4,2.4-11.7,3.1c-1.5,0.4-2.8,1.7-4.3,2.4c0,0-1.1,0.7-1.5,1.1
				c0.1,0,0,0.1,0,0c-0.4-0.1-1.1,0.1-1.2,0.7v0.4c-0.3,0-0.4,0.1-0.4,0.3V117c-0.6,0.1-0.3-0.3-0.3,0.2c-7.8,1.7-15.9,2.8-23.5,4.2
				c-0.4,0.4-1.7,0.6-1.7,0.6l-0.4-0.8c0.4,0.8-0.3-58.9-0.3-58.9c6.5-1.1,13.3-2.7,19.5-4.5c2.5,0.3,4.3-1.5,6.8-0.3
				c0,2.9-0.2,6.2,0.3,9c5.8-3.2,11.8-6.9,17.6-10.2c4.3-1.7,8.6-3.5,13.6-3c1.8,1,4.6,0.4,6.2,1.9c1.5,0.6,2.8,1.7,4,2.8
				c6.5,6.4,4.2,16.8,4.7,24.9C363.4,91.8,363.1,101,363.3,109.9z"/>
			<path class="st0" d="M268.7,57.3c-4.4,2.5-10.7,4.6-15.5,1.7c-2.4-0.8-3.2-3.3-4.4-5.1c-1.5-5.4,1-9.8,4.6-13.6
				c5-3.6,12-4.3,17.4-1.4c2.6,1.2,3.6,4.3,4.3,6.9C275.6,50.8,272.5,54.5,268.7,57.3z"/>
			<path class="st0" d="M447.9,139c-0.8,0.3-1.9,0.4-2.6,0.7l-0.4-0.4c-41.8,0.8-83.2,3.9-123.4,9.8c-13.4,1.8-26,4.3-39.3,6.5
				c-31.3,5.7-61.7,13-92.1,21c-0.8,0.7-1.9,0.7-2.8,1c-65.1,18.8-127.6,44-187.3,75.5v-12.9l4.8-8.7c9.1-18.6,18.7-37,27.6-55.7
				c-1.4-0.1-2.4-1.9-3.7-2.2c-1.1-2.5-4-3.6-5.7-5.8c-10.1-9.6-15.1-21.2-19.1-33.1c-4.4-16.2-3-35.6,4.2-50.4
				C13.6,72.8,21.5,61.5,33,54c18-12.9,44.3-17.3,66-9.7c1.1-0.7,1.4-2.1,2.1-3c5-9.8,9.4-19.9,14.7-29.6l1.8-3.7
				c5.5-0.7,10.4-2.8,15.5-4l11.2-2.8L150,0l-2.4,4.2c2.5-2.9-24,50.7-24.5,52.4c1.9,3,5,4.7,7.3,7.5c13.8,15.1,20.8,33.9,19.4,55
				c0.4,1-0.1,2.4-0.4,3.5c-0.8,9.1-3.3,17.6-7.1,25.5c-8.3,17.2-25.3,33.1-43.7,37.7c-11.9,4.6-27.7,4.4-40.7,1.9
				c-1.2,0,1.2,0.6,0,0c0,0-14.2,28.5-14.6,29.5c2.1-1.7,3.4-2.2,8.7-4.3c68.8-30.9,140.7-54.7,216.3-69.1l0.7-0.3
				c15.2-2.6,30.6-5.8,46.2-7.9c21.7-2.9,43.3-6,65.6-7.5c13.3-1,26.4-2.2,40.1-1.9c0.8-1.2,0.7-3.2,0.7-4.8c0-0.6,0.1-8.4-0.4-11.2
				l-0.6-0.3c0,0-2.2-0.3-3.5-0.7c-4,0.1-8.4,0.7-12.5,0.3c-14.1,0.3-28.9-5.8-34.6-19.5c-2.2-5.3-1.7-12.3,0-17.6
				c6.2-14.7,21.5-22.7,36.8-23.3c13.8-0.3,27.4-1.2,41-1.1l0.4,0.4C448.4,79.2,448.3,108.9,447.9,139z M421.3,63l-0.4-0.4
				c-1.6,0.6-3.5-0.3-5,0.1c-3.6,1-7.6,0.7-10.8,2.4c-5.5,2.4-9.3,8.4-9.3,14.1c-0.4,5.1,2.6,9.7,6.8,12.6c1.1,0.6,2.2,1.5,3.3,1.4
				c4.6,2.5,10.2,1.9,15.5,1.8C421.4,84.2,421.6,72.9,421.3,63z M115.6,94.5c-1.5-3.2-3.9-5.9-5.5-9c-0.1-0.4-0.7-1.4-1.2-0.7
				l-37.1,74.8c2.4,0,4.8,0.4,7.2,0c16.6-1,32.4-12.3,38.2-27.6c0.7-1.9,1.8-5.7,1.8-5.7l0.9-4.3
				C122.2,112.7,119.3,102.7,115.6,94.5z M85.1,72.1c-0.7-1.7-4-0.5-2.8-1c-7.9-1.8-16.6-0.3-23.7,2.5C44.1,79,32.8,94.2,30.9,109.5
				c-1.4,14.1,3.5,27.6,13.2,37.5c0.7,0,1.9,1.1,2.1,1.4C50.8,140.2,82.5,76.8,85.1,72.1z"/>
			<path class="st0" d="M248.9,69.9V129c0,0,19.6-4.4,26.5-4.4L275,64.2C275.1,64.2,259,67.8,248.9,69.9z"/>
			<path class="st0" d="M160.5,152.1V24.6c0,0,20.4-6.1,26.9-7.1v126.8C187.3,144.4,158.4,152.2,160.5,152.1z"/>
			<path class="st0" d="M204.9,140.4V13.3c0,0,18-5,27-5.6l0.1,125.1C232,132.7,202.9,140.4,204.9,140.4z"/>
		</g>
		<path d="M304.8,257.2h-8.6l-15.8-41.8h-0.2l0.8,41.8h-9.6v-49.8h15.4l13.6,37h0.3l13.3-37h15.7v49.8h-9.6l0.8-42h-0.3L304.8,257.2
			z"/>
		<path d="M376.5,228h23.3v7.8h-23.3V249h24.8v8.2h-34.4v-49.8h34.2v8.2h-24.6V228z"/>
		<path d="M468.4,207.4v34.5c0,13.1-4.7,15.7-16.2,15.7c-10.2,0-16.7-1.3-16.7-12.8v-7.2h9.2v3.7c0,6.5,0,8,7.5,8
			c5.7,0,6.6-1.5,6.6-7.6v-34.5h9.6V207.4z"/>
		<path d="M514.8,228h23.3v7.8h-23.3V249h24.8v8.2h-34.4v-49.8h34.2v8.2h-24.6V228z"/>
		<path d="M585.5,240.8v16.5h-9.6v-49.8h25.5c10.9,0.3,15.1,3.7,15.1,15c0,7.4-0.4,12.8-8.8,14v0.3c6.8,0.6,8.4,4.3,8.4,11.3v9.3
			h-9.6v-9.3c0-4.2-1.7-7.1-6.3-7.2L585.5,240.8L585.5,240.8z M598.2,232.6c7.1,0,8.8-1.4,8.8-8.7c0-7-1.3-8.3-8.1-8.3h-13.3v17
			H598.2z"/>
		<path d="M663.1,257.2h-9.6v-49.8h9.6V257.2z"/>
	</g>
</g>
</svg>
