<?xml version="1.0" encoding="utf-8"?>
<!-- Generator: Adobe Illustrator 21.0.0, SVG Export Plug-In . SVG Version: 6.00 Build 0)  -->
<svg version="1.1" id="Layer_1" xmlns="http://www.w3.org/2000/svg" xmlns:xlink="http://www.w3.org/1999/xlink" x="0px" y="0px"
	 viewBox="0 0 769.2 232.9" style="enable-background:new 0 0 769.2 232.9;" xml:space="preserve">
<style type="text/css">
	.st0{fill:#26336B;}
</style>
<g>
	<g>
		<path class="st0" d="M45.6,223.9h35.5V5.4H62.6c-16.9,0-44.4,1.6-59.1,54H0V0.9h194.2v58.5h-3.5C176,7,148.5,5.4,131.6,5.4h-18.5
			v218.5h35.4v4.5H45.6V223.9z"/>
		<path class="st0" d="M214.3,223.9h24.6V5.4h-24.6V0.9h52.1v122.7h0.6c4.5-11.5,19.5-35.8,54.3-35.8c28.1,0,47.6,13.1,47.6,42.8
			v93.3h24.6v4.5h-76.7v-4.5h24.7V120.7c0-16.6-7.7-28.4-24.3-28.4c-27.5,0-50.8,25.6-50.8,59.4v72.2H291v4.5h-76.7L214.3,223.9
			L214.3,223.9z"/>
		<path class="st0" d="M410.5,223.9h24.6V95.8h-24.6v-4.5h52v132.6h24.6v4.5h-76.6V223.9z M448.2,0c9.3,0,16.9,7.7,16.9,16.9
			c0,9.3-7.7,16.9-16.9,16.9c-9.3,0-16.9-7.7-16.9-16.9C431.2,7.7,438.9,0,448.2,0z"/>
	</g>
	<g>
		<path class="st0" d="M514,183.7h3.5c5.7,20.1,18.2,44.7,50.5,44.7c13.7,0,26.2-8,26.2-26.5c0-16.3-9.9-21.1-20.8-24.9l-24.9-8.6
			c-13.1-4.5-31.6-10.9-31.6-39c0-24,19.5-42.2,46-42.2c18.5,0,21.7,6.7,30.7,6.7c2.9,0,4.1-1,5.1-2.6h3.5v36.4h-3.5
			c-6.1-19.2-14.1-36.1-35.8-36.1c-20.4,0-32.3,9.9-32.3,25.2c0,13.7,9.9,19.5,28.4,25.2l23.3,7.7c19.8,6.7,34.2,18.2,34.2,37.7
			c0,23.3-18.5,45.4-50.8,45.4c-18.8,0-31-8.9-40.6-8.9c-4.8,0-6.4,2.2-7.7,4.5h-3.5L514,183.7L514,183.7z"/>
		<path class="st0" d="M670.7,149.2c0,4.2-0.3,8.3-0.3,15c0,28.4,4.5,64.2,42.2,64.2s46-25.9,49.2-36.1l4.8,1
			c-2.9,9.3-11.5,39.6-54.3,39.6s-73.8-28.7-73.8-72.2c0-37.7,31.6-73.5,71.9-73.5c23.6,0,58.8,15.3,58.8,62H670.7z M736.5,144.7
			c0.6-6.1,0.6-10.9,0.6-16.3c0-28.7-11.5-36.7-28.1-36.7c-28.7,0-36.1,25.2-38,53H736.5z"/>
	</g>
</g>
</svg>
