<svg id="Layer_1" data-name="Layer 1" xmlns="http://www.w3.org/2000/svg" viewBox="0 0 54.1 54.1"><title>Ikoner + vandmærker NY</title><path d="M44,41.09,33.58,30.64c.23-.27.5-.6.83-1a5.09,5.09,0,0,0,1-2.79l.34-1.2a1.63,1.63,0,0,0,1.87,0c1.39-.91.09-2.57.33-3.14s.56-.11,2.12-.46a2.77,2.77,0,0,0,2-1.44,3.63,3.63,0,0,0,.14-1.07c0-.18-.06-.63-.25-.71a22.15,22.15,0,0,1-2.35-.42,3.41,3.41,0,0,1-.62-.81,4.64,4.64,0,0,0-2.37-.24,7.36,7.36,0,0,0-2.06.75c-.83.51-1,1.52-1.26,2.22a9.44,9.44,0,0,1-1.4,2,3.82,3.82,0,0,1-.57.29,14.41,14.41,0,0,1-3.19,1A5.34,5.34,0,0,0,26.9,24L13,10.06a22,22,0,0,1,31,31M16,19l5.12,5.12A12.26,12.26,0,0,1,18.62,24c-.68-.17-.87-.43-1.71-1.77A5.2,5.2,0,0,1,16,19m11,30.11A22,22,0,0,1,10.06,13l4.81,4.81a6.32,6.32,0,0,0-.41,3.88A12.23,12.23,0,0,0,16.22,25a14.94,14.94,0,0,0-1.14,2.17c-.34.91-.74,3.19-.91,3.93a9.17,9.17,0,0,1-1.65,3c-.68.8-.46.86-.51,1.6s-.4,3.14-.51,3.53,1,.46,1.54.51,1.2-.17,1-.68-.91-.46-.91-.46a12,12,0,0,1,.68-2.68,4.22,4.22,0,0,1,1.37-1.31s.06.74.11,1.43a19.29,19.29,0,0,0,.4,2.79c.17.51,1.77.23,2.17.17s.17-.34.06-.68-.8-.23-1-.51,0-1.08.4-2.22.38-.91,1.31-1.65a4.78,4.78,0,0,0,1.54-2.45s.91-1,1.71-.51a13.38,13.38,0,0,0,4.5.86c1.77.11,1.71,1,1.82,1.71s.23,3.59.29,4a5.55,5.55,0,0,1,.06,1c0,.57.06,1.65.74,1.71s1.71.34,1.82-.23-1.08-.74-1.2-1.37a14.83,14.83,0,0,1,.57-3.14L30.59,37s.63,2.05.68,2.34,1,.4,1.48.4a.79.79,0,0,0,.74-.68c0-.23-.34-.4-1-.74s-.38-1.23-.34-2.17c0-.34,0-.7,0-1.06L41.09,44a22,22,0,0,1-14,5.05M27.05,0A27.05,27.05,0,1,0,54.1,27.05,27,27,0,0,0,27.05,0"/></svg>