<svg id="Layer_1" data-name="Layer 1" xmlns="http://www.w3.org/2000/svg" viewBox="0 0 54.18 54.18"><title>Ikoner + vandmærker NY</title><path d="M13.39,37.36a.8.8,0,0,1-.1.13.45.45,0,0,1-.23.17,7,7,0,0,0-.77.29,2.66,2.66,0,0,1,.3-.94l.23-.1a.08.08,0,0,1,0-.06h0a.34.34,0,0,0,.13-.12v-.06a.85.85,0,0,0,.2,0l.2.06Zm3.26-5.56h0s0,0,0,0,0,0,0,0v-.3h0l0,0h0a.13.13,0,0,0-.13-.07.33.33,0,0,0,.07-.26.14.14,0,0,0-.1-.1v-.2s-.06-.06-.07-.09a0,0,0,0,0,0,0,.05.05,0,0,0,0,0h0a.41.41,0,0,0-.26-.16l-.38,0-.13,0a3.28,3.28,0,0,0-1.38,1.22.77.77,0,0,0-.1.13.87.87,0,0,1-.62.29h0v0a0,0,0,0,0,0,0s0,0,0,0h0l-.17.09h-.14a.7.7,0,0,0-.57-.14,1,1,0,0,0-.3,0l-.13-.12a1.47,1.47,0,0,0-.54-.49l-.2-.1a.08.08,0,0,0-.06,0h0a2.57,2.57,0,0,0-.56-1.25,1.32,1.32,0,0,0-.52-.42v-.07h0s0,0,0,0,0,0,0,0h0V29.2H10a0,0,0,0,1,0,0h0a0,0,0,0,1,0,0h0l-.07-.09a.08.08,0,0,1-.06,0c-.06,0-.07,0-.12,0H9.58v0a0,0,0,0,1,0,0H9.48s0,0,0,0a.05.05,0,0,1,0,0s0,0,0,0h0l-.07,0h0v0h0l-.07,0h0s0,.06,0,.1a.32.32,0,0,0,0,.12,0,0,0,0,0,0,0h.1l.07,0h0a0,0,0,0,0,0,0,.28.28,0,0,0,0,.12h0a.51.51,0,0,0,0,.16s0,0,0,.06l-.17.15a1,1,0,0,0-.12.14c-.06.09,0,.15.06.16h.09s0,0,.09.07a.36.36,0,0,0,.23.07l0,.22,0,.12a.05.05,0,0,1,0,0s0,0,0,0h0a1,1,0,0,1-.12.14s0,0,0,.06,0,0,0,0h.12a2.31,2.31,0,0,1-.13.29.59.59,0,0,1-.06.14,4,4,0,0,0-.23.81,1.34,1.34,0,0,1-.32.52h.1s0,0,0,0,0,0,0,0,.06,0,.12,0h0v.25a2.29,2.29,0,0,0,.07.7,2.58,2.58,0,0,0,.35.83,2.26,2.26,0,0,0,.56.55,3.07,3.07,0,0,0,.74.41l.13.06.38.09a2,2,0,0,0,1,1,1.86,1.86,0,0,1,0,.49.44.44,0,0,1-.46.43c-.33,0-.65.07-1,.13l-.2.06q-.24.11-.09.3l.09-.13a.8.8,0,0,1,.84,0l-.26.12a.28.28,0,0,0-.22.3l.07.09h.13v-.14l.62-.35a.65.65,0,0,1,.49-.07.48.48,0,0,1,.19.1l.26.25a.56.56,0,0,0-.16-.48.29.29,0,0,1,.16-.16q.15-.07.22,0a1.7,1.7,0,0,0-.16.28.25.25,0,0,0,0,.14c0,.1.1.15.17.12l-.06-.1a.24.24,0,0,1,0-.07A.86.86,0,0,1,13.3,38a1.14,1.14,0,0,0,.23-.12.52.52,0,0,1,.54,0,.64.64,0,0,1,0,.07s0,0,0,0a.1.1,0,0,0,.07-.1.34.34,0,0,0-.23-.28.52.52,0,0,1-.35-.48.74.74,0,0,1,0-.17.37.37,0,0,0,0-.1.48.48,0,0,0,.23-.16,0,0,0,0,0,0,0h0a2.17,2.17,0,0,0,.94-1,.53.53,0,0,0,.1-.2,1.58,1.58,0,0,0,.07-.51.35.35,0,0,0,.33-.1.27.27,0,0,0,0-.1s0,0,0-.06h0a.05.05,0,0,1,0,0,2.08,2.08,0,0,1,.48-.36l0,0s0,0,0-.06v0a2.85,2.85,0,0,0,.3-.29v-.09a.32.32,0,0,0,.19-.22.23.23,0,0,1,.09-.12.22.22,0,0,0,0-.09s0,0,0,0h0a.49.49,0,0,0,.16-.26v-.06h0v0l0,0,0,0a.71.71,0,0,0,.13-.2v-.09a.05.05,0,0,1,0,0,.37.37,0,0,1,0-.17s0,0,0,0a0,0,0,0,0,0,0h0s0,0,0,0a0,0,0,0,0,0,0,.48.48,0,0,0-.07-.35s0,0,0,0"/><path d="M26.65,44.18l-.24,0-.48.08-.07-.09s-.08,0-.13.08a1.59,1.59,0,0,1-.26.15c-.1.06-.24.1-.29.15a.55.55,0,0,0-.06.09,1.4,1.4,0,0,1-.11-.15c0-.06,0-.08-.05-.14s0-.07-.07-.18-.07-.21-.07-.21l.26-.33a1.41,1.41,0,0,1,.18-.16,2,2,0,0,0,.39-.43,1.15,1.15,0,0,0,.12-.68.76.76,0,0,0,.15.24.78.78,0,0,1,.21.26c.09.15.24.39.31.5a.17.17,0,0,0,.16.1l0,0s-.13,0-.14.08a.14.14,0,0,0,0,.15c.05,0,.18,0,.18,0v.06l.09,0v.07l.07.25h-.23m-2.43-5.84h-.15a.42.42,0,0,0-.16-.14.65.65,0,0,1-.25-.11.13.13,0,0,0-.14,0l0-.08s0,0,0,0a.7.7,0,0,0,0-.12.25.25,0,0,0,0-.11.72.72,0,0,0,.3-.08,1,1,0,0,0,.32-.43c0-.13.2-.39.2-.39s0,.51-.08.7a3.89,3.89,0,0,0,0,.5,1.14,1.14,0,0,0,0,.32m-1-5.73c-.08.07-.22.11-.26.22l-.12.1,0,0a1.08,1.08,0,0,0,.1-.21,1.09,1.09,0,0,1,.06-.19,1,1,0,0,1,.14-.13,1.54,1.54,0,0,1,.1-.13l.07,0s0-.07,0-.08a.11.11,0,0,1,.1,0s0,0,0,.07a.65.65,0,0,1-.21.36m6,6a1.09,1.09,0,0,0-.45-.5,3.09,3.09,0,0,0-1.09-.19,8.77,8.77,0,0,0-1.25.12c-.21,0-.84.07-.84.07a3.88,3.88,0,0,1-.11-.69c0-.21,0-1,0-1l.12,0c.06,0,.13-.05.17-.09a.68.68,0,0,0,.07-.31,1.23,1.23,0,0,1,.06-.28l.2-.12c.07,0,.16-.15.25-.22a1.71,1.71,0,0,0,.42-.3,1.54,1.54,0,0,0,.22-.69l.2-.22a.72.72,0,0,0,.17-.41,1.3,1.3,0,0,0-.07-.67,4.7,4.7,0,0,0-.25-.86,4.54,4.54,0,0,0-.58-.8,2.1,2.1,0,0,0-.68-.39,4,4,0,0,0-.94,0c-.19,0-.28,0-.44.16a2.61,2.61,0,0,1-.61.34s0-.08-.06-.07-.06,0-.06,0-.07,0-.07,0,0,0-.15,0a1.43,1.43,0,0,0-.49,0,.94.94,0,0,0-.51.15,2.87,2.87,0,0,0-.55.55c-.14.23-.54.78-.59.89s-.13,0-.2,0-.12.09-.21.13-.09,0-.13.07a.34.34,0,0,1-.15.09.65.65,0,0,0-.2.07,4.25,4.25,0,0,0-.81.63,5.11,5.11,0,0,0-.7,1,4.65,4.65,0,0,0-.36,1,2.65,2.65,0,0,0,0,.6,1.13,1.13,0,0,0,0,.27c0,.12,0,.23,0,.23a4.29,4.29,0,0,0-.09.42,1.85,1.85,0,0,0,0,.37,3.3,3.3,0,0,0,0,.36c0,.17-.06.1-.07.34a1.06,1.06,0,0,0,.21.53s0,.35,0,.55,0,.94,0,1.11a1.29,1.29,0,0,0,.1.5,1,1,0,0,0,.24.18s0,.22,0,.39a1.45,1.45,0,0,0,.15.6c.11.22.32.64.51,1.08a6.57,6.57,0,0,0,1.13,1.77,1.66,1.66,0,0,0,1.85.2,3.8,3.8,0,0,0,1-.73l.21,0a.31.31,0,0,1,.09.08c0,.06.07.09.22.09a1,1,0,0,0,.32-.08.47.47,0,0,0,.2,0l.16-.06a1.53,1.53,0,0,0-.21.47,1.09,1.09,0,0,0,.15.77,2,2,0,0,0,.83.58l.32.15a2.11,2.11,0,0,0,.82.11,2.5,2.5,0,0,0,.84-.18l.26-.18a2,2,0,0,0,.68-.56A1,1,0,0,0,28.58,45a1.86,1.86,0,0,0-.87-.69,4,4,0,0,0-.73-.16s0,0,0,0l-.06-.33s0-.06,0-.08,0-.08,0-.08a.63.63,0,0,0,.12-.21,2.67,2.67,0,0,0,0-.4,4.15,4.15,0,0,0-.08-.46,1,1,0,0,1,.08-.14.34.34,0,0,0,.05-.28.14.14,0,0,1,0-.12l.14-.07a.79.79,0,0,1,.33-.06H28a1,1,0,0,0,.29-.1.11.11,0,0,0,.12,0,.2.2,0,0,0,0-.24.53.53,0,0,0-.24-.19c-.08,0-.24,0-.29-.07a3.84,3.84,0,0,0-.33-.2l.69-.43a4.87,4.87,0,0,0,.87-.78,1.22,1.22,0,0,0,.28-.64.45.45,0,0,0-.07-.31c-.06-.09,0-.24-.11-.36"/><path d="M44.1,41.16l-1.88-1.88c.05-.09.15-.26.15-.26s.06,0,.17-.06a4.23,4.23,0,0,0,.39-.33,4.68,4.68,0,0,0,.54-.55,4.09,4.09,0,0,1,.49-.55,1.76,1.76,0,0,0,.24-.28,1.74,1.74,0,0,1,.14-.21s.1,0,.1-.19,0-.25.07-.31,0-.13.07-.19.1,0,.13-.12a.1.1,0,0,0,0-.11.49.49,0,0,0,.22-.36,6.79,6.79,0,0,0,.18-.67c0-.24.07-.57.07-.57a2.25,2.25,0,0,0,.24-.64,6,6,0,0,0,.22-.93,5,5,0,0,0-.22-1.16,6.62,6.62,0,0,1-.23-1,6.1,6.1,0,0,0-.3-.6c-.07-.19-.1-.28-.15-.38a2.21,2.21,0,0,0-.59-.78,14.07,14.07,0,0,1-1.13-.9,7.58,7.58,0,0,1-.56-.63c-.16-.19-.24-.21-.24-.21l.12,0s0-.11-.1-.13a.22.22,0,0,1-.2-.12c0-.05-.11-.11-.11-.2s.12-.11,0-.24-.13-.24-.2-.3l-.13-.13s.13,0,.06-.14a3.18,3.18,0,0,0-.25-.35c-.09-.09-.16-.06-.22-.12s0-.14-.12-.13,0,0-.1-.09l-.16-.06a.59.59,0,0,0-.16,0,.17.17,0,0,1-.14-.07.15.15,0,0,0-.15-.06l-.19-.08a.58.58,0,0,0-.38,0c-.08,0-.09.16-.13.12a.11.11,0,0,0-.12,0,.13.13,0,0,0,0,.07,6.11,6.11,0,0,0-.63.28,4.63,4.63,0,0,0-.78.76,3.1,3.1,0,0,0-.59.89,1,1,0,0,0-.11.69c0,.37,0,.36.1.55a.53.53,0,0,0,.16.24s-.11-.19,0-.3.15-.27.15-.27a1.79,1.79,0,0,0,0,.31.92.92,0,0,0,.1.26,2,2,0,0,1-.23.37,1.6,1.6,0,0,0-.28.57,1.92,1.92,0,0,1-.17.46c-.09.16-.22.42-.22.42l0,.15a5.08,5.08,0,0,1-.51.65c-.18.16-.79.69-1,.91l-.17.2L31.93,29a1.84,1.84,0,0,0,.71,0h.05a.79.79,0,0,0,.36-.08c.08-.05,0-.19-.12-.41a.86.86,0,0,0-.48-.4,3.67,3.67,0,0,1-.11-1.6c.09-.41.17-.74.24-1s.13-.93.22-2a3.46,3.46,0,0,0,0-.49l0,0a4.54,4.54,0,0,0,.65-.78c.12-.19.25-.37.38-.54a6,6,0,0,0,.45-.67,17.07,17.07,0,0,0,1-2c.12-.17.22-.33.33-.5a2.82,2.82,0,0,0,.65.2,1.16,1.16,0,0,0,1.23-.48,0,0,0,0,0,0,0l.08,0a.75.75,0,0,0,.29-.32,1.22,1.22,0,0,0-.09-1.28.44.44,0,0,1-.08-.32,3,3,0,0,1,.21-1,1,1,0,0,0,.16-.3,1,1,0,0,0,0-.2l0-.52a.1.1,0,0,1,0-.05l.13,0a3.27,3.27,0,0,0,1.07-.09,1.43,1.43,0,0,0,1-.87.58.58,0,0,0,.09-.29.12.12,0,0,0,0-.08,1.34,1.34,0,0,0-.73-.25h-.05c-.29,0-.57,0-.86.05l-.13,0a.63.63,0,0,0,.11-.24,1.86,1.86,0,0,0-.05-1.28s0,0,0-.05a.22.22,0,0,1,0-.13l0,0-.07,0s0,0,0,0h0a0,0,0,0,1,0,0,0,0,0,0,1,0,0,1.15,1.15,0,0,1,0,.37,1.33,1.33,0,0,1-1,1s0,0,0-.08l0-.08a.6.6,0,0,0-.28-.26c-.13-.07-.28-.16-.41-.24a.84.84,0,0,0-.5-.13.94.94,0,0,0-.41.11.55.55,0,0,1-.2.09.52.52,0,0,0-.16.13,1.17,1.17,0,0,0-.38-.05h0a3.8,3.8,0,0,1-1.23-.9h-.07l0,.05a0,0,0,0,1,0,0,2.7,2.7,0,0,0,.05.57,1.38,1.38,0,0,0,.29.61,3.72,3.72,0,0,0-.54,0,.33.33,0,0,0-.4.16.08.08,0,0,0,0,.08l.05,0a.62.62,0,0,1-.22-.05,6.55,6.55,0,0,0-1.31-.25h-.37a11.44,11.44,0,0,0-2.13,0l-6.84.48H22.3a3.65,3.65,0,0,1-1.26,0l-.73-.13h-.15a1,1,0,0,0-.45,0,1.87,1.87,0,0,0-.29.09l-.41.16a3,3,0,0,0-1.52-.22,1.65,1.65,0,0,0-.56.11,3,3,0,0,0-.67.36l-.14.1L13,10.08A22.07,22.07,0,0,1,44.1,41.16m-10.7-4a.5.5,0,0,1-.1.26.63.63,0,0,0-.08.19l-.12.05H33l0,.07h-.08l-.2.1-.41-.24a2.76,2.76,0,0,0-.55-.2s.19-.34.27-.47.32-.57.36-.64,0-.1.08-.11,0-.07,0-.07V36l.2-.29h0l1,1c-.08.05-.13.1-.22.17s-.07.22-.08.31m5.18-6c0,.06,0,.11,0,.17a3.18,3.18,0,0,0,0,.58.5.5,0,0,0,.11.26,2.17,2.17,0,0,0,.43.3.44.44,0,0,1,.21.19.38.38,0,0,1,.07.12s0,0-.06,0-.09-.06-.16-.08a.17.17,0,0,0-.1,0s0,0-.1,0l-.1,0-.12,0-.24,0-.2-.05a.1.1,0,0,0-.09,0,.11.11,0,0,1-.09,0,1.35,1.35,0,0,0-.26-.06h-.17c-.06,0-.11,0-.17,0l-.28,0,.28-.34c.06-.07.36-.46.46-.57s.26-.33.3-.4,0,0,.07-.05a.19.19,0,0,0,.07-.07s.05-.13.09-.17l0,.06a.44.44,0,0,0,0,.13M14.89,23s0,0,0,0h0Zm2,4.7a7.64,7.64,0,0,1-.17-1.23.17.17,0,0,0,0-.08A10,10,0,0,1,17,25.35a.68.68,0,0,0,0,.15c0,.16.07.32.09.48.07.44.13.89.19,1.34A1.26,1.26,0,0,1,17,28s0,.07,0,.09l-.08-.36M31,24.18a2.19,2.19,0,0,0,.09.4s0,0,0,0l0,.05a1.61,1.61,0,0,1,.07.45,7.4,7.4,0,0,1,.08,1.34,4,4,0,0,0,.05.79,3.81,3.81,0,0,1-.13.67c-.07.22,0,.36.17.42v.05a.54.54,0,0,0,0,.11l-1.72-1.72c0-.18,0-.29,0-.33.09-.45.21-.89.33-1.32a7.24,7.24,0,0,0,.28-1.34c0-.16,0-.32.05-.48l0-.25a2,2,0,0,0,.66.29.22.22,0,0,1,0,.19,2.88,2.88,0,0,0-.05.33.59.59,0,0,0,0,.3m-2.28,1.31c0,.12,0,.24,0,.36L26,23l.09,0,.62-.21a8.42,8.42,0,0,1,1-.24,1,1,0,0,0,.33-.12c.07.2.15.38.21.57a3.88,3.88,0,0,1,.25,1.6,1.11,1.11,0,0,0,.32.87M27.09,49.17A22.07,22.07,0,0,1,10.08,13l4.73,4.73c0,.12,0,.24,0,.36a7.92,7.92,0,0,0,.11,1.48A4.62,4.62,0,0,1,15,20.73c0,.25,0,.42,0,.49l-.09.21a2.45,2.45,0,0,0-.22,1s0,0,0,0a1.84,1.84,0,0,1-.15.2l0,0h0a.83.83,0,0,1-.05.12l.07.05,0,.09h0l0,.07v0a.33.33,0,0,0,0,.09h0s0,0,0,0v0s0,0,.07,0a.07.07,0,0,0,0,.05v.08a.08.08,0,0,0,.11,0,.42.42,0,0,0,.16-.11,1.33,1.33,0,0,0,.45-.62,1.75,1.75,0,0,0-.05-1.39h0v-.07h0a8,8,0,0,0,0-1.49l-.08-1.09c0-.14,0-.28,0-.42l.4.4v.12l.08.61a9.18,9.18,0,0,1,0,2.41v0a2,2,0,0,0-.09.48,2.81,2.81,0,0,1-.26.9.94.94,0,0,0,0,.86c.07.29.11.57.15.85a1.83,1.83,0,0,1,0,.26l.12.61a3,3,0,0,1,.09.48l.2,1.34a1.41,1.41,0,0,1-.32.7.34.34,0,0,0,0,.09.2.2,0,0,0,0,.09,1.75,1.75,0,0,0,.34.28v0a.22.22,0,0,1,0,.07,1,1,0,0,0,.07.4c0,.11.08.15.13.13h0a1.88,1.88,0,0,0,1.44,0s.05,0,.05-.05a.17.17,0,0,0,0-.08h0a1.84,1.84,0,0,0,1.35,0,.13.13,0,0,0,.05-.07.12.12,0,0,0,0-.07c-.13-.25-.28-.5-.42-.74a.91.91,0,0,0-.29-.3,1.88,1.88,0,0,0-.08-.37,6.25,6.25,0,0,1-.16-1.22.26.26,0,0,1,0-.09A7.8,7.8,0,0,1,18.42,25c0-.11.13-.48.3-1.14a.71.71,0,0,0,.37.07.9.9,0,0,0,0,.19c.11.09.2.08.26,0a0,0,0,0,0,0,0v-.19a2.92,2.92,0,0,0,.48,0s0,0,0,0V24a1.16,1.16,0,0,0,0,.21.14.14,0,0,0,.24,0,.42.42,0,0,0,.11-.32,2.68,2.68,0,0,0,.54-.13,1.48,1.48,0,0,0,0,.23c0,.22.13.29.32.24,0-.09,0-.18,0-.27L32.48,35.42l0,.07c-.06.11-.09.19-.12.24a1.5,1.5,0,0,0-.09.2s0,0,.06,0l.1,0L32.3,36s-.19.3-.32.52l-.52.79a3.26,3.26,0,0,0-1.37.09c-.46.21-.76.38-.8.87a.89.89,0,0,0,.5.76l.34.33a3.06,3.06,0,0,0,1.23.34,1.76,1.76,0,0,0,.9-.17l.38-.26s.38-.22.46-.48A.72.72,0,0,0,33,38.2a2.07,2.07,0,0,0-.28-.3l.19-.08,0,0,.08,0,.09-.07.62-.25s0,0,.09.09a.31.31,0,0,0,.18,0l.1.08a.38.38,0,0,0,.21,0,.19.19,0,0,0,.08.14.22.22,0,0,0,.28,0,.48.48,0,0,0,.09-.12l6.35,6.35a22,22,0,0,1-14.06,5.06M27.09,0A27.09,27.09,0,1,0,54.18,27.09,27.09,27.09,0,0,0,27.09,0"/></svg>