<svg id="Layer_1" data-name="Layer 1" xmlns="http://www.w3.org/2000/svg" viewBox="0 0 54.29 54.29"><title>Ikoner + vandmærker NY</title><path d="M27.15,0A27.15,27.15,0,1,0,54.29,27.15,27.15,27.15,0,0,0,27.15,0ZM47.57,18.64a6,6,0,0,1-1,.23c-.65.1-3.3-1.23-5.34-3a3.78,3.78,0,0,0,2.26-1,3.28,3.28,0,0,0,.8-1.65A22.11,22.11,0,0,1,47.57,18.64ZM27.15,5a22,22,0,0,1,14.74,5.64,7.68,7.68,0,0,0-1.2.22,8.09,8.09,0,0,0-3,1.86c-.27-.19-.51-.4-.76-.61a7.18,7.18,0,0,0,1.48-2.28c.2-.53.07-1.27-.34-1a8.51,8.51,0,0,1-2.63,2.23,5.17,5.17,0,0,0-4.87,0c-.2.11-.49.29-.65.24a7.16,7.16,0,0,1-1.32-.54c-.51-.23-2.23-1.54-2-.67s1.79,2.21,1.93,2.36a9.62,9.62,0,0,0-.84.79,9.37,9.37,0,0,0-1.11-.68c-1.09-.55-3.63-.21-3.55.94a3.41,3.41,0,0,0,1.34,2.23,3.76,3.76,0,0,0,2.12,1,5.21,5.21,0,0,1-2.24,4.43L13.05,10.1A22,22,0,0,1,27.15,5ZM38.33,35.38,33.7,30.74,30.93,28c.9.24,1.35.67,2.62.11A34.64,34.64,0,0,1,38.33,35.38ZM27.15,49.26a22.12,22.12,0,0,1-20.93-15c2.2-.2,6.12-.42,6.86.08,1.19.8,3.62,2.41,5.6,2.05,1.27-.23,2.75,0,3.67-.59a14.93,14.93,0,0,1,1.84-.72c.2-.06,1.59-.81,1.91-.88s.36-.25.16-.54c0,0,.22-.34-.21-.66a.85.85,0,0,0-.94,0s.3-.24-.16-.7-1.23.11-1.23.11.21-.37-.59-.51c-.45-.08-1.35.42-2.45.46h-.17l.75.27c.55.2,1.07.61.84,1.32s-1.18.67-1.69.7c-1.49.1-2.74-1.31-4.23-.93-.08,0-.31-.09-.22-.11a4.89,4.89,0,0,1,2.94.51,4.19,4.19,0,0,0,2.66.11.78.78,0,0,0,.38-.43c.34-.72-.7-1-1.12-1.09a5.21,5.21,0,0,1-1.38-.61,9.29,9.29,0,0,1-1.68-.74c-1.24-.75-1.25-1.24-2.33-1.75a4.76,4.76,0,0,0-3.65.19c-.33.14-4.65-.21-6.65-.38A22.37,22.37,0,0,1,5,27.15,22,22,0,0,1,10.1,13.05l4.82,4.82,6.19,6.19A5.92,5.92,0,0,0,21,25.86a7.11,7.11,0,0,0,3.2,3.09,4.3,4.3,0,0,0,1.69-.05l6.35,6.35,9,9A22,22,0,0,1,27.15,49.26Z"/></svg>