<svg id="Layer_1" data-name="Layer 1" xmlns="http://www.w3.org/2000/svg" viewBox="0 0 54.7 43.18"><title>Ikoner + vandmærker NY</title><path d="M20.36,18.27h0a6.56,6.56,0,0,0,.67,1.55c1.56,3.42,4.39,4.42,5.91,4.42,1.84,0,4.24-1.23,5.93-4.76a5.06,5.06,0,0,0,.5-1.21h.09A2.08,2.08,0,0,0,35,17.08a2.48,2.48,0,0,0,.11-1.1,1.72,1.72,0,0,0-.07-.43,1.94,1.94,0,0,0-.73-.85l-.24-.16a10.83,10.83,0,0,0-.38-4.65A7,7,0,0,0,27,5.78a7,7,0,0,0-6.75,4.3,10.18,10.18,0,0,0-.51,4.49l-.17.13a1.94,1.94,0,0,0-.73.85,1.72,1.72,0,0,0-.07.43,2.75,2.75,0,0,0,.11,1.1A1.84,1.84,0,0,0,20.36,18.27Z"/><path d="M42.39,38.57c-.46-2.8-1.21-7.5-1.65-8.12a11,11,0,0,0-6.91-4.57.24.24,0,0,0,0,0,2.42,2.42,0,0,0-.38,0H31.23c-1.3.86-3.92.79-4.22.78a9.45,9.45,0,0,1-4.1-.74H21.79a2.45,2.45,0,0,0-.5.06h0l-.06,0-.13,0a10,10,0,0,0-6.21,4.41c-.56.8-1.1,5.24-1.56,8.12,0,0,1.45,4.61,14.3,4.61S42.39,38.57,42.39,38.57Z"/><path d="M47.44,10.35a1.72,1.72,0,0,0-.07-.43,1.94,1.94,0,0,0-.73-.85L46.4,8.9A10.83,10.83,0,0,0,46,4.25,7,7,0,0,0,39.26.15c-2.94,0-5.46,1.39-6.4,3.47a4,4,0,0,0-.15.48c2.28.55,3.7,2.58,4.59,4.75a10.83,10.83,0,0,1,.38,4.65l.24.16a1.94,1.94,0,0,1,.73.85,1.72,1.72,0,0,1,.07.43,2.48,2.48,0,0,1-.11,1.1,2.19,2.19,0,0,1-1,1.05,2.17,2.17,0,0,1-.13.71,2.11,2.11,0,0,1-.1.39,5.29,5.29,0,0,0,1.93.42c1.84,0,4.24-1.23,5.93-4.76a5.06,5.06,0,0,0,.5-1.21h.09a2.08,2.08,0,0,0,1.52-1.2A2.48,2.48,0,0,0,47.44,10.35Z"/><path d="M53.05,24.82a11,11,0,0,0-6.91-4.57.24.24,0,0,0,0,0,2.42,2.42,0,0,0-.38,0H43.54c-1.3.86-3.92.79-4.22.78a11.79,11.79,0,0,1-2.82-.27c0,.06,0,.11,0,.17a2.08,2.08,0,0,1-.4.72,9.57,9.57,0,0,1-.75,1.27h.09a9.5,9.5,0,0,1,8.9,6.45l0,0c.42.59,1.12,4.91,1.58,7.74,7.5-1.12,8.78-4.21,8.78-4.21C54.24,30.14,53.49,25.44,53.05,24.82Z"/><path d="M16,16.7a2,2,0,0,1-.65-.81,2.48,2.48,0,0,1-.11-1.1,1.72,1.72,0,0,1,.07-.43,1.94,1.94,0,0,1,.73-.85l.24-.16a10.83,10.83,0,0,1,.38-4.65c.89-2.17,2.75-4.34,4.59-4.87l-.06-.16C20.45,1.87,17.64,0,14.69,0A7,7,0,0,0,7.94,4.1a10.83,10.83,0,0,0-.38,4.65l-.24.16a1.94,1.94,0,0,0-.73.85,1.72,1.72,0,0,0-.07.43,2.48,2.48,0,0,0,.11,1.1,2.08,2.08,0,0,0,1.52,1.2h.09a5.06,5.06,0,0,0,.5,1.21c1.7,3.52,4.1,4.76,5.93,4.76a5,5,0,0,0,1.46-.25A2.93,2.93,0,0,1,16,16.7Z"/><path d="M17.44,20.81a12.21,12.21,0,0,1-2.06.13c-.3,0-2.93.08-4.22-.78H8.91a2.42,2.42,0,0,0-.38,0,.24.24,0,0,0,0,0,11,11,0,0,0-6.91,4.57C1.21,25.34.46,30,0,32.84c0,0,1.28,3.08,8.78,4.21.47-2.83,1.16-7.14,1.58-7.74l0,0a9.51,9.51,0,0,1,8.3-6.42A9.53,9.53,0,0,1,17.44,20.81Z"/></svg>