<svg id="Layer_1" data-name="Layer 1" xmlns="http://www.w3.org/2000/svg" viewBox="0 0 54.69 51.41"><defs><style>.cls-1{fill-rule:evenodd;}</style></defs><title>Ikoner + vandmærker NY</title><path class="cls-1" d="M54.35,18.79C52.55,14.91,47.79,5,46.62,3.94,45.15,2.69,42.08,2.37,34.25,0,32,4.11,22.7,4,20.5,0,12.65,2.37,9.58,2.69,8.11,3.94c-1.2,1-6,11-7.79,14.85-.56,1-.38,1.68.39,2.09l7.58,3.94c.73.41,1.3.27,1.56-.41,1-1.84,3.12-5.81,3.12-5.81V50c0,.86.65,1.44,1.74,1.44H40c1.13,0,1.78-.58,1.78-1.44V18.6s2.09,4,3.1,5.81c.24.68.81.82,1.53.41L54,20.88C54.74,20.47,54.93,19.77,54.35,18.79Zm-16.7,4.84c.11-.13.23-.36.41-.14s0,.53-.22.67c-.06,0-.18.11-.24.1C37.26,24.22,37.55,23.76,37.65,23.63Zm-5.21,1c0-.08.06-.15.09-.13s0,.08-.09.13-.06.15-.09.13S32.38,24.69,32.44,24.64Zm-1,1c.18-.08.48.12.28.31S31.13,25.71,31.41,25.59Zm-2.93-3.28c.11-.16.47.32.27.39S28.39,22.43,28.48,22.31ZM39.91,32.7c-.09.28-.54.4-.89.27-.57-.21-1.09-1.13-1.74-.38s-1.81.43-2.7.75c-1.31.46.88,2.42-.33,3.12-.26.15-.57-.08-.77-.28-.53-.56-.08-1.89-.87-1.89-.34,0,.29,4.29-2.15,3.25-1.65-.7.64-3.12.32-3.12-.73,0-1.67,1.54-2,1.05s.88-1.84.57-2.12.17-.3-.33-.29-.37-.31-.44-.58c-.12-.47-1.16.55-1.34-.31-.08-.37.32-.41.47-.42s.2.19.29.17c1-.29,1.84-.49,1.84-1.7s-3-1-2.61-1.88c.62-1.43,1.91.29,2.59-.1s.14-1.53.81-1.74c.17-.06.25.4.39.59.39.49.55.15,1.05.27s.6-.63.61-1a2,2,0,0,0-.27-1.07c-.17-.37.35-.26.56-.2.78.21-.31,2.26.53,2.44.52.11.25.64.59.22.07-.09.08-.4.19-.4s.21.3.36.17.11-.77.41-.82.16.55.42.47.34-.47.45-.37c.43.37-.57,1.15-.18,1.51.19.18.44-.38.46-.27s-.33.38-.19.48c.51.35,2.3-.24,1.88-.65-.15-.15.19.12.16.22-.17.67-1.75.65-1.64,1.3.07.44-.62.56,0,.85.15.07,1.93,0,2.22,1C39,32.45,40.3,31.46,39.91,32.7Z"/></svg>