<svg id="Layer_1" data-name="Layer 1" xmlns="http://www.w3.org/2000/svg" viewBox="0 0 46.08 55.09"><title>Ikoner + vandmærker NY</title><path d="M46.08,33.57v.23c-.22,0-.45,0-.67,0L38.49,34l-10.07.26-4,.12-13.5.42-9,.26-.94,0C1,33,1.1,31,1.18,29a.52.52,0,0,1,.31-.35c.4-.12.81-.19,1.22-.28v-.16c-.4,0-.8-.08-1.19-.07S1,28,1,27.68C1,27.1,1,26.52,1,25.94c0-.76,0-1.52,0-2.33l7-.54v-.16a1.64,1.64,0,0,0-.26-.07c-2.31-.19-4.63-.39-6.94-.57-.37,0-.52-.11-.52-.52,0-1.07-.07-2.14-.12-3.2A6.05,6.05,0,0,0,0,17.8v-.34H1.08c-.4-.24-.85-.15-.81-.71.08-1.18.09-2.36.1-3.54,0-.39.08-.55.52-.57,2.6-.1,5.2-.23,7.81-.36A2.32,2.32,0,0,0,9,12.23v-.13L.84,11.77c0-.07-.08-.11-.08-.14C.82,9.87.87,8.11,1,6.35c0-.13.21-.32.36-.37a9.17,9.17,0,0,1,1.06-.25c0-.05,0-.1,0-.15-.38,0-.76-.09-1.13-.08S.71,5.41.71,5C.69,3.7.64,2.4.58,1.11.57.74.5.37.45,0H4.84a4.52,4.52,0,0,0,.6.09l2.87,0,34.86,0c.45,0,.9,0,1.35,0,.13,0,.35.17.36.29.16,1.54.29,3.09.42,4.64l-.77.25a.56.56,0,0,0,.39.22c.5,0,.67.26.67.79,0,1.26,0,2.51.08,3.77,0,.39-.15.42-.46.44l-8,.47a2.49,2.49,0,0,0-.39.09.63.63,0,0,0,.41.18l7.07.46c.29,0,.46.06.44.41q-.07,1.8-.1,3.6c0,.31-.11.43-.43.43s-.68,0-1,.08v.17c.24.06.49.13.73.17s.6.18.64.66c.09,1.23.27,2.45.4,3.68.11,1,.19,2,.29,3.08l-.39,0c-2.25,0-4.51,0-6.75.14-1.12.07-1.87-.19-2.23-1.29-.08-.23-.26-.41-.35-.64a8.06,8.06,0,0,1-.23-.85l-.49-.28.58-.47c-.8.09-1-.39-1.26-.84L30,12.56c-1.12-2-2.25-4-3.37-6a12.44,12.44,0,0,1-.5-1.15l.45-.56c-.95.23-1.15-.36-1.42-.87a10.07,10.07,0,0,0-.57-1,1.82,1.82,0,0,0-3.07,0c-.13.18-.24.38-.35.58L14,16.34c-.29.5-.49,1.12-1.27,1,0,0-.08.07-.15.13l.51.42c-1.34,2.36-2.66,4.69-4,7-.38.66-.57,1.51-1.78,1.41l.64.54c-.37.68-.74,1.34-1.09,2a1.84,1.84,0,0,0,0,2,1.87,1.87,0,0,0,1.74.83l13.56-.37c2.33-.06,4.65-.09,7-.14l3.49-.09L37.11,31a1.91,1.91,0,0,0,1.71-3c-.2-.38-.42-.75-.64-1.13l-1.33-2.37c2.88.1,5.65.2,8.42.32.11,0,.29.26.3.4,0,.56,0,1.13,0,1.69s.21,1.1-.67,1.29c1,0,.9.6.91,1.2,0,1.18.08,2.36.13,3.54a4,4,0,0,0,.12.6"/><path d="M17.69,47.8,17.23,47l.09-.12,1.85,1.5.14-.05-1.11-3.16c1.89,1.1,2.67,3,3.57,4.9a15.61,15.61,0,0,0-.24-5.87A9.2,9.2,0,0,1,23,48l.23-.56.17,1.42.87-2,.19,0v3l.15,0c.7-1.28,1.25-2.69,2.7-3.44l-1.13,2.75.16.13a4.24,4.24,0,0,1,4.35-1.22c-.83.37-1.64.64-2,1.37.83.25,1.62.44,2.36.74a4,4,0,0,1,1.13.91,5.9,5.9,0,0,0-3.26-.1l1.55,2-3-1,1.12,2.65a9.11,9.11,0,0,1-.77-.6,6.06,6.06,0,0,0-3.41-1.59c-.4-.05-.47.1-.43.48s0,1.06,0,1.7c-.44-.7-.78-1.25-1.14-1.79-.23-.34-.49-.32-.68,0-.37.69-.71,1.38-1.1,2.15l-.3-2.27A3.76,3.76,0,0,0,18.95,54c0-.45.06-.76.09-1.07.06-.52-.11-.74-.58-.54a21.51,21.51,0,0,0-2.11,1.13,4.46,4.46,0,0,0-.49.39,4.3,4.3,0,0,1,1-2.43,9,9,0,0,0-5.27,1.22c1.07-1.73,2.76-2.36,4.83-2.6a8,8,0,0,0-3.06-1c.69-.59.69-.59,4.47,0-.18-.3-.31-.55-.47-.79s-.35-.47-.6-.79l.83.43.09-.09"/><path d="M24.81,48.35,25,45.77l-1.31,1c-.21-.26,0-.88-.73-1.05A4.65,4.65,0,0,0,20.82,43l.67,4.65-.13,0c-.51-.67-1-1.34-1.53-2a.53.53,0,0,1-.06-.32c.09-1.68.19-3.37.26-5.05s.12-3.07.14-4.61c0-.47.15-.6.61-.6,1.37,0,2.74,0,4.11-.11.41,0,.54.11.55.53.1,3.05.22,6.11.34,9.16a8.33,8.33,0,0,0,.12,1.45,1.48,1.48,0,0,1-.47,1.51,4.66,4.66,0,0,0-.53.76l-.09,0"/><path d="M25.25,26.19a4,4,0,0,1-.18-.49,5.58,5.58,0,0,0-.21-.91c-.09-.2-.32-.45-.5-.46-.91,0-1.83,0-2.75,0a.44.44,0,0,0-.49.48c0,.54,0,1.08-.1,1.62a7,7,0,0,1-.23.92s.27.14.29.28c.09.51.45.47.81.47H24c.85,0,.89-.06,1-.93a4.92,4.92,0,0,1,.31-1M26,18.32V18.2c-.28-.06-.56-.1-.83-.18a1.26,1.26,0,0,1-.32-.23c.36-.42,0-.83,0-1.26.09-1.74.09-3.49.14-5.23,0-.42-.11-.64-.56-.64h-2.8c-.38,0-.53.19-.51.57,0,.54,0,1.08,0,1.62l-1.38.26v.15l1.4.3c-.06.17-.15.3-.14.42a8.9,8.9,0,0,1,.18.89c.06,2.34.12,4.69.14,7,0,.5.18.74.66.73l2.24,0c.42,0,.53-.22.53-.61,0-.88,0-1.76,0-2.64,0-.51.11-.88.73-.89a2,2,0,0,0,.51-.14M23.12,5.42,36.25,28.54l-26.59.64L23.12,5.42"/></svg>