<svg version="1.1" id="Layer_1" xmlns="http://www.w3.org/2000/svg" xmlns:xlink="http://www.w3.org/1999/xlink" x="0px" y="0px" viewBox="0 0 56 68" style="enable-background:new 0 0 56 68;" xml:space="preserve">
<path style="fill:#e29f35;" d="M30.918,46.442c0,0,2.749-5.317-0.105-7.692c0,0,1.646-5-0.875-5.813c0,0-1.146-0.563-1.938,3.938
 c0,0-4.063-2.75-6.188-2.938c0,0-0.813-0.188-1.063,0.375s-0.458,1.451,0,2.438c0.074,0.16,1.844,0.969,2.625,3.75
 c0,0,4.662,3.858,7.094,5.906C30.766,46.656,30.812,46.336,30.918,46.442z"/>
<path style="fill:#e29f35;" d="M26.75,35c0,0,1.438-2.75,2.188-3c0,0,0.625-2.125,0.313-4c0,0,0.938-0.438,0.938-2
 c0,0,0.188-1.063-1.688-0.938c0,0-0.688,0.875-1.75,1.375c0,0-1.75-1.25-2.625-3.813c0,0-0.5-0.5-0.688-1.875c0,0-0.375-0.5-1,0
 c0,0-1.25,1.125-1.625,3.375c0,0,0.875,0.938,0.813,2.438c0,0-0.375,2.063-0.813,2.375c0,0,0.125,1.25,1.063,2.313
 C21.875,31.25,25.938,33.875,26.75,35z"/>
<path style="fill:#e29f35;" d="M26.875,23.625c0,0,3-0.5,4.188-2.563c0,0,0.563-0.75,0-1.688c0,0-2.406-1.194-3.063,0.556
 c0,0-0.063,0.256-0.75-0.306c0,0,0.279-2.771-0.313-4.125c-0.205-0.471-0.648-0.119-1.063-0.313c0,0-1.513,0.625-1.325,3.375
 C24.55,18.563,24.375,20.188,26.875,23.625z"/>
<path style="fill:#e29f35;" d="M28.672,17.828c0,0-0.928-4.234,3.422-4.641c0.521-0.049,1.938,0.064,1.059,0.753
 c0,0-3.465,1.997-3.84,4.106C29.24,18.457,28.969,17.594,28.672,17.828z"/>
</svg>
