<svg id="Layer_1" data-name="Layer 1" xmlns="http://www.w3.org/2000/svg" viewBox="0 0 26.11 54.76"><title>Ikoner + vandmærker NY</title><path d="M21.51,48.19a1.58,1.58,0,0,0-1.58,1.58v3.42a1.58,1.58,0,0,0,3.15,0V49.77A1.58,1.58,0,0,0,21.51,48.19Z"/><path d="M4.54,48.19A1.58,1.58,0,0,0,3,49.77v3.42a1.58,1.58,0,0,0,3.15,0V49.77A1.58,1.58,0,0,0,4.54,48.19Z"/><path d="M22.62,16.13H19.71v-1a.34.34,0,0,0-.34-.34h.06V3.58h-.06a.34.34,0,0,0,.34-.34V.34A.34.34,0,0,0,19.36,0H6a.34.34,0,0,0-.34.34v2.9A.34.34,0,0,0,6,3.58H6V14.79H6a.34.34,0,0,0-.34.34v1H3.49A3.49,3.49,0,0,0,0,19.61V47.7c0,1.66.45,3,2,3.4V49.77a2.33,2.33,0,0,1,2.54-2.54,2.42,2.42,0,0,1,2.54,2.54v1.41H19V49.77a2.36,2.36,0,0,1,2.54-2.54A2.41,2.41,0,0,1,24,49.77v1.34c1.58-.33,2.06-1.73,2.06-3.41V19.61A3.49,3.49,0,0,0,22.62,16.13ZM6.7,3.58H6.64A.34.34,0,0,0,7,3.24V1.29H18.41V3.24a.34.34,0,0,0,.34.34h-.06V14.79h.06a.34.34,0,0,0-.34.34v1H17.18v-1.2a.2.2,0,0,0-.2-.2.2.2,0,0,0-.2.2v.57a.1.1,0,0,0,0,0s0-.09,0-1c0-1.25-1.31-1.13-1.31-1.13l-5.82,0A1.13,1.13,0,0,0,8.4,14.53v.37a.2.2,0,0,0-.2-.2.2.2,0,0,0-.2.2v1.23H7v-1a.34.34,0,0,0-.34-.34H6.7ZM8.86,15.85c.35,0,.44-.2.47-.32v.59H8.4v-.65C8.4,15.58,8.45,15.85,8.86,15.85Zm.67-1.15a.2.2,0,0,0-.2.17h0c0-.79,1-.85,1-.85h4.61a.85.85,0,0,1,.93.88.2.2,0,0,0-.4,0v1.2H9.73V14.9A.2.2,0,0,0,9.53,14.7Zm6.31.9c0,.16.11.26.52.27s.41-.22.41-.34v.58h-.93Z"/></svg>