<svg data-name="Layer 1" xmlns="http://www.w3.org/2000/svg" viewBox="0 0 53.33 41.48"><title>Ikoner + vandmærker NY</title><path d="M44.36.46l-.89-.1-1.86-.18C40.95.1 40.26.1 39.54.06S38.1 0 37.34 0h-2.27c-.76 0-1.52.11-2.26.16S31.34.3 30.63.4s-1.39.16-2 .29l-1.8.35-.8.16-.71.18-1 .25-.39 3.41a52.51 52.51 0 0 0-1.72 8.69c-7.78.19-16.4 2.27-21.74 6.55a20.52 20.52 0 0 0 .41 10.29l.12-.28a1.26 1.26 0 0 1 .82-.81A1.27 1.27 0 0 1 2 28.41l.37-.51a1.27 1.27 0 0 1 1-.52 1.27 1.27 0 0 1 .52-1l.51-.37a1.25 1.25 0 0 1 .74-.24h.4a1.27 1.27 0 0 1 .79-.75l.6-.2a1.27 1.27 0 0 1 1.13.18 1.27 1.27 0 0 1 1-.47h.63a1.26 1.26 0 0 1 1 .53 1.26 1.26 0 0 1 .69-.2 1.25 1.25 0 0 1 .39.06l.6.19a1.25 1.25 0 0 1 .73.63 1.28 1.28 0 0 1 .08.19 1.26 1.26 0 0 1 1.07.2l.51.37a1.25 1.25 0 0 1 .51.83 1.27 1.27 0 0 1 0 .2 1.27 1.27 0 0 1 1 .52l.37.51a1.26 1.26 0 0 1 .23.94 1.28 1.28 0 0 1 0 .2 1.27 1.27 0 0 1 .75.79l.19.6a1.25 1.25 0 0 1-.07 1H29.87v-.11a1.4 1.4 0 0 1 .46-.53l-.26-.15a1.41 1.41 0 0 1-.69-1.21v-.92a1.41 1.41 0 0 1 1-1.35l-.2-.22a1.41 1.41 0 0 1-.28-1.36l.28-.87a1.43 1.43 0 0 1 1.34-1l-.12-.27a1.41 1.41 0 0 1 .15-1.38l.54-.75a1.41 1.41 0 0 1 1.62-.5v-.3a1.41 1.41 0 0 1 .61-1.17l.75-.54a1.41 1.41 0 0 1 1.69 0l.07-.29a1.41 1.41 0 0 1 .94-1l.87-.28a1.41 1.41 0 0 1 1.6.55l.15-.25a1.41 1.41 0 0 1 1.21-.69h.92a1.41 1.41 0 0 1 1.35 1l.22-.2A1.41 1.41 0 0 1 45 18a1.39 1.39 0 0 1 .43.07l.35.11.25.08v-.08l.3.12.43.23.82.43 3.54 1.9V16l-1.07-.43a17.83 17.83 0 0 0-3.17-1.15l-.45-.12a41.5 41.5 0 0 0-.77-10.38l.54.13 1-3.1h-.07l-1-.15-.9-.13M45 13.94l-.89-.12c-.18 0-.38-.06-.54-.06h-2.12l-.59.05a15.81 15.81 0 0 0-2 .36V2.8a48.47 48.47 0 0 1 5.38.78A40.37 40.37 0 0 1 45 13.94zM25.87 3.59a42.23 42.23 0 0 1 9-1c.83 0 1.66 0 2.5.07v11.96c-.44.16-.88.33-1.31.52a15.91 15.91 0 0 0-2.18 1.21c-.34.22-.66.48-1 .72s-.61.52-.9.77-.54.54-.81.8-.48.56-.71.82-.47.61-.68.92h-4.86l.26-3.23 3-1.4.08.18a1.32 1.32 0 0 0 1 .74l.82.12.64 1.35a.47.47 0 0 0 .86-.41L28.39 11a.47.47 0 0 0-.86.41l.64 1.35-.43.71a1.32 1.32 0 0 0-.06 1.24l.08.17-2.5 1.17v-.56l1-.55a.44.44 0 0 0 .23-.33l.42-3.4a.23.23 0 0 0-.25-.25 6.43 6.43 0 0 0-2.85.91 50.48 50.48 0 0 1 2.06-8.28z"/><path d="M1.6 35.21a.31.31 0 0 0 0 .24l.19.6a.31.31 0 0 0 .23.21l.66.15q.14.32.31.62l-.34.25a.31.31 0 0 0-.07.44l.37.51a.32.32 0 0 0 .25.13l.68-.06q.23.26.49.49l-.25.35a.31.31 0 0 0 .07.44l.51.37a.31.31 0 0 0 .2.05H5l.62-.27q.3.17.62.31l-.13.4a.31.31 0 0 0 .2.4l.6.19L7 41a.32.32 0 0 0 .21-.08l.5-.44c.23 0 .45.08.69.11V41a.31.31 0 0 0 .31.31h.63a.31.31 0 0 0 .27-.15l.34-.58c.23 0 .46-.06.69-.11l.13.4a.31.31 0 0 0 .3.22h.1l.6-.19a.31.31 0 0 0 .21-.23l.15-.66q.32-.14.62-.31l.25.3a.31.31 0 0 0 .44.07l.51-.37a.32.32 0 0 0 .13-.28l-.08-.64q.26-.23.49-.49l.35.25a.31.31 0 0 0 .44-.07l.37-.51a.31.31 0 0 0 0-.31l-.21-.65q.17-.3.31-.62l.4.13h.1a.31.31 0 0 0 .3-.22l.19-.6a.31.31 0 0 0-.06-.31l-.44-.5c0-.23.08-.46.11-.69h.42a.31.31 0 0 0 .31-.31v-.63a.32.32 0 0 0-.15-.27l-.58-.34c0-.23-.06-.46-.11-.69l.4-.13a.31.31 0 0 0 .2-.4l-.19-.6a.31.31 0 0 0-.23-.21l-.66-.15q-.14-.32-.31-.62l.34-.25a.31.31 0 0 0 .07-.44l-.37-.51a.31.31 0 0 0-.25-.13l-.68.06q-.23-.26-.49-.49l.25-.35a.31.31 0 0 0-.07-.44l-.53-.29a.31.31 0 0 0-.18-.06h-.12l-.62.27q-.3-.17-.62-.31l.13-.4a.31.31 0 0 0-.2-.4l-.6-.19h-.1a.31.31 0 0 0-.21.08l-.5.44c-.23 0-.45-.08-.69-.11v-.42a.31.31 0 0 0-.31-.31h-.64a.31.31 0 0 0-.27.15l-.34.58c-.23 0-.46.06-.69.11L7.63 26a.31.31 0 0 0-.3-.22h-.1l-.6.19a.32.32 0 0 0-.21.23l-.15.66q-.32.14-.62.31l-.25-.34a.31.31 0 0 0-.21-.13.31.31 0 0 0-.19.06l-.51.37a.32.32 0 0 0-.13.28l.06.68q-.26.23-.49.49l-.35-.25a.31.31 0 0 0-.44.07l-.39.6a.31.31 0 0 0 0 .31l.25.59q-.17.3-.31.62l-.4-.13h-.1a.32.32 0 0 0-.3.22l-.19.6a.31.31 0 0 0 .06.31l.44.5c0 .23-.08.46-.11.69h-.43a.31.31 0 0 0-.31.31v.63a.31.31 0 0 0 .15.27l.58.34c0 .23.06.46.11.69l-.4.13a.31.31 0 0 0-.19.13zm7.61-6.79a5 5 0 1 1-5 5 5.05 5.05 0 0 1 5.01-5z"/><path d="M9.22 37.61a4.14 4.14 0 1 0-4.14-4.14 4.15 4.15 0 0 0 4.14 4.14z"/><circle cx="9.22" cy="33.47" r=".77"/><circle cx="9.22" cy="32.08" r=".26"/><circle cx="9.22" cy="34.85" r=".26"/><circle cx="10.19" cy="32.49" r=".26" transform="rotate(-45 10.2 32.495)"/><circle cx="8.24" cy="34.44" r=".26" transform="rotate(-45 8.235 34.44)"/><circle cx="10.6" cy="33.47" r=".26"/><circle cx="7.83" cy="33.47" r=".26"/><circle cx="10.19" cy="34.44" r=".26" transform="rotate(-45 10.198 34.446)"/><circle cx="8.24" cy="32.49" r=".26" transform="rotate(-45 8.237 32.488)"/><path d="M41.82 24.58a5.4 5.4 0 1 0 5.4 5.4 5.41 5.41 0 0 0-5.4-5.4z"/><path d="M50.62 22.84l-1 .09q-.34-.38-.72-.72l.36-.49a.46.46 0 0 0-.1-.64l-.74-.54a.46.46 0 0 0-.27-.09.46.46 0 0 0-.18 0l-.9.39q-.44-.25-.9-.46l.19-.58a.46.46 0 0 0-.3-.58l-.9-.22h-.14a.46.46 0 0 0-.3.11l-.72.59q-.49-.1-1-.16v-.61a.46.46 0 0 0-.46-.46h-.92a.46.46 0 0 0-.4.23l-.5.84q-.51.05-1 .16l-.19-.58a.46.46 0 0 0-.44-.32h-.14l-.88.28a.46.46 0 0 0-.31.34l-.21 1q-.47.21-.91.46l-.36-.5a.46.46 0 0 0-.64-.1l-.74.54a.46.46 0 0 0-.19.41l.09 1q-.38.34-.72.72l-.49-.36a.46.46 0 0 0-.64.1l-.54.74a.46.46 0 0 0-.05.45l.39.9q-.25.44-.46.9l-.58-.19h-.14a.46.46 0 0 0-.44.32l-.28.87a.46.46 0 0 0 .09.45l.65.73q-.1.49-.16 1h-.61a.46.46 0 0 0-.46.46v.92a.46.46 0 0 0 .23.4l.84.5q.05.51.16 1l-.59.16a.46.46 0 0 0-.3.58l.28.88a.46.46 0 0 0 .34.31l1 .21q.21.47.46.91l-.5.36a.46.46 0 0 0-.1.64l.54.74a.46.46 0 0 0 .37.19L34 37q.34.38.72.72l-.36.49a.46.46 0 0 0 .1.64l.74.54a.46.46 0 0 0 .45.05l.9-.39q.44.25.9.46l-.19.58a.46.46 0 0 0 .3.58l.87.28h.14a.46.46 0 0 0 .3-.11l.74-.65q.49.1 1 .16V41a.46.46 0 0 0 .46.46h.92a.46.46 0 0 0 .4-.23l.5-.84q.51-.05 1-.16l.19.58a.46.46 0 0 0 .44.32h.14l.87-.28a.46.46 0 0 0 .31-.34l.21-1q.47-.21.91-.46l.36.5a.46.46 0 0 0 .64.1l.74-.54a.46.46 0 0 0 .19-.42l-.09-1q.38-.34.72-.72l.49.36a.46.46 0 0 0 .27.09h.07a.46.46 0 0 0 .3-.18l.54-.74a.46.46 0 0 0 .05-.45l-.39-.9q.25-.44.46-.9l.58.19h.14a.46.46 0 0 0 .44-.32l.28-.88a.46.46 0 0 0-.09-.45l-.65-.73q.1-.49.16-1h.61a.46.46 0 0 0 .46-.46v-.92a.46.46 0 0 0-.23-.4l-.84-.5q-.05-.51-.16-1l.58-.19a.46.46 0 0 0 .3-.58l-.28-.88a.46.46 0 0 0-.34-.31l-1-.21q-.21-.47-.46-.91l.5-.36a.46.46 0 0 0 .1-.64L51 23a.46.46 0 0 0-.38-.16zm-8.8 13.44a6.3 6.3 0 1 1 6.3-6.3 6.31 6.31 0 0 1-6.3 6.3z"/><circle cx="41.82" cy="29.98" r=".77"/><circle cx="41.82" cy="28.59" r=".26"/><circle cx="41.82" cy="31.36" r=".26"/><circle cx="42.8" cy="29" r=".26" transform="rotate(-45 42.802 29)"/><circle cx="40.84" cy="30.95" r=".26" transform="rotate(-45 40.833 30.957)"/><circle cx="43.2" cy="29.98" r=".26"/><circle cx="40.44" cy="29.98" r=".26"/><circle cx="42.8" cy="30.95" r=".26" transform="rotate(-45 42.8 30.95)"/><circle cx="40.84" cy="29" r=".26" transform="rotate(-45 40.84 28.994)"/></svg>