<svg id="Layer_1" data-name="Layer 1" xmlns="http://www.w3.org/2000/svg" viewBox="0 0 32.17 82"><defs><style>.cls-1{fill:#231f20;}</style></defs><title>Vector Smart Object1</title><path class="cls-1" d="M15.66,25.39s.31-.08,5.82-3.05c4.63-2.5,4.9-6.23,4.4-7.85l-.22-.74s-4.52,1.59-7.24,2.65L15.13,4.31a5.87,5.87,0,0,0-3.89,3.92c-1.14,4,4.42,17.16,4.42,17.16"/><path class="cls-1" d="M26.82,1A26.45,26.45,0,0,1,31.44,1s-3.55,3.85-5.81,6.25a7.37,7.37,0,0,1-3.19,2.19c-1.45.4-2.67.63-2.67.63s.33-4.45,1.27-6A7.88,7.88,0,0,1,26.82,1"/><path class="cls-1" d="M17,73.52c4.83,2,8.45,7.81,8.45,7.81s2.63-6,2.89-8.6c.5-5.14-3-8.43-4.58-10.54a12.86,12.86,0,0,0,2-4c.85-3.53-1-8.87-2.91-9.54,0,0-1.51,7.29-4.7,11.77L1,50.7l0,.85c-.1,2.89.82,6.66,5.91,10.06C6.73,64.2,7.4,67.25,9,69c1.22,1.32,2,2,8,4.53"/><path class="cls-1" d="M4.85,44.7l11.7,8.95a35,35,0,0,0,4.53-9.94A14.65,14.65,0,0,0,21,36.09a14.39,14.39,0,0,0,2.26-3.42c1-2.5-1-5-1-5L14.88,33.4A116.68,116.68,0,0,1,6.3,16.67s-4.22,4.57-4.25,9.26a8.09,8.09,0,0,0,1.88,5.2C3,34,1.2,41.19,4.85,44.7"/></svg>