<svg id="Layer_1" data-name="Layer 1" xmlns="http://www.w3.org/2000/svg" viewBox="0 0 68.33 68.5"><defs><style>.cls-1{fill:#231f20;}</style></defs><title>Vector Smart Object1</title><path class="cls-1" d="M35.54,12.54c0,1-.57,1.73-1.28,1.73h0c-.7,0-1.28-.77-1.28-1.73V5.64c0-1,.58-1.73,1.28-1.73h0c.71,0,1.28.77,1.28,1.73Z"/><path class="cls-1" d="M35.54,62.43c0,1-.57,1.73-1.28,1.73h0c-.7,0-1.28-.78-1.28-1.73V55.52c0-1,.58-1.73,1.28-1.73h0c.71,0,1.28.78,1.28,1.73Z"/><path class="cls-1" d="M55.75,35.65c-1,0-1.72-.58-1.72-1.28h0c0-.71.77-1.28,1.72-1.28h6.91c1,0,1.73.57,1.73,1.28h0c0,.7-.78,1.28-1.73,1.28Z"/><path class="cls-1" d="M5.87,35.65c-1,0-1.73-.58-1.73-1.28h0c0-.71.77-1.28,1.73-1.28h6.9c1,0,1.73.57,1.73,1.28h0c0,.7-.77,1.28-1.73,1.28Z"/><polygon class="cls-1" points="22.71 45.47 20.81 42.72 33.64 33.84 17.8 18 20.16 15.64 38.83 34.31 22.71 45.47"/><path class="cls-1" d="M34.1,67.6A33.4,33.4,0,1,1,67.49,34.2,33.43,33.43,0,0,1,34.1,67.6Zm0-61.19A27.79,27.79,0,1,0,61.89,34.2,27.83,27.83,0,0,0,34.1,6.41Z"/></svg>