<svg id="Layer_1" data-name="Layer 1" xmlns="http://www.w3.org/2000/svg" viewBox="0 0 64.83 62.17"><defs><style>.cls-1{fill:#231f20;}</style></defs><title>Vector Smart Object1</title><path class="cls-1" d="M27.09,47.16c-6.93,0-10.71-4.06-10.71-11.48,0-10.92,7.42-19,16.1-19,4.06,0,6.72,1.54,8.47,4.83l1.89-3.64h5.25l-5,20a10.34,10.34,0,0,0-.28,1.68c0,1.75,1.33,2.87,3.29,2.87,2.17,0,4.9-1.33,7.28-3.92a19.47,19.47,0,0,0,5-13.45c0-11.34-9.1-19.46-23.1-19.46a29.25,29.25,0,0,0-16.1,4.27A26.93,26.93,0,0,0,6.29,33.3c0,14.21,10.37,23.45,26.26,23.45a36.74,36.74,0,0,0,21-6.51l2.31,3.36a37.47,37.47,0,0,1-23,7.77c-8.82,0-16.1-2.24-21.64-6.51C4.12,49.47.69,42.33.69,33.23a31.29,31.29,0,0,1,7-20C14.35,5.08,23.87.74,35.49.74,43.26.74,50.26,3,55,6.62A22,22,0,0,1,64,25a23.23,23.23,0,0,1-8.54,18.41,17.28,17.28,0,0,1-10.85,3.85c-4.83,0-7.14-1.82-7.14-5.67v-.14A11.22,11.22,0,0,1,27.09,47.16ZM33.18,20.9c-5.74,0-10.5,6.66-10.5,15,0,4.55,2.17,7,5.95,7,4,0,7.77-3.22,9-8.19l1.89-7.77C38.85,23.07,36.61,20.9,33.18,20.9Z"/></svg>