<svg id="Layer_1" data-name="Layer 1" xmlns="http://www.w3.org/2000/svg" viewBox="0 0 32.29 54.75"><defs><style>.cls-1{fill-rule:evenodd;}</style></defs><title>Ikoner + vandmærker NY</title><path class="cls-1" d="M15.45,14.79A12.58,12.58,0,1,1,2.84,27.35,12.58,12.58,0,0,1,15.45,14.79Zm7.77-2.38C23,9.21,22.69,6,22.31,2.67,21.9-.87,9.06-.9,8.64,2.65c-.39,3.3-.71,6.54-1,9.74a16.89,16.89,0,0,1,15.54,0Zm-1,39.69c.39-3.3.71-6.54,1-9.74a16.89,16.89,0,0,1-15.54,0c.23,3.2.53,6.44.91,9.74C8.95,55.62,21.79,55.65,22.21,52.1ZM31,25h.33a.94.94,0,0,1,.94.94v3a.94.94,0,0,1-.94.94H31a.93.93,0,0,1-.35-.07,15.36,15.36,0,0,1-3.53,7.64l-2,6.39-1.48.59v-4a15.43,15.43,0,0,1-16.56,0v4l-1.48-.6-2-6.39a15.42,15.42,0,0,1,0-20l2-6.39,1.48-.59v4a15.43,15.43,0,0,1,16.56,0v-4l1.48.6,2,6.39A15.36,15.36,0,0,1,30.67,25,.93.93,0,0,1,31,25ZM16.09,28.15a1,1,0,0,1-1.59-.35L10,23.12l.09-.11,5.52,3.32,10.68-2.5,0,.13Z"/><rect x="15.27" y="15.96" width="0.46" height="2.81"/><rect x="15.27" y="35.98" width="0.46" height="2.81"/><rect x="20.25" y="17.29" width="0.46" height="2.81" transform="translate(12.01 -7.71) rotate(29.83)"/><rect x="10.29" y="34.65" width="0.46" height="2.81" transform="translate(19.33 -0.45) rotate(29.83)"/><rect x="23.96" y="21.01" width="0.46" height="2.81" transform="translate(31.68 -9.7) rotate(60.31)"/><rect x="6.57" y="30.93" width="0.46" height="2.81" transform="translate(31.52 10.41) rotate(60.31)"/><rect x="25.28" y="25.97" width="0.46" height="2.81" transform="translate(52.88 1.87) rotate(90)"/><rect x="5.26" y="25.97" width="0.46" height="2.81" transform="translate(32.86 21.89) rotate(90)"/><rect x="23.91" y="31.01" width="0.46" height="2.81" transform="translate(64.31 27.9) rotate(120.26)"/><rect x="6.62" y="20.93" width="0.46" height="2.81" transform="translate(29.59 27.67) rotate(120.26)"/><rect x="20.27" y="34.64" width="0.46" height="2.81" transform="translate(56.26 57.03) rotate(150.03)"/><rect x="10.27" y="17.3" width="0.46" height="2.81" transform="translate(28.93 29.66) rotate(150.03)"/></svg>